<?xml version="1.0" encoding="utf-8"?>
<svg version="1.1" xmlns:xlink="http://www.w3.org/1999/xlink" width="184px" height="36px" viewBox="766 165  184 36" xmlns="http://www.w3.org/2000/svg">
  <path d="M 767 170  A 4 4 0 0 1 771 166 L 945 166  A 4 4 0 0 1 949 170 L 949 196  A 4 4 0 0 1 945 200 L 771 200  A 4 4 0 0 1 767 196 L 767 170  Z " fill-rule="nonzero" fill="#ffffff" stroke="none" />
  <path d="M 766.5 170  A 4.5 4.5 0 0 1 771 165.5 L 945 165.5  A 4.5 4.5 0 0 1 949.5 170 L 949.5 196  A 4.5 4.5 0 0 1 945 200.5 L 771 200.5  A 4.5 4.5 0 0 1 766.5 196 L 766.5 170  Z " stroke-width="1" stroke="#797979" fill="none" stroke-opacity="0.156862745098039" />
</svg>