<?xml version="1.0" encoding="utf-8"?>
<svg version="1.1" xmlns:xlink="http://www.w3.org/1999/xlink" width="1302px" height="1467px" xmlns="http://www.w3.org/2000/svg">
  <g transform="matrix(1 0 0 1 -1 -1 )">
    <path d="M 2 3  A 1 1 0 0 1 3 2 L 1301 2  A 1 1 0 0 1 1302 3 L 1302 1466  A 1 1 0 0 1 1301 1467 L 3 1467  A 1 1 0 0 1 2 1466 L 2 3  Z " fill-rule="nonzero" fill="#bcbcbc" stroke="none" fill-opacity="0.0666666666666667" />
    <path d="M 1.5 3  A 1.5 1.5 0 0 1 3 1.5 L 1301 1.5  A 1.5 1.5 0 0 1 1302.5 3 L 1302.5 1466  A 1.5 1.5 0 0 1 1301 1467.5 L 3 1467.5  A 1.5 1.5 0 0 1 1.5 1466 L 1.5 3  Z " stroke-width="1" stroke="#cccccc" fill="none" stroke-opacity="0.129411764705882" />
  </g>
</svg>