<?xml version="1.0" encoding="utf-8"?>
<svg version="1.1" xmlns:xlink="http://www.w3.org/1999/xlink" width="300px" height="322px" xmlns="http://www.w3.org/2000/svg">
  <defs>
    <mask fill="white" id="clip1824">
      <path d="M 401 366  C 398.225 366  396 363.775  396 361  L 396 49  C 396 46.225  398.225 44  401 44  L 691 44  C 693.775 44  696 46.225  696 49  L 696 361  C 696 363.775  693.775 366  691 366  " fill-rule="evenodd" />
    </mask>
  </defs>
  <g transform="matrix(1 0 0 1 -396 -44 )">
    <path d="M 396 44  L 696 44  L 696 366  L 396 366  L 396 44  " fill-rule="nonzero" fill="#cccccc" stroke="none" mask="url(#clip1824)" />
    <path d="M 417 65  L 675 65  L 675 345  L 417 345  L 417 65  " fill-rule="nonzero" fill="#ffffff" stroke="none" mask="url(#clip1824)" />
    <path d="M 574.5 137.3  C 561.9 137.3  552 127.4  552 114.8  C 552 102.2  561.9 92.3  574.5 92.3  C 587.1 92.3  597 102.2  597 114.8  C 597 127.4  587.1 137.3  574.5 137.3  " fill-rule="nonzero" fill="#cccccc" stroke="none" mask="url(#clip1824)" />
    <path d="M 425 338  L 425 192.25  L 485.75 126  L 570.8 179  L 619.4 165.75  L 668 179  L 668 338  L 425 338  " fill-rule="nonzero" fill="#169bd5" stroke="none" mask="url(#clip1824)" />
  </g>
</svg>