<?xml version="1.0" encoding="utf-8"?>
<svg version="1.1" xmlns:xlink="http://www.w3.org/1999/xlink" width="12px" height="12px" viewBox="550 526.5  12 12" xmlns="http://www.w3.org/2000/svg">
  <path d="M 550.5 531.5  A 4.5 4.5 0 0 1 555 527 L 557 527  A 4.5 4.5 0 0 1 561.5 531.5 L 561.5 533.5  A 4.5 4.5 0 0 1 557 538 L 555 538  A 4.5 4.5 0 0 1 550.5 533.5 L 550.5 531.5  Z " fill-rule="nonzero" fill="#ffffff" stroke="none" />
  <path d="M 550.5 531.5  A 4.5 4.5 0 0 1 555 527 L 557 527  A 4.5 4.5 0 0 1 561.5 531.5 L 561.5 533.5  A 4.5 4.5 0 0 1 557 538 L 555 538  A 4.5 4.5 0 0 1 550.5 533.5 L 550.5 531.5  Z " stroke-width="1" stroke="#797979" fill="none" />
</svg>