<?xml version="1.0" encoding="utf-8"?>
<svg version="1.1" xmlns:xlink="http://www.w3.org/1999/xlink" width="12px" height="12px" viewBox="391 526.5  12 12" xmlns="http://www.w3.org/2000/svg">
  <path d="M 391.5 531.5  A 4.5 4.5 0 0 1 396 527 L 398 527  A 4.5 4.5 0 0 1 402.5 531.5 L 402.5 533.5  A 4.5 4.5 0 0 1 398 538 L 396 538  A 4.5 4.5 0 0 1 391.5 533.5 L 391.5 531.5  Z " fill-rule="nonzero" fill="#f0f0f0" stroke="none" />
  <path d="M 391.5 531.5  A 4.5 4.5 0 0 1 396 527 L 398 527  A 4.5 4.5 0 0 1 402.5 531.5 L 402.5 533.5  A 4.5 4.5 0 0 1 398 538 L 396 538  A 4.5 4.5 0 0 1 391.5 533.5 L 391.5 531.5  Z " stroke-width="1" stroke="#797979" fill="none" />
</svg>