<?xml version="1.0" encoding="utf-8"?>
<svg version="1.1" xmlns:xlink="http://www.w3.org/1999/xlink" width="760px" height="615px" xmlns="http://www.w3.org/2000/svg">
  <g>
    <path d="M 1 5  A 4 4 0 0 1 5 1 L 755 1  A 4 4 0 0 1 759 5 L 759 610  A 4 4 0 0 1 755 614 L 5 614  A 4 4 0 0 1 1 610 L 1 5  Z " fill-rule="nonzero" fill="#ffffff" stroke="none" />
    <path d="M 0.5 5  A 4.5 4.5 0 0 1 5 0.5 L 755 0.5  A 4.5 4.5 0 0 1 759.5 5 L 759.5 610  A 4.5 4.5 0 0 1 755 614.5 L 5 614.5  A 4.5 4.5 0 0 1 0.5 610 L 0.5 5  Z " stroke-width="1" stroke="#797979" fill="none" stroke-opacity="0.196078431372549" />
  </g>
</svg>