<?xml version="1.0" encoding="utf-8"?>
<svg version="1.1" xmlns:xlink="http://www.w3.org/1999/xlink" width="12px" height="12px" viewBox="471 526.5  12 12" xmlns="http://www.w3.org/2000/svg">
  <path d="M 471.5 531.5  A 4.5 4.5 0 0 1 476 527 L 478 527  A 4.5 4.5 0 0 1 482.5 531.5 L 482.5 533.5  A 4.5 4.5 0 0 1 478 538 L 476 538  A 4.5 4.5 0 0 1 471.5 533.5 L 471.5 531.5  Z " fill-rule="nonzero" fill="#ffffff" stroke="none" />
  <path d="M 471.5 531.5  A 4.5 4.5 0 0 1 476 527 L 478 527  A 4.5 4.5 0 0 1 482.5 531.5 L 482.5 533.5  A 4.5 4.5 0 0 1 478 538 L 476 538  A 4.5 4.5 0 0 1 471.5 533.5 L 471.5 531.5  Z " stroke-width="1" stroke="#797979" fill="none" />
</svg>