<?xml version="1.0" encoding="utf-8"?>
<svg version="1.1" xmlns:xlink="http://www.w3.org/1999/xlink" width="561px" height="113px" viewBox="119 349  561 113" xmlns="http://www.w3.org/2000/svg">
  <path d="M 120 354  A 4 4 0 0 1 124 350 L 675 350  A 4 4 0 0 1 679 354 L 679 457  A 4 4 0 0 1 675 461 L 124 461  A 4 4 0 0 1 120 457 L 120 354  Z " fill-rule="nonzero" fill="#ffffff" stroke="none" />
  <path d="M 119.5 354  A 4.5 4.5 0 0 1 124 349.5 L 675 349.5  A 4.5 4.5 0 0 1 679.5 354 L 679.5 457  A 4.5 4.5 0 0 1 675 461.5 L 124 461.5  A 4.5 4.5 0 0 1 119.5 457 L 119.5 354  Z " stroke-width="1" stroke="#797979" fill="none" stroke-opacity="0.250980392156863" />
</svg>