<?xml version="1.0" encoding="utf-8"?>
<svg version="1.1" xmlns:xlink="http://www.w3.org/1999/xlink" width="266px" height="45px" xmlns="http://www.w3.org/2000/svg">
  <defs>
    <linearGradient gradientUnits="userSpaceOnUse" x1="1080" y1="133" x2="1080" y2="178" id="LinearGradient476">
      <stop id="Stop477" stop-color="#f2f2f2" offset="0" />
      <stop id="Stop478" stop-color="#e4e4e4" offset="1" />
      <stop id="Stop479" stop-color="#ffffff" offset="1" />
    </linearGradient>
  </defs>
  <g transform="matrix(1 0 0 1 -947 -133 )">
    <path d="M 947.5 155.5  A 22 22 0 0 1 969.5 133.5 L 1190.5 133.5  A 22 22 0 0 1 1212.5 155.5 A 22 22 0 0 1 1190.5 177.5 L 969.5 177.5  A 22 22 0 0 1 947.5 155.5 Z " fill-rule="nonzero" fill="#ffffff" stroke="none" />
    <path d="M 947.5 155.5  A 22 22 0 0 1 969.5 133.5 L 1190.5 133.5  A 22 22 0 0 1 1212.5 155.5 A 22 22 0 0 1 1190.5 177.5 L 969.5 177.5  A 22 22 0 0 1 947.5 155.5 Z " stroke-width="1" stroke="url(#LinearGradient476)" fill="none" />
  </g>
</svg>