<?xml version="1.0" encoding="utf-8"?>
<svg version="1.1" xmlns:xlink="http://www.w3.org/1999/xlink" width="27px" height="30px" xmlns="http://www.w3.org/2000/svg">
  <g transform="matrix(1 0 0 1 -1242 -141 )">
    <path d="M 13.5 28.6607142857143  C 13.6730769230769 28.6607142857143  13.7596153846154 28.5714285714286  13.7596153846154 28.3928571428571  C 13.7596153846154 28.2142857142857  13.6730769230769 28.125  13.5 28.125  C 12.8617788461538 28.125  12.3128004807692 27.8878348214286  11.8530649038462 27.4135044642857  C 11.3933293269231 26.9391741071429  11.1634615384615 26.3727678571429  11.1634615384615 25.7142857142857  C 11.1634615384615 25.5357142857143  11.0769230769231 25.4464285714286  10.9038461538462 25.4464285714286  C 10.7307692307692 25.4464285714286  10.6442307692308 25.5357142857143  10.6442307692308 25.7142857142857  C 10.6442307692308 26.5290178571429  10.9227764423077 27.2237723214286  11.4798677884615 27.7985491071429  C 12.0369591346154 28.3733258928571  12.7103365384615 28.6607142857143  13.5 28.6607142857143  Z M 25.5234375 22.0982142857143  C 25.9669471153846 22.6116071428571  26.4591346153846 23.1026785714286  27 23.5714285714286  C 27 24.1517857142857  26.7944711538462 24.6540178571429  26.3834134615385 25.078125  C 25.9723557692308 25.5022321428571  25.4855769230769 25.7142857142857  24.9230769230769 25.7142857142857  L 17.6538461538462 25.7142857142857  C 17.6538461538462 26.8973214285714  17.2481971153846 27.9073660714286  16.4368990384615 28.7444196428571  C 15.6256009615385 29.5814732142857  14.6466346153846 30  13.5 30  C 12.3533653846154 30  11.3743990384615 29.5814732142857  10.5631009615385 28.7444196428571  C 9.75180288461539 27.9073660714286  9.34615384615385 26.8973214285714  9.34615384615385 25.7142857142857  L 2.07692307692308 25.7142857142857  C 1.51442307692308 25.7142857142857  1.02764423076923 25.5022321428571  0.616586538461538 25.078125  C 0.205528846153846 24.6540178571429  0 24.1517857142857  0 23.5714285714286  C 0.540865384615385 23.1026785714286  1.03305288461538 22.6116071428571  1.4765625 22.0982142857143  C 1.92007211538462 21.5848214285714  2.37980769230769 20.91796875  2.85576923076923 20.09765625  C 3.33173076923077 19.27734375  3.73467548076923 18.3928571428571  4.06460336538462 17.4441964285714  C 4.39453125 16.4955357142857  4.66496394230769 15.3459821428571  4.87590144230769 13.9955357142857  C 5.08683894230769 12.6450892857143  5.19230769230769 11.1941964285714  5.19230769230769 9.64285714285714  C 5.19230769230769 7.94642857142857  5.82512019230769 6.36997767857143  7.09074519230769 4.91350446428571  C 8.35637019230769 3.45703125  10.0168269230769 2.57254464285714  12.0721153846154 2.26004464285714  C 11.9855769230769 2.04799107142857  11.9423076923077 1.83035714285714  11.9423076923077 1.60714285714286  C 11.9423076923077 1.16071428571428  12.09375 0.781249999999999  12.3966346153846 0.46875  C 12.6995192307692 0.156250000000001  13.0673076923077 0  13.5 0  C 13.9326923076923 0  14.3004807692308 0.156250000000001  14.6033653846154 0.46875  C 14.90625 0.781249999999999  15.0576923076923 1.16071428571428  15.0576923076923 1.60714285714286  C 15.0576923076923 1.83035714285714  15.0144230769231 2.04799107142857  14.9278846153846 2.26004464285714  C 16.9831730769231 2.57254464285714  18.6436298076923 3.45703125  19.9092548076923 4.91350446428571  C 21.1748798076923 6.36997767857143  21.8076923076923 7.94642857142857  21.8076923076923 9.64285714285714  C 21.8076923076923 11.1941964285714  21.9131610576923 12.6450892857143  22.1240985576923 13.9955357142857  C 22.3350360576923 15.3459821428571  22.60546875 16.4955357142857  22.9353966346154 17.4441964285714  C 23.2653245192308 18.3928571428571  23.6682692307692 19.27734375  24.1442307692308 20.09765625  C 24.6201923076923 20.91796875  25.0799278846154 21.5848214285714  25.5234375 22.0982142857143  Z " fill-rule="nonzero" fill="#000000" stroke="none" transform="matrix(1 0 0 1 1242 141 )" />
  </g>
</svg>