<?xml version="1.0" encoding="utf-8"?>
<svg version="1.1" xmlns:xlink="http://www.w3.org/1999/xlink" width="120px" height="120px" xmlns="http://www.w3.org/2000/svg">
  <defs>
    <mask fill="white" id="clip491">
      <path d="M 383 3395  C 349.7 3395  323 3368.3  323 3335  L 323 3335  C 323 3301.7  349.7 3275  383 3275  L 383 3275  C 416.3 3275  443 3301.7  443 3335  L 443 3335  C 443 3368.3  416.3 3395  383 3395  " fill-rule="evenodd" />
    </mask>
  </defs>
  <g transform="matrix(1 0 0 1 -323 -3275 )">
    <path d="M 323 3275  L 443 3275  L 443 3395  L 323 3395  L 323 3275  " fill-rule="nonzero" fill="#cccccc" stroke="none" mask="url(#clip491)" />
    <path d="M 331 3283  L 435 3283  L 435 3387  L 331 3387  L 331 3283  " fill-rule="nonzero" fill="#ffffff" stroke="none" mask="url(#clip491)" />
    <path d="M 394.4 3311  C 389.36 3311  385.4 3307.04  385.4 3302  C 385.4 3296.96  389.36 3293  394.4 3293  C 399.44 3293  403.4 3296.96  403.4 3302  C 403.4 3307.04  399.44 3311  394.4 3311  " fill-rule="nonzero" fill="#cccccc" stroke="none" mask="url(#clip491)" />
    <path d="M 334 3384  L 334 3330.1  L 358.5 3305.6  L 392.8 3325.2  L 412.4 3320.3  L 432 3325.2  L 432 3384  L 334 3384  " fill-rule="nonzero" fill="#169bd5" stroke="none" mask="url(#clip491)" />
  </g>
</svg>