<?xml version="1.0" encoding="utf-8"?>
<svg version="1.1" xmlns:xlink="http://www.w3.org/1999/xlink" width="35px" height="35px" xmlns="http://www.w3.org/2000/svg">
  <g transform="matrix(1 0 0 1 -1398 -3397 )">
    <path d="M 15.3125 29.3033854166667  C 15.7074652777778 29.3033854166667  16.0492621527778 29.1590711805556  16.337890625 28.8704427083333  L 26.6829427083333 18.525390625  C 26.9715711805556 18.2367621527778  27.1158854166667 17.8949652777778  27.1158854166667 17.5  C 27.1158854166667 17.1050347222222  26.9715711805556 16.7632378472222  26.6829427083333 16.474609375  L 16.337890625 6.12955729166667  C 16.0492621527778 5.84092881944444  15.7074652777778 5.69661458333333  15.3125 5.69661458333333  C 14.9175347222222 5.69661458333333  14.5757378472222 5.84092881944444  14.287109375 6.12955729166667  L 11.962890625 8.45377604166667  C 11.6742621527778 8.74240451388889  11.5299479166667 9.08420138888889  11.5299479166667 9.47916666666667  C 11.5299479166667 9.87413194444444  11.6742621527778 10.2159288194444  11.962890625 10.5045572916667  L 18.9583333333333 17.5  L 11.962890625 24.4954427083333  C 11.6742621527778 24.7840711805556  11.5299479166667 25.1258680555556  11.5299479166667 25.5208333333333  C 11.5299479166667 25.9157986111111  11.6742621527778 26.2575954861111  11.962890625 26.5462239583333  L 14.287109375 28.8704427083333  C 14.5757378472222 29.1590711805556  14.9175347222222 29.3033854166667  15.3125 29.3033854166667  Z M 32.6529947916667 8.7158203125  C 34.2176649305556 11.3970269097222  35 14.3250868055556  35 17.5  C 35 20.6749131944444  34.2176649305556 23.6029730902778  32.6529947916667 26.2841796875  C 31.0883246527778 28.9653862847222  28.9653862847222 31.0883246527778  26.2841796875 32.6529947916667  C 23.6029730902778 34.2176649305556  20.6749131944444 35  17.5 35  C 14.3250868055556 35  11.3970269097222 34.2176649305556  8.7158203125 32.6529947916667  C 6.03461371527778 31.0883246527778  3.91167534722222 28.9653862847222  2.34700520833333 26.2841796875  C 0.782335069444444 23.6029730902778  0 20.6749131944444  0 17.5  C 0 14.3250868055556  0.782335069444444 11.3970269097222  2.34700520833333 8.7158203125  C 3.91167534722222 6.03461371527778  6.03461371527778 3.91167534722222  8.7158203125 2.34700520833333  C 11.3970269097222 0.782335069444441  14.3250868055556 0  17.5 0  C 20.6749131944444 0  23.6029730902778 0.782335069444441  26.2841796875 2.34700520833333  C 28.9653862847222 3.91167534722222  31.0883246527778 6.03461371527778  32.6529947916667 8.7158203125  Z " fill-rule="nonzero" fill="#bbb1b1" stroke="none" transform="matrix(1 0 0 1 1398 3397 )" />
  </g>
</svg>