<?xml version="1.0" encoding="utf-8"?>
<svg version="1.1" xmlns:xlink="http://www.w3.org/1999/xlink" width="12px" height="7px" xmlns="http://www.w3.org/2000/svg">
  <g transform="matrix(1 0 0 1 -28 -18 )">
    <path d="M 11.8797595190381 5.72508591065292  C 11.9599198396794 5.80526918671248  12 5.89747995418098  12 6.00171821305842  C 12 6.10595647193585  11.9599198396794 6.19816723940435  11.8797595190381 6.27835051546392  L 11.2785571142285 6.87972508591065  C 11.1983967935872 6.95990836197022  11.1062124248497 7  11.002004008016 7  C 10.8977955911824 7  10.8056112224449 6.95990836197022  10.7254509018036 6.87972508591065  L 6 2.15292096219931  L 1.27454909819639 6.87972508591065  C 1.19438877755511 6.95990836197022  1.10220440881764 7  0.997995991983968 7  C 0.893787575150301 7  0.801603206412826 6.95990836197022  0.721442885771543 6.87972508591065  L 0.120240480961924 6.27835051546392  C 0.0400801603206414 6.19816723940435  0 6.10595647193585  0 6.00171821305842  C 0 5.89747995418098  0.0400801603206414 5.80526918671248  0.120240480961924 5.72508591065292  L 5.72344689378757 0.120274914089347  C 5.80360721442886 0.0400916380297814  5.89579158316633 0  6 0  C 6.10420841683367 0  6.19639278557114 0.0400916380297814  6.27655310621242 0.120274914089347  L 11.8797595190381 5.72508591065292  Z " fill-rule="nonzero" fill="#000000" stroke="none" transform="matrix(1 0 0 1 28 18 )" />
  </g>
</svg>