<?xml version="1.0" encoding="utf-8"?>
<svg version="1.1" xmlns:xlink="http://www.w3.org/1999/xlink" width="50px" height="41px" xmlns="http://www.w3.org/2000/svg">
  <defs>
    <mask fill="white" id="clip1548">
      <path d="M 80 355  C 77.225 355  75 352.775  75 350  L 75 319  C 75 316.225  77.225 314  80 314  L 120 314  C 122.775 314  125 316.225  125 319  L 125 350  C 125 352.775  122.775 355  120 355  " fill-rule="evenodd" />
    </mask>
  </defs>
  <g transform="matrix(1 0 0 1 -75 -314 )">
    <path d="M 75 314  L 125 314  L 125 355  L 75 355  L 75 314  " fill-rule="nonzero" fill="#cccccc" stroke="none" mask="url(#clip1548)" />
    <path d="M 78 317  L 122 317  L 122 352  L 78 352  L 78 317  " fill-rule="nonzero" fill="#ffffff" stroke="none" mask="url(#clip1548)" />
    <path d="M 104.075 326.3  C 102.353 326.3  101 324.947  101 323.225  C 101 321.503  102.353 320.15  104.075 320.15  C 105.797 320.15  107.15 321.503  107.15 323.225  C 107.15 324.947  105.797 326.3  104.075 326.3  " fill-rule="nonzero" fill="#cccccc" stroke="none" mask="url(#clip1548)" />
    <path d="M 79 351  L 79 332.85  L 89.5 324.6  L 104.2 334.764  L 112.6 329.55  L 121 334.764  L 121 351  L 79 351  " fill-rule="nonzero" fill="#169bd5" stroke="none" mask="url(#clip1548)" />
  </g>
</svg>