<?xml version="1.0" encoding="utf-8"?>
<svg version="1.1" xmlns:xlink="http://www.w3.org/1999/xlink" width="1150px" height="1187px" xmlns="http://www.w3.org/2000/svg">
  <g transform="matrix(1 0 0 1 -137 -62 )">
    <path d="M 138 64  A 1 1 0 0 1 139 63 L 1285 63  A 1 1 0 0 1 1286 64 L 1286 1247  A 1 1 0 0 1 1285 1248 L 139 1248  A 1 1 0 0 1 138 1247 L 138 64  Z " fill-rule="nonzero" fill="#bcbcbc" stroke="none" fill-opacity="0.0666666666666667" />
    <path d="M 137.5 64  A 1.5 1.5 0 0 1 139 62.5 L 1285 62.5  A 1.5 1.5 0 0 1 1286.5 64 L 1286.5 1247  A 1.5 1.5 0 0 1 1285 1248.5 L 139 1248.5  A 1.5 1.5 0 0 1 137.5 1247 L 137.5 64  Z " stroke-width="1" stroke="#cccccc" fill="none" stroke-opacity="0.129411764705882" />
  </g>
</svg>