<?xml version="1.0" encoding="utf-8"?>
<svg version="1.1" xmlns:xlink="http://www.w3.org/1999/xlink" width="185px" height="37px" viewBox="439 227  185 37" xmlns="http://www.w3.org/2000/svg">
  <path d="M 440 232  A 4 4 0 0 1 444 228 L 619 228  A 4 4 0 0 1 623 232 L 623 259  A 4 4 0 0 1 619 263 L 444 263  A 4 4 0 0 1 440 259 L 440 232  Z " fill-rule="nonzero" fill="#f0f0f0" stroke="none" />
  <path d="M 439.5 232  A 4.5 4.5 0 0 1 444 227.5 L 619 227.5  A 4.5 4.5 0 0 1 623.5 232 L 623.5 259  A 4.5 4.5 0 0 1 619 263.5 L 444 263.5  A 4.5 4.5 0 0 1 439.5 259 L 439.5 232  Z " stroke-width="1" stroke="#797979" fill="none" stroke-opacity="0.250980392156863" />
</svg>