<?xml version="1.0" encoding="utf-8"?>
<svg version="1.1" xmlns:xlink="http://www.w3.org/1999/xlink" width="12px" height="12px" viewBox="172 372  12 12" xmlns="http://www.w3.org/2000/svg">
  <path d="M 178 372  C 181.36 372  184 374.64  184 378  C 184 381.36  181.36 384  178 384  C 174.64 384  172 381.36  172 378  C 172 374.64  174.64 372  178 372  Z " fill-rule="nonzero" fill="#ffffff" stroke="none" />
  <path d="M 178 372.5  C 181.08 372.5  183.5 374.92  183.5 378  C 183.5 381.08  181.08 383.5  178 383.5  C 174.92 383.5  172.5 381.08  172.5 378  C 172.5 374.92  174.92 372.5  178 372.5  Z " stroke-width="1" stroke="#797979" fill="none" />
  <path d="M 178 381  C 176.32 381  175 379.68  175 378  C 175 376.32  176.32 375  178 375  C 179.68 375  181 376.32  181 378  C 181 379.68  179.68 381  178 381  " fill-rule="nonzero" fill="#797979" stroke="none" />
</svg>