<?xml version="1.0" encoding="utf-8"?>
<svg version="1.1" xmlns:xlink="http://www.w3.org/1999/xlink" width="300px" height="25px" viewBox="182 336  300 25" xmlns="http://www.w3.org/2000/svg">
  <path d="M 183 341  A 4 4 0 0 1 187 337 L 477 337  A 4 4 0 0 1 481 341 L 481 356  A 4 4 0 0 1 477 360 L 187 360  A 4 4 0 0 1 183 356 L 183 341  Z " fill-rule="nonzero" fill="#ffffff" stroke="none" />
  <path d="M 182.5 341  A 4.5 4.5 0 0 1 187 336.5 L 477 336.5  A 4.5 4.5 0 0 1 481.5 341 L 481.5 356  A 4.5 4.5 0 0 1 477 360.5 L 187 360.5  A 4.5 4.5 0 0 1 182.5 356 L 182.5 341  Z " stroke-width="1" stroke="#f2f2f2" fill="none" stroke-opacity="0.305882352941176" />
</svg>