<?xml version="1.0" encoding="utf-8"?>
<svg version="1.1" xmlns:xlink="http://www.w3.org/1999/xlink" width="12px" height="12px" viewBox="448 816  12 12" xmlns="http://www.w3.org/2000/svg">
  <path d="M 454 816.5  C 457.08 816.5  459.5 818.92  459.5 822  C 459.5 825.08  457.08 827.5  454 827.5  C 450.92 827.5  448.5 825.08  448.5 822  C 448.5 818.92  450.92 816.5  454 816.5  Z " fill-rule="nonzero" fill="#f0f0f0" stroke="none" />
  <path d="M 454 816.5  C 457.08 816.5  459.5 818.92  459.5 822  C 459.5 825.08  457.08 827.5  454 827.5  C 450.92 827.5  448.5 825.08  448.5 822  C 448.5 818.92  450.92 816.5  454 816.5  Z " stroke-width="1" stroke="#797979" fill="none" stroke-opacity="0.164705882352941" />
  <path d="M 454 825  C 452.32 825  451 823.68  451 822  C 451 820.32  452.32 819  454 819  C 455.68 819  457 820.32  457 822  C 457 823.68  455.68 825  454 825  " fill-rule="nonzero" fill="#797979" stroke="none" fill-opacity="0.164705882352941" />
</svg>