<?xml version="1.0" encoding="utf-8"?>
<svg version="1.1" xmlns:xlink="http://www.w3.org/1999/xlink" width="12px" height="12px" viewBox="449 520  12 12" xmlns="http://www.w3.org/2000/svg">
  <path d="M 455 520.5  C 458.08 520.5  460.5 522.92  460.5 526  C 460.5 529.08  458.08 531.5  455 531.5  C 451.92 531.5  449.5 529.08  449.5 526  C 449.5 522.92  451.92 520.5  455 520.5  Z " fill-rule="nonzero" fill="#ffffff" stroke="none" />
  <path d="M 455 520.5  C 458.08 520.5  460.5 522.92  460.5 526  C 460.5 529.08  458.08 531.5  455 531.5  C 451.92 531.5  449.5 529.08  449.5 526  C 449.5 522.92  451.92 520.5  455 520.5  Z " stroke-width="1" stroke="#797979" fill="none" stroke-opacity="0.164705882352941" />
  <path d="M 455 529  C 453.32 529  452 527.68  452 526  C 452 524.32  453.32 523  455 523  C 456.68 523  458 524.32  458 526  C 458 527.68  456.68 529  455 529  " fill-rule="nonzero" fill="#797979" stroke="none" fill-opacity="0.164705882352941" />
</svg>