<?xml version="1.0" encoding="utf-8"?>
<svg version="1.1" xmlns:xlink="http://www.w3.org/1999/xlink" width="208px" height="39px" viewBox="449 751  208 39" xmlns="http://www.w3.org/2000/svg">
  <path d="M 450 756  A 4 4 0 0 1 454 752 L 652 752  A 4 4 0 0 1 656 756 L 656 785  A 4 4 0 0 1 652 789 L 454 789  A 4 4 0 0 1 450 785 L 450 756  Z " fill-rule="nonzero" fill="#f0f0f0" stroke="none" />
  <path d="M 449.5 756  A 4.5 4.5 0 0 1 454 751.5 L 652 751.5  A 4.5 4.5 0 0 1 656.5 756 L 656.5 785  A 4.5 4.5 0 0 1 652 789.5 L 454 789.5  A 4.5 4.5 0 0 1 449.5 785 L 449.5 756  Z " stroke-width="1" stroke="#797979" fill="none" stroke-opacity="0.164705882352941" />
</svg>