<?xml version="1.0" encoding="utf-8"?>
<svg version="1.1" xmlns:xlink="http://www.w3.org/1999/xlink" width="722px" height="958px" xmlns="http://www.w3.org/2000/svg">
  <g transform="matrix(1 0 0 1 -305 -89 )">
    <path d="M 306 94  A 4 4 0 0 1 310 90 L 1022 90  A 4 4 0 0 1 1026 94 L 1026 1042  A 4 4 0 0 1 1022 1046 L 310 1046  A 4 4 0 0 1 306 1042 L 306 94  Z " fill-rule="nonzero" fill="#ffffff" stroke="none" />
    <path d="M 305.5 94  A 4.5 4.5 0 0 1 310 89.5 L 1022 89.5  A 4.5 4.5 0 0 1 1026.5 94 L 1026.5 1042  A 4.5 4.5 0 0 1 1022 1046.5 L 310 1046.5  A 4.5 4.5 0 0 1 305.5 1042 L 305.5 94  Z " stroke-width="1" stroke="#797979" fill="none" stroke-opacity="0.164705882352941" />
  </g>
</svg>