<?xml version="1.0" encoding="utf-8"?>
<svg version="1.1" xmlns:xlink="http://www.w3.org/1999/xlink" width="208px" height="37px" viewBox="449 615  208 37" xmlns="http://www.w3.org/2000/svg">
  <path d="M 450 620  A 4 4 0 0 1 454 616 L 652 616  A 4 4 0 0 1 656 620 L 656 647  A 4 4 0 0 1 652 651 L 454 651  A 4 4 0 0 1 450 647 L 450 620  Z " fill-rule="nonzero" fill="#ffffff" stroke="none" />
  <path d="M 449.5 620  A 4.5 4.5 0 0 1 454 615.5 L 652 615.5  A 4.5 4.5 0 0 1 656.5 620 L 656.5 647  A 4.5 4.5 0 0 1 652 651.5 L 454 651.5  A 4.5 4.5 0 0 1 449.5 647 L 449.5 620  Z " stroke-width="1" stroke="#797979" fill="none" stroke-opacity="0.164705882352941" />
</svg>