<?xml version="1.0" encoding="utf-8"?>
<svg version="1.1" xmlns:xlink="http://www.w3.org/1999/xlink" width="357px" height="270px" xmlns="http://www.w3.org/2000/svg">
  <g transform="matrix(1 0 0 1 -719 -671 )">
    <path d="M 720 676  A 4 4 0 0 1 724 672 L 1071 672  A 4 4 0 0 1 1075 676 L 1075 936  A 4 4 0 0 1 1071 940 L 724 940  A 4 4 0 0 1 720 936 L 720 676  Z " fill-rule="nonzero" fill="#ffffff" stroke="none" />
    <path d="M 719.5 676  A 4.5 4.5 0 0 1 724 671.5 L 1071 671.5  A 4.5 4.5 0 0 1 1075.5 676 L 1075.5 936  A 4.5 4.5 0 0 1 1071 940.5 L 724 940.5  A 4.5 4.5 0 0 1 719.5 936 L 719.5 676  Z " stroke-width="1" stroke="#797979" fill="none" stroke-opacity="0.117647058823529" />
  </g>
</svg>