<?xml version="1.0" encoding="utf-8"?>
<svg version="1.1" xmlns:xlink="http://www.w3.org/1999/xlink" width="184px" height="36px" viewBox="30 173  184 36" xmlns="http://www.w3.org/2000/svg">
  <path d="M 31 178  A 4 4 0 0 1 35 174 L 209 174  A 4 4 0 0 1 213 178 L 213 204  A 4 4 0 0 1 209 208 L 35 208  A 4 4 0 0 1 31 204 L 31 178  Z " fill-rule="nonzero" fill="#ffffff" stroke="none" />
  <path d="M 30.5 178  A 4.5 4.5 0 0 1 35 173.5 L 209 173.5  A 4.5 4.5 0 0 1 213.5 178 L 213.5 204  A 4.5 4.5 0 0 1 209 208.5 L 35 208.5  A 4.5 4.5 0 0 1 30.5 204 L 30.5 178  Z " stroke-width="1" stroke="#797979" fill="none" stroke-opacity="0.36078431372549" />
</svg>