<?xml version="1.0" encoding="utf-8"?>
<svg version="1.1" xmlns:xlink="http://www.w3.org/1999/xlink" width="27px" height="27px" xmlns="http://www.w3.org/2000/svg">
  <g transform="matrix(1 0 0 1 -91 -92 )">
    <path d="M 104.5 92.5  C 111.78 92.5  117.5 98.22  117.5 105.5  C 117.5 112.78  111.78 118.5  104.5 118.5  C 97.22 118.5  91.5 112.78  91.5 105.5  C 91.5 98.22  97.22 92.5  104.5 92.5  Z " fill-rule="nonzero" fill="#d9001b" stroke="none" />
    <path d="M 104.5 92.5  C 111.78 92.5  117.5 98.22  117.5 105.5  C 117.5 112.78  111.78 118.5  104.5 118.5  C 97.22 118.5  91.5 112.78  91.5 105.5  C 91.5 98.22  97.22 92.5  104.5 92.5  Z " stroke-width="1" stroke="#797979" fill="none" stroke-opacity="0.156862745098039" />
  </g>
</svg>