<?xml version="1.0" encoding="utf-8"?>
<svg version="1.1" xmlns:xlink="http://www.w3.org/1999/xlink" width="184px" height="36px" viewBox="764 317  184 36" xmlns="http://www.w3.org/2000/svg">
  <path d="M 765 322  A 4 4 0 0 1 769 318 L 943 318  A 4 4 0 0 1 947 322 L 947 348  A 4 4 0 0 1 943 352 L 769 352  A 4 4 0 0 1 765 348 L 765 322  Z " fill-rule="nonzero" fill="#ffffff" stroke="none" />
  <path d="M 764.5 322  A 4.5 4.5 0 0 1 769 317.5 L 943 317.5  A 4.5 4.5 0 0 1 947.5 322 L 947.5 348  A 4.5 4.5 0 0 1 943 352.5 L 769 352.5  A 4.5 4.5 0 0 1 764.5 348 L 764.5 322  Z " stroke-width="1" stroke="#797979" fill="none" stroke-opacity="0.325490196078431" />
</svg>