<?xml version="1.0" encoding="utf-8"?>
<svg version="1.1" xmlns:xlink="http://www.w3.org/1999/xlink" width="184px" height="36px" viewBox="439 173  184 36" xmlns="http://www.w3.org/2000/svg">
  <path d="M 440 178  A 4 4 0 0 1 444 174 L 618 174  A 4 4 0 0 1 622 178 L 622 204  A 4 4 0 0 1 618 208 L 444 208  A 4 4 0 0 1 440 204 L 440 178  Z " fill-rule="nonzero" fill="#ffffff" stroke="none" />
  <path d="M 439.5 178  A 4.5 4.5 0 0 1 444 173.5 L 618 173.5  A 4.5 4.5 0 0 1 622.5 178 L 622.5 204  A 4.5 4.5 0 0 1 618 208.5 L 444 208.5  A 4.5 4.5 0 0 1 439.5 204 L 439.5 178  Z " stroke-width="1" stroke="#797979" fill="none" stroke-opacity="0.325490196078431" />
</svg>