<?xml version="1.0" encoding="utf-8"?>
<svg version="1.1" xmlns:xlink="http://www.w3.org/1999/xlink" width="12px" height="12px" viewBox="208 454.5  12 12" xmlns="http://www.w3.org/2000/svg">
  <path d="M 214 454.5  C 217.36 454.5  220 457.14  220 460.5  C 220 463.86  217.36 466.5  214 466.5  C 210.64 466.5  208 463.86  208 460.5  C 208 457.14  210.64 454.5  214 454.5  Z " fill-rule="nonzero" fill="#f0f0f0" stroke="none" />
  <path d="M 214 455  C 217.08 455  219.5 457.42  219.5 460.5  C 219.5 463.58  217.08 466  214 466  C 210.92 466  208.5 463.58  208.5 460.5  C 208.5 457.42  210.92 455  214 455  Z " stroke-width="1" stroke="#797979" fill="none" />
  <path d="M 214 463.5  C 212.32 463.5  211 462.18  211 460.5  C 211 458.82  212.32 457.5  214 457.5  C 215.68 457.5  217 458.82  217 460.5  C 217 462.18  215.68 463.5  214 463.5  " fill-rule="nonzero" fill="#797979" stroke="none" />
</svg>