<?xml version="1.0" encoding="utf-8"?>
<svg version="1.1" xmlns:xlink="http://www.w3.org/1999/xlink" width="12px" height="12px" viewBox="140 454.5  12 12" xmlns="http://www.w3.org/2000/svg">
  <path d="M 146 454.5  C 149.36 454.5  152 457.14  152 460.5  C 152 463.86  149.36 466.5  146 466.5  C 142.64 466.5  140 463.86  140 460.5  C 140 457.14  142.64 454.5  146 454.5  Z " fill-rule="nonzero" fill="#ffffff" stroke="none" />
  <path d="M 146 455  C 149.08 455  151.5 457.42  151.5 460.5  C 151.5 463.58  149.08 466  146 466  C 142.92 466  140.5 463.58  140.5 460.5  C 140.5 457.42  142.92 455  146 455  Z " stroke-width="1" stroke="#797979" fill="none" />
  <path d="M 146 463.5  C 144.32 463.5  143 462.18  143 460.5  C 143 458.82  144.32 457.5  146 457.5  C 147.68 457.5  149 458.82  149 460.5  C 149 462.18  147.68 463.5  146 463.5  " fill-rule="nonzero" fill="#797979" stroke="none" />
</svg>