<?xml version="1.0" encoding="utf-8"?>
<svg version="1.1" xmlns:xlink="http://www.w3.org/1999/xlink" width="314px" height="36px" viewBox="1118 359  314 36" xmlns="http://www.w3.org/2000/svg">
  <path d="M 1119 364  A 4 4 0 0 1 1123 360 L 1427 360  A 4 4 0 0 1 1431 364 L 1431 390  A 4 4 0 0 1 1427 394 L 1123 394  A 4 4 0 0 1 1119 390 L 1119 364  Z " fill-rule="nonzero" fill="#f0f0f0" stroke="none" />
  <path d="M 1118.5 364  A 4.5 4.5 0 0 1 1123 359.5 L 1427 359.5  A 4.5 4.5 0 0 1 1431.5 364 L 1431.5 390  A 4.5 4.5 0 0 1 1427 394.5 L 1123 394.5  A 4.5 4.5 0 0 1 1118.5 390 L 1118.5 364  Z " stroke-width="1" stroke="#797979" fill="none" stroke-opacity="0.333333333333333" />
</svg>