<?xml version="1.0" encoding="utf-8"?>
<svg version="1.1" xmlns:xlink="http://www.w3.org/1999/xlink" width="184px" height="38px" xmlns="http://www.w3.org/2000/svg">
  <g transform="matrix(1 0 0 1 -424 -116 )">
    <path d="M 425 118  A 1 1 0 0 1 426 117 L 606 117  A 1 1 0 0 1 607 118 L 607 152  A 1 1 0 0 1 606 153 L 426 153  A 1 1 0 0 1 425 152 L 425 118  Z " fill-rule="nonzero" fill="#ffffff" stroke="none" fill-opacity="0.603921568627451" />
    <path d="M 424.5 118  A 1.5 1.5 0 0 1 426 116.5 L 606 116.5  A 1.5 1.5 0 0 1 607.5 118 L 607.5 152  A 1.5 1.5 0 0 1 606 153.5 L 426 153.5  A 1.5 1.5 0 0 1 424.5 152 L 424.5 118  Z " stroke-width="1" stroke="#cccccc" fill="none" stroke-opacity="0.286274509803922" />
  </g>
</svg>