<?xml version="1.0" encoding="utf-8"?>
<svg version="1.1" xmlns:xlink="http://www.w3.org/1999/xlink" width="184px" height="36px" viewBox="424 169  184 36" xmlns="http://www.w3.org/2000/svg">
  <path d="M 425 174  A 4 4 0 0 1 429 170 L 603 170  A 4 4 0 0 1 607 174 L 607 200  A 4 4 0 0 1 603 204 L 429 204  A 4 4 0 0 1 425 200 L 425 174  Z " fill-rule="nonzero" fill="#f0f0f0" stroke="none" />
  <path d="M 424.5 174  A 4.5 4.5 0 0 1 429 169.5 L 603 169.5  A 4.5 4.5 0 0 1 607.5 174 L 607.5 200  A 4.5 4.5 0 0 1 603 204.5 L 429 204.5  A 4.5 4.5 0 0 1 424.5 200 L 424.5 174  Z " stroke-width="1" stroke="#cccccc" fill="none" stroke-opacity="0.286274509803922" />
</svg>