<?xml version="1.0" encoding="utf-8"?>
<svg version="1.1" xmlns:xlink="http://www.w3.org/1999/xlink" width="12px" height="12px" viewBox="77 327  12 12" xmlns="http://www.w3.org/2000/svg">
  <path d="M 77.5 332  A 4.5 4.5 0 0 1 82 327.5 L 84 327.5  A 4.5 4.5 0 0 1 88.5 332 L 88.5 334  A 4.5 4.5 0 0 1 84 338.5 L 82 338.5  A 4.5 4.5 0 0 1 77.5 334 L 77.5 332  Z " fill-rule="nonzero" fill="#ffffff" stroke="none" />
  <path d="M 77.5 332  A 4.5 4.5 0 0 1 82 327.5 L 84 327.5  A 4.5 4.5 0 0 1 88.5 332 L 88.5 334  A 4.5 4.5 0 0 1 84 338.5 L 82 338.5  A 4.5 4.5 0 0 1 77.5 334 L 77.5 332  Z " stroke-width="1" stroke="#797979" fill="none" />
</svg>