<?xml version="1.0" encoding="utf-8"?>
<svg version="1.1" xmlns:xlink="http://www.w3.org/1999/xlink" width="12px" height="12px" viewBox="77 291  12 12" xmlns="http://www.w3.org/2000/svg">
  <path d="M 77.5 296  A 4.5 4.5 0 0 1 82 291.5 L 84 291.5  A 4.5 4.5 0 0 1 88.5 296 L 88.5 298  A 4.5 4.5 0 0 1 84 302.5 L 82 302.5  A 4.5 4.5 0 0 1 77.5 298 L 77.5 296  Z " fill-rule="nonzero" fill="#f0f0f0" stroke="none" />
  <path d="M 77.5 296  A 4.5 4.5 0 0 1 82 291.5 L 84 291.5  A 4.5 4.5 0 0 1 88.5 296 L 88.5 298  A 4.5 4.5 0 0 1 84 302.5 L 82 302.5  A 4.5 4.5 0 0 1 77.5 298 L 77.5 296  Z " stroke-width="1" stroke="#797979" fill="none" />
  <path d="M 79.5714285714286 297  L 82.1428571428571 299.571428571429  " stroke-width="2.57142857142857" stroke="#797979" fill="none" />
  <path d="M 82.1428571428571 299.571428571429  L 86.4285714285714 293.571428571429  " stroke-width="2.57142857142857" stroke="#797979" fill="none" />
</svg>