<?xml version="1.0" encoding="utf-8"?>
<svg version="1.1" xmlns:xlink="http://www.w3.org/1999/xlink" width="10px" height="76px" preserveAspectRatio="xMidYMin meet" viewBox="1526 175  8 76" xmlns="http://www.w3.org/2000/svg">
  <path d="M 554 200  L 554 185  A 5 5 0 0 1 559 180 L 1525 180  A 5 5 0 0 1 1530 185 L 1530 249  " stroke-width="2" stroke="#0099cc" fill="none" />
  <path d="M 558.292893218813 194.892893218813  L 554 199.185786437627  L 549.707106781187 194.892893218813  L 548.292893218813 196.307106781187  L 553.292893218813 201.307106781187  L 554 202.014213562373  L 554.707106781187 201.307106781187  L 559.707106781187 196.307106781187  L 558.292893218813 194.892893218813  Z M 1534.29289321881 243.892893218813  L 1530 248.185786437627  L 1525.70710678119 243.892893218813  L 1524.29289321881 245.307106781187  L 1529.29289321881 250.307106781187  L 1530 251.014213562373  L 1530.70710678119 250.307106781187  L 1535.70710678119 245.307106781187  L 1534.29289321881 243.892893218813  Z " fill-rule="nonzero" fill="#0099cc" stroke="none" />
</svg>