<?xml version="1.0" encoding="utf-8"?>
<svg version="1.1" xmlns:xlink="http://www.w3.org/1999/xlink" width="20px" height="20px" preserveAspectRatio="xMinYMid meet" viewBox="1092 228  20 18" xmlns="http://www.w3.org/2000/svg">
  <path d="M 1102 237  L 1445 237  A 5 5 0 0 0 1450 232 L 1450 215  A 5 5 0 0 1 1455 210 L 1538 210  A 5 5 0 0 1 1543 215 L 1543 226  " stroke-width="2" stroke="#0099cc" fill="none" />
  <path d="M 1107.10710678119 241.292893218813  L 1102.81421356237 237  L 1107.10710678119 232.707106781187  L 1105.69289321881 231.292893218813  L 1100.69289321881 236.292893218813  L 1099.98578643763 237  L 1100.69289321881 237.707106781187  L 1105.69289321881 242.707106781187  L 1107.10710678119 241.292893218813  Z M 1547.29289321881 220.892893218813  L 1543 225.185786437627  L 1538.70710678119 220.892893218813  L 1537.29289321881 222.307106781187  L 1542.29289321881 227.307106781187  L 1543 228.014213562373  L 1543.70710678119 227.307106781187  L 1548.70710678119 222.307106781187  L 1547.29289321881 220.892893218813  Z " fill-rule="nonzero" fill="#0099cc" stroke="none" />
</svg>