<?xml version="1.0" encoding="utf-8"?>
<svg version="1.1" xmlns:xlink="http://www.w3.org/1999/xlink" width="12px" height="12px" viewBox="862 88.5  12 12" xmlns="http://www.w3.org/2000/svg">
  <path d="M 862.5 93.5  A 4.5 4.5 0 0 1 867 89 L 869 89  A 4.5 4.5 0 0 1 873.5 93.5 L 873.5 95.5  A 4.5 4.5 0 0 1 869 100 L 867 100  A 4.5 4.5 0 0 1 862.5 95.5 L 862.5 93.5  Z " fill-rule="nonzero" fill="#f0f0f0" stroke="none" />
  <path d="M 862.5 93.5  A 4.5 4.5 0 0 1 867 89 L 869 89  A 4.5 4.5 0 0 1 873.5 93.5 L 873.5 95.5  A 4.5 4.5 0 0 1 869 100 L 867 100  A 4.5 4.5 0 0 1 862.5 95.5 L 862.5 93.5  Z " stroke-width="1" stroke="#797979" fill="none" />
  <path d="M 864.571428571429 94.5  L 867.142857142857 97.0714285714286  " stroke-width="2.57142857142857" stroke="#797979" fill="none" />
  <path d="M 867.142857142857 97.0714285714286  L 871.428571428571 91.0714285714286  " stroke-width="2.57142857142857" stroke="#797979" fill="none" />
</svg>