<?xml version="1.0" encoding="utf-8"?>
<svg version="1.1" xmlns:xlink="http://www.w3.org/1999/xlink" width="25px" height="25px" xmlns="http://www.w3.org/2000/svg">
  <defs>
    <path d="M 0 0  L 24 0  L 24 24  L 0 24  Z " fill-rule="evenodd" fill="black" id="path211" />
    <clipPath id="clip212">
      <use xlink:href="#path211" />
    </clipPath>
    <filter x="-50.00%" y="-50.00%" width="200.00%" height="200.00%" filterUnits="objectBoundingBox" id="filter213">
      <feColorMatrix type="matrix" values="1 0 0 0 0  0 1 0 0 0  0 0 1 0 0  0 0 0 1 0  " in="SourceGraphic" />
    </filter>
  </defs>
  <g transform="matrix(1 0 0 1 -1305 -299 )">
    <g transform="matrix(1.04166666666667 0 0 1.04166666666667 1305 299 )" clip-path="url(#clip212)" filter="url(#filter213)">
      <path d="M23.5 5V22C23.5 22.8284 22.8284 23.5 22 23.5H2C1.17157 23.5 0.5 22.8284 0.5 22V2C0.5 1.17157 1.17157 0.5 2 0.5H8.83333C9.15789 0.5 9.47369 0.605267 9.73333 0.8L12.6667 3C13.0994 3.32456 13.6257 3.5 14.1667 3.5H22C22.8284 3.5 23.5 4.17157 23.5 5Z" stroke="#00A595" />
      <line x1="5" y1="13" x2="19" y2="13" stroke="#00A595" stroke-width="2" />
      <line x1="12" y1="20.5" x2="12" y2="6.5" stroke="#00A595" stroke-width="2" />
    </g>
  </g>
</svg>