<?xml version="1.0" encoding="utf-8"?>
<svg version="1.1" xmlns:xlink="http://www.w3.org/1999/xlink" width="12px" height="12px" viewBox="483 801  12 12" xmlns="http://www.w3.org/2000/svg">
  <path d="M 483.5 806  A 4.5 4.5 0 0 1 488 801.5 L 490 801.5  A 4.5 4.5 0 0 1 494.5 806 L 494.5 808  A 4.5 4.5 0 0 1 490 812.5 L 488 812.5  A 4.5 4.5 0 0 1 483.5 808 L 483.5 806  Z " fill-rule="nonzero" fill="#ffffff" stroke="none" />
  <path d="M 483.5 806  A 4.5 4.5 0 0 1 488 801.5 L 490 801.5  A 4.5 4.5 0 0 1 494.5 806 L 494.5 808  A 4.5 4.5 0 0 1 490 812.5 L 488 812.5  A 4.5 4.5 0 0 1 483.5 808 L 483.5 806  Z " stroke-width="1" stroke="#797979" fill="none" />
  <path d="M 485.571428571429 807  L 488.142857142857 809.571428571429  " stroke-width="2.57142857142857" stroke="#797979" fill="none" />
  <path d="M 488.142857142857 809.571428571429  L 492.428571428571 803.571428571429  " stroke-width="2.57142857142857" stroke="#797979" fill="none" />
</svg>