<?xml version="1.0" encoding="utf-8"?>
<svg version="1.1" xmlns:xlink="http://www.w3.org/1999/xlink" width="12px" height="12px" viewBox="382 447  12 12" xmlns="http://www.w3.org/2000/svg">
  <path d="M 388 447  C 391.36 447  394 449.64  394 453  C 394 456.36  391.36 459  388 459  C 384.64 459  382 456.36  382 453  C 382 449.64  384.64 447  388 447  Z " fill-rule="nonzero" fill="#ffffff" stroke="none" />
  <path d="M 388 447.5  C 391.08 447.5  393.5 449.92  393.5 453  C 393.5 456.08  391.08 458.5  388 458.5  C 384.92 458.5  382.5 456.08  382.5 453  C 382.5 449.92  384.92 447.5  388 447.5  Z " stroke-width="1" stroke="#797979" fill="none" />
  <path d="M 388 456  C 386.32 456  385 454.68  385 453  C 385 451.32  386.32 450  388 450  C 389.68 450  391 451.32  391 453  C 391 454.68  389.68 456  388 456  " fill-rule="nonzero" fill="#797979" stroke="none" />
</svg>