<?xml version="1.0" encoding="utf-8"?>
<svg version="1.1" xmlns:xlink="http://www.w3.org/1999/xlink" width="75px" height="42px" xmlns="http://www.w3.org/2000/svg">
  <g transform="matrix(1 0 0 1 -662 -1014 )">
    <path d="M 663 1022  A 7 7 0 0 1 670 1015 L 729 1015  A 7 7 0 0 1 736 1022 L 736 1048  A 7 7 0 0 1 729 1055 L 670 1055  A 7 7 0 0 1 663 1048 L 663 1022  Z " fill-rule="nonzero" fill="#f40606" stroke="none" />
    <path d="M 662.5 1022  A 7.5 7.5 0 0 1 670 1014.5 L 729 1014.5  A 7.5 7.5 0 0 1 736.5 1022 L 736.5 1048  A 7.5 7.5 0 0 1 729 1055.5 L 670 1055.5  A 7.5 7.5 0 0 1 662.5 1048 L 662.5 1022  Z " stroke-width="1" stroke="#797979" fill="none" stroke-opacity="0.0901960784313725" />
  </g>
</svg>