<?xml version="1.0" encoding="utf-8"?>
<svg version="1.1" xmlns:xlink="http://www.w3.org/1999/xlink" width="300px" height="200px" xmlns="http://www.w3.org/2000/svg">
  <g transform="matrix(1 0 0 1 -35 -882 )">
    <path d="M 36 891  A 8 8 0 0 1 44 883 L 326 883  A 8 8 0 0 1 334 891 L 334 1073  A 8 8 0 0 1 326 1081 L 44 1081  A 8 8 0 0 1 36 1073 L 36 891  Z " fill-rule="nonzero" fill="#ffffff" stroke="none" />
    <path d="M 35.5 891  A 8.5 8.5 0 0 1 44 882.5 L 326 882.5  A 8.5 8.5 0 0 1 334.5 891 L 334.5 1073  A 8.5 8.5 0 0 1 326 1081.5 L 44 1081.5  A 8.5 8.5 0 0 1 35.5 1073 L 35.5 891  Z " stroke-width="1" stroke="#797979" fill="none" stroke-opacity="0.0901960784313725" />
  </g>
</svg>