<?xml version="1.0" encoding="utf-8"?>
<svg version="1.1" xmlns:xlink="http://www.w3.org/1999/xlink" width="38px" height="38px" xmlns="http://www.w3.org/2000/svg">
  <g transform="matrix(1 0 0 1 -708 -909 )">
    <path d="M 727 909.5  C 737.36 909.5  745.5 917.64  745.5 928  C 745.5 938.36  737.36 946.5  727 946.5  C 716.64 946.5  708.5 938.36  708.5 928  C 708.5 917.64  716.64 909.5  727 909.5  Z " fill-rule="nonzero" fill="#ffffff" stroke="none" />
    <path d="M 727 909.5  C 737.36 909.5  745.5 917.64  745.5 928  C 745.5 938.36  737.36 946.5  727 946.5  C 716.64 946.5  708.5 938.36  708.5 928  C 708.5 917.64  716.64 909.5  727 909.5  Z " stroke-width="1" stroke="#797979" fill="none" stroke-opacity="0.184313725490196" />
  </g>
</svg>