<?xml version="1.0" encoding="utf-8"?>
<svg version="1.1" xmlns:xlink="http://www.w3.org/1999/xlink" width="86px" height="28px" viewBox="667 1633  86 28" xmlns="http://www.w3.org/2000/svg">
  <path d="M 668 1638  A 4 4 0 0 1 672 1634 L 748 1634  A 4 4 0 0 1 752 1638 L 752 1656  A 4 4 0 0 1 748 1660 L 672 1660  A 4 4 0 0 1 668 1656 L 668 1638  Z " fill-rule="nonzero" fill="#ffffff" stroke="none" />
  <path d="M 667.5 1638  A 4.5 4.5 0 0 1 672 1633.5 L 748 1633.5  A 4.5 4.5 0 0 1 752.5 1638 L 752.5 1656  A 4.5 4.5 0 0 1 748 1660.5 L 672 1660.5  A 4.5 4.5 0 0 1 667.5 1656 L 667.5 1638  Z " stroke-width="1" stroke="#797979" fill="none" stroke-opacity="0.137254901960784" />
</svg>