<?xml version="1.0" encoding="utf-8"?>
<svg version="1.1" xmlns:xlink="http://www.w3.org/1999/xlink" width="75px" height="42px" xmlns="http://www.w3.org/2000/svg">
  <g transform="matrix(1 0 0 1 -148 -1022 )">
    <path d="M 149 1030  A 7 7 0 0 1 156 1023 L 215 1023  A 7 7 0 0 1 222 1030 L 222 1056  A 7 7 0 0 1 215 1063 L 156 1063  A 7 7 0 0 1 149 1056 L 149 1030  Z " fill-rule="nonzero" fill="#ffffff" stroke="none" fill-opacity="0" />
    <path d="M 148.5 1030  A 7.5 7.5 0 0 1 156 1022.5 L 215 1022.5  A 7.5 7.5 0 0 1 222.5 1030 L 222.5 1056  A 7.5 7.5 0 0 1 215 1063.5 L 156 1063.5  A 7.5 7.5 0 0 1 148.5 1056 L 148.5 1030  Z " stroke-width="1" stroke="#797979" fill="none" stroke-opacity="0.0901960784313725" />
  </g>
</svg>