<?xml version="1.0" encoding="utf-8"?>
<svg version="1.1" xmlns:xlink="http://www.w3.org/1999/xlink" width="11px" height="13px" xmlns="http://www.w3.org/2000/svg">
  <g transform="matrix(1 0 0 1 -103 -365 )">
    <path d="M 9.5171568627451 10.0925245098039  C 9.64297385620915 9.9438316993464  9.70588235294118 9.76593137254902  9.70588235294118 9.55882352941176  C 9.70588235294118 9.34640522875817  9.64297385620915 9.16584967320261  9.5171568627451 9.0171568627451  L 8.11519607843137 7.36029411764706  C 7.98937908496732 7.21160130718954  7.83660130718954 7.13725490196078  7.65686274509804 7.13725490196078  C 7.46813725490196 7.13725490196078  7.30637254901961 7.22222222222222  7.17156862745098 7.3921568627451  C 7.18504901960784 7.40808823529412  7.22773692810458 7.45720996732026  7.29963235294118 7.53952205882353  C 7.37152777777778 7.6218341503268  7.41983251633987 7.67892156862745  7.44454656862745 7.71078431372549  C 7.46926062091503 7.74264705882353  7.50296160130719 7.79309640522876  7.54564950980392 7.86213235294118  C 7.58833741830065 7.93116830065359  7.61754493464052 7.99887663398693  7.63327205882353 8.06525735294118  C 7.64899918300654 8.13163807189542  7.65686274509804 8.2046568627451  7.65686274509804 8.2843137254902  C 7.65686274509804 8.49673202614379  7.59395424836601 8.67728758169935  7.46813725490196 8.82598039215686  C 7.34232026143791 8.97467320261438  7.18954248366013 9.04901960784314  7.00980392156863 9.04901960784314  C 6.94240196078431 9.04901960784314  6.88061683006536 9.03972630718954  6.82444852941176 9.02113970588235  C 6.76828022875817 9.00255310457516  6.7109885620915 8.96803513071895  6.65257352941176 8.91758578431373  C 6.59415849673203 8.8671364379085  6.5514705882353 8.82730800653595  6.52450980392157 8.79810049019608  C 6.49754901960784 8.76889297385621  6.44924428104575 8.71180555555556  6.37959558823529 8.62683823529412  C 6.30994689542484 8.54187091503268  6.26838235294118 8.49142156862745  6.25490196078431 8.47549019607843  C 6.10661764705882 8.64011437908496  6.03247549019608 8.83394607843137  6.03247549019608 9.05698529411765  C 6.03247549019608 9.26940359477124  6.0953839869281 9.4499591503268  6.22120098039216 9.59865196078431  L 7.60968137254902 11.2475490196078  C 7.73100490196078 11.390931372549  7.88378267973856 11.4626225490196  8.06801470588235 11.4626225490196  C 8.24775326797386 11.4626225490196  8.40053104575163 11.3935866013072  8.52634803921569 11.2555147058824  L 9.5171568627451 10.0925245098039  Z M 4.74509803921569 4.52450980392157  C 4.89338235294118 4.35988562091503  4.96752450980392 4.16605392156863  4.96752450980392 3.94301470588235  C 4.96752450980392 3.73059640522876  4.9046160130719 3.5500408496732  4.77879901960784 3.40134803921569  L 3.39031862745098 1.75245098039216  C 3.26450163398693 1.60375816993464  3.11172385620915 1.52941176470588  2.93198529411765 1.52941176470588  C 2.75674019607843 1.52941176470588  2.60396241830065 1.60110294117647  2.47365196078431 1.74448529411765  L 1.4828431372549 2.90747549019608  C 1.35702614379085 3.05616830065359  1.29411764705882 3.23406862745098  1.29411764705882 3.44117647058823  C 1.29411764705882 3.65359477124183  1.35702614379085 3.83415032679738  1.4828431372549 3.9828431372549  L 2.88480392156863 5.63970588235294  C 3.00612745098039 5.78308823529412  3.15890522875817 5.85477941176471  3.34313725490196 5.85477941176471  C 3.53186274509804 5.85477941176471  3.69362745098039 5.77246732026144  3.82843137254902 5.6078431372549  C 3.81495098039216 5.59191176470588  3.77226307189543 5.54279003267974  3.70036764705882 5.46047794117647  C 3.62847222222222 5.3781658496732  3.58016748366013 5.32107843137255  3.55545343137255 5.28921568627451  C 3.53073937908497 5.25735294117647  3.49703839869281 5.20690359477124  3.45435049019608 5.13786764705882  C 3.41166258169935 5.0688316993464  3.38245506535948 5.00112336601307  3.36672794117647 4.93474264705882  C 3.35100081699346 4.86836192810457  3.34313725490196 4.7953431372549  3.34313725490196 4.7156862745098  C 3.34313725490196 4.50326797385621  3.40604575163399 4.32271241830065  3.53186274509804 4.17401960784314  C 3.65767973856209 4.02532679738562  3.81045751633987 3.95098039215686  3.99019607843137 3.95098039215686  C 4.05759803921569 3.95098039215686  4.11938316993464 3.96027369281046  4.17555147058824 3.97886029411765  C 4.23171977124183 3.99744689542484  4.2890114379085 4.03196486928104  4.34742647058824 4.08241421568628  C 4.40584150326797 4.1328635620915  4.44852941176471 4.17269199346405  4.47549019607843 4.20189950980392  C 4.50245098039216 4.23110702614379  4.55075571895425 4.28819444444444  4.62040441176471 4.37316176470588  C 4.69005310457516 4.45812908496732  4.73161764705882 4.50857843137255  4.74509803921569 4.52450980392157  Z M 10.4338235294118 7.93382352941177  C 10.8112745098039 8.37990196078431  11 8.92156862745098  11 9.55882352941176  C 11 10.1960784313725  10.8090277777778 10.735089869281  10.4270833333333 11.1758578431373  L 9.43627450980392 12.3388480392157  C 9.06331699346405 12.7796160130719  8.60723039215686 13  8.06801470588235 13  C 7.52430555555556 13  7.06597222222222 12.7743055555556  6.69301470588235 12.3229166666667  L 5.30453431372549 10.6740196078431  C 4.93157679738562 10.2332516339869  4.74509803921569 9.69424019607843  4.74509803921569 9.05698529411765  C 4.74509803921569 8.40379901960784  4.94281045751634 7.84885620915033  5.33823529411765 7.3921568627451  L 4.74509803921569 6.69117647058823  C 4.35866013071895 7.15849673202614  3.89133986928105 7.3921568627451  3.34313725490196 7.3921568627451  C 2.80392156862745 7.3921568627451  2.34558823529412 7.16911764705882  1.96813725490196 6.72303921568627  L 0.566176470588235 5.06617647058823  C 0.188725490196078 4.62009803921569  0 4.07843137254902  0 3.44117647058823  C 0 2.80392156862745  0.190972222222222 2.26491013071895  0.572916666666667 1.82414215686274  L 1.56372549019608 0.661151960784314  C 1.93668300653595 0.220383986928104  2.39276960784314 0  2.93198529411765 0  C 3.47569444444445 0  3.93402777777778 0.225694444444444  4.30698529411765 0.677083333333334  L 5.69546568627451 2.32598039215686  C 6.06842320261438 2.76674836601307  6.25490196078431 3.30575980392157  6.25490196078431 3.94301470588235  C 6.25490196078431 4.59620098039216  6.05718954248366 5.15114379084967  5.66176470588235 5.6078431372549  L 6.25490196078431 6.30882352941177  C 6.64133986928105 5.84150326797386  7.10866013071895 5.6078431372549  7.65686274509804 5.6078431372549  C 8.19607843137255 5.6078431372549  8.65441176470588 5.83088235294118  9.03186274509804 6.27696078431373  L 10.4338235294118 7.93382352941177  Z " fill-rule="nonzero" fill="#ff7e16" stroke="none" transform="matrix(1 0 0 1 103 365 )" />
  </g>
</svg>