<?xml version="1.0" encoding="utf-8"?>
<svg version="1.1" xmlns:xlink="http://www.w3.org/1999/xlink" width="36px" height="36px" xmlns="http://www.w3.org/2000/svg">
  <defs>
    <mask fill="white" id="clip288">
      <path d="M 64 59  C 55.675 59  49 52.325  49 44  L 49 38  C 49 29.675  55.675 23  64 23  L 70 23  C 78.325 23  85 29.675  85 38  L 85 44  C 85 52.325  78.325 59  70 59  " fill-rule="evenodd" />
    </mask>
  </defs>
  <g transform="matrix(1 0 0 1 -49 -23 )">
    <path d="M 49 23  L 85 23  L 85 59  L 49 59  L 49 23  " fill-rule="nonzero" fill="#cccccc" stroke="none" mask="url(#clip288)" />
    <path d="M 52 26  L 82 26  L 82 56  L 52 56  L 52 26  " fill-rule="nonzero" fill="#ffffff" stroke="none" mask="url(#clip288)" />
    <path d="M 70.42 33.8  C 68.908 33.8  67.72 32.612  67.72 31.1  C 67.72 29.588  68.908 28.4  70.42 28.4  C 71.932 28.4  73.12 29.588  73.12 31.1  C 73.12 32.612  71.932 33.8  70.42 33.8  " fill-rule="nonzero" fill="#cccccc" stroke="none" mask="url(#clip288)" />
    <path d="M 53 55  L 53 39.6  L 60 32.6  L 69.8 38.2  L 75.4 36.8  L 81 38.2  L 81 55  L 53 55  " fill-rule="nonzero" fill="#169bd5" stroke="none" mask="url(#clip288)" />
  </g>
</svg>