<?xml version="1.0" encoding="utf-8"?>
<svg version="1.1" xmlns:xlink="http://www.w3.org/1999/xlink" width="66px" height="66px" xmlns="http://www.w3.org/2000/svg">
  <defs>
    <mask fill="white" id="clip286">
      <path d="M 108 324  C 105.225 324  103 321.775  103 319  L 103 263  C 103 260.225  105.225 258  108 258  L 164 258  C 166.775 258  169 260.225  169 263  L 169 319  C 169 321.775  166.775 324  164 324  " fill-rule="evenodd" />
    </mask>
  </defs>
  <g transform="matrix(1 0 0 1 -103 -258 )">
    <path d="M 103 258  L 169 258  L 169 324  L 103 324  L 103 258  " fill-rule="nonzero" fill="#cccccc" stroke="none" mask="url(#clip286)" />
    <path d="M 108 263  L 164 263  L 164 319  L 108 319  L 108 263  " fill-rule="nonzero" fill="#ffffff" stroke="none" mask="url(#clip286)" />
    <path d="M 142.27 277.8  C 139.498 277.8  137.32 275.622  137.32 272.85  C 137.32 270.078  139.498 267.9  142.27 267.9  C 145.042 267.9  147.22 270.078  147.22 272.85  C 147.22 275.622  145.042 277.8  142.27 277.8  " fill-rule="nonzero" fill="#cccccc" stroke="none" mask="url(#clip286)" />
    <path d="M 110 318  L 110 288.85  L 123.25 275.6  L 141.8 286.2  L 152.4 283.55  L 163 286.2  L 163 318  L 110 318  " fill-rule="nonzero" fill="#169bd5" stroke="none" mask="url(#clip286)" />
  </g>
</svg>