<?xml version="1.0" encoding="utf-8"?>
<svg version="1.1" xmlns:xlink="http://www.w3.org/1999/xlink" width="55px" height="55px" xmlns="http://www.w3.org/2000/svg">
  <defs>
    <mask fill="white" id="clip979">
      <path d="M 58.5 131  C 43.2375 131  31 118.7625  31 103.5  L 31 103.5  C 31 88.2375  43.2375 76  58.5 76  L 58.5 76  C 73.7625 76  86 88.2375  86 103.5  L 86 103.5  C 86 118.7625  73.7625 131  58.5 131  " fill-rule="evenodd" />
    </mask>
  </defs>
  <g transform="matrix(1 0 0 1 -31 -76 )">
    <path d="M 31 76  L 86 76  L 86 131  L 31 131  L 31 76  " fill-rule="nonzero" fill="#cccccc" stroke="none" mask="url(#clip979)" />
    <path d="M 35 80  L 82 80  L 82 127  L 35 127  L 35 80  " fill-rule="nonzero" fill="#ffffff" stroke="none" mask="url(#clip979)" />
    <path d="M 63.725 92.5  C 61.415 92.5  59.6 90.685  59.6 88.375  C 59.6 86.065  61.415 84.25  63.725 84.25  C 66.035 84.25  67.85 86.065  67.85 88.375  C 67.85 90.685  66.035 92.5  63.725 92.5  " fill-rule="nonzero" fill="#cccccc" stroke="none" mask="url(#clip979)" />
    <path d="M 37 126  L 37 101.8  L 48 90.8  L 63.4 99.6  L 72.2 97.4  L 81 99.6  L 81 126  L 37 126  " fill-rule="nonzero" fill="#169bd5" stroke="none" mask="url(#clip979)" />
  </g>
</svg>