<?xml version="1.0" encoding="utf-8"?>
<svg version="1.1" xmlns:xlink="http://www.w3.org/1999/xlink" width="36px" height="36px" xmlns="http://www.w3.org/2000/svg">
  <defs>
    <mask fill="white" id="clip1673">
      <path d="M 27 181  C 17.01 181  9 172.99  9 163  L 9 163  C 9 153.01  17.01 145  27 145  L 27 145  C 36.99 145  45 153.01  45 163  L 45 163  C 45 172.99  36.99 181  27 181  " fill-rule="evenodd" />
    </mask>
  </defs>
  <g transform="matrix(1 0 0 1 -9 -145 )">
    <path d="M 9 145  L 45 145  L 45 181  L 9 181  L 9 145  " fill-rule="nonzero" fill="#cccccc" stroke="none" mask="url(#clip1673)" />
    <path d="M 12 148  L 42 148  L 42 178  L 12 178  L 12 148  " fill-rule="nonzero" fill="#ffffff" stroke="none" mask="url(#clip1673)" />
    <path d="M 30.42 155.8  C 28.908 155.8  27.72 154.612  27.72 153.1  C 27.72 151.588  28.908 150.4  30.42 150.4  C 31.932 150.4  33.12 151.588  33.12 153.1  C 33.12 154.612  31.932 155.8  30.42 155.8  " fill-rule="nonzero" fill="#cccccc" stroke="none" mask="url(#clip1673)" />
    <path d="M 13 177  L 13 161.6  L 20 154.6  L 29.8 160.2  L 35.4 158.8  L 41 160.2  L 41 177  L 13 177  " fill-rule="nonzero" fill="#169bd5" stroke="none" mask="url(#clip1673)" />
  </g>
</svg>