<?xml version="1.0" encoding="utf-8"?>
<svg version="1.1" xmlns:xlink="http://www.w3.org/1999/xlink" width="458px" height="238px" xmlns="http://www.w3.org/2000/svg">
  <defs>
    <mask fill="white" id="clip713">
      <path d="M 1448 614  C 1445.225 614  1443 611.775  1443 609  L 1443 381  C 1443 378.225  1445.225 376  1448 376  L 1896 376  C 1898.775 376  1901 378.225  1901 381  L 1901 609  C 1901 611.775  1898.775 614  1896 614  " fill-rule="evenodd" />
    </mask>
  </defs>
  <g transform="matrix(1 0 0 1 -1443 -376 )">
    <path d="M 1443 376  L 1901 376  L 1901 614  L 1443 614  L 1443 376  " fill-rule="nonzero" fill="#cccccc" stroke="none" mask="url(#clip713)" />
    <path d="M 1460 393  L 1884 393  L 1884 597  L 1460 597  L 1460 393  " fill-rule="nonzero" fill="#ffffff" stroke="none" mask="url(#clip713)" />
    <path d="M 1699.01 447.4  C 1689.014 447.4  1681.16 439.546  1681.16 429.55  C 1681.16 419.554  1689.014 411.7  1699.01 411.7  C 1709.006 411.7  1716.86 419.554  1716.86 429.55  C 1716.86 439.546  1709.006 447.4  1699.01 447.4  " fill-rule="nonzero" fill="#cccccc" stroke="none" mask="url(#clip713)" />
    <path d="M 1466 591  L 1466 485.4  L 1569 437.4  L 1713.2 531.136244541485  L 1795.6 466.2  L 1878 531.136244541485  L 1878 591  L 1466 591  " fill-rule="nonzero" fill="#169bd5" stroke="none" mask="url(#clip713)" />
  </g>
</svg>