<?xml version="1.0" encoding="utf-8"?>
<svg version="1.1" xmlns:xlink="http://www.w3.org/1999/xlink" width="52px" height="52px" xmlns="http://www.w3.org/2000/svg">
  <g transform="matrix(1 0 0 1 -1462 -816 )">
    <path d="M 1488 816  C 1502.56 816  1514 827.44  1514 842  C 1514 856.56  1502.56 868  1488 868  C 1473.44 868  1462 856.56  1462 842  C 1462 827.44  1473.44 816  1488 816  Z " fill-rule="nonzero" fill="#ffffff" stroke="none" />
    <path d="M 1488 816.5  C 1502.28 816.5  1513.5 827.72  1513.5 842  C 1513.5 856.28  1502.28 867.5  1488 867.5  C 1473.72 867.5  1462.5 856.28  1462.5 842  C 1462.5 827.72  1473.72 816.5  1488 816.5  Z " stroke-width="1" stroke="#797979" fill="none" />
  </g>
</svg>