<?xml version="1.0" encoding="utf-8"?>
<svg version="1.1" xmlns:xlink="http://www.w3.org/1999/xlink" width="21px" height="21px" xmlns="http://www.w3.org/2000/svg">
  <defs>
    <filter x="1702px" y="73px" width="21px" height="21px" filterUnits="userSpaceOnUse" id="filter23">
      <feOffset dx="1" dy="1" in="SourceAlpha" result="shadowOffsetInner" />
      <feGaussianBlur stdDeviation="2.5" in="shadowOffsetInner" result="shadowGaussian" />
      <feComposite in2="shadowGaussian" operator="atop" in="SourceAlpha" result="shadowComposite" />
      <feColorMatrix type="matrix" values="0 0 0 0 0  0 0 0 0 0  0 0 0 0 0  0 0 0 0.698039215686274 0  " in="shadowComposite" />
    </filter>
    <g id="widget24">
      <path d="M 1711.5 77  C 1714.58 77  1717 79.42  1717 82.5  C 1717 85.58  1714.58 88  1711.5 88  C 1708.42 88  1706 85.58  1706 82.5  C 1706 79.42  1708.42 77  1711.5 77  Z " fill-rule="nonzero" fill="#d9001b" stroke="none" />
      <path d="M 1711.5 77.5  C 1714.3 77.5  1716.5 79.7  1716.5 82.5  C 1716.5 85.3  1714.3 87.5  1711.5 87.5  C 1708.7 87.5  1706.5 85.3  1706.5 82.5  C 1706.5 79.7  1708.7 77.5  1711.5 77.5  Z " stroke-width="1" stroke="#ffffff" fill="none" />
    </g>
  </defs>
  <g transform="matrix(1 0 0 1 -1702 -73 )">
    <use xlink:href="#widget24" filter="url(#filter23)" />
    <use xlink:href="#widget24" />
  </g>
</svg>