<?xml version="1.0" encoding="utf-8"?>
<svg version="1.1" xmlns:xlink="http://www.w3.org/1999/xlink" width="10px" height="25px" preserveAspectRatio="xMidYMin meet" viewBox="265 365  8 25" xmlns="http://www.w3.org/2000/svg">
  <path d="M 269 388  L 269 375  A 5 5 0 0 1 274 370 L 1333 370  A 5 5 0 0 1 1338 375 L 1338 404  " stroke-width="2" stroke="#0099cc" fill="none" />
  <path d="M 273.292893218813 382.892893218813  L 269 387.185786437627  L 264.707106781187 382.892893218813  L 263.292893218813 384.307106781187  L 268.292893218813 389.307106781187  L 269 390.014213562373  L 269.707106781187 389.307106781187  L 274.707106781187 384.307106781187  L 273.292893218813 382.892893218813  Z M 1342.29289321881 398.892893218813  L 1338 403.185786437627  L 1333.70710678119 398.892893218813  L 1332.29289321881 400.307106781187  L 1337.29289321881 405.307106781187  L 1338 406.014213562373  L 1338.70710678119 405.307106781187  L 1343.70710678119 400.307106781187  L 1342.29289321881 398.892893218813  Z " fill-rule="nonzero" fill="#0099cc" stroke="none" />
</svg>