<?xml version="1.0" encoding="utf-8"?>
<svg version="1.1" xmlns:xlink="http://www.w3.org/1999/xlink" width="37px" height="37px" xmlns="http://www.w3.org/2000/svg">
  <defs>
    <mask fill="white" id="clip2074">
      <path d="M 37.5 97  C 27.2325 97  19 88.7675  19 78.5  L 19 78.5  C 19 68.2325  27.2325 60  37.5 60  L 37.5 60  C 47.7675 60  56 68.2325  56 78.5  L 56 78.5  C 56 88.7675  47.7675 97  37.5 97  " fill-rule="evenodd" />
    </mask>
  </defs>
  <g transform="matrix(1 0 0 1 -19 -60 )">
    <path d="M 19 60  L 56 60  L 56 97  L 19 97  L 19 60  " fill-rule="nonzero" fill="#cccccc" stroke="none" mask="url(#clip2074)" />
    <path d="M 22 63  L 53 63  L 53 94  L 22 94  L 22 63  " fill-rule="nonzero" fill="#ffffff" stroke="none" mask="url(#clip2074)" />
    <path d="M 41.015 71.1  C 39.461 71.1  38.24 69.879  38.24 68.325  C 38.24 66.771  39.461 65.55  41.015 65.55  C 42.569 65.55  43.79 66.771  43.79 68.325  C 43.79 69.879  42.569 71.1  41.015 71.1  " fill-rule="nonzero" fill="#cccccc" stroke="none" mask="url(#clip2074)" />
    <path d="M 23 93  L 23 77.05  L 30.25 69.8  L 40.4 75.6  L 46.2 74.15  L 52 75.6  L 52 93  L 23 93  " fill-rule="nonzero" fill="#169bd5" stroke="none" mask="url(#clip2074)" />
  </g>
</svg>