<?xml version="1.0" encoding="utf-8"?>
<svg version="1.1" xmlns:xlink="http://www.w3.org/1999/xlink" width="12px" height="12px" viewBox="276 666.5  12 12" xmlns="http://www.w3.org/2000/svg">
  <path d="M 282 666.5  C 285.36 666.5  288 669.14  288 672.5  C 288 675.86  285.36 678.5  282 678.5  C 278.64 678.5  276 675.86  276 672.5  C 276 669.14  278.64 666.5  282 666.5  Z " fill-rule="nonzero" fill="#f0f0f0" stroke="none" />
  <path d="M 282 667  C 285.08 667  287.5 669.42  287.5 672.5  C 287.5 675.58  285.08 678  282 678  C 278.92 678  276.5 675.58  276.5 672.5  C 276.5 669.42  278.92 667  282 667  Z " stroke-width="1" stroke="#797979" fill="none" />
  <path d="M 282 675.5  C 280.32 675.5  279 674.18  279 672.5  C 279 670.82  280.32 669.5  282 669.5  C 283.68 669.5  285 670.82  285 672.5  C 285 674.18  283.68 675.5  282 675.5  " fill-rule="nonzero" fill="#797979" stroke="none" />
</svg>