<?xml version="1.0" encoding="utf-8"?>
<svg version="1.1" xmlns:xlink="http://www.w3.org/1999/xlink" width="12px" height="12px" viewBox="378 16.5  12 12" xmlns="http://www.w3.org/2000/svg">
  <path d="M 384 16.5  C 387.36 16.5  390 19.14  390 22.5  C 390 25.86  387.36 28.5  384 28.5  C 380.64 28.5  378 25.86  378 22.5  C 378 19.14  380.64 16.5  384 16.5  Z " fill-rule="nonzero" fill="#ffffff" stroke="none" />
  <path d="M 384 17  C 387.08 17  389.5 19.42  389.5 22.5  C 389.5 25.58  387.08 28  384 28  C 380.92 28  378.5 25.58  378.5 22.5  C 378.5 19.42  380.92 17  384 17  Z " stroke-width="1" stroke="#797979" fill="none" />
  <path d="M 384 25.5  C 382.32 25.5  381 24.18  381 22.5  C 381 20.82  382.32 19.5  384 19.5  C 385.68 19.5  387 20.82  387 22.5  C 387 24.18  385.68 25.5  384 25.5  " fill-rule="nonzero" fill="#797979" stroke="none" />
</svg>