<?xml version="1.0" encoding="utf-8"?>
<svg version="1.1" xmlns:xlink="http://www.w3.org/1999/xlink" width="12px" height="12px" viewBox="217 16.5  12 12" xmlns="http://www.w3.org/2000/svg">
  <path d="M 223 16.5  C 226.36 16.5  229 19.14  229 22.5  C 229 25.86  226.36 28.5  223 28.5  C 219.64 28.5  217 25.86  217 22.5  C 217 19.14  219.64 16.5  223 16.5  Z " fill-rule="nonzero" fill="#f0f0f0" stroke="none" />
  <path d="M 223 17  C 226.08 17  228.5 19.42  228.5 22.5  C 228.5 25.58  226.08 28  223 28  C 219.92 28  217.5 25.58  217.5 22.5  C 217.5 19.42  219.92 17  223 17  Z " stroke-width="1" stroke="#797979" fill="none" />
  <path d="M 223 25.5  C 221.32 25.5  220 24.18  220 22.5  C 220 20.82  221.32 19.5  223 19.5  C 224.68 19.5  226 20.82  226 22.5  C 226 24.18  224.68 25.5  223 25.5  " fill-rule="nonzero" fill="#797979" stroke="none" />
</svg>