<?xml version="1.0" encoding="utf-8"?>
<svg version="1.1" xmlns:xlink="http://www.w3.org/1999/xlink" width="12px" height="12px" viewBox="55 16.5  12 12" xmlns="http://www.w3.org/2000/svg">
  <path d="M 61 16.5  C 64.36 16.5  67 19.14  67 22.5  C 67 25.86  64.36 28.5  61 28.5  C 57.64 28.5  55 25.86  55 22.5  C 55 19.14  57.64 16.5  61 16.5  Z " fill-rule="nonzero" fill="#ffffff" stroke="none" />
  <path d="M 61 17  C 64.08 17  66.5 19.42  66.5 22.5  C 66.5 25.58  64.08 28  61 28  C 57.92 28  55.5 25.58  55.5 22.5  C 55.5 19.42  57.92 17  61 17  Z " stroke-width="1" stroke="#797979" fill="none" />
  <path d="M 61 25.5  C 59.32 25.5  58 24.18  58 22.5  C 58 20.82  59.32 19.5  61 19.5  C 62.68 19.5  64 20.82  64 22.5  C 64 24.18  62.68 25.5  61 25.5  " fill-rule="nonzero" fill="#797979" stroke="none" />
</svg>