<?xml version="1.0" encoding="utf-8"?>
<svg version="1.1" xmlns:xlink="http://www.w3.org/1999/xlink" width="36px" height="23px" viewBox="146 20  36 23" xmlns="http://www.w3.org/2000/svg">
  <path d="M 147 25  A 4 4 0 0 1 151 21 L 177 21  A 4 4 0 0 1 181 25 L 181 38  A 4 4 0 0 1 177 42 L 151 42  A 4 4 0 0 1 147 38 L 147 25  Z " fill-rule="nonzero" fill="#ffffff" stroke="none" />
  <path d="M 146.5 25  A 4.5 4.5 0 0 1 151 20.5 L 177 20.5  A 4.5 4.5 0 0 1 181.5 25 L 181.5 38  A 4.5 4.5 0 0 1 177 42.5 L 151 42.5  A 4.5 4.5 0 0 1 146.5 38 L 146.5 25  Z " stroke-width="1" stroke="#797979" fill="none" stroke-opacity="0.12156862745098" />
</svg>