<?xml version="1.0" encoding="utf-8"?>
<svg version="1.1" xmlns:xlink="http://www.w3.org/1999/xlink" width="184px" height="36px" viewBox="1075 159  184 36" xmlns="http://www.w3.org/2000/svg">
  <path d="M 1076 164  A 4 4 0 0 1 1080 160 L 1254 160  A 4 4 0 0 1 1258 164 L 1258 190  A 4 4 0 0 1 1254 194 L 1080 194  A 4 4 0 0 1 1076 190 L 1076 164  Z " fill-rule="nonzero" fill="#ffffff" stroke="none" />
  <path d="M 1075.5 164  A 4.5 4.5 0 0 1 1080 159.5 L 1254 159.5  A 4.5 4.5 0 0 1 1258.5 164 L 1258.5 190  A 4.5 4.5 0 0 1 1254 194.5 L 1080 194.5  A 4.5 4.5 0 0 1 1075.5 190 L 1075.5 164  Z " stroke-width="1" stroke="#797979" fill="none" stroke-opacity="0.345098039215686" />
</svg>