<?xml version="1.0" encoding="utf-8"?>
<svg version="1.1" xmlns:xlink="http://www.w3.org/1999/xlink" width="184px" height="36px" viewBox="921 1142  184 36" xmlns="http://www.w3.org/2000/svg">
  <path d="M 922 1147  A 4 4 0 0 1 926 1143 L 1100 1143  A 4 4 0 0 1 1104 1147 L 1104 1173  A 4 4 0 0 1 1100 1177 L 926 1177  A 4 4 0 0 1 922 1173 L 922 1147  Z " fill-rule="nonzero" fill="#ffffff" stroke="none" />
  <path d="M 921.5 1147  A 4.5 4.5 0 0 1 926 1142.5 L 1100 1142.5  A 4.5 4.5 0 0 1 1104.5 1147 L 1104.5 1173  A 4.5 4.5 0 0 1 1100 1177.5 L 926 1177.5  A 4.5 4.5 0 0 1 921.5 1173 L 921.5 1147  Z " stroke-width="1" stroke="#797979" fill="none" stroke-opacity="0.27843137254902" />
</svg>