<?xml version="1.0" encoding="utf-8"?>
<svg version="1.1" xmlns:xlink="http://www.w3.org/1999/xlink" width="388px" height="10px" preserveAspectRatio="xMinYMid meet" viewBox="275 676  388 8" xmlns="http://www.w3.org/2000/svg">
  <path d="M 211 760  L 275 760  A 5 5 0 0 0 280 755 L 280 685  A 5 5 0 0 1 285 680 L 653 680  A 5 5 0 0 1 658 685 L 658 695  " stroke-width="2" stroke="#0099cc" fill="none" />
  <path d="M 216.107106781187 764.292893218813  L 211.814213562373 760  L 216.107106781187 755.707106781187  L 214.692893218813 754.292893218813  L 209.692893218813 759.292893218813  L 208.985786437627 760  L 209.692893218813 760.707106781187  L 214.692893218813 765.707106781187  L 216.107106781187 764.292893218813  Z M 650 687.6  L 658 697  L 666 687.6  L 658 691.2  L 650 687.6  Z " fill-rule="nonzero" fill="#0099cc" stroke="none" />
</svg>