<?xml version="1.0" encoding="utf-8"?>
<svg version="1.1" xmlns:xlink="http://www.w3.org/1999/xlink" width="390px" height="425px" xmlns="http://www.w3.org/2000/svg">
  <g transform="matrix(1 0 0 1 -714 -87 )">
    <path d="M 715 98  A 10 10 0 0 1 725 88 L 1093 88  A 10 10 0 0 1 1103 98 L 1103 501  A 10 10 0 0 1 1093 511 L 725 511  A 10 10 0 0 1 715 501 L 715 98  Z " fill-rule="nonzero" fill="#ffffff" stroke="none" />
    <path d="M 714.5 98  A 10.5 10.5 0 0 1 725 87.5 L 1093 87.5  A 10.5 10.5 0 0 1 1103.5 98 L 1103.5 501  A 10.5 10.5 0 0 1 1093 511.5 L 725 511.5  A 10.5 10.5 0 0 1 714.5 501 L 714.5 98  Z " stroke-width="1" stroke="#797979" fill="none" stroke-opacity="0.364705882352941" />
  </g>
</svg>