<?xml version="1.0" encoding="utf-8"?>
<svg version="1.1" xmlns:xlink="http://www.w3.org/1999/xlink" width="328px" height="755px" xmlns="http://www.w3.org/2000/svg">
  <g>
    <path d="M 1 5  A 4 4 0 0 1 5 1 L 323 1  A 4 4 0 0 1 327 5 L 327 750  A 4 4 0 0 1 323 754 L 5 754  A 4 4 0 0 1 1 750 L 1 5  Z " fill-rule="nonzero" fill="#ffffff" stroke="none" fill-opacity="0.0823529411764706" />
    <path d="M 0.5 5  A 4.5 4.5 0 0 1 5 0.5 L 323 0.5  A 4.5 4.5 0 0 1 327.5 5 L 327.5 750  A 4.5 4.5 0 0 1 323 754.5 L 5 754.5  A 4.5 4.5 0 0 1 0.5 750 L 0.5 5  Z " stroke-width="1" stroke="#797979" fill="none" stroke-opacity="0.184313725490196" />
  </g>
</svg>