<?xml version="1.0" encoding="utf-8"?>
<svg version="1.1" xmlns:xlink="http://www.w3.org/1999/xlink" width="1424px" height="755px" xmlns="http://www.w3.org/2000/svg">
  <g transform="matrix(1 0 0 1 -336 0 )">
    <path d="M 337 5  A 4 4 0 0 1 341 1 L 1755 1  A 4 4 0 0 1 1759 5 L 1759 750  A 4 4 0 0 1 1755 754 L 341 754  A 4 4 0 0 1 337 750 L 337 5  Z " fill-rule="nonzero" fill="#ffffff" stroke="none" fill-opacity="0.0823529411764706" />
    <path d="M 336.5 5  A 4.5 4.5 0 0 1 341 0.5 L 1755 0.5  A 4.5 4.5 0 0 1 1759.5 5 L 1759.5 750  A 4.5 4.5 0 0 1 1755 754.5 L 341 754.5  A 4.5 4.5 0 0 1 336.5 750 L 336.5 5  Z " stroke-width="1" stroke="#797979" fill="none" stroke-opacity="0.184313725490196" />
  </g>
</svg>