<?xml version="1.0" encoding="utf-8"?>
<svg version="1.1" xmlns:xlink="http://www.w3.org/1999/xlink" width="12px" height="12px" viewBox="483 818  12 12" xmlns="http://www.w3.org/2000/svg">
  <path d="M 483.5 823  A 4.5 4.5 0 0 1 488 818.5 L 490 818.5  A 4.5 4.5 0 0 1 494.5 823 L 494.5 825  A 4.5 4.5 0 0 1 490 829.5 L 488 829.5  A 4.5 4.5 0 0 1 483.5 825 L 483.5 823  Z " fill-rule="nonzero" fill="#f0f0f0" stroke="none" />
  <path d="M 483.5 823  A 4.5 4.5 0 0 1 488 818.5 L 490 818.5  A 4.5 4.5 0 0 1 494.5 823 L 494.5 825  A 4.5 4.5 0 0 1 490 829.5 L 488 829.5  A 4.5 4.5 0 0 1 483.5 825 L 483.5 823  Z " stroke-width="1" stroke="#797979" fill="none" />
</svg>