<?xml version="1.0" encoding="utf-8"?>
<svg version="1.1" xmlns:xlink="http://www.w3.org/1999/xlink" width="12px" height="12px" viewBox="177 479  12 12" xmlns="http://www.w3.org/2000/svg">
  <path d="M 177.5 484  A 4.5 4.5 0 0 1 182 479.5 L 184 479.5  A 4.5 4.5 0 0 1 188.5 484 L 188.5 486  A 4.5 4.5 0 0 1 184 490.5 L 182 490.5  A 4.5 4.5 0 0 1 177.5 486 L 177.5 484  Z " fill-rule="nonzero" fill="#ffffff" stroke="none" />
  <path d="M 177.5 484  A 4.5 4.5 0 0 1 182 479.5 L 184 479.5  A 4.5 4.5 0 0 1 188.5 484 L 188.5 486  A 4.5 4.5 0 0 1 184 490.5 L 182 490.5  A 4.5 4.5 0 0 1 177.5 486 L 177.5 484  Z " stroke-width="1" stroke="#797979" fill="none" />
</svg>