<?xml version="1.0" encoding="utf-8"?>
<svg version="1.1" xmlns:xlink="http://www.w3.org/1999/xlink" width="12px" height="12px" viewBox="177 428  12 12" xmlns="http://www.w3.org/2000/svg">
  <path d="M 177.5 433  A 4.5 4.5 0 0 1 182 428.5 L 184 428.5  A 4.5 4.5 0 0 1 188.5 433 L 188.5 435  A 4.5 4.5 0 0 1 184 439.5 L 182 439.5  A 4.5 4.5 0 0 1 177.5 435 L 177.5 433  Z " fill-rule="nonzero" fill="#ffffff" stroke="none" />
  <path d="M 177.5 433  A 4.5 4.5 0 0 1 182 428.5 L 184 428.5  A 4.5 4.5 0 0 1 188.5 433 L 188.5 435  A 4.5 4.5 0 0 1 184 439.5 L 182 439.5  A 4.5 4.5 0 0 1 177.5 435 L 177.5 433  Z " stroke-width="1" stroke="#797979" fill="none" />
  <path d="M 179.571428571429 434  L 182.142857142857 436.571428571429  " stroke-width="2.57142857142857" stroke="#797979" fill="none" />
  <path d="M 182.142857142857 436.571428571429  L 186.428571428571 430.571428571429  " stroke-width="2.57142857142857" stroke="#797979" fill="none" />
</svg>