<?xml version="1.0" encoding="utf-8"?>
<svg version="1.1" xmlns:xlink="http://www.w3.org/1999/xlink" width="12px" height="12px" viewBox="177 532  12 12" xmlns="http://www.w3.org/2000/svg">
  <path d="M 177.5 537  A 4.5 4.5 0 0 1 182 532.5 L 184 532.5  A 4.5 4.5 0 0 1 188.5 537 L 188.5 539  A 4.5 4.5 0 0 1 184 543.5 L 182 543.5  A 4.5 4.5 0 0 1 177.5 539 L 177.5 537  Z " fill-rule="nonzero" fill="#ffffff" stroke="none" />
  <path d="M 177.5 537  A 4.5 4.5 0 0 1 182 532.5 L 184 532.5  A 4.5 4.5 0 0 1 188.5 537 L 188.5 539  A 4.5 4.5 0 0 1 184 543.5 L 182 543.5  A 4.5 4.5 0 0 1 177.5 539 L 177.5 537  Z " stroke-width="1" stroke="#797979" fill="none" />
</svg>