<?xml version="1.0" encoding="utf-8"?>
<svg version="1.1" xmlns:xlink="http://www.w3.org/1999/xlink" width="12px" height="12px" viewBox="177 585  12 12" xmlns="http://www.w3.org/2000/svg">
  <path d="M 177.5 590  A 4.5 4.5 0 0 1 182 585.5 L 184 585.5  A 4.5 4.5 0 0 1 188.5 590 L 188.5 592  A 4.5 4.5 0 0 1 184 596.5 L 182 596.5  A 4.5 4.5 0 0 1 177.5 592 L 177.5 590  Z " fill-rule="nonzero" fill="#ffffff" stroke="none" />
  <path d="M 177.5 590  A 4.5 4.5 0 0 1 182 585.5 L 184 585.5  A 4.5 4.5 0 0 1 188.5 590 L 188.5 592  A 4.5 4.5 0 0 1 184 596.5 L 182 596.5  A 4.5 4.5 0 0 1 177.5 592 L 177.5 590  Z " stroke-width="1" stroke="#797979" fill="none" />
  <path d="M 179.571428571429 591  L 182.142857142857 593.571428571429  " stroke-width="2.57142857142857" stroke="#797979" fill="none" />
  <path d="M 182.142857142857 593.571428571429  L 186.428571428571 587.571428571429  " stroke-width="2.57142857142857" stroke="#797979" fill="none" />
</svg>