<?xml version="1.0" encoding="utf-8"?>
<svg version="1.1" xmlns:xlink="http://www.w3.org/1999/xlink" width="12px" height="12px" viewBox="103 83.5  12 12" xmlns="http://www.w3.org/2000/svg">
  <path d="M 103.5 88.5  A 4.5 4.5 0 0 1 108 84 L 110 84  A 4.5 4.5 0 0 1 114.5 88.5 L 114.5 90.5  A 4.5 4.5 0 0 1 110 95 L 108 95  A 4.5 4.5 0 0 1 103.5 90.5 L 103.5 88.5  Z " fill-rule="nonzero" fill="#ffffff" stroke="none" />
  <path d="M 103.5 88.5  A 4.5 4.5 0 0 1 108 84 L 110 84  A 4.5 4.5 0 0 1 114.5 88.5 L 114.5 90.5  A 4.5 4.5 0 0 1 110 95 L 108 95  A 4.5 4.5 0 0 1 103.5 90.5 L 103.5 88.5  Z " stroke-width="1" stroke="#797979" fill="none" />
  <path d="M 105.571428571429 89.5  L 108.142857142857 92.0714285714286  " stroke-width="2.57142857142857" stroke="#797979" fill="none" />
  <path d="M 108.142857142857 92.0714285714286  L 112.428571428571 86.0714285714286  " stroke-width="2.57142857142857" stroke="#797979" fill="none" />
</svg>