<?xml version="1.0" encoding="utf-8"?>
<svg version="1.1" xmlns:xlink="http://www.w3.org/1999/xlink" width="103px" height="105px" xmlns="http://www.w3.org/2000/svg">
  <defs>
    <mask fill="white" id="clip807">
      <path d="M 236 386  C 233.225 386  231 383.775  231 381  L 231 286  C 231 283.225  233.225 281  236 281  L 329 281  C 331.775 281  334 283.225  334 286  L 334 381  C 334 383.775  331.775 386  329 386  " fill-rule="evenodd" />
    </mask>
  </defs>
  <g transform="matrix(1 0 0 1 -231 -281 )">
    <path d="M 231 281  L 334 281  L 334 386  L 231 386  L 231 281  " fill-rule="nonzero" fill="#cccccc" stroke="none" mask="url(#clip807)" />
    <path d="M 238 288  L 327 288  L 327 379  L 238 379  L 238 288  " fill-rule="nonzero" fill="#ffffff" stroke="none" mask="url(#clip807)" />
    <path d="M 292.285 312.2  C 287.959 312.2  284.56 308.801  284.56 304.475  C 284.56 300.149  287.959 296.75  292.285 296.75  C 296.611 296.75  300.01 300.149  300.01 304.475  C 300.01 308.801  296.611 312.2  292.285 312.2  " fill-rule="nonzero" fill="#cccccc" stroke="none" mask="url(#clip807)" />
    <path d="M 241 377  L 241 329.7  L 262 308.2  L 291.4 325.4  L 308.2 321.1  L 325 325.4  L 325 377  L 241 377  " fill-rule="nonzero" fill="#169bd5" stroke="none" mask="url(#clip807)" />
  </g>
</svg>