<?xml version="1.0" encoding="utf-8"?>
<svg version="1.1" xmlns:xlink="http://www.w3.org/1999/xlink" width="12px" height="12px" viewBox="202 868  12 12" xmlns="http://www.w3.org/2000/svg">
  <path d="M 208 868  C 211.36 868  214 870.64  214 874  C 214 877.36  211.36 880  208 880  C 204.64 880  202 877.36  202 874  C 202 870.64  204.64 868  208 868  Z " fill-rule="nonzero" fill="#ffffff" stroke="none" />
  <path d="M 208 868.5  C 211.08 868.5  213.5 870.92  213.5 874  C 213.5 877.08  211.08 879.5  208 879.5  C 204.92 879.5  202.5 877.08  202.5 874  C 202.5 870.92  204.92 868.5  208 868.5  Z " stroke-width="1" stroke="#797979" fill="none" />
  <path d="M 208 877  C 206.32 877  205 875.68  205 874  C 205 872.32  206.32 871  208 871  C 209.68 871  211 872.32  211 874  C 211 875.68  209.68 877  208 877  " fill-rule="nonzero" fill="#797979" stroke="none" />
</svg>