<?xml version="1.0" encoding="utf-8"?>
<svg version="1.1" xmlns:xlink="http://www.w3.org/1999/xlink" width="12px" height="12px" viewBox="288 753  12 12" xmlns="http://www.w3.org/2000/svg">
  <path d="M 294 753  C 297.36 753  300 755.64  300 759  C 300 762.36  297.36 765  294 765  C 290.64 765  288 762.36  288 759  C 288 755.64  290.64 753  294 753  Z " fill-rule="nonzero" fill="#ffffff" stroke="none" />
  <path d="M 294 753.5  C 297.08 753.5  299.5 755.92  299.5 759  C 299.5 762.08  297.08 764.5  294 764.5  C 290.92 764.5  288.5 762.08  288.5 759  C 288.5 755.92  290.92 753.5  294 753.5  Z " stroke-width="1" stroke="#797979" fill="none" />
  <path d="M 294 762  C 292.32 762  291 760.68  291 759  C 291 757.32  292.32 756  294 756  C 295.68 756  297 757.32  297 759  C 297 760.68  295.68 762  294 762  " fill-rule="nonzero" fill="#797979" stroke="none" />
</svg>