<?xml version="1.0" encoding="utf-8"?>
<svg version="1.1" xmlns:xlink="http://www.w3.org/1999/xlink" width="12px" height="12px" viewBox="194 753  12 12" xmlns="http://www.w3.org/2000/svg">
  <path d="M 200 753  C 203.36 753  206 755.64  206 759  C 206 762.36  203.36 765  200 765  C 196.64 765  194 762.36  194 759  C 194 755.64  196.64 753  200 753  Z " fill-rule="nonzero" fill="#ffffff" stroke="none" />
  <path d="M 200 753.5  C 203.08 753.5  205.5 755.92  205.5 759  C 205.5 762.08  203.08 764.5  200 764.5  C 196.92 764.5  194.5 762.08  194.5 759  C 194.5 755.92  196.92 753.5  200 753.5  Z " stroke-width="1" stroke="#797979" fill="none" />
  <path d="M 200 762  C 198.32 762  197 760.68  197 759  C 197 757.32  198.32 756  200 756  C 201.68 756  203 757.32  203 759  C 203 760.68  201.68 762  200 762  " fill-rule="nonzero" fill="#797979" stroke="none" />
</svg>