<?xml version="1.0" encoding="utf-8"?>
<svg version="1.1" xmlns:xlink="http://www.w3.org/1999/xlink" width="12px" height="12px" viewBox="260 396  12 12" xmlns="http://www.w3.org/2000/svg">
  <path d="M 266 396  C 269.36 396  272 398.64  272 402  C 272 405.36  269.36 408  266 408  C 262.64 408  260 405.36  260 402  C 260 398.64  262.64 396  266 396  Z " fill-rule="nonzero" fill="#ffffff" stroke="none" />
  <path d="M 266 396.5  C 269.08 396.5  271.5 398.92  271.5 402  C 271.5 405.08  269.08 407.5  266 407.5  C 262.92 407.5  260.5 405.08  260.5 402  C 260.5 398.92  262.92 396.5  266 396.5  Z " stroke-width="1" stroke="#797979" fill="none" />
  <path d="M 266 405  C 264.32 405  263 403.68  263 402  C 263 400.32  264.32 399  266 399  C 267.68 399  269 400.32  269 402  C 269 403.68  267.68 405  266 405  " fill-rule="nonzero" fill="#797979" stroke="none" />
</svg>