<?xml version="1.0" encoding="utf-8"?>
<svg version="1.1" xmlns:xlink="http://www.w3.org/1999/xlink" width="12px" height="12px" viewBox="189 396  12 12" xmlns="http://www.w3.org/2000/svg">
  <path d="M 195 396  C 198.36 396  201 398.64  201 402  C 201 405.36  198.36 408  195 408  C 191.64 408  189 405.36  189 402  C 189 398.64  191.64 396  195 396  Z " fill-rule="nonzero" fill="#f0f0f0" stroke="none" />
  <path d="M 195 396.5  C 198.08 396.5  200.5 398.92  200.5 402  C 200.5 405.08  198.08 407.5  195 407.5  C 191.92 407.5  189.5 405.08  189.5 402  C 189.5 398.92  191.92 396.5  195 396.5  Z " stroke-width="1" stroke="#797979" fill="none" />
  <path d="M 195 405  C 193.32 405  192 403.68  192 402  C 192 400.32  193.32 399  195 399  C 196.68 399  198 400.32  198 402  C 198 403.68  196.68 405  195 405  " fill-rule="nonzero" fill="#797979" stroke="none" />
</svg>