<?xml version="1.0" encoding="utf-8"?>
<svg version="1.1" xmlns:xlink="http://www.w3.org/1999/xlink" width="140px" height="39px" viewBox="199 899  140 39" xmlns="http://www.w3.org/2000/svg">
  <path d="M 200 904  A 4 4 0 0 1 204 900 L 334 900  A 4 4 0 0 1 338 904 L 338 933  A 4 4 0 0 1 334 937 L 204 937  A 4 4 0 0 1 200 933 L 200 904  Z " fill-rule="nonzero" fill="#ffffff" stroke="none" />
  <path d="M 199.5 904  A 4.5 4.5 0 0 1 204 899.5 L 334 899.5  A 4.5 4.5 0 0 1 338.5 904 L 338.5 933  A 4.5 4.5 0 0 1 334 937.5 L 204 937.5  A 4.5 4.5 0 0 1 199.5 933 L 199.5 904  Z " stroke-width="1" stroke="#797979" fill="none" stroke-opacity="0.258823529411765" />
</svg>