<?xml version="1.0" encoding="utf-8"?>
<svg version="1.1" xmlns:xlink="http://www.w3.org/1999/xlink" width="707px" height="529px" xmlns="http://www.w3.org/2000/svg">
  <g transform="matrix(1 0 0 1 -463 -235 )">
    <path d="M 464 240  A 4 4 0 0 1 468 236 L 1165 236  A 4 4 0 0 1 1169 240 L 1169 759  A 4 4 0 0 1 1165 763 L 468 763  A 4 4 0 0 1 464 759 L 464 240  Z " fill-rule="nonzero" fill="#ffffff" stroke="none" />
    <path d="M 463.5 240  A 4.5 4.5 0 0 1 468 235.5 L 1165 235.5  A 4.5 4.5 0 0 1 1169.5 240 L 1169.5 759  A 4.5 4.5 0 0 1 1165 763.5 L 468 763.5  A 4.5 4.5 0 0 1 463.5 759 L 463.5 240  Z " stroke-width="1" stroke="#797979" fill="none" stroke-opacity="0.117647058823529" />
  </g>
</svg>