<?xml version="1.0" encoding="utf-8"?>
<svg version="1.1" xmlns:xlink="http://www.w3.org/1999/xlink" width="176px" height="25px" viewBox="929 335  176 25" xmlns="http://www.w3.org/2000/svg">
  <path d="M 930 340  A 4 4 0 0 1 934 336 L 1100 336  A 4 4 0 0 1 1104 340 L 1104 355  A 4 4 0 0 1 1100 359 L 934 359  A 4 4 0 0 1 930 355 L 930 340  Z " fill-rule="nonzero" fill="#ffffff" stroke="none" />
  <path d="M 929.5 340  A 4.5 4.5 0 0 1 934 335.5 L 1100 335.5  A 4.5 4.5 0 0 1 1104.5 340 L 1104.5 355  A 4.5 4.5 0 0 1 1100 359.5 L 934 359.5  A 4.5 4.5 0 0 1 929.5 355 L 929.5 340  Z " stroke-width="1" stroke="#797979" fill="none" stroke-opacity="0.250980392156863" />
</svg>