<?xml version="1.0" encoding="utf-8"?>
<svg version="1.1" xmlns:xlink="http://www.w3.org/1999/xlink" width="12px" height="12px" viewBox="184 488.5  12 12" xmlns="http://www.w3.org/2000/svg">
  <path d="M 190 488.5  C 193.36 488.5  196 491.14  196 494.5  C 196 497.86  193.36 500.5  190 500.5  C 186.64 500.5  184 497.86  184 494.5  C 184 491.14  186.64 488.5  190 488.5  Z " fill-rule="nonzero" fill="#ffffff" stroke="none" />
  <path d="M 190 489  C 193.08 489  195.5 491.42  195.5 494.5  C 195.5 497.58  193.08 500  190 500  C 186.92 500  184.5 497.58  184.5 494.5  C 184.5 491.42  186.92 489  190 489  Z " stroke-width="1" stroke="#797979" fill="none" />
  <path d="M 190 497.5  C 188.32 497.5  187 496.18  187 494.5  C 187 492.82  188.32 491.5  190 491.5  C 191.68 491.5  193 492.82  193 494.5  C 193 496.18  191.68 497.5  190 497.5  " fill-rule="nonzero" fill="#797979" stroke="none" />
</svg>