<?xml version="1.0" encoding="utf-8"?>
<svg version="1.1" xmlns:xlink="http://www.w3.org/1999/xlink" width="12px" height="12px" viewBox="90 282.5  12 12" xmlns="http://www.w3.org/2000/svg">
  <path d="M 96 282.5  C 99.36 282.5  102 285.14  102 288.5  C 102 291.86  99.36 294.5  96 294.5  C 92.64 294.5  90 291.86  90 288.5  C 90 285.14  92.64 282.5  96 282.5  Z " fill-rule="nonzero" fill="#ffffff" stroke="none" />
  <path d="M 96 283  C 99.08 283  101.5 285.42  101.5 288.5  C 101.5 291.58  99.08 294  96 294  C 92.92 294  90.5 291.58  90.5 288.5  C 90.5 285.42  92.92 283  96 283  Z " stroke-width="1" stroke="#797979" fill="none" />
  <path d="M 96 291.5  C 94.32 291.5  93 290.18  93 288.5  C 93 286.82  94.32 285.5  96 285.5  C 97.68 285.5  99 286.82  99 288.5  C 99 290.18  97.68 291.5  96 291.5  " fill-rule="nonzero" fill="#797979" stroke="none" />
</svg>