<?xml version="1.0" encoding="utf-8"?>
<svg version="1.1" xmlns:xlink="http://www.w3.org/1999/xlink" width="12px" height="12px" viewBox="252 534  12 12" xmlns="http://www.w3.org/2000/svg">
  <path d="M 252.5 539  A 4.5 4.5 0 0 1 257 534.5 L 259 534.5  A 4.5 4.5 0 0 1 263.5 539 L 263.5 541  A 4.5 4.5 0 0 1 259 545.5 L 257 545.5  A 4.5 4.5 0 0 1 252.5 541 L 252.5 539  Z " fill-rule="nonzero" fill="#f0f0f0" stroke="none" />
  <path d="M 252.5 539  A 4.5 4.5 0 0 1 257 534.5 L 259 534.5  A 4.5 4.5 0 0 1 263.5 539 L 263.5 541  A 4.5 4.5 0 0 1 259 545.5 L 257 545.5  A 4.5 4.5 0 0 1 252.5 541 L 252.5 539  Z " stroke-width="1" stroke="#797979" fill="none" />
  <path d="M 254.571428571429 540  L 257.142857142857 542.571428571429  " stroke-width="2.57142857142857" stroke="#797979" fill="none" />
  <path d="M 257.142857142857 542.571428571429  L 261.428571428571 536.571428571429  " stroke-width="2.57142857142857" stroke="#797979" fill="none" />
</svg>