<?xml version="1.0" encoding="utf-8"?>
<svg version="1.1" xmlns:xlink="http://www.w3.org/1999/xlink" width="12px" height="12px" viewBox="230 486.5  12 12" xmlns="http://www.w3.org/2000/svg">
  <path d="M 236 486.5  C 239.36 486.5  242 489.14  242 492.5  C 242 495.86  239.36 498.5  236 498.5  C 232.64 498.5  230 495.86  230 492.5  C 230 489.14  232.64 486.5  236 486.5  Z " fill-rule="nonzero" fill="#ffffff" stroke="none" />
  <path d="M 236 487  C 239.08 487  241.5 489.42  241.5 492.5  C 241.5 495.58  239.08 498  236 498  C 232.92 498  230.5 495.58  230.5 492.5  C 230.5 489.42  232.92 487  236 487  Z " stroke-width="1" stroke="#797979" fill="none" />
  <path d="M 236 495.5  C 234.32 495.5  233 494.18  233 492.5  C 233 490.82  234.32 489.5  236 489.5  C 237.68 489.5  239 490.82  239 492.5  C 239 494.18  237.68 495.5  236 495.5  " fill-rule="nonzero" fill="#797979" stroke="none" />
</svg>