<?xml version="1.0" encoding="utf-8"?>
<svg version="1.1" xmlns:xlink="http://www.w3.org/1999/xlink" width="12px" height="12px" viewBox="682 191.5  12 12" xmlns="http://www.w3.org/2000/svg">
  <path d="M 688 191.5  C 691.36 191.5  694 194.14  694 197.5  C 694 200.86  691.36 203.5  688 203.5  C 684.64 203.5  682 200.86  682 197.5  C 682 194.14  684.64 191.5  688 191.5  Z " fill-rule="nonzero" fill="#ffffff" stroke="none" />
  <path d="M 688 192  C 691.08 192  693.5 194.42  693.5 197.5  C 693.5 200.58  691.08 203  688 203  C 684.92 203  682.5 200.58  682.5 197.5  C 682.5 194.42  684.92 192  688 192  Z " stroke-width="1" stroke="#797979" fill="none" />
  <path d="M 688 200.5  C 686.32 200.5  685 199.18  685 197.5  C 685 195.82  686.32 194.5  688 194.5  C 689.68 194.5  691 195.82  691 197.5  C 691 199.18  689.68 200.5  688 200.5  " fill-rule="nonzero" fill="#797979" stroke="none" />
</svg>