<?xml version="1.0" encoding="utf-8"?>
<svg version="1.1" xmlns:xlink="http://www.w3.org/1999/xlink" width="12px" height="12px" viewBox="398 377.5  12 12" xmlns="http://www.w3.org/2000/svg">
  <path d="M 404 377.5  C 407.36 377.5  410 380.14  410 383.5  C 410 386.86  407.36 389.5  404 389.5  C 400.64 389.5  398 386.86  398 383.5  C 398 380.14  400.64 377.5  404 377.5  Z " fill-rule="nonzero" fill="#ffffff" stroke="none" />
  <path d="M 404 378  C 407.08 378  409.5 380.42  409.5 383.5  C 409.5 386.58  407.08 389  404 389  C 400.92 389  398.5 386.58  398.5 383.5  C 398.5 380.42  400.92 378  404 378  Z " stroke-width="1" stroke="#797979" fill="none" />
  <path d="M 404 386.5  C 402.32 386.5  401 385.18  401 383.5  C 401 381.82  402.32 380.5  404 380.5  C 405.68 380.5  407 381.82  407 383.5  C 407 385.18  405.68 386.5  404 386.5  " fill-rule="nonzero" fill="#797979" stroke="none" />
</svg>