<?xml version="1.0" encoding="utf-8"?>
<svg version="1.1" xmlns:xlink="http://www.w3.org/1999/xlink" width="12px" height="12px" viewBox="104 536  12 12" xmlns="http://www.w3.org/2000/svg">
  <path d="M 104.5 541  A 4.5 4.5 0 0 1 109 536.5 L 111 536.5  A 4.5 4.5 0 0 1 115.5 541 L 115.5 543  A 4.5 4.5 0 0 1 111 547.5 L 109 547.5  A 4.5 4.5 0 0 1 104.5 543 L 104.5 541  Z " fill-rule="nonzero" fill="#ffffff" stroke="none" />
  <path d="M 104.5 541  A 4.5 4.5 0 0 1 109 536.5 L 111 536.5  A 4.5 4.5 0 0 1 115.5 541 L 115.5 543  A 4.5 4.5 0 0 1 111 547.5 L 109 547.5  A 4.5 4.5 0 0 1 104.5 543 L 104.5 541  Z " stroke-width="1" stroke="#797979" fill="none" />
  <path d="M 106.571428571429 542  L 109.142857142857 544.571428571429  " stroke-width="2.57142857142857" stroke="#797979" fill="none" />
  <path d="M 109.142857142857 544.571428571429  L 113.428571428571 538.571428571429  " stroke-width="2.57142857142857" stroke="#797979" fill="none" />
</svg>