<?xml version="1.0" encoding="utf-8"?>
<svg version="1.1" xmlns:xlink="http://www.w3.org/1999/xlink" width="12px" height="12px" viewBox="389 486.5  12 12" xmlns="http://www.w3.org/2000/svg">
  <path d="M 395 486.5  C 398.36 486.5  401 489.14  401 492.5  C 401 495.86  398.36 498.5  395 498.5  C 391.64 498.5  389 495.86  389 492.5  C 389 489.14  391.64 486.5  395 486.5  Z " fill-rule="nonzero" fill="#ffffff" stroke="none" />
  <path d="M 395 487  C 398.08 487  400.5 489.42  400.5 492.5  C 400.5 495.58  398.08 498  395 498  C 391.92 498  389.5 495.58  389.5 492.5  C 389.5 489.42  391.92 487  395 487  Z " stroke-width="1" stroke="#797979" fill="none" />
  <path d="M 395 495.5  C 393.32 495.5  392 494.18  392 492.5  C 392 490.82  393.32 489.5  395 489.5  C 396.68 489.5  398 490.82  398 492.5  C 398 494.18  396.68 495.5  395 495.5  " fill-rule="nonzero" fill="#797979" stroke="none" />
</svg>