<?xml version="1.0" encoding="utf-8"?>
<svg version="1.1" xmlns:xlink="http://www.w3.org/1999/xlink" width="12px" height="12px" viewBox="484 377.5  12 12" xmlns="http://www.w3.org/2000/svg">
  <path d="M 490 377.5  C 493.36 377.5  496 380.14  496 383.5  C 496 386.86  493.36 389.5  490 389.5  C 486.64 389.5  484 386.86  484 383.5  C 484 380.14  486.64 377.5  490 377.5  Z " fill-rule="nonzero" fill="#f0f0f0" stroke="none" />
  <path d="M 490 378  C 493.08 378  495.5 380.42  495.5 383.5  C 495.5 386.58  493.08 389  490 389  C 486.92 389  484.5 386.58  484.5 383.5  C 484.5 380.42  486.92 378  490 378  Z " stroke-width="1" stroke="#797979" fill="none" />
  <path d="M 490 386.5  C 488.32 386.5  487 385.18  487 383.5  C 487 381.82  488.32 380.5  490 380.5  C 491.68 380.5  493 381.82  493 383.5  C 493 385.18  491.68 386.5  490 386.5  " fill-rule="nonzero" fill="#797979" stroke="none" />
</svg>