<?xml version="1.0" encoding="utf-8"?>
<svg version="1.1" xmlns:xlink="http://www.w3.org/1999/xlink" width="12px" height="12px" viewBox="398 439.5  12 12" xmlns="http://www.w3.org/2000/svg">
  <path d="M 398.5 444.5  A 4.5 4.5 0 0 1 403 440 L 405 440  A 4.5 4.5 0 0 1 409.5 444.5 L 409.5 446.5  A 4.5 4.5 0 0 1 405 451 L 403 451  A 4.5 4.5 0 0 1 398.5 446.5 L 398.5 444.5  Z " fill-rule="nonzero" fill="#f0f0f0" stroke="none" />
  <path d="M 398.5 444.5  A 4.5 4.5 0 0 1 403 440 L 405 440  A 4.5 4.5 0 0 1 409.5 444.5 L 409.5 446.5  A 4.5 4.5 0 0 1 405 451 L 403 451  A 4.5 4.5 0 0 1 398.5 446.5 L 398.5 444.5  Z " stroke-width="1" stroke="#797979" fill="none" />
</svg>