<?xml version="1.0" encoding="utf-8"?>
<svg version="1.1" xmlns:xlink="http://www.w3.org/1999/xlink" width="219px" height="38px" xmlns="http://www.w3.org/2000/svg">
  <g transform="matrix(1 0 0 1 -495 -56 )">
    <path d="M 496 58  A 1 1 0 0 1 497 57 L 712 57  A 1 1 0 0 1 713 58 L 713 92  A 1 1 0 0 1 712 93 L 497 93  A 1 1 0 0 1 496 92 L 496 58  Z " fill-rule="nonzero" fill="#ffffff" stroke="none" />
    <path d="M 495.5 58  A 1.5 1.5 0 0 1 497 56.5 L 712 56.5  A 1.5 1.5 0 0 1 713.5 58 L 713.5 92  A 1.5 1.5 0 0 1 712 93.5 L 497 93.5  A 1.5 1.5 0 0 1 495.5 92 L 495.5 58  Z " stroke-width="1" stroke="#797979" fill="none" stroke-opacity="0.298039215686275" />
  </g>
</svg>