<?xml version="1.0" encoding="utf-8"?>
<svg version="1.1" xmlns:xlink="http://www.w3.org/1999/xlink" width="12px" height="12px" viewBox="156 812.5  12 12" xmlns="http://www.w3.org/2000/svg">
  <path d="M 162 812.5  C 165.36 812.5  168 815.14  168 818.5  C 168 821.86  165.36 824.5  162 824.5  C 158.64 824.5  156 821.86  156 818.5  C 156 815.14  158.64 812.5  162 812.5  Z " fill-rule="nonzero" fill="#f0f0f0" stroke="none" />
  <path d="M 162 813  C 165.08 813  167.5 815.42  167.5 818.5  C 167.5 821.58  165.08 824  162 824  C 158.92 824  156.5 821.58  156.5 818.5  C 156.5 815.42  158.92 813  162 813  Z " stroke-width="1" stroke="#797979" fill="none" />
  <path d="M 162 821.5  C 160.32 821.5  159 820.18  159 818.5  C 159 816.82  160.32 815.5  162 815.5  C 163.68 815.5  165 816.82  165 818.5  C 165 820.18  163.68 821.5  162 821.5  " fill-rule="nonzero" fill="#797979" stroke="none" />
</svg>