<?xml version="1.0" encoding="utf-8"?>
<svg version="1.1" xmlns:xlink="http://www.w3.org/1999/xlink" width="184px" height="38px" xmlns="http://www.w3.org/2000/svg">
  <g transform="matrix(1 0 0 1 -38 -110 )">
    <path d="M 39 112  A 1 1 0 0 1 40 111 L 220 111  A 1 1 0 0 1 221 112 L 221 146  A 1 1 0 0 1 220 147 L 40 147  A 1 1 0 0 1 39 146 L 39 112  Z " fill-rule="nonzero" fill="#ffffff" stroke="none" />
    <path d="M 38.5 112  A 1.5 1.5 0 0 1 40 110.5 L 220 110.5  A 1.5 1.5 0 0 1 221.5 112 L 221.5 146  A 1.5 1.5 0 0 1 220 147.5 L 40 147.5  A 1.5 1.5 0 0 1 38.5 146 L 38.5 112  Z " stroke-width="1" stroke="#797979" fill="none" stroke-opacity="0.298039215686275" />
  </g>
</svg>