<?xml version="1.0" encoding="utf-8"?>
<svg version="1.1" xmlns:xlink="http://www.w3.org/1999/xlink" width="120px" height="120px" xmlns="http://www.w3.org/2000/svg">
  <defs>
    <radialGradient cx="684" cy="723" r="120" gradientTransform="matrix(0 1 -1 0 1407 39 )" gradientUnits="userSpaceOnUse" id="RadialGradient920">
      <stop id="Stop921" stop-color="#33aba0" stop-opacity="0.203921568627451" offset="0" />
      <stop id="Stop922" stop-color="#ffffff" offset="1" />
    </radialGradient>
  </defs>
  <g transform="matrix(1 0 0 1 -620 -619 )">
    <path d="M 680 619.5  C 713.32 619.5  739.5 645.68  739.5 679  C 739.5 712.32  713.32 738.5  680 738.5  C 646.68 738.5  620.5 712.32  620.5 679  C 620.5 645.68  646.68 619.5  680 619.5  Z " fill-rule="nonzero" fill="url(#RadialGradient920)" stroke="none" />
    <path d="M 680 619.5  C 713.32 619.5  739.5 645.68  739.5 679  C 739.5 712.32  713.32 738.5  680 738.5  C 646.68 738.5  620.5 712.32  620.5 679  C 620.5 645.68  646.68 619.5  680 619.5  Z " stroke-width="1" stroke="#797979" fill="none" stroke-opacity="0.341176470588235" />
  </g>
</svg>