<?xml version="1.0" encoding="utf-8"?>
<svg version="1.1" xmlns:xlink="http://www.w3.org/1999/xlink" width="21px" height="25px" xmlns="http://www.w3.org/2000/svg">
  <g transform="matrix(1 0 0 1 -1775 -15 )">
    <path d="M 20.5050505050506 18.6868686868687  C 20.8350168350169 19.0796857463524  21 19.5566778900112  21 20.1178451178451  C 21 20.679012345679  20.8350168350169 21.1560044893378  20.5050505050506 21.5488215488216  L 21 21.5488215488216  C 20.6700336700337 21.9416386083053  17.3703703703704 25  16.8989898989898 25  C 16.4276094276095 25  16.026936026936 24.8035914702581  15.6969696969697 24.4107744107744  L 10.5 18.2239057239057  L 5.30303030303025 24.4107744107744  C 4.97306397306397 24.8035914702581  4.57239057239053 25  4.10101010101016 25  C 3.62962962962956 25  3.22895622895612 24.8035914702581  2.89898989898984 24.4107744107744  L 0.494949494949424 21.5488215488216  C 0.164983164983141 21.1560044893378  0 20.679012345679  0 20.1178451178451  C 0 19.5566778900112  0.164983164983141 19.0796857463524  0.494949494949424 18.6868686868687  L 5.69191919191917 12.5  L 0.494949494949424 6.31313131313131  C 0.164983164983141 5.92031425364759  0 5.44332210998878  0 4.88215488215488  C 0 4.32098765432099  0.164983164983141 3.84399551066217  0.494949494949424 3.45117845117845  L 2.89898989898984 0.589225589225589  C 3.22895622895612 0.19640852974186  3.62962962962956 0  4.10101010101016 0  C 4.57239057239053 0  4.97306397306397 0.19640852974186  5.30303030303025 0.589225589225589  L 10.5 6.77609427609428  L 15.6969696969697 0.589225589225589  C 16.026936026936 0.19640852974186  16.4276094276095 0  16.8989898989898 0  C 17.3703703703704 0  17.7710437710439 0.19640852974186  18.1010101010102 0.589225589225589  L 20.5050505050506 3.45117845117845  C 20.8350168350169 3.84399551066217  21 4.32098765432099  21 4.88215488215488  C 21 5.44332210998878  20.8350168350169 5.92031425364759  20.5050505050506 6.31313131313131  L 15.3080808080808 12.5  L 20.5050505050506 18.6868686868687  Z " fill-rule="nonzero" fill="#aaaaaa" stroke="none" transform="matrix(1 0 0 1 1775 15 )" />
  </g>
</svg>