<?xml version="1.0" encoding="utf-8"?>
<svg version="1.1" xmlns:xlink="http://www.w3.org/1999/xlink" width="21px" height="21px" xmlns="http://www.w3.org/2000/svg">
  <g transform="matrix(1 0 0 1 -687 -65 )">
    <path d="M 12.87890625 12.87890625  C 13.9852764423077 11.7725360576923  14.5384615384615 10.4411057692308  14.5384615384615 8.88461538461539  C 14.5384615384615 7.328125  13.9852764423077 5.99669471153846  12.87890625 4.89032451923077  C 11.7725360576923 3.78395432692308  10.4411057692308 3.23076923076923  8.88461538461539 3.23076923076923  C 7.328125 3.23076923076923  5.99669471153846 3.78395432692308  4.89032451923077 4.89032451923077  C 3.78395432692308 5.99669471153846  3.23076923076923 7.328125  3.23076923076923 8.88461538461539  C 3.23076923076923 10.4411057692308  3.78395432692308 11.7725360576923  4.89032451923077 12.87890625  C 5.99669471153846 13.9852764423077  7.328125 14.5384615384615  8.88461538461539 14.5384615384615  C 10.4411057692308 14.5384615384615  11.7725360576923 13.9852764423077  12.87890625 12.87890625  Z M 20.5330528846154 18.2487980769231  C 20.8443509615385 18.5600961538462  21 18.9387019230769  21 19.3846153846154  C 21 19.8221153846154  20.8401442307692 20.2007211538462  20.5204326923077 20.5204326923077  C 20.2007211538462 20.8401442307692  19.8221153846154 21  19.3846153846154 21  C 18.9302884615385 21  18.5516826923077 20.8401442307692  18.2487980769231 20.5204326923077  L 13.9200721153846 16.2043269230769  C 12.4140625 17.2475961538462  10.7355769230769 17.7692307692308  8.88461538461539 17.7692307692308  C 7.68149038461539 17.7692307692308  6.53094951923077 17.5357572115385  5.43299278846154 17.0688100961538  C 4.33503605769231 16.6018629807692  3.38852163461538 15.9708533653846  2.59344951923077 15.17578125  C 1.79837740384615 14.3807091346154  1.16736778846154 13.4341947115385  0.700420673076923 12.3362379807692  C 0.233473557692308 11.23828125  0 10.0877403846154  0 8.88461538461539  C 0 7.68149038461538  0.233473557692308 6.53094951923077  0.700420673076923 5.43299278846154  C 1.16736778846154 4.33503605769231  1.79837740384615 3.38852163461539  2.59344951923077 2.59344951923077  C 3.38852163461538 1.79837740384615  4.33503605769231 1.16736778846154  5.43299278846154 0.700420673076924  C 6.53094951923077 0.233473557692307  7.68149038461539 0  8.88461538461539 0  C 10.0877403846154 0  11.23828125 0.233473557692307  12.3362379807692 0.700420673076924  C 13.4341947115385 1.16736778846154  14.3807091346154 1.79837740384615  15.17578125 2.59344951923077  C 15.9708533653846 3.38852163461539  16.6018629807692 4.33503605769231  17.0688100961538 5.43299278846154  C 17.5357572115385 6.53094951923077  17.7692307692308 7.68149038461538  17.7692307692308 8.88461538461539  C 17.7692307692308 10.7355769230769  17.2475961538462 12.4140625  16.2043269230769 13.9200721153846  L 20.5330528846154 18.2487980769231  Z " fill-rule="nonzero" fill="#cac1c1" stroke="none" transform="matrix(1 0 0 1 687 65 )" />
  </g>
</svg>