<?xml version="1.0" encoding="utf-8"?>
<svg version="1.1" xmlns:xlink="http://www.w3.org/1999/xlink" width="12px" height="12px" viewBox="198 16.5  12 12" xmlns="http://www.w3.org/2000/svg">
  <path d="M 204 16.5  C 207.36 16.5  210 19.14  210 22.5  C 210 25.86  207.36 28.5  204 28.5  C 200.64 28.5  198 25.86  198 22.5  C 198 19.14  200.64 16.5  204 16.5  Z " fill-rule="nonzero" fill="#f0f0f0" stroke="none" />
  <path d="M 204 17  C 207.08 17  209.5 19.42  209.5 22.5  C 209.5 25.58  207.08 28  204 28  C 200.92 28  198.5 25.58  198.5 22.5  C 198.5 19.42  200.92 17  204 17  Z " stroke-width="1" stroke="#797979" fill="none" />
  <path d="M 204 25.5  C 202.32 25.5  201 24.18  201 22.5  C 201 20.82  202.32 19.5  204 19.5  C 205.68 19.5  207 20.82  207 22.5  C 207 24.18  205.68 25.5  204 25.5  " fill-rule="nonzero" fill="#797979" stroke="none" />
</svg>