<?xml version="1.0" encoding="utf-8"?>
<svg version="1.1" xmlns:xlink="http://www.w3.org/1999/xlink" width="184px" height="38px" viewBox="266 56  184 38" xmlns="http://www.w3.org/2000/svg">
  <path d="M 267 61  A 4 4 0 0 1 271 57 L 445 57  A 4 4 0 0 1 449 61 L 449 89  A 4 4 0 0 1 445 93 L 271 93  A 4 4 0 0 1 267 89 L 267 61  Z " fill-rule="nonzero" fill="#f0f0f0" stroke="none" />
  <path d="M 266.5 61  A 4.5 4.5 0 0 1 271 56.5 L 445 56.5  A 4.5 4.5 0 0 1 449.5 61 L 449.5 89  A 4.5 4.5 0 0 1 445 93.5 L 271 93.5  A 4.5 4.5 0 0 1 266.5 89 L 266.5 61  Z " stroke-width="1" stroke="#797979" fill="none" stroke-opacity="0.298039215686275" />
</svg>