<?xml version="1.0" encoding="utf-8"?>
<svg version="1.1" xmlns:xlink="http://www.w3.org/1999/xlink" width="12px" height="12px" viewBox="268 1595  12 12" xmlns="http://www.w3.org/2000/svg">
  <path d="M 268.5 1600  A 4.5 4.5 0 0 1 273 1595.5 L 275 1595.5  A 4.5 4.5 0 0 1 279.5 1600 L 279.5 1602  A 4.5 4.5 0 0 1 275 1606.5 L 273 1606.5  A 4.5 4.5 0 0 1 268.5 1602 L 268.5 1600  Z " fill-rule="nonzero" fill="#f0f0f0" stroke="none" />
  <path d="M 268.5 1600  A 4.5 4.5 0 0 1 273 1595.5 L 275 1595.5  A 4.5 4.5 0 0 1 279.5 1600 L 279.5 1602  A 4.5 4.5 0 0 1 275 1606.5 L 273 1606.5  A 4.5 4.5 0 0 1 268.5 1602 L 268.5 1600  Z " stroke-width="1" stroke="#797979" fill="none" />
  <path d="M 270.571428571429 1601  L 273.142857142857 1603.57142857143  " stroke-width="2.57142857142857" stroke="#797979" fill="none" />
  <path d="M 273.142857142857 1603.57142857143  L 277.428571428571 1597.57142857143  " stroke-width="2.57142857142857" stroke="#797979" fill="none" />
</svg>