<?xml version="1.0" encoding="utf-8"?>
<svg version="1.1" xmlns:xlink="http://www.w3.org/1999/xlink" width="12px" height="12px" viewBox="168 1595  12 12" xmlns="http://www.w3.org/2000/svg">
  <path d="M 168.5 1600  A 4.5 4.5 0 0 1 173 1595.5 L 175 1595.5  A 4.5 4.5 0 0 1 179.5 1600 L 179.5 1602  A 4.5 4.5 0 0 1 175 1606.5 L 173 1606.5  A 4.5 4.5 0 0 1 168.5 1602 L 168.5 1600  Z " fill-rule="nonzero" fill="#ffffff" stroke="none" />
  <path d="M 168.5 1600  A 4.5 4.5 0 0 1 173 1595.5 L 175 1595.5  A 4.5 4.5 0 0 1 179.5 1600 L 179.5 1602  A 4.5 4.5 0 0 1 175 1606.5 L 173 1606.5  A 4.5 4.5 0 0 1 168.5 1602 L 168.5 1600  Z " stroke-width="1" stroke="#797979" fill="none" />
  <path d="M 170.571428571429 1601  L 173.142857142857 1603.57142857143  " stroke-width="2.57142857142857" stroke="#797979" fill="none" />
  <path d="M 173.142857142857 1603.57142857143  L 177.428571428571 1597.57142857143  " stroke-width="2.57142857142857" stroke="#797979" fill="none" />
</svg>