<?xml version="1.0" encoding="utf-8"?>
<svg version="1.1" xmlns:xlink="http://www.w3.org/1999/xlink" width="563px" height="64px" viewBox="166 1809  563 64" xmlns="http://www.w3.org/2000/svg">
  <path d="M 167 1814  A 4 4 0 0 1 171 1810 L 724 1810  A 4 4 0 0 1 728 1814 L 728 1868  A 4 4 0 0 1 724 1872 L 171 1872  A 4 4 0 0 1 167 1868 L 167 1814  Z " fill-rule="nonzero" fill="#f0f0f0" stroke="none" />
  <path d="M 166.5 1814  A 4.5 4.5 0 0 1 171 1809.5 L 724 1809.5  A 4.5 4.5 0 0 1 728.5 1814 L 728.5 1868  A 4.5 4.5 0 0 1 724 1872.5 L 171 1872.5  A 4.5 4.5 0 0 1 166.5 1868 L 166.5 1814  Z " stroke-width="1" stroke="#797979" fill="none" stroke-opacity="0.203921568627451" />
</svg>