<?xml version="1.0" encoding="utf-8"?>
<svg version="1.1" xmlns:xlink="http://www.w3.org/1999/xlink" width="184px" height="39px" viewBox="544 1401  184 39" xmlns="http://www.w3.org/2000/svg">
  <path d="M 545 1406  A 4 4 0 0 1 549 1402 L 723 1402  A 4 4 0 0 1 727 1406 L 727 1435  A 4 4 0 0 1 723 1439 L 549 1439  A 4 4 0 0 1 545 1435 L 545 1406  Z " fill-rule="nonzero" fill="#ffffff" stroke="none" />
  <path d="M 544.5 1406  A 4.5 4.5 0 0 1 549 1401.5 L 723 1401.5  A 4.5 4.5 0 0 1 727.5 1406 L 727.5 1435  A 4.5 4.5 0 0 1 723 1439.5 L 549 1439.5  A 4.5 4.5 0 0 1 544.5 1435 L 544.5 1406  Z " stroke-width="1" stroke="#797979" fill="none" stroke-opacity="0.203921568627451" />
</svg>