<?xml version="1.0" encoding="utf-8"?>
<svg version="1.1" xmlns:xlink="http://www.w3.org/1999/xlink" width="182px" height="37px" viewBox="546 1516  182 37" xmlns="http://www.w3.org/2000/svg">
  <path d="M 547 1521  A 4 4 0 0 1 551 1517 L 723 1517  A 4 4 0 0 1 727 1521 L 727 1548  A 4 4 0 0 1 723 1552 L 551 1552  A 4 4 0 0 1 547 1548 L 547 1521  Z " fill-rule="nonzero" fill="#ffffff" stroke="none" />
  <path d="M 546.5 1521  A 4.5 4.5 0 0 1 551 1516.5 L 723 1516.5  A 4.5 4.5 0 0 1 727.5 1521 L 727.5 1548  A 4.5 4.5 0 0 1 723 1552.5 L 551 1552.5  A 4.5 4.5 0 0 1 546.5 1548 L 546.5 1521  Z " stroke-width="1" stroke="#797979" fill="none" stroke-opacity="0.203921568627451" />
</svg>