<?xml version="1.0" encoding="utf-8"?>
<svg version="1.1" xmlns:xlink="http://www.w3.org/1999/xlink" width="183px" height="39px" viewBox="545 1456  183 39" xmlns="http://www.w3.org/2000/svg">
  <path d="M 546 1461  A 4 4 0 0 1 550 1457 L 723 1457  A 4 4 0 0 1 727 1461 L 727 1490  A 4 4 0 0 1 723 1494 L 550 1494  A 4 4 0 0 1 546 1490 L 546 1461  Z " fill-rule="nonzero" fill="#ffffff" stroke="none" />
  <path d="M 545.5 1461  A 4.5 4.5 0 0 1 550 1456.5 L 723 1456.5  A 4.5 4.5 0 0 1 727.5 1461 L 727.5 1490  A 4.5 4.5 0 0 1 723 1494.5 L 550 1494.5  A 4.5 4.5 0 0 1 545.5 1490 L 545.5 1461  Z " stroke-width="1" stroke="#797979" fill="none" stroke-opacity="0.203921568627451" />
</svg>