<?xml version="1.0" encoding="utf-8"?>
<svg version="1.1" xmlns:xlink="http://www.w3.org/1999/xlink" width="12px" height="12px" viewBox="340 16.5  12 12" xmlns="http://www.w3.org/2000/svg">
  <path d="M 346 16.5  C 349.36 16.5  352 19.14  352 22.5  C 352 25.86  349.36 28.5  346 28.5  C 342.64 28.5  340 25.86  340 22.5  C 340 19.14  342.64 16.5  346 16.5  Z " fill-rule="nonzero" fill="#f0f0f0" stroke="none" />
  <path d="M 346 17  C 349.08 17  351.5 19.42  351.5 22.5  C 351.5 25.58  349.08 28  346 28  C 342.92 28  340.5 25.58  340.5 22.5  C 340.5 19.42  342.92 17  346 17  Z " stroke-width="1" stroke="#797979" fill="none" />
  <path d="M 346 25.5  C 344.32 25.5  343 24.18  343 22.5  C 343 20.82  344.32 19.5  346 19.5  C 347.68 19.5  349 20.82  349 22.5  C 349 24.18  347.68 25.5  346 25.5  " fill-rule="nonzero" fill="#797979" stroke="none" />
</svg>