<?xml version="1.0" encoding="utf-8"?>
<svg version="1.1" xmlns:xlink="http://www.w3.org/1999/xlink" width="986px" height="577px" xmlns="http://www.w3.org/2000/svg">
  <g transform="matrix(1 0 0 1 -250 -111 )">
    <path d="M 251 123  A 11 11 0 0 1 262 112 L 1224 112  A 11 11 0 0 1 1235 123 L 1235 676  A 11 11 0 0 1 1224 687 L 262 687  A 11 11 0 0 1 251 676 L 251 123  Z " fill-rule="nonzero" fill="#ffffff" stroke="none" />
    <path d="M 250.5 123  A 11.5 11.5 0 0 1 262 111.5 L 1224 111.5  A 11.5 11.5 0 0 1 1235.5 123 L 1235.5 676  A 11.5 11.5 0 0 1 1224 687.5 L 262 687.5  A 11.5 11.5 0 0 1 250.5 676 L 250.5 123  Z " stroke-width="1" stroke="#797979" fill="none" stroke-opacity="0.149019607843137" />
  </g>
</svg>