<?xml version="1.0" encoding="utf-8"?>
<svg version="1.1" xmlns:xlink="http://www.w3.org/1999/xlink" width="210px" height="37px" viewBox="406 354  210 37" xmlns="http://www.w3.org/2000/svg">
  <path d="M 407 359  A 4 4 0 0 1 411 355 L 611 355  A 4 4 0 0 1 615 359 L 615 386  A 4 4 0 0 1 611 390 L 411 390  A 4 4 0 0 1 407 386 L 407 359  Z " fill-rule="nonzero" fill="#f0f0f0" stroke="none" />
  <path d="M 406.5 359  A 4.5 4.5 0 0 1 411 354.5 L 611 354.5  A 4.5 4.5 0 0 1 615.5 359 L 615.5 386  A 4.5 4.5 0 0 1 611 390.5 L 411 390.5  A 4.5 4.5 0 0 1 406.5 386 L 406.5 359  Z " stroke-width="1" stroke="#797979" fill="none" stroke-opacity="0.149019607843137" />
</svg>