<?xml version="1.0" encoding="utf-8"?>
<svg version="1.1" xmlns:xlink="http://www.w3.org/1999/xlink" width="769px" height="85px" viewBox="406 423  769 85" xmlns="http://www.w3.org/2000/svg">
  <path d="M 407 428  A 4 4 0 0 1 411 424 L 1170 424  A 4 4 0 0 1 1174 428 L 1174 503  A 4 4 0 0 1 1170 507 L 411 507  A 4 4 0 0 1 407 503 L 407 428  Z " fill-rule="nonzero" fill="#f0f0f0" stroke="none" />
  <path d="M 406.5 428  A 4.5 4.5 0 0 1 411 423.5 L 1170 423.5  A 4.5 4.5 0 0 1 1174.5 428 L 1174.5 503  A 4.5 4.5 0 0 1 1170 507.5 L 411 507.5  A 4.5 4.5 0 0 1 406.5 503 L 406.5 428  Z " stroke-width="1" stroke="#797979" fill="none" stroke-opacity="0.149019607843137" />
</svg>