<?xml version="1.0" encoding="utf-8"?>
<svg version="1.1" xmlns:xlink="http://www.w3.org/1999/xlink" width="208px" height="39px" viewBox="408 194  208 39" xmlns="http://www.w3.org/2000/svg">
  <path d="M 409 199  A 4 4 0 0 1 413 195 L 611 195  A 4 4 0 0 1 615 199 L 615 228  A 4 4 0 0 1 611 232 L 413 232  A 4 4 0 0 1 409 228 L 409 199  Z " fill-rule="nonzero" fill="#ffffff" stroke="none" />
  <path d="M 408.5 199  A 4.5 4.5 0 0 1 413 194.5 L 611 194.5  A 4.5 4.5 0 0 1 615.5 199 L 615.5 228  A 4.5 4.5 0 0 1 611 232.5 L 413 232.5  A 4.5 4.5 0 0 1 408.5 228 L 408.5 199  Z " stroke-width="1" stroke="#797979" fill="none" stroke-opacity="0.149019607843137" />
</svg>