<?xml version="1.0" encoding="utf-8"?>
<svg version="1.1" xmlns:xlink="http://www.w3.org/1999/xlink" width="316px" height="219px" xmlns="http://www.w3.org/2000/svg">
  <g transform="matrix(1 0 0 1 -229 -275 )">
    <path d="M 230 280  A 4 4 0 0 1 234 276 L 540 276  A 4 4 0 0 1 544 280 L 544 489  A 4 4 0 0 1 540 493 L 234 493  A 4 4 0 0 1 230 489 L 230 280  Z " fill-rule="nonzero" fill="#ffffff" stroke="none" />
    <path d="M 229.5 280  A 4.5 4.5 0 0 1 234 275.5 L 540 275.5  A 4.5 4.5 0 0 1 544.5 280 L 544.5 489  A 4.5 4.5 0 0 1 540 493.5 L 234 493.5  A 4.5 4.5 0 0 1 229.5 489 L 229.5 280  Z " stroke-width="1" stroke="#797979" fill="none" stroke-opacity="0.176470588235294" />
  </g>
</svg>