<?xml version="1.0" encoding="utf-8"?>
<svg version="1.1" xmlns:xlink="http://www.w3.org/1999/xlink" width="12px" height="12px" viewBox="399 359  12 12" xmlns="http://www.w3.org/2000/svg">
  <path d="M 405 359  C 408.36 359  411 361.64  411 365  C 411 368.36  408.36 371  405 371  C 401.64 371  399 368.36  399 365  C 399 361.64  401.64 359  405 359  Z " fill-rule="nonzero" fill="#f0f0f0" stroke="none" />
  <path d="M 405 359.5  C 408.08 359.5  410.5 361.92  410.5 365  C 410.5 368.08  408.08 370.5  405 370.5  C 401.92 370.5  399.5 368.08  399.5 365  C 399.5 361.92  401.92 359.5  405 359.5  Z " stroke-width="1" stroke="#797979" fill="none" />
  <path d="M 405 368  C 403.32 368  402 366.68  402 365  C 402 363.32  403.32 362  405 362  C 406.68 362  408 363.32  408 365  C 408 366.68  406.68 368  405 368  " fill-rule="nonzero" fill="#797979" stroke="none" />
</svg>