<?xml version="1.0" encoding="utf-8"?>
<svg version="1.1" xmlns:xlink="http://www.w3.org/1999/xlink" width="12px" height="12px" viewBox="399 321  12 12" xmlns="http://www.w3.org/2000/svg">
  <path d="M 405 321  C 408.36 321  411 323.64  411 327  C 411 330.36  408.36 333  405 333  C 401.64 333  399 330.36  399 327  C 399 323.64  401.64 321  405 321  Z " fill-rule="nonzero" fill="#ffffff" stroke="none" />
  <path d="M 405 321.5  C 408.08 321.5  410.5 323.92  410.5 327  C 410.5 330.08  408.08 332.5  405 332.5  C 401.92 332.5  399.5 330.08  399.5 327  C 399.5 323.92  401.92 321.5  405 321.5  Z " stroke-width="1" stroke="#797979" fill="none" />
  <path d="M 405 330  C 403.32 330  402 328.68  402 327  C 402 325.32  403.32 324  405 324  C 406.68 324  408 325.32  408 327  C 408 328.68  406.68 330  405 330  " fill-rule="nonzero" fill="#797979" stroke="none" />
</svg>