<?xml version="1.0" encoding="utf-8"?>
<svg version="1.1" xmlns:xlink="http://www.w3.org/1999/xlink" width="12px" height="12px" viewBox="399 440  12 12" xmlns="http://www.w3.org/2000/svg">
  <path d="M 405 440  C 408.36 440  411 442.64  411 446  C 411 449.36  408.36 452  405 452  C 401.64 452  399 449.36  399 446  C 399 442.64  401.64 440  405 440  Z " fill-rule="nonzero" fill="#ffffff" stroke="none" />
  <path d="M 405 440.5  C 408.08 440.5  410.5 442.92  410.5 446  C 410.5 449.08  408.08 451.5  405 451.5  C 401.92 451.5  399.5 449.08  399.5 446  C 399.5 442.92  401.92 440.5  405 440.5  Z " stroke-width="1" stroke="#797979" fill="none" />
  <path d="M 405 449  C 403.32 449  402 447.68  402 446  C 402 444.32  403.32 443  405 443  C 406.68 443  408 444.32  408 446  C 408 447.68  406.68 449  405 449  " fill-rule="nonzero" fill="#797979" stroke="none" />
</svg>