<?xml version="1.0" encoding="utf-8"?>
<svg version="1.1" xmlns:xlink="http://www.w3.org/1999/xlink" width="12px" height="12px" viewBox="399 399  12 12" xmlns="http://www.w3.org/2000/svg">
  <path d="M 405 399  C 408.36 399  411 401.64  411 405  C 411 408.36  408.36 411  405 411  C 401.64 411  399 408.36  399 405  C 399 401.64  401.64 399  405 399  Z " fill-rule="nonzero" fill="#ffffff" stroke="none" />
  <path d="M 405 399.5  C 408.08 399.5  410.5 401.92  410.5 405  C 410.5 408.08  408.08 410.5  405 410.5  C 401.92 410.5  399.5 408.08  399.5 405  C 399.5 401.92  401.92 399.5  405 399.5  Z " stroke-width="1" stroke="#797979" fill="none" />
  <path d="M 405 408  C 403.32 408  402 406.68  402 405  C 402 403.32  403.32 402  405 402  C 406.68 402  408 403.32  408 405  C 408 406.68  406.68 408  405 408  " fill-rule="nonzero" fill="#797979" stroke="none" />
</svg>