<?xml version="1.0" encoding="utf-8"?>
<svg version="1.1" xmlns:xlink="http://www.w3.org/1999/xlink" width="12px" height="12px" viewBox="326 1103.5  12 12" xmlns="http://www.w3.org/2000/svg">
  <path d="M 332 1103.5  C 335.36 1103.5  338 1106.14  338 1109.5  C 338 1112.86  335.36 1115.5  332 1115.5  C 328.64 1115.5  326 1112.86  326 1109.5  C 326 1106.14  328.64 1103.5  332 1103.5  Z " fill-rule="nonzero" fill="#ffffff" stroke="none" />
  <path d="M 332 1104  C 335.08 1104  337.5 1106.42  337.5 1109.5  C 337.5 1112.58  335.08 1115  332 1115  C 328.92 1115  326.5 1112.58  326.5 1109.5  C 326.5 1106.42  328.92 1104  332 1104  Z " stroke-width="1" stroke="#797979" fill="none" />
  <path d="M 332 1112.5  C 330.32 1112.5  329 1111.18  329 1109.5  C 329 1107.82  330.32 1106.5  332 1106.5  C 333.68 1106.5  335 1107.82  335 1109.5  C 335 1111.18  333.68 1112.5  332 1112.5  " fill-rule="nonzero" fill="#797979" stroke="none" />
</svg>