<?xml version="1.0" encoding="utf-8"?>
<svg version="1.1" xmlns:xlink="http://www.w3.org/1999/xlink" width="12px" height="12px" viewBox="202 1103.5  12 12" xmlns="http://www.w3.org/2000/svg">
  <path d="M 208 1103.5  C 211.36 1103.5  214 1106.14  214 1109.5  C 214 1112.86  211.36 1115.5  208 1115.5  C 204.64 1115.5  202 1112.86  202 1109.5  C 202 1106.14  204.64 1103.5  208 1103.5  Z " fill-rule="nonzero" fill="#f0f0f0" stroke="none" />
  <path d="M 208 1104  C 211.08 1104  213.5 1106.42  213.5 1109.5  C 213.5 1112.58  211.08 1115  208 1115  C 204.92 1115  202.5 1112.58  202.5 1109.5  C 202.5 1106.42  204.92 1104  208 1104  Z " stroke-width="1" stroke="#797979" fill="none" />
  <path d="M 208 1112.5  C 206.32 1112.5  205 1111.18  205 1109.5  C 205 1107.82  206.32 1106.5  208 1106.5  C 209.68 1106.5  211 1107.82  211 1109.5  C 211 1111.18  209.68 1112.5  208 1112.5  " fill-rule="nonzero" fill="#797979" stroke="none" />
</svg>