<?xml version="1.0" encoding="utf-8"?>
<svg version="1.1" xmlns:xlink="http://www.w3.org/1999/xlink" width="23px" height="23px" xmlns="http://www.w3.org/2000/svg">
  <g transform="matrix(1 0 0 1 -348 -695 )">
    <path d="M 5.7275390625 1.54231770833333  C 7.48947482638889 0.514105902777776  9.41362847222222 0  11.5 0  C 13.5863715277778 0  15.5105251736111 0.514105902777776  17.2724609375 1.54231770833333  C 19.0343967013889 2.57052951388889  20.4294704861111 3.96560329861111  21.4576822916667 5.7275390625  C 22.4858940972222 7.48947482638889  23 9.41362847222222  23 11.5  C 23 13.5863715277778  22.4858940972222 15.5105251736111  21.4576822916667 17.2724609375  C 20.4294704861111 19.0343967013889  19.0343967013889 20.4294704861111  17.2724609375 21.4576822916667  C 15.5105251736111 22.4858940972222  13.5863715277778 23  11.5 23  C 9.41362847222222 23  7.48947482638889 22.4858940972222  5.7275390625 21.4576822916667  C 3.96560329861111 20.4294704861111  2.57052951388889 19.0343967013889  1.54231770833333 17.2724609375  C 0.514105902777778 15.5105251736111  0 13.5863715277778  0 11.5  C 0 9.41362847222222  0.514105902777778 7.48947482638889  1.54231770833333 5.7275390625  C 2.57052951388889 3.96560329861111  3.96560329861111 2.57052951388889  5.7275390625 1.54231770833333  Z M 16.2467447916667 7.62174479166667  C 16.0770399305556 7.57183159722222  15.8624131944444 7.63172743055555  15.6028645833333 7.80143229166667  C 15.5828993055556 7.81141493055555  15.5354817708333 7.85883246527778  15.4606119791667 7.94368489583333  C 15.3857421875 8.02853732638889  15.318359375 8.07595486111111  15.2584635416667 8.0859375  C 15.2784288194444 8.0859375  15.3008897569444 8.06098090277778  15.3258463541667 8.01106770833333  C 15.3508029513889 7.96115451388889  15.3757595486111 7.90625  15.4007161458333 7.84635416666667  C 15.4256727430556 7.78645833333333  15.4431423611111 7.75151909722222  15.453125 7.74153645833333  C 15.5130208333333 7.67165798611111  15.6228298611111 7.59678819444444  15.7825520833333 7.51692708333333  C 15.9223090277778 7.45703125  16.1818576388889 7.39713541666667  16.5611979166667 7.33723958333333  C 16.9006076388889 7.25737847222222  17.1551649305556 7.31228298611111  17.3248697916667 7.501953125  C 17.3049045138889 7.48198784722222  17.3523220486111 7.41710069444444  17.4671223958333 7.30729166666667  C 17.5819227430556 7.19748263888889  17.654296875 7.13758680555555  17.6842447916667 7.12760416666667  C 17.7141927083333 7.10763888888889  17.7890625 7.08517795138889  17.9088541666667 7.06022135416667  C 18.0286458333333 7.03526475694444  18.103515625 6.99782986111111  18.1334635416667 6.94791666666667  L 18.1634114583333 6.61848958333333  C 18.0436197916667 6.62847222222222  17.9562717013889 6.59353298611111  17.9013671875 6.513671875  C 17.8464626736111 6.43381076388889  17.8140190972222 6.32899305555555  17.8040364583333 6.19921875  C 17.8040364583333 6.21918402777778  17.7740885416667 6.25911458333333  17.7141927083333 6.31901041666667  C 17.7141927083333 6.24913194444444  17.6917317708333 6.20920138888889  17.6468098958333 6.19921875  C 17.6018880208333 6.18923611111111  17.5444878472222 6.19422743055555  17.474609375 6.21419270833333  C 17.4047309027778 6.23415798611111  17.3598090277778 6.23914930555555  17.33984375 6.22916666666667  C 17.2400173611111 6.19921875  17.1651475694444 6.16178385416667  17.115234375 6.11686197916667  C 17.0653211805556 6.07194010416667  17.025390625 5.98958333333333  16.9954427083333 5.86979166666667  C 16.9654947916667 5.75  16.9455295138889 5.67513020833333  16.935546875 5.64518229166667  C 16.9155815972222 5.59526909722222  16.8681640625 5.54036458333333  16.7932942708333 5.48046875  C 16.7184244791667 5.42057291666667  16.6710069444444 5.37065972222222  16.6510416666667 5.33072916666667  C 16.6410590277778 5.31076388888889  16.6285807291667 5.28331163194444  16.6136067708333 5.24837239583333  C 16.5986328125 5.21343315972222  16.5836588541667 5.18098958333333  16.5686848958333 5.15104166666667  C 16.5537109375 5.12109375  16.5337456597222 5.09364149305555  16.5087890625 5.06868489583333  C 16.4838324652778 5.04372829861111  16.4563802083333 5.03125  16.4264322916667 5.03125  C 16.396484375 5.03125  16.3615451388889 5.05620659722222  16.3216145833333 5.10611979166667  C 16.2816840277778 5.15603298611111  16.2442491319444 5.20594618055555  16.2093098958333 5.255859375  C 16.1743706597222 5.30577256944444  16.1519097222222 5.33072916666667  16.1419270833333 5.33072916666667  C 16.1119791666667 5.31076388888889  16.08203125 5.30327690972222  16.0520833333333 5.30826822916667  C 16.0221354166667 5.31325954861111  15.9996744791667 5.31825086805555  15.9847005208333 5.3232421875  C 15.9697265625 5.32823350694444  15.947265625 5.34320746527778  15.9173177083333 5.3681640625  C 15.8873697916667 5.39312065972222  15.8624131944444 5.41059027777778  15.8424479166667 5.42057291666667  C 15.8125 5.44053819444444  15.7700737847222 5.45551215277778  15.7151692708333 5.46549479166667  C 15.6602647569444 5.47547743055555  15.6178385416667 5.48546006944444  15.587890625 5.49544270833333  C 15.7376302083333 5.44552951388889  15.7326388888889 5.390625  15.5729166666667 5.33072916666667  C 15.4730902777778 5.29079861111111  15.3932291666667 5.27582465277778  15.3333333333333 5.28580729166667  C 15.4231770833333 5.24587673611111  15.4606119791667 5.18598090277778  15.4456380208333 5.10611979166667  C 15.4306640625 5.02625868055555  15.3882378472222 4.95638020833333  15.318359375 4.896484375  L 15.3932291666667 4.896484375  C 15.3832465277778 4.85655381944444  15.3408203125 4.81412760416667  15.2659505208333 4.76920572916667  C 15.1910807291667 4.72428385416667  15.1037326388889 4.68185763888889  15.00390625 4.64192708333333  C 14.9040798611111 4.60199652777778  14.8391927083333 4.57204861111111  14.8092447916667 4.55208333333333  C 14.7293836805556 4.50217013888889  14.5596788194444 4.45475260416667  14.3001302083333 4.40983072916667  C 14.0405815972222 4.36490885416667  13.8758680555556 4.36241319444444  13.8059895833333 4.40234375  C 13.7560763888889 4.46223958333333  13.7336154513889 4.5146484375  13.7386067708333 4.5595703125  C 13.7435980902778 4.6044921875  13.7635633680556 4.67437065972222  13.7985026041667 4.76920572916667  C 13.8334418402778 4.86404079861111  13.8509114583333 4.92643229166667  13.8509114583333 4.95638020833333  C 13.8608940972222 5.01627604166667  13.8334418402778 5.08116319444444  13.7685546875 5.15104166666667  C 13.7036675347222 5.22092013888889  13.6712239583333 5.28081597222222  13.6712239583333 5.33072916666667  C 13.6712239583333 5.40060763888889  13.7411024305556 5.47797309027778  13.880859375 5.56282552083333  C 14.0206163194444 5.64767795138889  14.0705295138889 5.75499131944444  14.0305989583333 5.884765625  C 14.0006510416667 5.96462673611111  13.9207899305556 6.04448784722222  13.791015625 6.12434895833333  C 13.6612413194444 6.20421006944444  13.5813802083333 6.26410590277778  13.5514322916667 6.30403645833333  C 13.5015190972222 6.38389756944444  13.4940321180556 6.47623697916667  13.5289713541667 6.5810546875  C 13.5639105902778 6.68587239583333  13.6163194444444 6.76822916666667  13.6861979166667 6.828125  C 13.7061631944444 6.84809027777778  13.7136501736111 6.86805555555555  13.7086588541667 6.88802083333333  C 13.7036675347222 6.90798611111111  13.6861979166667 6.93044704861111  13.65625 6.95540364583333  C 13.6263020833333 6.98036024305555  13.5988498263889 7.00032552083333  13.5738932291667 7.01529947916667  C 13.5489366319444 7.0302734375  13.5164930555556 7.04774305555555  13.4765625 7.06770833333333  L 13.431640625 7.09765625  C 13.3218315972222 7.14756944444444  13.2195095486111 7.11762152777778  13.1246744791667 7.0078125  C 13.0298394097222 6.89800347222222  12.9624565972222 6.76822916666667  12.9225260416667 6.61848958333333  C 12.8526475694444 6.36892361111111  12.7727864583333 6.21918402777778  12.6829427083333 6.16927083333333  C 12.4533420138889 6.08940972222222  12.30859375 6.09440104166667  12.2486979166667 6.18424479166667  C 12.1987847222222 6.05447048611111  11.994140625 5.92469618055555  11.634765625 5.794921875  C 11.3851996527778 5.705078125  11.095703125 5.68511284722222  10.7662760416667 5.73502604166667  C 10.826171875 5.72504340277778  10.826171875 5.65017361111111  10.7662760416667 5.51041666666667  C 10.6963975694444 5.36067708333333  10.6015625 5.30078125  10.4817708333333 5.33072916666667  C 10.51171875 5.27083333333333  10.5316840277778 5.18348524305555  10.5416666666667 5.06868489583333  C 10.5516493055556 4.95388454861111  10.556640625 4.88650173611111  10.556640625 4.86653645833333  C 10.5865885416667 4.73676215277778  10.646484375 4.62196180555555  10.736328125 4.52213541666667  C 10.7463107638889 4.51215277777778  10.78125 4.4697265625  10.8411458333333 4.39485677083333  C 10.9010416666667 4.31998697916667  10.9484592013889 4.25260416666667  10.9833984375 4.19270833333333  C 11.0183376736111 4.1328125  11.0208333333333 4.10286458333333  10.9908854166667 4.10286458333333  C 11.3402777777778 4.14279513888889  11.58984375 4.087890625  11.7395833333333 3.93815104166667  C 11.7894965277778 3.88823784722222  11.8468967013889 3.80338541666667  11.9117838541667 3.68359375  C 11.9766710069444 3.56380208333333  12.0290798611111 3.47894965277778  12.0690104166667 3.42903645833333  C 12.1588541666667 3.369140625  12.2287326388889 3.34168836805555  12.2786458333333 3.3466796875  C 12.3285590277778 3.35167100694444  12.4009331597222 3.37912326388889  12.4957682291667 3.42903645833333  C 12.5906032986111 3.47894965277778  12.6629774305556 3.50390625  12.712890625 3.50390625  C 12.8526475694444 3.51388888888889  12.9300130208333 3.458984375  12.9449869791667 3.33919270833333  C 12.9599609375 3.21940104166667  12.9225260416667 3.11957465277778  12.8326822916667 3.03971354166667  C 12.9524739583333 3.04969618055555  12.9674479166667 2.96484375  12.8776041666667 2.78515625  C 12.8376736111111 2.71527777777778  12.7977430555556 2.67035590277778  12.7578125 2.650390625  C 12.6380208333333 2.61046006944444  12.5032552083333 2.63541666666667  12.353515625 2.72526041666667  C 12.2736545138889 2.76519097222222  12.2836371527778 2.80512152777778  12.3834635416667 2.84505208333333  C 12.3734809027778 2.83506944444444  12.3260633680556 2.88747829861111  12.2412109375 3.00227864583333  C 12.1563585069444 3.11707899305555  12.0740017361111 3.20442708333333  11.994140625 3.26432291666667  C 11.9142795138889 3.32421875  11.8344184027778 3.29926215277778  11.7545572916667 3.189453125  C 11.7445746527778 3.17947048611111  11.7171223958333 3.11208767361111  11.6722005208333 2.9873046875  C 11.6272786458333 2.86252170138889  11.5798611111111 2.79513888888889  11.5299479166667 2.78515625  C 11.4500868055556 2.78515625  11.3702256944444 2.86002604166667  11.2903645833333 3.009765625  C 11.3203125 2.92990451388889  11.2654079861111 2.85503472222222  11.1256510416667 2.78515625  C 10.9858940972222 2.71527777777778  10.8661024305556 2.67534722222222  10.7662760416667 2.66536458333333  C 10.9559461805556 2.54557291666667  10.916015625 2.41080729166667  10.646484375 2.26106770833333  C 10.5766059027778 2.22113715277778  10.4742838541667 2.19618055555555  10.3395182291667 2.18619791666667  C 10.2047526041667 2.17621527777778  10.107421875 2.19618055555555  10.0475260416667 2.24609375  C 9.99761284722222 2.31597222222222  9.97016059027778 2.37337239583333  9.96516927083333 2.41829427083333  C 9.96017795138889 2.46321614583333  9.98513454861111 2.50314670138889  10.0400390625 2.5380859375  C 10.0949435763889 2.57302517361111  10.1473524305556 2.60047743055555  10.197265625 2.62044270833333  C 10.2471788194444 2.64040798611111  10.3045789930556 2.66037326388889  10.3694661458333 2.68033854166667  C 10.4343532986111 2.70030381944444  10.4767795138889 2.71527777777778  10.4967447916667 2.72526041666667  C 10.6365017361111 2.82508680555555  10.6764322916667 2.89496527777778  10.6165364583333 2.93489583333333  C 10.5965711805556 2.94487847222222  10.5541449652778 2.96234809027778  10.4892578125 2.9873046875  C 10.4243706597222 3.01226128472222  10.3669704861111 3.03472222222222  10.3170572916667 3.0546875  C 10.2671440972222 3.07465277777778  10.2371961805556 3.09461805555555  10.2272135416667 3.11458333333333  C 10.197265625 3.15451388888889  10.197265625 3.22439236111111  10.2272135416667 3.32421875  C 10.2571614583333 3.42404513888889  10.2471788194444 3.49392361111111  10.197265625 3.53385416666667  C 10.1473524305556 3.48394097222222  10.1024305555556 3.39659288194444  10.0625 3.27180989583333  C 10.0225694444444 3.14702690972222  9.98763020833333 3.06467013888889  9.95768229166667 3.02473958333333  C 10.0275607638889 3.11458333333333  9.90277777777778 3.14453125  9.58333333333333 3.11458333333333  L 9.43359375 3.099609375  C 9.39366319444444 3.099609375  9.31380208333333 3.10959201388889  9.19401041666667 3.12955729166667  C 9.07421875 3.14952256944444  8.97189670138889 3.15451388888889  8.88704427083333 3.14453125  C 8.80219184027778 3.13454861111111  8.73480902777778 3.09461805555555  8.68489583333333 3.02473958333333  C 8.64496527777778 2.94487847222222  8.64496527777778 2.84505208333333  8.68489583333333 2.72526041666667  C 8.69487847222222 2.68532986111111  8.71484375 2.67534722222222  8.74479166666667 2.6953125  C 8.70486111111111 2.66536458333333  8.64995659722222 2.61794704861111  8.580078125 2.55305989583333  C 8.51019965277778 2.48817274305555  8.46028645833333 2.44574652777778  8.43033854166667 2.42578125  C 7.97113715277778 2.57552083333333  7.501953125 2.78016493055555  7.02278645833333 3.03971354166667  C 7.08268229166667 3.04969618055555  7.142578125 3.04470486111111  7.20247395833333 3.02473958333333  C 7.25238715277778 3.00477430555555  7.31727430555556 2.97233072916667  7.39713541666667 2.92740885416667  C 7.47699652777778 2.88248697916667  7.52690972222222 2.85503472222222  7.546875 2.84505208333333  C 7.88628472222222 2.70529513888889  8.09592013888889 2.67035590277778  8.17578125 2.740234375  L 8.25065104166667 2.66536458333333  C 8.39040798611111 2.82508680555555  8.490234375 2.94986979166667  8.55013020833333 3.03971354166667  C 8.48025173611111 2.99978298611111  8.33051215277778 2.99479166666667  8.10091145833333 3.02473958333333  C 7.90125868055556 3.08463541666667  7.79144965277778 3.14453125  7.771484375 3.20442708333333  C 7.84136284722222 3.32421875  7.86631944444444 3.4140625  7.84635416666667 3.47395833333333  C 7.80642361111111 3.44401041666667  7.7490234375 3.39409722222222  7.67415364583333 3.32421875  C 7.59928385416667 3.25434027777778  7.52690972222222 3.19943576388889  7.45703125 3.15950520833333  C 7.38715277777778 3.11957465277778  7.31228298611111 3.09461805555555  7.232421875 3.08463541666667  C 7.07269965277778 3.08463541666667  6.962890625 3.08962673611111  6.90299479166667 3.099609375  C 5.44552951388889 3.89822048611111  4.27256944444445 5.00629340277778  3.38411458333333 6.423828125  C 3.45399305555556 6.49370659722222  3.51388888888889 6.53363715277778  3.56380208333333 6.54361979166667  C 3.60373263888889 6.55360243055555  3.62868923611111 6.59852430555555  3.638671875 6.67838541666667  C 3.64865451388889 6.75824652777778  3.6611328125 6.81315104166667  3.67610677083333 6.84309895833333  C 3.69108072916667 6.873046875  3.74848090277778 6.85807291666667  3.84830729166667 6.79817708333333  C 3.93815104166667 6.87803819444444  3.953125 6.97287326388889  3.89322916666667 7.08268229166667  C 3.90321180555556 7.07269965277778  4.12282986111111 7.20746527777778  4.55208333333333 7.48697916666667  C 4.74175347222222 7.65668402777778  4.84657118055556 7.76150173611111  4.86653645833333 7.80143229166667  C 4.896484375 7.91124131944444  4.84657118055556 8.00108506944444  4.716796875 8.07096354166667  C 4.70681423611111 8.05099826388889  4.66189236111111 8.00607638888889  4.58203125 7.93619791666667  C 4.50217013888889 7.86631944444444  4.45724826388889 7.84635416666667  4.447265625 7.87630208333333  C 4.41731770833333 7.92621527777778  4.41981336805556 8.0185546875  4.45475260416667 8.1533203125  C 4.48969184027778 8.2880859375  4.54210069444445 8.35047743055555  4.61197916666667 8.34049479166667  C 4.54210069444445 8.34049479166667  4.49468315972222 8.42035590277778  4.4697265625 8.580078125  C 4.44476996527778 8.73980034722222  4.43229166666667 8.9169921875  4.43229166666667 9.11165364583333  C 4.43229166666667 9.30631510416666  4.42730034722222 9.42361111111111  4.41731770833333 9.46354166666667  L 4.447265625 9.478515625  C 4.41731770833333 9.59830729166667  4.44476996527778 9.7705078125  4.52962239583333 9.9951171875  C 4.61447482638889 10.2197265625  4.72178819444445 10.3170572916667  4.8515625 10.287109375  C 4.72178819444445 10.3170572916667  4.82161458333333 10.5316840277778  5.15104166666667 10.9309895833333  C 5.2109375 11.0108506944444  5.25086805555556 11.0557725694444  5.27083333333333 11.0657552083333  C 5.30078125 11.0857204861111  5.36067708333333 11.1231553819444  5.45052083333333 11.1780598958333  C 5.54036458333333 11.2329644097222  5.615234375 11.2828776041667  5.67513020833333 11.3277994791667  C 5.73502604166667 11.3727213541667  5.78493923611111 11.4251302083333  5.82486979166667 11.4850260416667  C 5.86480034722222 11.5349392361111  5.91471354166667 11.6472439236111  5.974609375 11.8219401041667  C 6.03450520833333 11.9966362847222  6.10438368055556 12.1139322916667  6.18424479166667 12.173828125  C 6.16427951388889 12.2337239583333  6.21169704861111 12.3335503472222  6.32649739583333 12.4733072916667  C 6.44129774305556 12.6130642361111  6.49370659722222 12.7278645833333  6.48372395833333 12.8177083333333  C 6.47374131944444 12.8177083333333  6.46126302083333 12.8226996527778  6.4462890625 12.8326822916667  C 6.43131510416667 12.8426649305556  6.41883680555556 12.84765625  6.40885416666667 12.84765625  C 6.43880208333333 12.9175347222222  6.51616753472222 12.9874131944444  6.64095052083333 13.0572916666667  C 6.76573350694444 13.1271701388889  6.84309895833333 13.1920572916667  6.873046875 13.251953125  C 6.88302951388889 13.2819010416667  6.89301215277778 13.3318142361111  6.90299479166667 13.4016927083333  C 6.91297743055556 13.4715711805556  6.92795138888889 13.5264756944444  6.94791666666667 13.56640625  C 6.96788194444444 13.6063368055556  7.0078125 13.6163194444444  7.06770833333333 13.5963541666667  C 7.08767361111111 13.3967013888889  6.96788194444444 13.0872395833333  6.70833333333333 12.66796875  C 6.55859375 12.4184027777778  6.47374131944444 12.2736545138889  6.45377604166667 12.2337239583333  C 6.423828125 12.1838107638889  6.39637586805556 12.1064453125  6.37141927083333 12.0016276041667  C 6.34646267361111 11.8968098958333  6.32400173611111 11.8244357638889  6.30403645833333 11.7845052083333  C 6.32400173611111 11.7845052083333  6.35394965277778 11.7919921875  6.39388020833333 11.8069661458333  C 6.43381076388889 11.8219401041667  6.47623697916667 11.8394097222222  6.52115885416667 11.859375  C 6.56608072916667 11.8793402777778  6.603515625 11.8993055555556  6.63346354166667 11.9192708333333  C 6.66341145833333 11.9392361111111  6.67339409722222 11.9542100694444  6.66341145833333 11.9641927083333  C 6.63346354166667 12.0340711805556  6.64344618055556 12.1214192708333  6.693359375 12.2262369791667  C 6.74327256944444 12.3310546875  6.80316840277778 12.4233940972222  6.873046875 12.5032552083333  C 6.94292534722222 12.5831163194444  7.02777777777778 12.6779513888889  7.12760416666667 12.7877604166667  C 7.22743055555556 12.8975694444444  7.28732638888889 12.9624565972222  7.30729166666667 12.982421875  C 7.3671875 13.0423177083333  7.43706597222222 13.1396484375  7.51692708333333 13.2744140625  C 7.59678819444444 13.4091796875  7.59678819444444 13.4765625  7.51692708333333 13.4765625  C 7.60677083333333 13.4765625  7.70659722222222 13.5289713541667  7.81640625 13.6337890625  C 7.92621527777778 13.7386067708333  8.01106770833333 13.8359375  8.07096354166667 13.92578125  C 8.12087673611111 14.0056423611111  8.16080729166667 14.1354166666667  8.19075520833333 14.3151041666667  C 8.220703125 14.4947916666667  8.24565972222222 14.6145833333333  8.265625 14.6744791666667  C 8.28559027777778 14.7443576388889  8.32801649305556 14.8117404513889  8.39290364583333 14.8766276041667  C 8.45779079861111 14.9415147569444  8.52018229166667 14.9889322916667  8.580078125 15.0188802083333  L 8.81966145833333 15.138671875  C 8.81966145833333 15.138671875  8.88454861111111 15.1736111111111  9.01432291666667 15.2434895833333  C 9.06423611111111 15.2634548611111  9.15657552083333 15.3158637152778  9.29134114583333 15.4007161458333  C 9.42610677083333 15.4855685763889  9.53342013888889 15.54296875  9.61328125 15.5729166666667  C 9.71310763888889 15.6128472222222  9.79296875 15.6328125  9.85286458333333 15.6328125  C 9.91276041666667 15.6328125  9.98513454861111 15.6203342013889  10.0699869791667 15.5953776041667  C 10.1548394097222 15.5704210069444  10.2222222222222 15.5529513888889  10.2721354166667 15.54296875  C 10.421875 15.5230034722222  10.5666232638889 15.5978732638889  10.7063802083333 15.767578125  C 10.8461371527778 15.9372829861111  10.9509548611111 16.0421006944444  11.0208333333333 16.08203125  C 11.3802083333333 16.2717013888889  11.6547309027778 16.3266059027778  11.8444010416667 16.2467447916667  C 11.8244357638889 16.2567274305556  11.8269314236111 16.2941623263889  11.8518880208333 16.3590494791667  C 11.8768446180556 16.4239366319444  11.9167751736111 16.5013020833333  11.9716796875 16.5911458333333  C 12.0265842013889 16.6809895833333  12.0715060763889 16.7533637152778  12.1064453125 16.8082682291667  C 12.1413845486111 16.8631727430556  12.1688368055556 16.9055989583333  12.1888020833333 16.935546875  C 12.2387152777778 16.9954427083333  12.3285590277778 17.0703125  12.4583333333333 17.16015625  C 12.5881076388889 17.25  12.6779513888889 17.3248697916667  12.7278645833333 17.384765625  C 12.7877604166667 17.3448350694444  12.8226996527778 17.2999131944444  12.8326822916667 17.25  C 12.802734375 17.3298611111111  12.8376736111111 17.4296875  12.9375 17.5494791666667  C 13.0373263888889 17.6692708333333  13.1271701388889 17.7191840277778  13.20703125 17.69921875  C 13.3467881944444 17.6692708333333  13.4166666666667 17.5095486111111  13.4166666666667 17.2200520833333  C 13.1072048611111 17.3697916666667  12.8626302083333 17.2799479166667  12.6829427083333 16.9505208333333  C 12.6829427083333 16.9405381944444  12.6704644097222 16.9130859375  12.6455078125 16.8681640625  C 12.6205512152778 16.8232421875  12.6005859375 16.7808159722222  12.5856119791667 16.7408854166667  C 12.5706380208333 16.7009548611111  12.5581597222222 16.6585286458333  12.5481770833333 16.6136067708333  C 12.5381944444444 16.5686848958333  12.5381944444444 16.53125  12.5481770833333 16.5013020833333  C 12.5581597222222 16.4713541666667  12.5831163194444 16.4563802083333  12.623046875 16.4563802083333  C 12.712890625 16.4563802083333  12.7628038194444 16.4389105902778  12.7727864583333 16.4039713541667  C 12.7827690972222 16.3690321180556  12.7727864583333 16.306640625  12.7428385416667 16.216796875  C 12.712890625 16.126953125  12.6929253472222 16.0620659722222  12.6829427083333 16.0221354166667  C 12.6729600694444 15.9422743055556  12.6180555555556 15.8424479166667  12.5182291666667 15.72265625  C 12.4184027777778 15.6028645833333  12.3585069444444 15.5279947916667  12.3385416666667 15.498046875  C 12.2886284722222 15.587890625  12.2087673611111 15.6278211805556  12.0989583333333 15.6178385416667  C 11.9891493055556 15.6078559027778  11.9092881944444 15.5629340277778  11.859375 15.4830729166667  C 11.859375 15.4930555555556  11.8518880208333 15.5205078125  11.8369140625 15.5654296875  C 11.8219401041667 15.6103515625  11.814453125 15.6427951388889  11.814453125 15.6627604166667  C 11.6846788194444 15.6627604166667  11.6098090277778 15.6577690972222  11.58984375 15.6477864583333  C 11.5998263888889 15.6178385416667  11.6123046875 15.5304904513889  11.6272786458333 15.3857421875  C 11.6422526041667 15.2409939236111  11.6597222222222 15.1286892361111  11.6796875 15.048828125  C 11.6896701388889 15.0088975694444  11.7171223958333 14.9490017361111  11.7620442708333 14.869140625  C 11.8069661458333 14.7892795138889  11.8444010416667 14.7169053819444  11.8743489583333 14.6520182291667  C 11.904296875 14.5871310763889  11.9242621527778 14.5247395833333  11.9342447916667 14.46484375  C 11.9442274305556 14.4049479166667  11.9217664930556 14.3575303819444  11.8668619791667 14.3225911458333  C 11.8119574652778 14.2876519097222  11.724609375 14.2751736111111  11.6048177083333 14.28515625  C 11.4151475694444 14.2951388888889  11.2853732638889 14.3949652777778  11.2154947916667 14.5846354166667  C 11.2055121527778 14.6145833333333  11.1905381944444 14.6669921875  11.1705729166667 14.7418619791667  C 11.1506076388889 14.8167317708333  11.1256510416667 14.8741319444444  11.095703125 14.9140625  C 11.0657552083333 14.9539930555556  11.0208333333333 14.9889322916667  10.9609375 15.0188802083333  C 10.8910590277778 15.048828125  10.7712673611111 15.0588107638889  10.6015625 15.048828125  C 10.4318576388889 15.0388454861111  10.3120659722222 15.0138888888889  10.2421875 14.9739583333333  C 10.1124131944444 14.8940972222222  10.0001085069444 14.7493489583333  9.9052734375 14.5397135416667  C 9.81043836805556 14.330078125  9.76302083333333 14.1453993055556  9.76302083333333 13.9856770833333  C 9.76302083333333 13.8858506944444  9.77549913194444 13.7535807291667  9.80045572916667 13.5888671875  C 9.82541232638889 13.4241536458333  9.84038628472222 13.2993706597222  9.84537760416667 13.2145182291667  C 9.85036892361111 13.1296657986111  9.82291666666667 13.0073784722222  9.76302083333333 12.84765625  C 9.79296875 12.8276909722222  9.837890625 12.7802734375  9.89778645833333 12.7054036458333  C 9.95768229166667 12.6305338541667  10.0075954861111 12.578125  10.0475260416667 12.5481770833333  C 10.0674913194444 12.5381944444444  10.0899522569444 12.5307074652778  10.1149088541667 12.5257161458333  C 10.1398654513889 12.5207248263889  10.1623263888889 12.5207248263889  10.1822916666667 12.5257161458333  C 10.2022569444444 12.5307074652778  10.2222222222222 12.5232204861111  10.2421875 12.5032552083333  C 10.2621527777778 12.4832899305556  10.2771267361111 12.4533420138889  10.287109375 12.4134114583333  C 10.2771267361111 12.4034288194444  10.2571614583333 12.3884548611111  10.2272135416667 12.3684895833333  C 10.197265625 12.3385416666667  10.1773003472222 12.3235677083333  10.1673177083333 12.3235677083333  C 10.2371961805556 12.353515625  10.3794487847222 12.3460286458333  10.5940755208333 12.3011067708333  C 10.8087022569444 12.2561848958333  10.9459635416667 12.263671875  11.005859375 12.3235677083333  C 11.1555989583333 12.4333767361111  11.2654079861111 12.4233940972222  11.3352864583333 12.2936197916667  C 11.3352864583333 12.2836371527778  11.3228081597222 12.2362196180556  11.2978515625 12.1513671875  C 11.2728949652778 12.0665147569444  11.2703993055556 11.9991319444444  11.2903645833333 11.94921875  C 11.3402777777778 12.21875  11.4850260416667 12.263671875  11.724609375 12.083984375  C 11.7545572916667 12.1139322916667  11.8319227430556 12.1388888888889  11.9567057291667 12.1588541666667  C 12.0814887152778 12.1788194444444  12.1688368055556 12.2037760416667  12.21875 12.2337239583333  C 12.2486979166667 12.2536892361111  12.2836371527778 12.2811414930556  12.3235677083333 12.3160807291667  C 12.3634982638889 12.3510199652778  12.3909505208333 12.3734809027778  12.4059244791667 12.3834635416667  C 12.4208984375 12.3934461805556  12.4458550347222 12.3909505208333  12.4807942708333 12.3759765625  C 12.5157335069444 12.3610026041667  12.5581597222222 12.3285590277778  12.6080729166667 12.2786458333333  C 12.7078993055556 12.4184027777778  12.7677951388889 12.5381944444444  12.7877604166667 12.6380208333333  C 12.8975694444444 13.0373263888889  12.9924045138889 13.2569444444444  13.072265625 13.296875  C 13.1421440972222 13.3268229166667  13.1970486111111 13.3368055555556  13.2369791666667 13.3268229166667  C 13.2769097222222 13.3168402777778  13.2993706597222 13.2694227430556  13.3043619791667 13.1845703125  C 13.3093532986111 13.0997178819444  13.3093532986111 13.0298394097222  13.3043619791667 12.9749348958333  C 13.2993706597222 12.9200303819444  13.2918836805556 12.8576388888889  13.2819010416667 12.7877604166667  L 13.2669270833333 12.66796875  L 13.2669270833333 12.3984375  L 13.251953125 12.2786458333333  C 13.1022135416667 12.2486979166667  13.0098741319444 12.1888020833333  12.9749348958333 12.0989583333333  C 12.9399956597222 12.0091145833333  12.9474826388889 11.9167751736111  12.9973958333333 11.8219401041667  C 13.0473090277778 11.7271050347222  13.1221788194444 11.634765625  13.2220052083333 11.544921875  C 13.2319878472222 11.5349392361111  13.2719184027778 11.5174696180556  13.341796875 11.4925130208333  C 13.4116753472222 11.4675564236111  13.4890407986111 11.4351128472222  13.5738932291667 11.3951822916667  C 13.6587456597222 11.3552517361111  13.7211371527778 11.3153211805556  13.7610677083333 11.275390625  C 13.970703125 11.0857204861111  14.0455729166667 10.9110243055556  13.9856770833333 10.7513020833333  C 14.0555555555556 10.7513020833333  14.1104600694444 10.7063802083333  14.150390625 10.6165364583333  C 14.1404079861111 10.6165364583333  14.1154513888889 10.6015625  14.0755208333333 10.5716145833333  C 14.0355902777778 10.5416666666667  13.9981553819444 10.5167100694444  13.9632161458333 10.4967447916667  C 13.9282769097222 10.4767795138889  13.9058159722222 10.466796875  13.8958333333333 10.466796875  C 13.9856770833333 10.4168836805556  13.9956597222222 10.3370225694444  13.92578125 10.2272135416667  C 13.9756944444444 10.197265625  14.0131293402778 10.1423611111111  14.0380859375 10.0625  C 14.0630425347222 9.98263888888889  14.1004774305556 9.93272569444444  14.150390625 9.91276041666667  C 14.240234375 10.0325520833333  14.3450520833333 10.0425347222222  14.46484375 9.94270833333333  C 14.5447048611111 9.86284722222222  14.5496961805556 9.78298611111111  14.4798177083333 9.703125  C 14.5297309027778 9.63324652777778  14.6320529513889 9.58083767361111  14.7867838541667 9.5458984375  C 14.9415147569444 9.51095920138889  15.0338541666667 9.46354166666666  15.0638020833333 9.40364583333333  C 15.1336805555556 9.42361111111111  15.1736111111111 9.41362847222222  15.18359375 9.37369791666667  C 15.1935763888889 9.33376736111111  15.1985677083333 9.27387152777778  15.1985677083333 9.19401041666667  C 15.1985677083333 9.11414930555555  15.2135416666667 9.05425347222222  15.2434895833333 9.01432291666667  C 15.2834201388889 8.96440972222222  15.3582899305556 8.91948784722222  15.4680989583333 8.87955729166667  C 15.5779079861111 8.83962673611111  15.6427951388889 8.81467013888889  15.6627604166667 8.8046875  L 15.9173177083333 8.63997395833333  C 15.947265625 8.60004340277778  15.947265625 8.580078125  15.9173177083333 8.580078125  C 16.0970052083333 8.60004340277778  16.2517361111111 8.54513888888889  16.3815104166667 8.41536458333333  C 16.4813368055556 8.30555555555555  16.4513888888889 8.20572916666667  16.2916666666667 8.11588541666667  C 16.3216145833333 8.05598958333333  16.306640625 8.00857204861111  16.2467447916667 7.9736328125  C 16.1868489583333 7.93869357638889  16.1119791666667 7.91124131944444  16.0221354166667 7.89127604166667  C 16.0520833333333 7.88129340277778  16.1094835069444 7.87879774305555  16.1943359375 7.8837890625  C 16.2791883680556 7.88878038194444  16.3315972222222 7.88129340277778  16.3515625 7.861328125  C 16.5013020833333 7.76150173611111  16.4663628472222 7.681640625  16.2467447916667 7.62174479166667  Z M 13.1321614583333 20.6940104166667  C 13.1321614583333 20.75390625  13.1421440972222 20.8337673611111  13.162109375 20.93359375  C 15.2185329861111 20.57421875  16.9704861111111 19.630859375  18.41796875 18.103515625  C 18.3880208333333 18.0735677083333  18.3256293402778 18.0511067708333  18.2307942708333 18.0361328125  C 18.1359592013889 18.0211588541667  18.0735677083333 18.0036892361111  18.0436197916667 17.9837239583333  C 17.8639322916667 17.9138454861111  17.744140625 17.8739149305556  17.6842447916667 17.8639322916667  C 17.6942274305556 17.7940538194444  17.6817491319444 17.7291666666667  17.6468098958333 17.6692708333333  C 17.6118706597222 17.609375  17.5719401041667 17.564453125  17.5270182291667 17.5345052083333  C 17.4820963541667 17.5045572916667  17.4197048611111 17.4646267361111  17.33984375 17.4147135416667  C 17.2599826388889 17.3648003472222  17.205078125 17.3298611111111  17.1751302083333 17.3098958333333  C 17.1551649305556 17.2899305555556  17.1202256944444 17.2599826388889  17.0703125 17.2200520833333  C 17.0203993055556 17.1801215277778  16.9854600694444 17.1526692708333  16.9654947916667 17.1376953125  C 16.9455295138889 17.1227213541667  16.9080946180556 17.1002604166667  16.8531901041667 17.0703125  C 16.7982855902778 17.0403645833333  16.755859375 17.0303819444444  16.7259114583333 17.0403645833333  C 16.6959635416667 17.0503472222222  16.6460503472222 17.0553385416667  16.576171875 17.0553385416667  L 16.53125 17.0703125  C 16.5013020833333 17.0802951388889  16.4738498263889 17.0927734375  16.4488932291667 17.1077473958333  C 16.4239366319444 17.1227213541667  16.396484375 17.1376953125  16.3665364583333 17.1526692708333  C 16.3365885416667 17.1676432291667  16.3166232638889 17.1826171875  16.306640625 17.1975911458333  C 16.2966579861111 17.2125651041667  16.2966579861111 17.2250434027778  16.306640625 17.2350260416667  C 16.0970052083333 17.0653211805556  15.9173177083333 16.9555121527778  15.767578125 16.9055989583333  C 15.7176649305556 16.8956163194444  15.6627604166667 16.8681640625  15.6028645833333 16.8232421875  C 15.54296875 16.7783203125  15.4905598958333 16.7433810763889  15.4456380208333 16.7184244791667  C 15.4007161458333 16.6934678819444  15.3508029513889 16.6859809027778  15.2958984375 16.6959635416667  C 15.2409939236111 16.7059461805556  15.18359375 16.7408854166667  15.1236979166667 16.80078125  C 15.0737847222222 16.8506944444444  15.0438368055556 16.9255642361111  15.0338541666667 17.025390625  C 15.0238715277778 17.1252170138889  15.0138888888889 17.1901041666667  15.00390625 17.2200520833333  C 14.9340277777778 17.1701388888889  14.9340277777778 17.0827907986111  15.00390625 16.9580078125  C 15.0737847222222 16.8332248263889  15.0837673611111 16.7408854166667  15.0338541666667 16.6809895833333  C 15.00390625 16.62109375  14.9514973958333 16.5986328125  14.8766276041667 16.6136067708333  C 14.8017578125 16.6285807291667  14.7418619791667 16.6510416666667  14.6969401041667 16.6809895833333  C 14.6520182291667 16.7109375  14.5946180555556 16.7533637152778  14.5247395833333 16.8082682291667  C 14.4548611111111 16.8631727430556  14.4099392361111 16.8956163194444  14.3899739583333 16.9055989583333  C 14.3700086805556 16.9155815972222  14.3275824652778 16.9430338541667  14.2626953125 16.9879557291667  C 14.1978081597222 17.0328776041667  14.1553819444444 17.0703125  14.1354166666667 17.1002604166667  C 14.10546875 17.1401909722222  14.0755208333333 17.2000868055556  14.0455729166667 17.2799479166667  C 14.015625 17.3598090277778  13.9906684027778 17.4147135416667  13.970703125 17.4446614583333  C 13.9507378472222 17.4047309027778  13.8933376736111 17.3722873263889  13.7985026041667 17.3473307291667  C 13.7036675347222 17.3223741319444  13.65625 17.294921875  13.65625 17.2649739583333  C 13.6762152777778 17.3648003472222  13.6961805555556 17.5394965277778  13.7161458333333 17.7890625  C 13.7361111111111 18.0386284722222  13.7610677083333 18.2282986111111  13.791015625 18.3580729166667  C 13.8608940972222 18.6675347222222  13.8009982638889 18.9071180555556  13.611328125 19.0768229166667  C 13.341796875 19.3263888888889  13.1970486111111 19.5260416666667  13.1770833333333 19.67578125  C 13.1371527777778 19.8953993055556  13.1970486111111 20.0251736111111  13.3567708333333 20.0651041666667  C 13.3567708333333 20.1349826388889  13.3168402777778 20.2373046875  13.2369791666667 20.3720703125  C 13.1571180555556 20.5068359375  13.1221788194444 20.6141493055556  13.1321614583333 20.6940104166667  Z " fill-rule="nonzero" fill="#7f7f7f" stroke="none" transform="matrix(1 0 0 1 348 695 )" />
  </g>
</svg>