<?xml version="1.0" encoding="utf-8"?>
<svg version="1.1" xmlns:xlink="http://www.w3.org/1999/xlink" width="31px" height="21px" xmlns="http://www.w3.org/2000/svg">
  <g transform="matrix(1 0 0 1 -233 -695 )">
    <path d="M 16.1458333333333 12.154296875  L 23.8689236111111 9.6796875  L 24.1111111111111 14  C 24.1469907407407 14.62890625  23.779224537037 15.2122395833333  23.0078125 15.75  C 22.236400462963 16.2877604166667  21.1824363425926 16.7138671875  19.8459201388889 17.0283203125  C 18.5094039351852 17.3427734375  17.0607638888889 17.5  15.5 17.5  C 13.9392361111111 17.5  12.4905960648148 17.3427734375  11.1540798611111 17.0283203125  C 9.81756365740741 16.7138671875  8.76359953703704 16.2877604166667  7.9921875 15.75  C 7.22077546296296 15.2122395833333  6.85300925925926 14.62890625  6.88888888888889 14  L 7.13107638888889 9.6796875  L 14.8541666666667 12.154296875  C 15.0515046296296 12.2180989583333  15.2667824074074 12.25  15.5 12.25  C 15.7332175925926 12.25  15.9484953703704 12.2180989583333  16.1458333333333 12.154296875  Z M 30.7039930555556 4.826171875  C 30.9013310185185 4.89908854166667  31 5.04036458333333  31 5.25  C 31 5.45963541666667  30.9013310185185 5.60091145833333  30.7039930555556 5.673828125  L 15.6345486111111 10.486328125  C 15.5986689814815 10.4954427083333  15.5538194444444 10.5  15.5 10.5  C 15.4461805555556 10.5  15.4013310185185 10.4954427083333  15.3654513888889 10.486328125  L 6.59288194444444 7.669921875  C 6.20717592592593 7.97981770833333  5.88874421296296 8.48795572916666  5.63758680555556 9.1943359375  C 5.38642939814815 9.90071614583333  5.23394097222222 10.7141927083333  5.18012152777778 11.634765625  C 5.74522569444444 11.962890625  6.02777777777778 12.4596354166667  6.02777777777778 13.125  C 6.02777777777778 13.75390625  5.76765046296296 14.2415364583333  5.24739583333333 14.587890625  L 6.02777777777778 20.5078125  C 6.04571759259259 20.6354166666667  6.00983796296296 20.7493489583333  5.92013888888889 20.849609375  C 5.83940972222222 20.9498697916667  5.73177083333333 21  5.59722222222222 21  L 3.01388888888889 21  C 2.87934027777778 21  2.77170138888889 20.9498697916667  2.69097222222222 20.849609375  C 2.60127314814815 20.7493489583333  2.56539351851852 20.6354166666667  2.58333333333333 20.5078125  L 3.36371527777778 14.587890625  C 2.84346064814815 14.2415364583333  2.58333333333333 13.75390625  2.58333333333333 13.125  C 2.58333333333333 12.4596354166667  2.87485532407407 11.9537760416667  3.45789930555556 11.607421875  C 3.55656828703704 9.720703125  3.99609375 8.216796875  4.77647569444444 7.095703125  L 0.296006944444444 5.673828125  C 0.0986689814814815 5.60091145833333  0 5.45963541666667  0 5.25  C 0 5.04036458333333  0.0986689814814815 4.89908854166667  0.296006944444444 4.826171875  L 15.3654513888889 0.0136718749999992  C 15.4013310185185 0.00455729166666563  15.4461805555556 0  15.5 0  C 15.5538194444444 0  15.5986689814815 0.00455729166666563  15.6345486111111 0.0136718749999992  L 30.7039930555556 4.826171875  Z " fill-rule="nonzero" fill="#868686" stroke="none" transform="matrix(1 0 0 1 233 695 )" />
  </g>
</svg>