<?xml version="1.0" encoding="utf-8"?>
<svg version="1.1" xmlns:xlink="http://www.w3.org/1999/xlink" width="144px" height="38px" xmlns="http://www.w3.org/2000/svg">
  <defs>
    <mask fill="white" id="clip1271">
      <path d="M 6 38  C 3.225 38  1 35.775  1 33  L 1 5  C 1 2.225  3.225 0  6 0  L 140 0  C 142.775 0  145 2.225  145 5  L 145 33  C 145 35.775  142.775 38  140 38  " fill-rule="evenodd" />
    </mask>
  </defs>
  <g transform="matrix(1 0 0 1 -1 0 )">
    <path d="M 1 0  L 145 0  L 145 38  L 1 38  L 1 0  " fill-rule="nonzero" fill="#cccccc" stroke="none" mask="url(#clip1271)" />
    <path d="M 4 3  L 142 3  L 142 35  L 4 35  L 4 3  " fill-rule="nonzero" fill="#ffffff" stroke="none" mask="url(#clip1271)" />
    <path d="M 78.73 11.4  C 77.134 11.4  75.88 10.146  75.88 8.55  C 75.88 6.954  77.134 5.7  78.73 5.7  C 80.326 5.7  81.58 6.954  81.58 8.55  C 81.58 10.146  80.326 11.4  78.73 11.4  " fill-rule="nonzero" fill="#cccccc" stroke="none" mask="url(#clip1271)" />
    <path d="M 5 34  L 5 17.5  L 39 10  L 86.6 29.25  L 113.8 14.5  L 141 29.25  L 141 34  L 5 34  " fill-rule="nonzero" fill="#169bd5" stroke="none" mask="url(#clip1271)" />
  </g>
</svg>