<?xml version="1.0" encoding="utf-8"?>
<svg version="1.1" xmlns:xlink="http://www.w3.org/1999/xlink" width="367px" height="153px" xmlns="http://www.w3.org/2000/svg">
  <defs>
    <mask fill="white" id="clip582">
      <path d="M 5 181  C 2.225 181  0 178.775  0 176  L 0 33  C 0 30.225  2.225 28  5 28  L 362 28  C 364.775 28  367 30.225  367 33  L 367 176  C 367 178.775  364.775 181  362 181  " fill-rule="evenodd" />
    </mask>
  </defs>
  <g transform="matrix(1 0 0 1 0 -28 )">
    <path d="M 0 28  L 367 28  L 367 181  L 0 181  L 0 28  " fill-rule="nonzero" fill="#cccccc" stroke="none" mask="url(#clip582)" />
    <path d="M 11 39  L 356 39  L 356 170  L 11 170  L 11 39  " fill-rule="nonzero" fill="#ffffff" stroke="none" mask="url(#clip582)" />
    <path d="M 202.315 73.9  C 195.889 73.9  190.84 68.851  190.84 62.425  C 190.84 55.999  195.889 50.95  202.315 50.95  C 208.741 50.95  213.79 55.999  213.79 62.425  C 213.79 68.851  208.741 73.9  202.315 73.9  " fill-rule="nonzero" fill="#cccccc" stroke="none" mask="url(#clip582)" />
    <path d="M 15 166  L 15 98.35  L 99.25 67.6  L 217.2 135.233242506812  L 284.6 86.05  L 352 135.233242506812  L 352 166  L 15 166  " fill-rule="nonzero" fill="#169bd5" stroke="none" mask="url(#clip582)" />
  </g>
</svg>