<?xml version="1.0" encoding="utf-8"?>
<svg version="1.1" xmlns:xlink="http://www.w3.org/1999/xlink" width="13px" height="7px" xmlns="http://www.w3.org/2000/svg">
  <g transform="matrix(1 0 0 1 -300 -322 )">
    <path d="M 9.65206473214286 5.48394097222222  C 10.6217447916667 4.99175347222222  11.4281994047619 4.33043981481481  12.0714285714286 3.5  C 11.3363095238095 2.54398148148148  10.4149925595238 1.82899305555556  9.30747767857143 1.35503472222222  C 9.60249255952381 1.77633101851852  9.75 2.23206018518519  9.75 2.72222222222222  C 9.75 3.47164351851852  9.43201264880952 4.1127025462963  8.79603794642857 4.64539930555556  C 8.16006324404762 5.17809606481481  7.39471726190476 5.44444444444444  6.5 5.44444444444444  C 5.60528273809524 5.44444444444444  4.83993675595238 5.17809606481481  4.20396205357143 4.64539930555556  C 3.56798735119048 4.1127025462963  3.25 3.47164351851852  3.25 2.72222222222222  C 3.25 2.23206018518519  3.39750744047619 1.77633101851852  3.69252232142857 1.35503472222222  C 2.58500744047619 1.82899305555556  1.66369047619048 2.54398148148148  0.928571428571428 3.5  C 1.5718005952381 4.33043981481481  2.37825520833333 4.99175347222222  3.34793526785714 5.48394097222222  C 4.31761532738095 5.97612847222222  5.36830357142857 6.22222222222222  6.5 6.22222222222222  C 7.63169642857143 6.22222222222222  8.68238467261905 5.97612847222222  9.65206473214286 5.48394097222222  Z M 6.74665178571429 1.37326388888889  C 6.81436011904762 1.31655092592593  6.84821428571429 1.24768518518518  6.84821428571429 1.16666666666667  C 6.84821428571429 1.08564814814815  6.81436011904762 1.01678240740741  6.74665178571429 0.960069444444445  C 6.67894345238095 0.903356481481481  6.59672619047619 0.874999999999999  6.5 0.875  C 5.89546130952381 0.874999999999999  5.37676711309524 1.05627893518518  4.94391741071429 1.41883680555556  C 4.51106770833333 1.78139467592593  4.29464285714286 2.21585648148148  4.29464285714286 2.72222222222222  C 4.29464285714286 2.80324074074074  4.32849702380952 2.87210648148148  4.39620535714286 2.92881944444444  C 4.46391369047619 2.98553240740741  4.54613095238095 3.01388888888889  4.64285714285714 3.01388888888889  C 4.73958333333333 3.01388888888889  4.8218005952381 2.98553240740741  4.88950892857143 2.92881944444444  C 4.95721726190476 2.87210648148148  4.99107142857143 2.80324074074074  4.99107142857143 2.72222222222222  C 4.99107142857143 2.37384259259259  5.13857886904762 2.07609953703704  5.43359375 1.82899305555556  C 5.72860863095238 1.58188657407407  6.08407738095238 1.45833333333333  6.5 1.45833333333333  C 6.59672619047619 1.45833333333333  6.67894345238095 1.42997685185185  6.74665178571429 1.37326388888889  Z M 12.8549107142857 3.08072916666667  C 12.9516369047619 3.22251157407407  13 3.36226851851852  13 3.5  C 13 3.63773148148148  12.9516369047619 3.77748842592593  12.8549107142857 3.91927083333333  C 12.1778273809524 4.8509837962963  11.2673921130952 5.59736689814815  10.1236049107143 6.15842013888889  C 8.97981770833333 6.71947337962963  7.77194940476191 7  6.5 7  C 5.2280505952381 7  4.02018229166667 6.71846064814815  2.87639508928571 6.15538194444444  C 1.73260788690476 5.59230324074074  0.822172619047619 4.84693287037037  0.145089285714286 3.91927083333333  C 0.0483630952380952 3.77748842592593  0 3.63773148148148  0 3.5  C 0 3.36226851851852  0.0483630952380952 3.22251157407407  0.145089285714286 3.08072916666667  C 0.822172619047619 2.15306712962963  1.73260788690476 1.40769675925926  2.87639508928571 0.844618055555555  C 4.02018229166667 0.281539351851851  5.2280505952381 0  6.5 0  C 7.77194940476191 0  8.97981770833333 0.281539351851851  10.1236049107143 0.844618055555555  C 11.2673921130952 1.40769675925926  12.1778273809524 2.15306712962963  12.8549107142857 3.08072916666667  Z " fill-rule="nonzero" fill="#555555" stroke="none" transform="matrix(1 0 0 1 300 322 )" />
  </g>
</svg>