<?xml version="1.0" encoding="utf-8"?>
<svg version="1.1" xmlns:xlink="http://www.w3.org/1999/xlink" width="18px" height="18px" xmlns="http://www.w3.org/2000/svg">
  <g transform="matrix(1 0 0 1 -1100 -329 )">
    <path d="M 11.0390625 11.0390625  C 11.9873798076923 10.0907451923077  12.4615384615385 8.94951923076923  12.4615384615385 7.61538461538462  C 12.4615384615385 6.28125  11.9873798076923 5.14002403846154  11.0390625 4.19170673076923  C 10.0907451923077 3.24338942307692  8.94951923076923 2.76923076923077  7.61538461538462 2.76923076923077  C 6.28125 2.76923076923077  5.14002403846154 3.24338942307692  4.19170673076923 4.19170673076923  C 3.24338942307692 5.14002403846154  2.76923076923077 6.28125  2.76923076923077 7.61538461538462  C 2.76923076923077 8.94951923076923  3.24338942307692 10.0907451923077  4.19170673076923 11.0390625  C 5.14002403846154 11.9873798076923  6.28125 12.4615384615385  7.61538461538462 12.4615384615385  C 8.94951923076923 12.4615384615385  10.0907451923077 11.9873798076923  11.0390625 11.0390625  Z M 17.5997596153846 15.6418269230769  C 17.8665865384615 15.9086538461538  18 16.2331730769231  18 16.6153846153846  C 18 16.9903846153846  17.8629807692308 17.3149038461538  17.5889423076923 17.5889423076923  C 17.3149038461538 17.8629807692308  16.9903846153846 18  16.6153846153846 18  C 16.2259615384615 18  15.9014423076923 17.8629807692308  15.6418269230769 17.5889423076923  L 11.9314903846154 13.8894230769231  C 10.640625 14.7836538461538  9.20192307692308 15.2307692307692  7.61538461538462 15.2307692307692  C 6.58413461538462 15.2307692307692  5.59795673076923 15.0306490384615  4.65685096153846 14.6304086538462  C 3.71574519230769 14.2301682692308  2.90444711538462 13.6893028846154  2.22295673076923 13.0078125  C 1.54146634615385 12.3263221153846  1.00060096153846 11.5150240384615  0.600360576923077 10.5739182692308  C 0.200120192307692 9.6328125  0 8.64663461538461  0 7.61538461538462  C 0 6.58413461538461  0.200120192307692 5.59795673076923  0.600360576923077 4.65685096153846  C 1.00060096153846 3.71574519230769  1.54146634615385 2.90444711538462  2.22295673076923 2.22295673076923  C 2.90444711538462 1.54146634615385  3.71574519230769 1.00060096153846  4.65685096153846 0.600360576923078  C 5.59795673076923 0.200120192307692  6.58413461538462 0  7.61538461538462 0  C 8.64663461538462 0  9.6328125 0.200120192307692  10.5739182692308 0.600360576923078  C 11.5150240384615 1.00060096153846  12.3263221153846 1.54146634615385  13.0078125 2.22295673076923  C 13.6893028846154 2.90444711538462  14.2301682692308 3.71574519230769  14.6304086538462 4.65685096153846  C 15.0306490384615 5.59795673076923  15.2307692307692 6.58413461538461  15.2307692307692 7.61538461538462  C 15.2307692307692 9.20192307692308  14.7836538461538 10.640625  13.8894230769231 11.9314903846154  L 17.5997596153846 15.6418269230769  Z " fill-rule="nonzero" fill="#ffffff" stroke="none" transform="matrix(1 0 0 1 1100 329 )" />
  </g>
</svg>