<?xml version="1.0" encoding="utf-8"?>
<svg version="1.1" xmlns:xlink="http://www.w3.org/1999/xlink" width="189px" height="86px" xmlns="http://www.w3.org/2000/svg">
  <defs>
    <filter x="6px" y="201px" width="189px" height="86px" filterUnits="userSpaceOnUse" id="filter587">
      <feOffset dx="5" dy="5" in="SourceAlpha" result="shadowOffsetInner" />
      <feGaussianBlur stdDeviation="2.5" in="shadowOffsetInner" result="shadowGaussian" />
      <feComposite in2="shadowGaussian" operator="atop" in="SourceAlpha" result="shadowComposite" />
      <feColorMatrix type="matrix" values="0 0 0 0 1  0 0 0 0 1  0 0 0 0 1  0 0 0 0.349019607843137 0  " in="shadowComposite" />
    </filter>
    <g id="widget588">
      <path d="M 7 202  L 184 202  L 184 265  A 11 11 0 0 1 173 276 L 18 276  A 11 11 0 0 1 7 265 L 7 202  Z " fill-rule="nonzero" fill="#ffffff" stroke="none" />
      <path d="M 6.5 201.5  L 184.5 201.5  L 184.5 265  A 11.5 11.5 0 0 1 173 276.5 L 18 276.5  A 11.5 11.5 0 0 1 6.5 265 L 6.5 201.5  Z " stroke-width="1" stroke-dasharray="1,1" stroke="#e4e4e4" fill="none" stroke-dashoffset="0.5" />
    </g>
  </defs>
  <g transform="matrix(1 0 0 1 -6 -201 )">
    <use xlink:href="#widget588" filter="url(#filter587)" />
    <use xlink:href="#widget588" />
  </g>
</svg>