<?xml version="1.0" encoding="utf-8"?>
<svg version="1.1" xmlns:xlink="http://www.w3.org/1999/xlink" width="349px" height="76px" xmlns="http://www.w3.org/2000/svg">
  <g transform="matrix(1 0 0 1 -2 -380 )">
    <path d="M 3 384  A 3 3 0 0 1 6 381 L 347 381  A 3 3 0 0 1 350 384 L 350 452  A 3 3 0 0 1 347 455 L 6 455  A 3 3 0 0 1 3 452 L 3 384  Z " fill-rule="nonzero" fill="#fdfdfd" stroke="none" />
    <path d="M 2.5 384  A 3.5 3.5 0 0 1 6 380.5 L 347 380.5  A 3.5 3.5 0 0 1 350.5 384 L 350.5 452  A 3.5 3.5 0 0 1 347 455.5 L 6 455.5  A 3.5 3.5 0 0 1 2.5 452 L 2.5 384  Z " stroke-width="1" stroke="#d7d7d7" fill="none" stroke-opacity="0.509803921568627" />
  </g>
</svg>