<?xml version="1.0" encoding="utf-8"?>
<svg version="1.1" xmlns:xlink="http://www.w3.org/1999/xlink" width="6px" height="6px" xmlns="http://www.w3.org/2000/svg">
  <g transform="matrix(1 0 0 1 -168 -85 )">
    <path d="M 171 85  C 172.68 85  174 86.32  174 88  C 174 89.68  172.68 91  171 91  C 169.32 91  168 89.68  168 88  C 168 86.32  169.32 85  171 85  Z " fill-rule="nonzero" fill="#d7d7d7" stroke="none" />
    <path d="M 171 85.5  C 172.4 85.5  173.5 86.6  173.5 88  C 173.5 89.4  172.4 90.5  171 90.5  C 169.6 90.5  168.5 89.4  168.5 88  C 168.5 86.6  169.6 85.5  171 85.5  Z " stroke-width="1" stroke="#797979" fill="none" />
  </g>
</svg>