<?xml version="1.0" encoding="utf-8"?>
<svg version="1.1" xmlns:xlink="http://www.w3.org/1999/xlink" width="6px" height="6px" xmlns="http://www.w3.org/2000/svg">
  <g transform="matrix(1 0 0 1 -157 -85 )">
    <path d="M 160 85  C 161.68 85  163 86.32  163 88  C 163 89.68  161.68 91  160 91  C 158.32 91  157 89.68  157 88  C 157 86.32  158.32 85  160 85  Z " fill-rule="nonzero" fill="#333333" stroke="none" />
    <path d="M 160 85.5  C 161.4 85.5  162.5 86.6  162.5 88  C 162.5 89.4  161.4 90.5  160 90.5  C 158.6 90.5  157.5 89.4  157.5 88  C 157.5 86.6  158.6 85.5  160 85.5  Z " stroke-width="1" stroke="#797979" fill="none" />
  </g>
</svg>