<?xml version="1.0" encoding="utf-8"?>
<svg version="1.1" xmlns:xlink="http://www.w3.org/1999/xlink" width="6px" height="6px" xmlns="http://www.w3.org/2000/svg">
  <g transform="matrix(1 0 0 1 -171 -85 )">
    <path d="M 174 85  C 175.68 85  177 86.32  177 88  C 177 89.68  175.68 91  174 91  C 172.32 91  171 89.68  171 88  C 171 86.32  172.32 85  174 85  Z " fill-rule="nonzero" fill="#555555" stroke="none" />
    <path d="M 174 85.5  C 175.4 85.5  176.5 86.6  176.5 88  C 176.5 89.4  175.4 90.5  174 90.5  C 172.6 90.5  171.5 89.4  171.5 88  C 171.5 86.6  172.6 85.5  174 85.5  Z " stroke-width="1" stroke="#797979" fill="none" />
  </g>
</svg>