<?xml version="1.0" encoding="utf-8"?>
<svg version="1.1" xmlns:xlink="http://www.w3.org/1999/xlink" width="6px" height="6px" xmlns="http://www.w3.org/2000/svg">
  <g transform="matrix(1 0 0 1 -160 -85 )">
    <path d="M 163 85  C 164.68 85  166 86.32  166 88  C 166 89.68  164.68 91  163 91  C 161.32 91  160 89.68  160 88  C 160 86.32  161.32 85  163 85  Z " fill-rule="nonzero" fill="#ffffff" stroke="none" />
    <path d="M 163 85.5  C 164.4 85.5  165.5 86.6  165.5 88  C 165.5 89.4  164.4 90.5  163 90.5  C 161.6 90.5  160.5 89.4  160.5 88  C 160.5 86.6  161.6 85.5  163 85.5  Z " stroke-width="1" stroke="#797979" fill="none" />
  </g>
</svg>