<?xml version="1.0" encoding="utf-8"?>
<svg version="1.1" xmlns:xlink="http://www.w3.org/1999/xlink" width="369px" height="121px" xmlns="http://www.w3.org/2000/svg">
  <g transform="matrix(1 0 0 1 -2 0 )">
    <path d="M 3 5  A 4 4 0 0 1 7 1 L 366 1  A 4 4 0 0 1 370 5 L 370 116  A 4 4 0 0 1 366 120 L 7 120  A 4 4 0 0 1 3 116 L 3 5  Z " fill-rule="nonzero" fill="#ffffff" stroke="none" fill-opacity="0" />
    <path d="M 2.5 5  A 4.5 4.5 0 0 1 7 0.5 L 366 0.5  A 4.5 4.5 0 0 1 370.5 5 L 370.5 116  A 4.5 4.5 0 0 1 366 120.5 L 7 120.5  A 4.5 4.5 0 0 1 2.5 116 L 2.5 5  Z " stroke-width="1" stroke-dasharray="9,4" stroke="#acacac" fill="none" stroke-dashoffset="0.5" />
  </g>
</svg>