<?xml version="1.0" encoding="utf-8"?>
<svg version="1.1" xmlns:xlink="http://www.w3.org/1999/xlink" width="365px" height="114px" xmlns="http://www.w3.org/2000/svg">
  <g transform="matrix(1 0 0 1 -2 -2 )">
    <path d="M 3 7  A 4 4 0 0 1 7 3 L 362 3  A 4 4 0 0 1 366 7 L 366 111  A 4 4 0 0 1 362 115 L 7 115  A 4 4 0 0 1 3 111 L 3 7  Z " fill-rule="nonzero" fill="#ffffff" stroke="none" fill-opacity="0" />
    <path d="M 2.5 7  A 4.5 4.5 0 0 1 7 2.5 L 362 2.5  A 4.5 4.5 0 0 1 366.5 7 L 366.5 111  A 4.5 4.5 0 0 1 362 115.5 L 7 115.5  A 4.5 4.5 0 0 1 2.5 111 L 2.5 7  Z " stroke-width="1" stroke-dasharray="9,4" stroke="#acacac" fill="none" stroke-dashoffset="0.5" />
  </g>
</svg>