<?xml version="1.0" encoding="utf-8"?>
<svg version="1.1" xmlns:xlink="http://www.w3.org/1999/xlink" width="35px" height="35px" xmlns="http://www.w3.org/2000/svg">
  <defs>
    <mask fill="white" id="clip1986">
      <path d="M 41 57  C 38.225 57  36 54.775  36 52  L 36 27  C 36 24.225  38.225 22  41 22  L 66 22  C 68.775 22  71 24.225  71 27  L 71 52  C 71 54.775  68.775 57  66 57  " fill-rule="evenodd" />
    </mask>
  </defs>
  <g transform="matrix(1 0 0 1 -36 -22 )">
    <path d="M 36 22  L 71 22  L 71 57  L 36 57  L 36 22  " fill-rule="nonzero" fill="#cccccc" stroke="none" mask="url(#clip1986)" />
    <path d="M 38 24  L 69 24  L 69 55  L 38 55  L 38 24  " fill-rule="nonzero" fill="#ffffff" stroke="none" mask="url(#clip1986)" />
    <path d="M 56.825 32.5  C 55.355 32.5  54.2 31.345  54.2 29.875  C 54.2 28.405  55.355 27.25  56.825 27.25  C 58.295 27.25  59.45 28.405  59.45 29.875  C 59.45 31.345  58.295 32.5  56.825 32.5  " fill-rule="nonzero" fill="#cccccc" stroke="none" mask="url(#clip1986)" />
    <path d="M 39 54  L 39 38.05  L 46.25 30.8  L 56.4 36.6  L 62.2 35.15  L 68 36.6  L 68 54  L 39 54  " fill-rule="nonzero" fill="#169bd5" stroke="none" mask="url(#clip1986)" />
  </g>
</svg>