<?xml version="1.0" encoding="utf-8"?>
<svg version="1.1" xmlns:xlink="http://www.w3.org/1999/xlink" width="351px" height="82px" xmlns="http://www.w3.org/2000/svg">
  <g transform="matrix(1 0 0 1 -15 -3 )">
    <path d="M 16 8  A 4 4 0 0 1 20 4 L 361 4  A 4 4 0 0 1 365 8 L 365 80  A 4 4 0 0 1 361 84 L 20 84  A 4 4 0 0 1 16 80 L 16 8  Z " fill-rule="nonzero" fill="#ffffff" stroke="none" fill-opacity="0" />
    <path d="M 15.5 8  A 4.5 4.5 0 0 1 20 3.5 L 361 3.5  A 4.5 4.5 0 0 1 365.5 8 L 365.5 80  A 4.5 4.5 0 0 1 361 84.5 L 20 84.5  A 4.5 4.5 0 0 1 15.5 80 L 15.5 8  Z " stroke-width="1" stroke-dasharray="9,4" stroke="#b3b3b3" fill="none" stroke-dashoffset="0.5" />
  </g>
</svg>