<?xml version="1.0" encoding="utf-8"?>
<svg version="1.1" xmlns:xlink="http://www.w3.org/1999/xlink" width="39px" height="39px" xmlns="http://www.w3.org/2000/svg">
  <defs>
    <mask fill="white" id="clip601">
      <path d="M 38 57  C 35.225 57  33 54.775  33 52  L 33 23  C 33 20.225  35.225 18  38 18  L 67 18  C 69.775 18  72 20.225  72 23  L 72 52  C 72 54.775  69.775 57  67 57  " fill-rule="evenodd" />
    </mask>
  </defs>
  <g transform="matrix(1 0 0 1 -33 -18 )">
    <path d="M 33 18  L 72 18  L 72 57  L 33 57  L 33 18  " fill-rule="nonzero" fill="#cccccc" stroke="none" mask="url(#clip601)" />
    <path d="M 36 21  L 69 21  L 69 54  L 36 54  L 36 21  " fill-rule="nonzero" fill="#ffffff" stroke="none" mask="url(#clip601)" />
    <path d="M 56.205 29.7  C 54.567 29.7  53.28 28.413  53.28 26.775  C 53.28 25.137  54.567 23.85  56.205 23.85  C 57.843 23.85  59.13 25.137  59.13 26.775  C 59.13 28.413  57.843 29.7  56.205 29.7  " fill-rule="nonzero" fill="#cccccc" stroke="none" mask="url(#clip601)" />
    <path d="M 37 53  L 37 35.95  L 44.75 28.2  L 55.6 34.4  L 61.8 32.85  L 68 34.4  L 68 53  L 37 53  " fill-rule="nonzero" fill="#169bd5" stroke="none" mask="url(#clip601)" />
  </g>
</svg>