<?xml version="1.0" encoding="utf-8"?>
<svg version="1.1" xmlns:xlink="http://www.w3.org/1999/xlink" width="42px" height="42px" xmlns="http://www.w3.org/2000/svg">
  <defs>
    <mask fill="white" id="clip600">
      <path d="M 37 57  C 34.225 57  32 54.775  32 52  L 32 20  C 32 17.225  34.225 15  37 15  L 69 15  C 71.775 15  74 17.225  74 20  L 74 52  C 74 54.775  71.775 57  69 57  " fill-rule="evenodd" />
    </mask>
  </defs>
  <g transform="matrix(1 0 0 1 -32 -15 )">
    <path d="M 32 15  L 74 15  L 74 57  L 32 57  L 32 15  " fill-rule="nonzero" fill="#cccccc" stroke="none" mask="url(#clip600)" />
    <path d="M 35 18  L 71 18  L 71 54  L 35 54  L 35 18  " fill-rule="nonzero" fill="#ffffff" stroke="none" mask="url(#clip600)" />
    <path d="M 56.99 27.6  C 55.226 27.6  53.84 26.214  53.84 24.45  C 53.84 22.686  55.226 21.3  56.99 21.3  C 58.754 21.3  60.14 22.686  60.14 24.45  C 60.14 26.214  58.754 27.6  56.99 27.6  " fill-rule="nonzero" fill="#cccccc" stroke="none" mask="url(#clip600)" />
    <path d="M 36 53  L 36 34.3  L 44.5 25.8  L 56.4 32.6  L 63.2 30.9  L 70 32.6  L 70 53  L 36 53  " fill-rule="nonzero" fill="#169bd5" stroke="none" mask="url(#clip600)" />
  </g>
</svg>