<?xml version="1.0" encoding="utf-8"?>
<svg version="1.1" xmlns:xlink="http://www.w3.org/1999/xlink" width="313px" height="134px" xmlns="http://www.w3.org/2000/svg">
  <defs>
    <mask fill="white" id="clip1297">
      <path d="M 5 134  C 2.225 134  0 131.775  0 129  L 0 5  C 0 2.225  2.225 0  5 0  L 308 0  C 310.775 0  313 2.225  313 5  L 313 129  C 313 131.775  310.775 134  308 134  " fill-rule="evenodd" />
    </mask>
  </defs>
  <g>
    <path d="M 0 0  L 313 0  L 313 134  L 0 134  L 0 0  " fill-rule="nonzero" fill="#cccccc" stroke="none" mask="url(#clip1297)" />
    <path d="M 9 9  L 304 9  L 304 125  L 9 125  L 9 9  " fill-rule="nonzero" fill="#ffffff" stroke="none" mask="url(#clip1297)" />
    <path d="M 172.81 40.2  C 167.182 40.2  162.76 35.778  162.76 30.15  C 162.76 24.522  167.182 20.1  172.81 20.1  C 178.438 20.1  182.86 24.522  182.86 30.15  C 182.86 35.778  178.438 40.2  172.81 40.2  " fill-rule="nonzero" fill="#cccccc" stroke="none" mask="url(#clip1297)" />
    <path d="M 13 122  L 13 62.05  L 85 34.8  L 185.8 94.0012779552716  L 243.4 51.15  L 301 94.0012779552716  L 301 122  L 13 122  " fill-rule="nonzero" fill="#169bd5" stroke="none" mask="url(#clip1297)" />
  </g>
</svg>