<?xml version="1.0" encoding="utf-8"?>
<svg version="1.1" xmlns:xlink="http://www.w3.org/1999/xlink" width="12px" height="12px" viewBox="894 99.5  12 12" xmlns="http://www.w3.org/2000/svg">
  <path d="M 900 99.5  C 903.36 99.5  906 102.14  906 105.5  C 906 108.86  903.36 111.5  900 111.5  C 896.64 111.5  894 108.86  894 105.5  C 894 102.14  896.64 99.5  900 99.5  Z " fill-rule="nonzero" fill="#ffffff" stroke="none" />
  <path d="M 900 100  C 903.08 100  905.5 102.42  905.5 105.5  C 905.5 108.58  903.08 111  900 111  C 896.92 111  894.5 108.58  894.5 105.5  C 894.5 102.42  896.92 100  900 100  Z " stroke-width="1" stroke="#797979" fill="none" />
  <path d="M 900 108.5  C 898.32 108.5  897 107.18  897 105.5  C 897 103.82  898.32 102.5  900 102.5  C 901.68 102.5  903 103.82  903 105.5  C 903 107.18  901.68 108.5  900 108.5  " fill-rule="nonzero" fill="#797979" stroke="none" />
</svg>