<?xml version="1.0" encoding="utf-8"?>
<svg version="1.1" xmlns:xlink="http://www.w3.org/1999/xlink" width="12px" height="12px" viewBox="142 21.5  12 12" xmlns="http://www.w3.org/2000/svg">
  <path d="M 148 21.5  C 151.36 21.5  154 24.14  154 27.5  C 154 30.86  151.36 33.5  148 33.5  C 144.64 33.5  142 30.86  142 27.5  C 142 24.14  144.64 21.5  148 21.5  Z " fill-rule="nonzero" fill="#f0f0f0" stroke="none" />
  <path d="M 148 22  C 151.08 22  153.5 24.42  153.5 27.5  C 153.5 30.58  151.08 33  148 33  C 144.92 33  142.5 30.58  142.5 27.5  C 142.5 24.42  144.92 22  148 22  Z " stroke-width="1" stroke="#797979" fill="none" />
  <path d="M 148 30.5  C 146.32 30.5  145 29.18  145 27.5  C 145 25.82  146.32 24.5  148 24.5  C 149.68 24.5  151 25.82  151 27.5  C 151 29.18  149.68 30.5  148 30.5  " fill-rule="nonzero" fill="#797979" stroke="none" />
</svg>