<?xml version="1.0" encoding="utf-8"?>
<svg version="1.1" xmlns:xlink="http://www.w3.org/1999/xlink" width="95px" height="95px" xmlns="http://www.w3.org/2000/svg">
  <defs>
    <mask fill="white" id="clip1993">
      <path d="M 23 289  C 20.225 289  18 286.775  18 284  L 18 199  C 18 196.225  20.225 194  23 194  L 108 194  C 110.775 194  113 196.225  113 199  L 113 284  C 113 286.775  110.775 289  108 289  " fill-rule="evenodd" />
    </mask>
  </defs>
  <g transform="matrix(1 0 0 1 -18 -194 )">
    <path d="M 18 194  L 113 194  L 113 289  L 18 289  L 18 194  " fill-rule="nonzero" fill="#cccccc" stroke="none" mask="url(#clip1993)" />
    <path d="M 25 201  L 106 201  L 106 282  L 25 282  L 25 201  " fill-rule="nonzero" fill="#ffffff" stroke="none" mask="url(#clip1993)" />
    <path d="M 74.525 222.5  C 70.535 222.5  67.4 219.365  67.4 215.375  C 67.4 211.385  70.535 208.25  74.525 208.25  C 78.515 208.25  81.65 211.385  81.65 215.375  C 81.65 219.365  78.515 222.5  74.525 222.5  " fill-rule="nonzero" fill="#cccccc" stroke="none" mask="url(#clip1993)" />
    <path d="M 28 280  L 28 238.2  L 47 219.2  L 73.6 234.4  L 88.8 230.6  L 104 234.4  L 104 280  L 28 280  " fill-rule="nonzero" fill="#169bd5" stroke="none" mask="url(#clip1993)" />
  </g>
</svg>