<?xml version="1.0" encoding="utf-8"?>
<svg version="1.1" xmlns:xlink="http://www.w3.org/1999/xlink" width="12px" height="12px" viewBox="24 21.5  12 12" xmlns="http://www.w3.org/2000/svg">
  <path d="M 30 21.5  C 33.36 21.5  36 24.14  36 27.5  C 36 30.86  33.36 33.5  30 33.5  C 26.64 33.5  24 30.86  24 27.5  C 24 24.14  26.64 21.5  30 21.5  Z " fill-rule="nonzero" fill="#f0f0f0" stroke="none" />
  <path d="M 30 22  C 33.08 22  35.5 24.42  35.5 27.5  C 35.5 30.58  33.08 33  30 33  C 26.92 33  24.5 30.58  24.5 27.5  C 24.5 24.42  26.92 22  30 22  Z " stroke-width="1" stroke="#797979" fill="none" />
  <path d="M 30 30.5  C 28.32 30.5  27 29.18  27 27.5  C 27 25.82  28.32 24.5  30 24.5  C 31.68 24.5  33 25.82  33 27.5  C 33 29.18  31.68 30.5  30 30.5  " fill-rule="nonzero" fill="#797979" stroke="none" />
</svg>