<?xml version="1.0" encoding="utf-8"?>
<svg version="1.1" xmlns:xlink="http://www.w3.org/1999/xlink" width="12px" height="12px" viewBox="4 1.5  12 12" xmlns="http://www.w3.org/2000/svg">
  <path d="M 10 1.5  C 13.36 1.5  16 4.14  16 7.5  C 16 10.86  13.36 13.5  10 13.5  C 6.64 13.5  4 10.86  4 7.5  C 4 4.14  6.64 1.5  10 1.5  Z " fill-rule="nonzero" fill="#f0f0f0" stroke="none" />
  <path d="M 10 2  C 13.08 2  15.5 4.42  15.5 7.5  C 15.5 10.58  13.08 13  10 13  C 6.92 13  4.5 10.58  4.5 7.5  C 4.5 4.42  6.92 2  10 2  Z " stroke-width="1" stroke="#797979" fill="none" />
  <path d="M 10 10.5  C 8.32 10.5  7 9.18  7 7.5  C 7 5.82  8.32 4.5  10 4.5  C 11.68 4.5  13 5.82  13 7.5  C 13 9.18  11.68 10.5  10 10.5  " fill-rule="nonzero" fill="#797979" stroke="none" />
</svg>