<?xml version="1.0" encoding="utf-8"?>
<svg version="1.1" xmlns:xlink="http://www.w3.org/1999/xlink" width="26px" height="16px" xmlns="http://www.w3.org/2000/svg">
  <g transform="matrix(1 0 0 1 -284 -24 )">
    <path d="M 0.6474609375 11.10625  C 0.2158203125 10.11875  0 9.08333333333333  0 8  C 0 6.91666666666667  0.2158203125 5.88125  0.6474609375 4.89375  C 1.0791015625 3.90625  1.65673828125 3.05625  2.38037109375 2.34375  C 3.10400390625 1.63125  3.96728515625 1.0625  4.97021484375 0.637499999999999  C 5.97314453125 0.2125  7.02473958333333 0  8.125 0  L 17.875 0  C 18.9752604166667 0  20.02685546875 0.2125  21.02978515625 0.637499999999999  C 22.03271484375 1.0625  22.89599609375 1.63125  23.61962890625 2.34375  C 24.34326171875 3.05625  24.9208984375 3.90625  25.3525390625 4.89375  C 25.7841796875 5.88125  26 6.91666666666667  26 8  C 26 9.08333333333333  25.7841796875 10.11875  25.3525390625 11.10625  C 24.9208984375 12.09375  24.34326171875 12.94375  23.61962890625 13.65625  C 22.89599609375 14.36875  22.03271484375 14.9375  21.02978515625 15.3625  C 20.02685546875 15.7875  18.9752604166667 16  17.875 16  L 8.125 16  C 7.02473958333333 16  5.97314453125 15.7875  4.97021484375 15.3625  C 3.96728515625 14.9375  3.10400390625 14.36875  2.38037109375 13.65625  C 1.65673828125 12.94375  1.0791015625 12.09375  0.6474609375 11.10625  Z M 15.35498046875 13.89375  C 16.15478515625 14.23125  16.9947916666667 14.4  17.875 14.4  C 18.7552083333333 14.4  19.59521484375 14.23125  20.39501953125 13.89375  C 21.19482421875 13.55625  21.88671875 13.1  22.470703125 12.525  C 23.0546875 11.95  23.51806640625 11.26875  23.86083984375 10.48125  C 24.20361328125 9.69375  24.375 8.86666666666667  24.375 8  C 24.375 7.13333333333333  24.20361328125 6.30625  23.86083984375 5.51875  C 23.51806640625 4.73125  23.0546875 4.05  22.470703125 3.475  C 21.88671875 2.9  21.19482421875 2.44375  20.39501953125 2.10625  C 19.59521484375 1.76875  18.7552083333333 1.6  17.875 1.6  C 16.9947916666667 1.6  16.15478515625 1.76875  15.35498046875 2.10625  C 14.55517578125 2.44375  13.86328125 2.9  13.279296875 3.475  C 12.6953125 4.05  12.23193359375 4.73125  11.88916015625 5.51875  C 11.54638671875 6.30625  11.375 7.13333333333333  11.375 8  C 11.375 8.86666666666667  11.54638671875 9.69375  11.88916015625 10.48125  C 12.23193359375 11.26875  12.6953125 11.95  13.279296875 12.525  C 13.86328125 13.1  14.55517578125 13.55625  15.35498046875 13.89375  Z " fill-rule="nonzero" fill="#02c68b" stroke="none" transform="matrix(1 0 0 1 284 24 )" />
  </g>
</svg>