<?xml version="1.0" encoding="utf-8"?>
<svg version="1.1" xmlns:xlink="http://www.w3.org/1999/xlink" width="329px" height="60px" xmlns="http://www.w3.org/2000/svg">
  <defs>
    <mask fill="white" id="clip1996">
      <path d="M 23 176  C 20.225 176  18 173.775  18 171  L 18 121  C 18 118.225  20.225 116  23 116  L 342 116  C 344.775 116  347 118.225  347 121  L 347 171  C 347 173.775  344.775 176  342 176  " fill-rule="evenodd" />
    </mask>
  </defs>
  <g transform="matrix(1 0 0 1 -18 -116 )">
    <path d="M 18 116  L 347 116  L 347 176  L 18 176  L 18 116  " fill-rule="nonzero" fill="#cccccc" stroke="none" mask="url(#clip1996)" />
    <path d="M 22 120  L 343 120  L 343 172  L 22 172  L 22 120  " fill-rule="nonzero" fill="#ffffff" stroke="none" mask="url(#clip1996)" />
    <path d="M 193.58 134  C 191.06 134  189.08 132.02  189.08 129.5  C 189.08 126.98  191.06 125  193.58 125  C 196.1 125  198.08 126.98  198.08 129.5  C 198.08 132.02  196.1 134  193.58 134  " fill-rule="nonzero" fill="#cccccc" stroke="none" mask="url(#clip1996)" />
    <path d="M 24 171  L 24 144.05  L 103.5 131.8  L 214.8 165.63829787234  L 278.4 139.15  L 342 165.63829787234  L 342 171  L 24 171  " fill-rule="nonzero" fill="#169bd5" stroke="none" mask="url(#clip1996)" />
  </g>
</svg>