<?xml version="1.0" encoding="utf-8"?>
<svg version="1.1" xmlns:xlink="http://www.w3.org/1999/xlink" width="12px" height="12px" viewBox="185 1.5  12 12" xmlns="http://www.w3.org/2000/svg">
  <path d="M 191 1.5  C 194.36 1.5  197 4.14  197 7.5  C 197 10.86  194.36 13.5  191 13.5  C 187.64 13.5  185 10.86  185 7.5  C 185 4.14  187.64 1.5  191 1.5  Z " fill-rule="nonzero" fill="#f0f0f0" stroke="none" />
  <path d="M 191 2  C 194.08 2  196.5 4.42  196.5 7.5  C 196.5 10.58  194.08 13  191 13  C 187.92 13  185.5 10.58  185.5 7.5  C 185.5 4.42  187.92 2  191 2  Z " stroke-width="1" stroke="#797979" fill="none" />
  <path d="M 191 10.5  C 189.32 10.5  188 9.18  188 7.5  C 188 5.82  189.32 4.5  191 4.5  C 192.68 4.5  194 5.82  194 7.5  C 194 9.18  192.68 10.5  191 10.5  " fill-rule="nonzero" fill="#797979" stroke="none" />
</svg>