<?xml version="1.0" encoding="utf-8"?>
<svg version="1.1" xmlns:xlink="http://www.w3.org/1999/xlink" width="345px" height="64px" xmlns="http://www.w3.org/2000/svg">
  <defs>
    <mask fill="white" id="clip614">
      <path d="M 28 105  C 25.225 105  23 102.775  23 100  L 23 46  C 23 43.225  25.225 41  28 41  L 363 41  C 365.775 41  368 43.225  368 46  L 368 100  C 368 102.775  365.775 105  363 105  " fill-rule="evenodd" />
    </mask>
  </defs>
  <g transform="matrix(1 0 0 1 -23 -41 )">
    <path d="M 23 41  L 368 41  L 368 105  L 23 105  L 23 41  " fill-rule="nonzero" fill="#cccccc" stroke="none" mask="url(#clip614)" />
    <path d="M 27 45  L 364 45  L 364 101  L 27 101  L 27 45  " fill-rule="nonzero" fill="#ffffff" stroke="none" mask="url(#clip614)" />
    <path d="M 207.2 60.2  C 204.512 60.2  202.4 58.088  202.4 55.4  C 202.4 52.712  204.512 50.6  207.2 50.6  C 209.888 50.6  212 52.712  212 55.4  C 212 58.088  209.888 60.2  207.2 60.2  " fill-rule="nonzero" fill="#cccccc" stroke="none" mask="url(#clip614)" />
    <path d="M 29 100  L 29 70.85  L 112.5 57.6  L 229.4 94.1008695652174  L 296.2 65.55  L 363 94.1008695652174  L 363 100  L 29 100  " fill-rule="nonzero" fill="#169bd5" stroke="none" mask="url(#clip614)" />
  </g>
</svg>