<?xml version="1.0" encoding="utf-8"?>
<svg version="1.1" xmlns:xlink="http://www.w3.org/1999/xlink" width="12px" height="12px" viewBox="204 242.5  12 12" xmlns="http://www.w3.org/2000/svg">
  <path d="M 210 242.5  C 213.36 242.5  216 245.14  216 248.5  C 216 251.86  213.36 254.5  210 254.5  C 206.64 254.5  204 251.86  204 248.5  C 204 245.14  206.64 242.5  210 242.5  Z " fill-rule="nonzero" fill="#ffffff" stroke="none" />
  <path d="M 210 243  C 213.08 243  215.5 245.42  215.5 248.5  C 215.5 251.58  213.08 254  210 254  C 206.92 254  204.5 251.58  204.5 248.5  C 204.5 245.42  206.92 243  210 243  Z " stroke-width="1" stroke="#797979" fill="none" />
  <path d="M 210 251.5  C 208.32 251.5  207 250.18  207 248.5  C 207 246.82  208.32 245.5  210 245.5  C 211.68 245.5  213 246.82  213 248.5  C 213 250.18  211.68 251.5  210 251.5  " fill-rule="nonzero" fill="#797979" stroke="none" />
</svg>