<?xml version="1.0" encoding="utf-8"?>
<svg version="1.1" xmlns:xlink="http://www.w3.org/1999/xlink" width="12px" height="12px" viewBox="42 242.5  12 12" xmlns="http://www.w3.org/2000/svg">
  <path d="M 48 242.5  C 51.36 242.5  54 245.14  54 248.5  C 54 251.86  51.36 254.5  48 254.5  C 44.64 254.5  42 251.86  42 248.5  C 42 245.14  44.64 242.5  48 242.5  Z " fill-rule="nonzero" fill="#f0f0f0" stroke="none" />
  <path d="M 48 243  C 51.08 243  53.5 245.42  53.5 248.5  C 53.5 251.58  51.08 254  48 254  C 44.92 254  42.5 251.58  42.5 248.5  C 42.5 245.42  44.92 243  48 243  Z " stroke-width="1" stroke="#797979" fill="none" />
  <path d="M 48 251.5  C 46.32 251.5  45 250.18  45 248.5  C 45 246.82  46.32 245.5  48 245.5  C 49.68 245.5  51 246.82  51 248.5  C 51 250.18  49.68 251.5  48 251.5  " fill-rule="nonzero" fill="#797979" stroke="none" />
</svg>