<?xml version="1.0" encoding="utf-8"?>
<svg version="1.1" xmlns:xlink="http://www.w3.org/1999/xlink" width="12px" height="12px" viewBox="204 189.5  12 12" xmlns="http://www.w3.org/2000/svg">
  <path d="M 210 189.5  C 213.36 189.5  216 192.14  216 195.5  C 216 198.86  213.36 201.5  210 201.5  C 206.64 201.5  204 198.86  204 195.5  C 204 192.14  206.64 189.5  210 189.5  Z " fill-rule="nonzero" fill="#ffffff" stroke="none" />
  <path d="M 210 190  C 213.08 190  215.5 192.42  215.5 195.5  C 215.5 198.58  213.08 201  210 201  C 206.92 201  204.5 198.58  204.5 195.5  C 204.5 192.42  206.92 190  210 190  Z " stroke-width="1" stroke="#797979" fill="none" />
  <path d="M 210 198.5  C 208.32 198.5  207 197.18  207 195.5  C 207 193.82  208.32 192.5  210 192.5  C 211.68 192.5  213 193.82  213 195.5  C 213 197.18  211.68 198.5  210 198.5  " fill-rule="nonzero" fill="#797979" stroke="none" />
</svg>