<?xml version="1.0" encoding="utf-8"?>
<svg version="1.1" xmlns:xlink="http://www.w3.org/1999/xlink" width="12px" height="12px" viewBox="48 254.5  12 12" xmlns="http://www.w3.org/2000/svg">
  <path d="M 54 254.5  C 57.36 254.5  60 257.14  60 260.5  C 60 263.86  57.36 266.5  54 266.5  C 50.64 266.5  48 263.86  48 260.5  C 48 257.14  50.64 254.5  54 254.5  Z " fill-rule="nonzero" fill="#ffffff" stroke="none" />
  <path d="M 54 255  C 57.08 255  59.5 257.42  59.5 260.5  C 59.5 263.58  57.08 266  54 266  C 50.92 266  48.5 263.58  48.5 260.5  C 48.5 257.42  50.92 255  54 255  Z " stroke-width="1" stroke="#797979" fill="none" />
  <path d="M 54 263.5  C 52.32 263.5  51 262.18  51 260.5  C 51 258.82  52.32 257.5  54 257.5  C 55.68 257.5  57 258.82  57 260.5  C 57 262.18  55.68 263.5  54 263.5  " fill-rule="nonzero" fill="#797979" stroke="none" />
</svg>