<?xml version="1.0" encoding="utf-8"?>
<svg version="1.1" xmlns:xlink="http://www.w3.org/1999/xlink" width="12px" height="12px" viewBox="180 254.5  12 12" xmlns="http://www.w3.org/2000/svg">
  <path d="M 186 254.5  C 189.36 254.5  192 257.14  192 260.5  C 192 263.86  189.36 266.5  186 266.5  C 182.64 266.5  180 263.86  180 260.5  C 180 257.14  182.64 254.5  186 254.5  Z " fill-rule="nonzero" fill="#ffffff" stroke="none" />
  <path d="M 186 255  C 189.08 255  191.5 257.42  191.5 260.5  C 191.5 263.58  189.08 266  186 266  C 182.92 266  180.5 263.58  180.5 260.5  C 180.5 257.42  182.92 255  186 255  Z " stroke-width="1" stroke="#797979" fill="none" />
  <path d="M 186 263.5  C 184.32 263.5  183 262.18  183 260.5  C 183 258.82  184.32 257.5  186 257.5  C 187.68 257.5  189 258.82  189 260.5  C 189 262.18  187.68 263.5  186 263.5  " fill-rule="nonzero" fill="#797979" stroke="none" />
</svg>