<?xml version="1.0" encoding="utf-8"?>
<svg version="1.1" xmlns:xlink="http://www.w3.org/1999/xlink" width="12px" height="12px" viewBox="182 201.5  12 12" xmlns="http://www.w3.org/2000/svg">
  <path d="M 188 201.5  C 191.36 201.5  194 204.14  194 207.5  C 194 210.86  191.36 213.5  188 213.5  C 184.64 213.5  182 210.86  182 207.5  C 182 204.14  184.64 201.5  188 201.5  Z " fill-rule="nonzero" fill="#ffffff" stroke="none" />
  <path d="M 188 202  C 191.08 202  193.5 204.42  193.5 207.5  C 193.5 210.58  191.08 213  188 213  C 184.92 213  182.5 210.58  182.5 207.5  C 182.5 204.42  184.92 202  188 202  Z " stroke-width="1" stroke="#797979" fill="none" />
  <path d="M 188 210.5  C 186.32 210.5  185 209.18  185 207.5  C 185 205.82  186.32 204.5  188 204.5  C 189.68 204.5  191 205.82  191 207.5  C 191 209.18  189.68 210.5  188 210.5  " fill-rule="nonzero" fill="#797979" stroke="none" />
</svg>