<?xml version="1.0" encoding="utf-8"?>
<svg version="1.1" xmlns:xlink="http://www.w3.org/1999/xlink" width="12px" height="12px" viewBox="126 37.5  12 12" xmlns="http://www.w3.org/2000/svg">
  <path d="M 132 37.5  C 135.36 37.5  138 40.14  138 43.5  C 138 46.86  135.36 49.5  132 49.5  C 128.64 49.5  126 46.86  126 43.5  C 126 40.14  128.64 37.5  132 37.5  Z " fill-rule="nonzero" fill="#ffffff" stroke="none" />
  <path d="M 132 38  C 135.08 38  137.5 40.42  137.5 43.5  C 137.5 46.58  135.08 49  132 49  C 128.92 49  126.5 46.58  126.5 43.5  C 126.5 40.42  128.92 38  132 38  Z " stroke-width="1" stroke="#797979" fill="none" />
  <path d="M 132 46.5  C 130.32 46.5  129 45.18  129 43.5  C 129 41.82  130.32 40.5  132 40.5  C 133.68 40.5  135 41.82  135 43.5  C 135 45.18  133.68 46.5  132 46.5  " fill-rule="nonzero" fill="#797979" stroke="none" />
</svg>