<?xml version="1.0" encoding="utf-8"?>
<svg version="1.1" xmlns:xlink="http://www.w3.org/1999/xlink" width="12px" height="12px" viewBox="131 37.5  12 12" xmlns="http://www.w3.org/2000/svg">
  <path d="M 137 37.5  C 140.36 37.5  143 40.14  143 43.5  C 143 46.86  140.36 49.5  137 49.5  C 133.64 49.5  131 46.86  131 43.5  C 131 40.14  133.64 37.5  137 37.5  Z " fill-rule="nonzero" fill="#f0f0f0" stroke="none" />
  <path d="M 137 38  C 140.08 38  142.5 40.42  142.5 43.5  C 142.5 46.58  140.08 49  137 49  C 133.92 49  131.5 46.58  131.5 43.5  C 131.5 40.42  133.92 38  137 38  Z " stroke-width="1" stroke="#797979" fill="none" />
  <path d="M 137 46.5  C 135.32 46.5  134 45.18  134 43.5  C 134 41.82  135.32 40.5  137 40.5  C 138.68 40.5  140 41.82  140 43.5  C 140 45.18  138.68 46.5  137 46.5  " fill-rule="nonzero" fill="#797979" stroke="none" />
</svg>