<?xml version="1.0" encoding="utf-8"?>
<svg version="1.1" xmlns:xlink="http://www.w3.org/1999/xlink" width="12px" height="12px" viewBox="5 37.5  12 12" xmlns="http://www.w3.org/2000/svg">
  <path d="M 11 37.5  C 14.36 37.5  17 40.14  17 43.5  C 17 46.86  14.36 49.5  11 49.5  C 7.64 49.5  5 46.86  5 43.5  C 5 40.14  7.64 37.5  11 37.5  Z " fill-rule="nonzero" fill="#ffffff" stroke="none" />
  <path d="M 11 38  C 14.08 38  16.5 40.42  16.5 43.5  C 16.5 46.58  14.08 49  11 49  C 7.92 49  5.5 46.58  5.5 43.5  C 5.5 40.42  7.92 38  11 38  Z " stroke-width="1" stroke="#797979" fill="none" />
  <path d="M 11 46.5  C 9.32 46.5  8 45.18  8 43.5  C 8 41.82  9.32 40.5  11 40.5  C 12.68 40.5  14 41.82  14 43.5  C 14 45.18  12.68 46.5  11 46.5  " fill-rule="nonzero" fill="#797979" stroke="none" />
</svg>