<?xml version="1.0" encoding="utf-8"?>
<svg version="1.1" xmlns:xlink="http://www.w3.org/1999/xlink" width="12px" height="12px" viewBox="10 37.5  12 12" xmlns="http://www.w3.org/2000/svg">
  <path d="M 16 37.5  C 19.36 37.5  22 40.14  22 43.5  C 22 46.86  19.36 49.5  16 49.5  C 12.64 49.5  10 46.86  10 43.5  C 10 40.14  12.64 37.5  16 37.5  Z " fill-rule="nonzero" fill="#f0f0f0" stroke="none" />
  <path d="M 16 38  C 19.08 38  21.5 40.42  21.5 43.5  C 21.5 46.58  19.08 49  16 49  C 12.92 49  10.5 46.58  10.5 43.5  C 10.5 40.42  12.92 38  16 38  Z " stroke-width="1" stroke="#797979" fill="none" />
  <path d="M 16 46.5  C 14.32 46.5  13 45.18  13 43.5  C 13 41.82  14.32 40.5  16 40.5  C 17.68 40.5  19 41.82  19 43.5  C 19 45.18  17.68 46.5  16 46.5  " fill-rule="nonzero" fill="#797979" stroke="none" />
</svg>