<?xml version="1.0" encoding="utf-8"?>
<svg version="1.1" xmlns:xlink="http://www.w3.org/1999/xlink" width="12px" height="12px" viewBox="143 188.5  12 12" xmlns="http://www.w3.org/2000/svg">
  <path d="M 149 188.5  C 152.36 188.5  155 191.14  155 194.5  C 155 197.86  152.36 200.5  149 200.5  C 145.64 200.5  143 197.86  143 194.5  C 143 191.14  145.64 188.5  149 188.5  Z " fill-rule="nonzero" fill="#ffffff" stroke="none" />
  <path d="M 149 189  C 152.08 189  154.5 191.42  154.5 194.5  C 154.5 197.58  152.08 200  149 200  C 145.92 200  143.5 197.58  143.5 194.5  C 143.5 191.42  145.92 189  149 189  Z " stroke-width="1" stroke="#797979" fill="none" />
  <path d="M 149 197.5  C 147.32 197.5  146 196.18  146 194.5  C 146 192.82  147.32 191.5  149 191.5  C 150.68 191.5  152 192.82  152 194.5  C 152 196.18  150.68 197.5  149 197.5  " fill-rule="nonzero" fill="#797979" stroke="none" />
</svg>