<?xml version="1.0" encoding="utf-8"?>
<svg version="1.1" xmlns:xlink="http://www.w3.org/1999/xlink" width="12px" height="12px" viewBox="18 188.5  12 12" xmlns="http://www.w3.org/2000/svg">
  <path d="M 24 188.5  C 27.36 188.5  30 191.14  30 194.5  C 30 197.86  27.36 200.5  24 200.5  C 20.64 200.5  18 197.86  18 194.5  C 18 191.14  20.64 188.5  24 188.5  Z " fill-rule="nonzero" fill="#f0f0f0" stroke="none" />
  <path d="M 24 189  C 27.08 189  29.5 191.42  29.5 194.5  C 29.5 197.58  27.08 200  24 200  C 20.92 200  18.5 197.58  18.5 194.5  C 18.5 191.42  20.92 189  24 189  Z " stroke-width="1" stroke="#797979" fill="none" />
  <path d="M 24 197.5  C 22.32 197.5  21 196.18  21 194.5  C 21 192.82  22.32 191.5  24 191.5  C 25.68 191.5  27 192.82  27 194.5  C 27 196.18  25.68 197.5  24 197.5  " fill-rule="nonzero" fill="#797979" stroke="none" />
</svg>