<?xml version="1.0" encoding="utf-8"?>
<svg version="1.1" xmlns:xlink="http://www.w3.org/1999/xlink" width="54px" height="54px" xmlns="http://www.w3.org/2000/svg">
  <defs>
    <mask fill="white" id="clip2009">
      <path d="M 45 108  C 30.015 108  18 95.985  18 81  L 18 81  C 18 66.015  30.015 54  45 54  L 45 54  C 59.985 54  72 66.015  72 81  L 72 81  C 72 95.985  59.985 108  45 108  " fill-rule="evenodd" />
    </mask>
  </defs>
  <g transform="matrix(1 0 0 1 -18 -54 )">
    <path d="M 18 54  L 72 54  L 72 108  L 18 108  L 18 54  " fill-rule="nonzero" fill="#cccccc" stroke="none" mask="url(#clip2009)" />
    <path d="M 22 58  L 68 58  L 68 104  L 22 104  L 22 58  " fill-rule="nonzero" fill="#ffffff" stroke="none" mask="url(#clip2009)" />
    <path d="M 50.13 70.2  C 47.862 70.2  46.08 68.418  46.08 66.15  C 46.08 63.882  47.862 62.1  50.13 62.1  C 52.398 62.1  54.18 63.882  54.18 66.15  C 54.18 68.418  52.398 70.2  50.13 70.2  " fill-rule="nonzero" fill="#cccccc" stroke="none" mask="url(#clip2009)" />
    <path d="M 24 103  L 24 79.35  L 34.75 68.6  L 49.8 77.2  L 58.4 75.05  L 67 77.2  L 67 103  L 24 103  " fill-rule="nonzero" fill="#169bd5" stroke="none" mask="url(#clip2009)" />
  </g>
</svg>