<?xml version="1.0" encoding="utf-8"?>
<svg version="1.1" xmlns:xlink="http://www.w3.org/1999/xlink" width="90px" height="115px" xmlns="http://www.w3.org/2000/svg">
  <defs>
    <mask fill="white" id="clip2008">
      <path d="M 21 173  C 18.225 173  16 170.775  16 168  L 16 63  C 16 60.225  18.225 58  21 58  L 101 58  C 103.775 58  106 60.225  106 63  L 106 168  C 106 170.775  103.775 173  101 173  " fill-rule="evenodd" />
    </mask>
  </defs>
  <g transform="matrix(1 0 0 1 -16 -58 )">
    <path d="M 16 58  L 106 58  L 106 173  L 16 173  L 16 58  " fill-rule="nonzero" fill="#cccccc" stroke="none" mask="url(#clip2008)" />
    <path d="M 22 64  L 100 64  L 100 167  L 22 167  L 22 64  " fill-rule="nonzero" fill="#ffffff" stroke="none" mask="url(#clip2008)" />
    <path d="M 69.55 88.75  C 65.77 88.75  62.8 85.78  62.8 82  C 62.8 78.22  65.77 75.25  69.55 75.25  C 73.33 75.25  76.3 78.22  76.3 82  C 76.3 85.78  73.33 88.75  69.55 88.75  " fill-rule="nonzero" fill="#cccccc" stroke="none" mask="url(#clip2008)" />
    <path d="M 25 165  L 25 111.1  L 43.25 86.6  L 68.8 106.2  L 83.4 101.3  L 98 106.2  L 98 165  L 25 165  " fill-rule="nonzero" fill="#169bd5" stroke="none" mask="url(#clip2008)" />
  </g>
</svg>