<?xml version="1.0" encoding="utf-8"?>
<svg version="1.1" xmlns:xlink="http://www.w3.org/1999/xlink" width="127px" height="79px" xmlns="http://www.w3.org/2000/svg">
  <defs>
    <mask fill="white" id="clip1320">
      <path d="M 23 212  C 20.225 212  18 209.775  18 207  L 18 138  C 18 135.225  20.225 133  23 133  L 140 133  C 142.775 133  145 135.225  145 138  L 145 207  C 145 209.775  142.775 212  140 212  " fill-rule="evenodd" />
    </mask>
  </defs>
  <g transform="matrix(1 0 0 1 -18 -133 )">
    <path d="M 18 133  L 145 133  L 145 212  L 18 212  L 18 133  " fill-rule="nonzero" fill="#cccccc" stroke="none" mask="url(#clip1320)" />
    <path d="M 24 139  L 139 139  L 139 206  L 24 206  L 24 139  " fill-rule="nonzero" fill="#ffffff" stroke="none" mask="url(#clip1320)" />
    <path d="M 89.965 156.7  C 86.647 156.7  84.04 154.093  84.04 150.775  C 84.04 147.457  86.647 144.85  89.965 144.85  C 93.283 144.85  95.89 147.457  95.89 150.775  C 95.89 154.093  93.283 156.7  89.965 156.7  " fill-rule="nonzero" fill="#cccccc" stroke="none" mask="url(#clip1320)" />
    <path d="M 26 204  L 26 169.35  L 53.75 153.6  L 92.6 180.486614173228  L 114.8 163.05  L 137 180.486614173228  L 137 204  L 26 204  " fill-rule="nonzero" fill="#169bd5" stroke="none" mask="url(#clip1320)" />
  </g>
</svg>