<?xml version="1.0" encoding="utf-8"?>
<svg version="1.1" xmlns:xlink="http://www.w3.org/1999/xlink" width="61px" height="61px" xmlns="http://www.w3.org/2000/svg">
  <defs>
    <mask fill="white" id="clip632">
      <path d="M 58.5 268  C 41.5725 268  28 254.4275  28 237.5  L 28 237.5  C 28 220.5725  41.5725 207  58.5 207  L 58.5 207  C 75.4275 207  89 220.5725  89 237.5  L 89 237.5  C 89 254.4275  75.4275 268  58.5 268  " fill-rule="evenodd" />
    </mask>
  </defs>
  <g transform="matrix(1 0 0 1 -28 -207 )">
    <path d="M 28 207  L 89 207  L 89 268  L 28 268  L 28 207  " fill-rule="nonzero" fill="#cccccc" stroke="none" mask="url(#clip632)" />
    <path d="M 32 211  L 85 211  L 85 264  L 32 264  L 32 211  " fill-rule="nonzero" fill="#ffffff" stroke="none" mask="url(#clip632)" />
    <path d="M 64.295 225.3  C 61.733 225.3  59.72 223.287  59.72 220.725  C 59.72 218.163  61.733 216.15  64.295 216.15  C 66.857 216.15  68.87 218.163  68.87 220.725  C 68.87 223.287  66.857 225.3  64.295 225.3  " fill-rule="nonzero" fill="#cccccc" stroke="none" mask="url(#clip632)" />
    <path d="M 34 263  L 34 235.5  L 46.5 223  L 64 233  L 74 230.5  L 84 233  L 84 263  L 34 263  " fill-rule="nonzero" fill="#169bd5" stroke="none" mask="url(#clip632)" />
  </g>
</svg>