<?xml version="1.0" encoding="utf-8"?>
<svg version="1.1" xmlns:xlink="http://www.w3.org/1999/xlink" width="178px" height="118px" xmlns="http://www.w3.org/2000/svg">
  <defs>
    <mask fill="white" id="clip2013">
      <path d="M 16 165  C 13.225 165  11 162.775  11 160  L 11 52  C 11 49.225  13.225 47  16 47  L 184 47  C 186.775 47  189 49.225  189 52  L 189 160  C 189 162.775  186.775 165  184 165  " fill-rule="evenodd" />
    </mask>
  </defs>
  <g transform="matrix(1 0 0 1 -11 -47 )">
    <path d="M 11 47  L 189 47  L 189 165  L 11 165  L 11 47  " fill-rule="nonzero" fill="#cccccc" stroke="none" mask="url(#clip2013)" />
    <path d="M 19 55  L 181 55  L 181 157  L 19 157  L 19 55  " fill-rule="nonzero" fill="#ffffff" stroke="none" mask="url(#clip2013)" />
    <path d="M 112.41 82.4  C 107.454 82.4  103.56 78.506  103.56 73.55  C 103.56 68.594  107.454 64.7  112.41 64.7  C 117.366 64.7  121.26 68.594  121.26 73.55  C 121.26 78.506  117.366 82.4  112.41 82.4  " fill-rule="nonzero" fill="#cccccc" stroke="none" mask="url(#clip2013)" />
    <path d="M 22 154  L 22 101.2  L 61 77.2  L 115.6 115.815730337079  L 146.8 91.6  L 178 115.815730337079  L 178 154  L 22 154  " fill-rule="nonzero" fill="#169bd5" stroke="none" mask="url(#clip2013)" />
  </g>
</svg>