<?xml version="1.0" encoding="utf-8"?>
<svg version="1.1" xmlns:xlink="http://www.w3.org/1999/xlink" width="12px" height="12px" viewBox="149 77.5  12 12" xmlns="http://www.w3.org/2000/svg">
  <path d="M 155 77.5  C 158.36 77.5  161 80.14  161 83.5  C 161 86.86  158.36 89.5  155 89.5  C 151.64 89.5  149 86.86  149 83.5  C 149 80.14  151.64 77.5  155 77.5  Z " fill-rule="nonzero" fill="#ffffff" stroke="none" />
  <path d="M 155 78  C 158.08 78  160.5 80.42  160.5 83.5  C 160.5 86.58  158.08 89  155 89  C 151.92 89  149.5 86.58  149.5 83.5  C 149.5 80.42  151.92 78  155 78  Z " stroke-width="1" stroke="#797979" fill="none" />
  <path d="M 155 86.5  C 153.32 86.5  152 85.18  152 83.5  C 152 81.82  153.32 80.5  155 80.5  C 156.68 80.5  158 81.82  158 83.5  C 158 85.18  156.68 86.5  155 86.5  " fill-rule="nonzero" fill="#797979" stroke="none" />
</svg>