<?xml version="1.0" encoding="utf-8"?>
<svg version="1.1" xmlns:xlink="http://www.w3.org/1999/xlink" width="10px" height="10px" xmlns="http://www.w3.org/2000/svg">
  <g transform="matrix(1 0 0 1 -200 -145 )">
    <path d="M 205 145  C 207.8 145  210 147.2  210 150  C 210 152.8  207.8 155  205 155  C 202.2 155  200 152.8  200 150  C 200 147.2  202.2 145  205 145  Z " fill-rule="nonzero" fill="#fd7878" stroke="none" />
    <path d="M 205 145.5  C 207.52 145.5  209.5 147.48  209.5 150  C 209.5 152.52  207.52 154.5  205 154.5  C 202.48 154.5  200.5 152.52  200.5 150  C 200.5 147.48  202.48 145.5  205 145.5  Z " stroke-width="1" stroke="#fd7878" fill="none" />
  </g>
</svg>