<?xml version="1.0" encoding="utf-8"?>
<svg version="1.1" xmlns:xlink="http://www.w3.org/1999/xlink" width="60px" height="60px" xmlns="http://www.w3.org/2000/svg">
  <g transform="matrix(1 0 0 1 -386 -603 )">
    <path d="M 416 603  C 432.8 603  446 616.2  446 633  C 446 649.8  432.8 663  416 663  C 399.2 663  386 649.8  386 633  C 386 616.2  399.2 603  416 603  Z " fill-rule="nonzero" fill="#f7f2f2" stroke="none" fill-opacity="0" />
    <path d="M 416 603.5  C 432.52 603.5  445.5 616.48  445.5 633  C 445.5 649.52  432.52 662.5  416 662.5  C 399.48 662.5  386.5 649.52  386.5 633  C 386.5 616.48  399.48 603.5  416 603.5  Z " stroke-width="1" stroke="#30b900" fill="none" />
  </g>
</svg>