<?xml version="1.0" encoding="utf-8"?>
<svg version="1.1" xmlns:xlink="http://www.w3.org/1999/xlink" width="28px" height="22px" xmlns="http://www.w3.org/2000/svg">
  <g transform="matrix(1 0 0 1 -107 -223 )">
    <path d="M 23.9752168525403 12.5689789555729  C 23.9867823213548 12.5918420368927  23.9925650557621 12.6261366588724  23.9925650557621 12.6718628215121  L 23.9925650557621 20.9025720966485  C 23.9925650557621 21.1997921538062  23.882693102024 21.4570018186542  23.6629491945477 21.6742010911925  C 23.4432052870715 21.8914003637308  23.1829822387443 22  22.8822800495663 22  L 16.2205700123916 22  L 16.2205700123916 15.4154325798909  L 11.7794299876084 15.4154325798909  L 11.7794299876084 22  L 5.11771995043371 22  C 4.81701776125568 22  4.55679471292854 21.8914003637308  4.33705080545229 21.6742010911925  C 4.11730689797604 21.4570018186542  4.00743494423792 21.1997921538062  4.00743494423792 20.9025720966485  L 4.00743494423792 12.6718628215121  C 4.00743494423792 12.6604312808522  4.01032631144155 12.6432839698623  4.01610904584882 12.6204208885425  C 4.02189178025609 12.5975578072227  4.02478314745973 12.5804104962328  4.02478314745973 12.5689789555729  L 14 4.44115354637568  L 23.9752168525403 12.5689789555729  Z M 27.9826517967782 11.0857365549493  C 27.9942172655927 11.2400623538581  27.9537381247418 11.3743829566121  27.8612143742255 11.4886983632112  L 26.7856257744734 12.7575993764614  C 26.693102023957 12.8604832424006  26.5716646014044 12.9233567160301  26.4213135068154 12.94621979735  L 26.3692688971499 12.94621979735  C 26.2189178025609 12.94621979735  26.0974803800083 12.9062094050403  26.0049566294919 12.8261886204209  L 14 2.93219017926734  L 1.99504337050805 12.8261886204209  C 1.85625774473358 12.9176409457002  1.71747211895911 12.9576513380099  1.57868649318463 12.94621979735  C 1.42833539859562 12.9233567160301  1.30689797604296 12.8604832424006  1.21437422552664 12.7575993764614  L 0.138785625774473 11.4886983632112  C 0.0462618752581578 11.3743829566121  0.00578273440726976 11.2400623538581  0.0173482032218092 11.0857365549493  C 0.0289136720363487 10.9314107560405  0.0925237505163156 10.8085216939465  0.20817843866171 10.7170693686672  L 12.6815365551425 0.445830085736556  C 13.0516315572078 0.148610028578849  13.4911193721603 0  14 0  C 14.5088806278397 0  14.9483684427922 0.148610028578849  15.3184634448575 0.445830085736556  L 19.5514250309789 3.94388152766952  L 19.5514250309789 0.600155884645361  C 19.5514250309789 0.440114315406597  19.6034696406444 0.308651597817614  19.7075588599752 0.205767731878411  C 19.8116480793061 0.102883865939206  19.9446509706733 0.0514419329696028  20.1065675340768 0.0514419329696028  L 23.4374225526642 0.0514419329696028  C 23.5993391160677 0.0514419329696028  23.7323420074349 0.102883865939206  23.8364312267658 0.205767731878411  C 23.9405204460967 0.308651597817614  23.9925650557621 0.440114315406597  23.9925650557621 0.600155884645361  L 23.9925650557621 7.5962587685113  L 27.7918215613383 10.7170693686672  C 27.9074762494837 10.8085216939465  27.9710863279637 10.9314107560405  27.9826517967782 11.0857365549493  Z " fill-rule="nonzero" fill="#999999" stroke="none" transform="matrix(1 0 0 1 107 223 )" />
  </g>
</svg>