<?xml version="1.0" encoding="utf-8"?>
<svg version="1.1" xmlns:xlink="http://www.w3.org/1999/xlink" width="60px" height="60px" xmlns="http://www.w3.org/2000/svg">
  <g transform="matrix(1 0 0 1 -91 -204 )">
    <path d="M 92 209  A 4 4 0 0 1 96 205 L 146 205  A 4 4 0 0 1 150 209 L 150 259  A 4 4 0 0 1 146 263 L 96 263  A 4 4 0 0 1 92 259 L 92 209  Z " fill-rule="nonzero" fill="#ffffff" stroke="none" />
    <path d="M 91.5 209  A 4.5 4.5 0 0 1 96 204.5 L 146 204.5  A 4.5 4.5 0 0 1 150.5 209 L 150.5 259  A 4.5 4.5 0 0 1 146 263.5 L 96 263.5  A 4.5 4.5 0 0 1 91.5 259 L 91.5 209  Z " stroke-width="1" stroke-dasharray="9,4" stroke="#b3b3b3" fill="none" stroke-dashoffset="0.5" />
  </g>
</svg>