<?xml version="1.0" encoding="utf-8"?>
<svg version="1.1" xmlns:xlink="http://www.w3.org/1999/xlink" width="9px" height="9px" xmlns="http://www.w3.org/2000/svg">
  <g transform="matrix(1 0 0 1 -100 -410 )">
    <path d="M 6.62109375 6.09375  C 6.6953125 6.01953125  6.732421875 5.9296875  6.732421875 5.82421875  C 6.732421875 5.72265625  6.6953125 5.634765625  6.62109375 5.560546875  L 5.560546875 4.5  L 6.62109375 3.439453125  C 6.6953125 3.365234375  6.732421875 3.27734375  6.732421875 3.17578125  C 6.732421875 3.0703125  6.6953125 2.98046875  6.62109375 2.90625  L 6.09375 2.37890625  C 6.01953125 2.3046875  5.9296875 2.267578125  5.82421875 2.267578125  C 5.72265625 2.267578125  5.634765625 2.3046875  5.560546875 2.37890625  L 4.5 3.439453125  L 3.439453125 2.37890625  C 3.365234375 2.3046875  3.27734375 2.267578125  3.17578125 2.267578125  C 3.0703125 2.267578125  2.98046875 2.3046875  2.90625 2.37890625  L 2.37890625 2.90625  C 2.3046875 2.98046875  2.267578125 3.0703125  2.267578125 3.17578125  C 2.267578125 3.27734375  2.3046875 3.365234375  2.37890625 3.439453125  L 3.439453125 4.5  L 2.37890625 5.560546875  C 2.3046875 5.634765625  2.267578125 5.72265625  2.267578125 5.82421875  C 2.267578125 5.9296875  2.3046875 6.01953125  2.37890625 6.09375  L 2.90625 6.62109375  C 2.98046875 6.6953125  3.0703125 6.732421875  3.17578125 6.732421875  C 3.27734375 6.732421875  3.365234375 6.6953125  3.439453125 6.62109375  L 4.5 5.560546875  L 5.560546875 6.62109375  C 5.634765625 6.6953125  5.72265625 6.732421875  5.82421875 6.732421875  C 5.9296875 6.732421875  6.01953125 6.6953125  6.09375 6.62109375  L 6.62109375 6.09375  Z M 8.396484375 2.2412109375  C 8.798828125 2.9306640625  9 3.68359375  9 4.5  C 9 5.31640625  8.798828125 6.0693359375  8.396484375 6.7587890625  C 7.994140625 7.4482421875  7.4482421875 7.994140625  6.7587890625 8.396484375  C 6.0693359375 8.798828125  5.31640625 9  4.5 9  C 3.68359375 9  2.9306640625 8.798828125  2.2412109375 8.396484375  C 1.5517578125 7.994140625  1.005859375 7.4482421875  0.603515625 6.7587890625  C 0.201171875 6.0693359375  0 5.31640625  0 4.5  C 0 3.68359375  0.201171875 2.9306640625  0.603515625 2.2412109375  C 1.005859375 1.5517578125  1.5517578125 1.005859375  2.2412109375 0.603515625  C 2.9306640625 0.201171874999999  3.68359375 0  4.5 0  C 5.31640625 0  6.0693359375 0.201171874999999  6.7587890625 0.603515625  C 7.4482421875 1.005859375  7.994140625 1.5517578125  8.396484375 2.2412109375  Z " fill-rule="nonzero" fill="#000000" stroke="none" fill-opacity="0.682352941176471" transform="matrix(1 0 0 1 100 410 )" />
  </g>
</svg>