<?xml version="1.0" encoding="utf-8"?>
<svg version="1.1" xmlns:xlink="http://www.w3.org/1999/xlink" width="16px" height="15px" xmlns="http://www.w3.org/2000/svg">
  <g transform="matrix(1 0 0 1 -209 -429 )">
    <path d="M 10.4 0  L 5.6 0  L 4.136 1.66666666666667  L 1.6 1.66666666666667  C 0.716 1.66666666666667  0 2.4125  0 3.33333333333333  L 0 13.3333333333333  C 0 14.2541666666667  0.716 15  1.6 15  L 14.4 15  C 15.284 15  16 14.2541666666667  16 13.3333333333333  L 16 3.33333333333333  C 16 2.4125  15.284 1.66666666666667  14.4 1.66666666666667  L 11.864 1.66666666666667  L 10.4 0  Z M 12 8.33333333333333  C 12 10.6333333333333  10.208 12.5  8 12.5  C 5.792 12.5  4 10.6333333333333  4 8.33333333333333  C 4 6.03333333333333  5.792 4.16666666666667  8 4.16666666666667  C 10.208 4.16666666666667  12 6.03333333333333  12 8.33333333333333  Z " fill-rule="nonzero" fill="#000000" stroke="none" transform="matrix(1 0 0 1 209 429 )" />
  </g>
</svg>