<?xml version="1.0" encoding="utf-8"?>
<svg version="1.1" xmlns:xlink="http://www.w3.org/1999/xlink" width="59px" height="59px" xmlns="http://www.w3.org/2000/svg">
  <defs>
    <mask fill="white" id="clip2057">
      <path d="M 56 466  C 53.78 466  52 464.22  52 462  L 52 411  C 52 408.78  53.78 407  56 407  L 107 407  C 109.22 407  111 408.78  111 411  L 111 462  C 111 464.22  109.22 466  107 466  " fill-rule="evenodd" />
    </mask>
  </defs>
  <g transform="matrix(1 0 0 1 -52 -407 )">
    <path d="M 52 407  L 111 407  L 111 466  L 52 466  L 52 407  " fill-rule="nonzero" fill="#cccccc" stroke="none" mask="url(#clip2057)" />
    <path d="M 56 411  L 107 411  L 107 462  L 56 462  L 56 411  " fill-rule="nonzero" fill="#ffffff" stroke="none" mask="url(#clip2057)" />
    <path d="M 87.105 424.7  C 84.627 424.7  82.68 422.753  82.68 420.275  C 82.68 417.797  84.627 415.85  87.105 415.85  C 89.583 415.85  91.53 417.797  91.53 420.275  C 91.53 422.753  89.583 424.7  87.105 424.7  " fill-rule="nonzero" fill="#cccccc" stroke="none" mask="url(#clip2057)" />
    <path d="M 58 461  L 58 434.6  L 70 422.6  L 86.8 432.2  L 96.4 429.8  L 106 432.2  L 106 461  L 58 461  " fill-rule="nonzero" fill="#169bd5" stroke="none" mask="url(#clip2057)" />
  </g>
</svg>