<?xml version="1.0" encoding="utf-8"?>
<svg version="1.1" xmlns:xlink="http://www.w3.org/1999/xlink" width="14px" height="14px" xmlns="http://www.w3.org/2000/svg">
  <g transform="matrix(1 0 0 1 -58 -429 )">
    <path d="M 11.3650568181818 6.453125  C 11.4247159090909 6.51278409090909  11.4545454545455 6.58901515151515  11.4545454545455 6.68181818181818  L 11.4545454545455 7.31818181818182  C 11.4545454545455 7.41098484848485  11.4247159090909 7.48721590909091  11.3650568181818 7.546875  C 11.3053977272727 7.60653409090909  11.2291666666667 7.63636363636364  11.1363636363636 7.63636363636364  L 7.63636363636364 7.63636363636364  L 7.63636363636364 11.1363636363636  C 7.63636363636364 11.2291666666667  7.60653409090909 11.3053977272727  7.546875 11.3650568181818  C 7.48721590909091 11.4247159090909  7.41098484848485 11.4545454545455  7.31818181818182 11.4545454545455  L 6.68181818181818 11.4545454545455  C 6.58901515151515 11.4545454545455  6.51278409090909 11.4247159090909  6.453125 11.3650568181818  C 6.39346590909091 11.3053977272727  6.36363636363636 11.2291666666667  6.36363636363636 11.1363636363636  L 6.36363636363636 7.63636363636364  L 2.86363636363636 7.63636363636364  C 2.77083333333333 7.63636363636364  2.69460227272727 7.60653409090909  2.63494318181818 7.546875  C 2.57528409090909 7.48721590909091  2.54545454545455 7.41098484848485  2.54545454545455 7.31818181818182  L 2.54545454545455 6.68181818181818  C 2.54545454545455 6.58901515151515  2.57528409090909 6.51278409090909  2.63494318181818 6.453125  C 2.69460227272727 6.39346590909091  2.77083333333333 6.36363636363636  2.86363636363636 6.36363636363636  L 6.36363636363636 6.36363636363636  L 6.36363636363636 2.86363636363636  C 6.36363636363636 2.77083333333333  6.39346590909091 2.69460227272727  6.453125 2.63494318181818  C 6.51278409090909 2.57528409090909  6.58901515151515 2.54545454545455  6.68181818181818 2.54545454545455  L 7.31818181818182 2.54545454545455  C 7.41098484848485 2.54545454545455  7.48721590909091 2.57528409090909  7.546875 2.63494318181818  C 7.60653409090909 2.69460227272727  7.63636363636364 2.77083333333333  7.63636363636364 2.86363636363636  L 7.63636363636364 6.36363636363636  L 11.1363636363636 6.36363636363636  C 11.2291666666667 6.36363636363636  11.3053977272727 6.39346590909091  11.3650568181818 6.453125  Z M 12.2599431818182 12.2599431818182  C 12.5714962121212 11.9483901515151  12.7272727272727 11.5738636363636  12.7272727272727 11.1363636363636  L 12.7272727272727 2.86363636363636  C 12.7272727272727 2.42613636363636  12.5714962121212 2.05160984848485  12.2599431818182 1.74005681818182  C 11.9483901515152 1.42850378787879  11.5738636363636 1.27272727272727  11.1363636363636 1.27272727272727  L 2.86363636363636 1.27272727272727  C 2.42613636363636 1.27272727272727  2.05160984848485 1.42850378787879  1.74005681818182 1.74005681818182  C 1.42850378787879 2.05160984848485  1.27272727272727 2.42613636363636  1.27272727272727 2.86363636363636  L 1.27272727272727 11.1363636363636  C 1.27272727272727 11.5738636363636  1.42850378787879 11.9483901515151  1.74005681818182 12.2599431818182  C 2.05160984848485 12.5714962121212  2.42613636363636 12.7272727272727  2.86363636363636 12.7272727272727  L 11.1363636363636 12.7272727272727  C 11.5738636363636 12.7272727272727  11.9483901515152 12.5714962121212  12.2599431818182 12.2599431818182  Z M 13.1598011363636 0.840198863636364  C 13.7199337121212 1.40033143939394  14 2.0748106060606  14 2.86363636363636  L 14 11.1363636363636  C 14 11.9251893939394  13.7199337121212 12.5996685606061  13.1598011363636 13.1598011363636  C 12.5996685606061 13.7199337121212  11.9251893939394 14  11.1363636363636 14  L 2.86363636363636 14  C 2.07481060606061 14  1.40033143939394 13.7199337121212  0.840198863636364 13.1598011363636  C 0.280066287878788 12.5996685606061  0 11.9251893939394  0 11.1363636363636  L 0 2.86363636363636  C 0 2.0748106060606  0.280066287878788 1.40033143939394  0.840198863636364 0.840198863636364  C 1.40033143939394 0.280066287878787  2.07481060606061 0  2.86363636363636 0  L 11.1363636363636 0  C 11.9251893939394 0  12.5996685606061 0.280066287878787  13.1598011363636 0.840198863636364  Z " fill-rule="nonzero" fill="#000000" stroke="none" transform="matrix(1 0 0 1 58 429 )" />
  </g>
</svg>