<?xml version="1.0" encoding="utf-8"?>
<svg version="1.1" xmlns:xlink="http://www.w3.org/1999/xlink" width="25px" height="22px" xmlns="http://www.w3.org/2000/svg">
  <g transform="matrix(1 0 0 1 -50 -354 )">
    <path d="M 23.0880041906757 13.15625  C 23.2451545311682 12.9270833333333  23.3237297014144 12.7239583333333  23.3237297014144 12.546875  C 23.3237297014144 12.1822916666667  23.0923694779117 12  22.6296490309062 12  L 8.38135149292824 12  C 8.03212851405623 12  7.65889645538677 12.1119791666667  7.26165531691985 12.3359375  C 6.86441417845294 12.5598958333333  6.55229614108608 12.8333333333333  6.32530120481928 13.15625  L 2.47511786275537 18.828125  C 2.31796752226296 19.078125  2.23939235201676 19.2864583333333  2.23939235201676 19.453125  C 2.23939235201676 19.8177083333333  2.47075257551947 20  2.93347302252488 20  L 17.1817705605029 20  C 17.5309935393749 20  17.9064082416623 19.8854166666667  18.3080146673651 19.65625  C 18.7096210930679 19.4270833333333  19.0195564868168 19.1510416666667  19.2378208486118 18.828125  L 23.0880041906757 13.15625  Z M 6.54793085385018 10.5390625  C 7.1765322158198 10.1796875  7.78767242884582 10  8.38135149292824 10  L 18.4389732844421 10  L 18.4389732844421 7.5  C 18.4389732844421 7.08333333333333  18.3167452418369 6.72916666666667  18.0722891566265 6.4375  C 17.8278330714161 6.14583333333333  17.5309935393749 6  17.1817705605029 6  L 9.63855421686747 6  C 9.28933123799546 6  8.99249170595425 5.85416666666666  8.74803562074385 5.5625  C 8.50357953553344 5.27083333333333  8.38135149292824 4.91666666666666  8.38135149292824 4.5  L 8.38135149292824 3.5  C 8.38135149292824 3.08333333333333  8.25912345032303 2.72916666666666  8.01466736511262 2.4375  C 7.77021127990222 2.14583333333333  7.47337174786101 2  7.124148768989 2  L 2.93347302252488 2  C 2.58425004365287 2  2.28741051161166 2.14583333333333  2.04295442640126 2.4375  C 1.79849834119085 2.72916666666666  1.67627029858565 3.08333333333333  2 3.5  L 2 16.828125  L 5.02881089575694 11.90625  C 5.41295617251615 11.3541666666667  5.91932949188057 10.8984375  6.54793085385018 10.5390625  Z M 24.8035620743845 11.484375  C 24.9345206914615 11.8177083333333  25 12.171875  25 12.546875  C 25 13.1927083333333  24.7991967871486 13.8177083333333  24.3975903614458 14.421875  L 20.5343111576742 20.09375  C 20.1588964553868 20.6458333333333  19.6525231360224 21.1015625  19.0151911995809 21.4609375  C 18.3778592631395 21.8203125  17.7667190501135 22  17.1817705605029 22  L 2.93347302252488 22  C 2.13026017111926 22  1.44054478784704 21.65625  0.864326872708224 20.96875  C 0.288108957569408 20.28125  0 19.4583333333333  0 18.5  L 0 3.5  C 0 2.54166666666666  0.288108957569408 1.71875  0.864326872708224 1.03125  C 1.44054478784704 0.34375  2.13026017111926 0  2.93347302252488 0  L 7.124148768989 0  C 7.92736162039462 0  8.61707700366684 0.34375  9.19329491880566 1.03125  C 9.76951283394448 1.71875  10.0576217915139 2.54166666666666  10.0576217915139 3.5  L 10.0576217915139 4  L 17.1817705605029 4  C 17.9849834119085 4  18.6746987951807 4.34375  19.2509167103195 5.03125  C 19.8271346254584 5.71875  20.1152435830278 6.54166666666666  20.1152435830278 7.5  L 20.1152435830278 10  L 22.6296490309062 10  C 23.1011000523835 10  23.5332634887376 10.1276041666667  23.9261393399686 10.3828125  C 24.3190151911996 10.6380208333333  24.6114894360049 11.0052083333333  24.8035620743845 11.484375  Z " fill-rule="nonzero" fill="#000000" stroke="none" transform="matrix(1 0 0 1 50 354 )" />
  </g>
</svg>