<?xml version="1.0" encoding="utf-8"?>
<svg version="1.1" xmlns:xlink="http://www.w3.org/1999/xlink" width="338px" height="683px" xmlns="http://www.w3.org/2000/svg">
  <g transform="matrix(1 0 0 1 -32 -202 )">
    <path d="M 33 207  A 4 4 0 0 1 37 203 L 365 203  A 4 4 0 0 1 369 207 L 369 880  A 4 4 0 0 1 365 884 L 37 884  A 4 4 0 0 1 33 880 L 33 207  Z " fill-rule="nonzero" fill="#ffffff" stroke="none" />
    <path d="M 32.5 207  A 4.5 4.5 0 0 1 37 202.5 L 365 202.5  A 4.5 4.5 0 0 1 369.5 207 L 369.5 880  A 4.5 4.5 0 0 1 365 884.5 L 37 884.5  A 4.5 4.5 0 0 1 32.5 880 L 32.5 207  Z " stroke-width="1" stroke="#797979" fill="none" stroke-opacity="0.12156862745098" />
  </g>
</svg>