<?xml version="1.0" encoding="utf-8"?>
<svg version="1.1" xmlns:xlink="http://www.w3.org/1999/xlink" width="251px" height="36px" viewBox="691 69  251 36" xmlns="http://www.w3.org/2000/svg">
  <path d="M 692 74  A 4 4 0 0 1 696 70 L 937 70  A 4 4 0 0 1 941 74 L 941 100  A 4 4 0 0 1 937 104 L 696 104  A 4 4 0 0 1 692 100 L 692 74  Z " fill-rule="nonzero" fill="#f0f0f0" stroke="none" />
  <path d="M 691.5 74  A 4.5 4.5 0 0 1 696 69.5 L 937 69.5  A 4.5 4.5 0 0 1 941.5 74 L 941.5 100  A 4.5 4.5 0 0 1 937 104.5 L 696 104.5  A 4.5 4.5 0 0 1 691.5 100 L 691.5 74  Z " stroke-width="1" stroke="#797979" fill="none" stroke-opacity="0.286274509803922" />
</svg>