<?xml version="1.0" encoding="utf-8"?>
<svg version="1.1" xmlns:xlink="http://www.w3.org/1999/xlink" width="28px" height="8px" xmlns="http://www.w3.org/2000/svg">
  <g transform="matrix(1 0 0 1 -319 -413 )">
    <path d="M 7.07954545454546 0.583333333333333  C 7.45075757575757 0.972222222222219  7.63636363636364 1.44444444444444  7.63636363636364 2  L 7.63636363636364 6  C 7.63636363636364 6.55555555555555  7.45075757575757 7.02777777777778  7.07954545454546 7.41666666666667  C 6.70833333333333 7.80555555555555  6.25757575757576 8  5.72727272727273 8  L 1.90909090909091 8  C 1.37878787878788 8  0.928030303030303 7.80555555555555  0.556818181818182 7.41666666666667  C 0.185606060606061 7.02777777777778  0 6.55555555555555  0 6  L 0 2  C 0 1.44444444444444  0.185606060606061 0.972222222222219  0.556818181818182 0.583333333333333  C 0.928030303030303 0.194444444444443  1.37878787878788 0  1.90909090909091 0  L 5.72727272727273 0  C 6.25757575757576 0  6.70833333333333 0.194444444444443  7.07954545454546 0.583333333333333  Z M 17.2613636363636 0.583333333333333  C 17.6325757575758 0.972222222222219  17.8181818181818 1.44444444444444  17.8181818181818 2  L 17.8181818181818 6  C 17.8181818181818 6.55555555555555  17.6325757575758 7.02777777777778  17.2613636363636 7.41666666666667  C 16.8901515151515 7.80555555555555  16.4393939393939 8  15.9090909090909 8  L 12.0909090909091 8  C 11.5606060606061 8  11.1098484848485 7.80555555555555  10.7386363636364 7.41666666666667  C 10.3674242424242 7.02777777777778  10.1818181818182 6.55555555555555  10.1818181818182 6  L 10.1818181818182 2  C 10.1818181818182 1.44444444444444  10.3674242424242 0.972222222222219  10.7386363636364 0.583333333333333  C 11.1098484848485 0.194444444444443  11.5606060606061 0  12.0909090909091 0  L 15.9090909090909 0  C 16.4393939393939 0  16.8901515151515 0.194444444444443  17.2613636363636 0.583333333333333  Z M 27.4431818181818 0.583333333333333  C 27.8143939393939 0.972222222222219  28 1.44444444444444  28 2  L 28 6  C 28 6.55555555555555  27.8143939393939 7.02777777777778  27.4431818181818 7.41666666666667  C 27.0719696969697 7.80555555555555  26.6212121212121 8  26.0909090909091 8  L 22.2727272727273 8  C 21.7424242424242 8  21.2916666666667 7.80555555555555  20.9204545454545 7.41666666666667  C 20.5492424242424 7.02777777777778  20.3636363636364 6.55555555555555  20.3636363636364 6  L 20.3636363636364 2  C 20.3636363636364 1.44444444444444  20.5492424242424 0.972222222222219  20.9204545454545 0.583333333333333  C 21.2916666666667 0.194444444444443  21.7424242424242 0  22.2727272727273 0  L 26.0909090909091 0  C 26.6212121212121 0  27.0719696969697 0.194444444444443  27.4431818181818 0.583333333333333  Z " fill-rule="nonzero" fill="#000000" stroke="none" transform="matrix(1 0 0 1 319 413 )" />
  </g>
</svg>