<?xml version="1.0" encoding="utf-8"?>
<svg version="1.1" xmlns:xlink="http://www.w3.org/1999/xlink" width="22px" height="22px" xmlns="http://www.w3.org/2000/svg">
  <g transform="matrix(1 0 0 1 -325 -306 )">
    <path d="M 17.14453125 12.5611979166667  C 17.3259548611111 12.3797743055556  17.4166666666667 12.1649305555556  17.4166666666667 11.9166666666667  L 17.4166666666667 10.0833333333333  C 17.4166666666667 9.83506944444444  17.3259548611111 9.62022569444444  17.14453125 9.43880208333333  C 16.9631076388889 9.25737847222222  16.7482638888889 9.16666666666667  16.5 9.16666666666667  L 12.8333333333333 9.16666666666667  L 12.8333333333333 5.5  C 12.8333333333333 5.25173611111111  12.7426215277778 5.03689236111111  12.5611979166667 4.85546875  C 12.3797743055556 4.67404513888889  12.1649305555556 4.58333333333333  11.9166666666667 4.58333333333333  L 10.0833333333333 4.58333333333333  C 9.83506944444445 4.58333333333333  9.62022569444445 4.67404513888889  9.43880208333333 4.85546875  C 9.25737847222222 5.03689236111111  9.16666666666667 5.25173611111111  9.16666666666667 5.5  L 9.16666666666667 9.16666666666667  L 5.5 9.16666666666667  C 5.25173611111111 9.16666666666667  5.03689236111111 9.25737847222222  4.85546875 9.43880208333333  C 4.67404513888889 9.62022569444444  4.58333333333333 9.83506944444444  4.58333333333333 10.0833333333333  L 4.58333333333333 11.9166666666667  C 4.58333333333333 12.1649305555556  4.67404513888889 12.3797743055556  4.85546875 12.5611979166667  C 5.03689236111111 12.7426215277778  5.25173611111111 12.8333333333333  5.5 12.8333333333333  L 9.16666666666667 12.8333333333333  L 9.16666666666667 16.5  C 9.16666666666667 16.7482638888889  9.25737847222222 16.9631076388889  9.43880208333333 17.14453125  C 9.62022569444445 17.3259548611111  9.83506944444445 17.4166666666667  10.0833333333333 17.4166666666667  L 11.9166666666667 17.4166666666667  C 12.1649305555556 17.4166666666667  12.3797743055556 17.3259548611111  12.5611979166667 17.14453125  C 12.7426215277778 16.9631076388889  12.8333333333333 16.7482638888889  12.8333333333333 16.5  L 12.8333333333333 12.8333333333333  L 16.5 12.8333333333333  C 16.7482638888889 12.8333333333333  16.9631076388889 12.7426215277778  17.14453125 12.5611979166667  Z M 20.5247395833333 5.478515625  C 21.5082465277778 7.16384548611111  22 9.00434027777778  22 11  C 22 12.9956597222222  21.5082465277778 14.8361545138889  20.5247395833333 16.521484375  C 19.5412326388889 18.2068142361111  18.2068142361111 19.5412326388889  16.521484375 20.5247395833333  C 14.8361545138889 21.5082465277778  12.9956597222222 22  11 22  C 9.00434027777778 22  7.16384548611111 21.5082465277778  5.478515625 20.5247395833333  C 3.79318576388889 19.5412326388889  2.45876736111111 18.2068142361111  1.47526041666667 16.521484375  C 0.491753472222222 14.8361545138889  0 12.9956597222222  0 11  C 0 9.00434027777778  0.491753472222222 7.16384548611111  1.47526041666667 5.478515625  C 2.45876736111111 3.79318576388889  3.79318576388889 2.45876736111111  5.478515625 1.47526041666667  C 7.16384548611111 0.49175347222222  9.00434027777778 0  11 0  C 12.9956597222222 0  14.8361545138889 0.49175347222222  16.521484375 1.47526041666667  C 18.2068142361111 2.45876736111111  19.5412326388889 3.79318576388889  20.5247395833333 5.478515625  Z " fill-rule="nonzero" fill="#33aba0" stroke="none" transform="matrix(1 0 0 1 325 306 )" />
  </g>
</svg>