<?xml version="1.0" encoding="utf-8"?>
<svg version="1.1" xmlns:xlink="http://www.w3.org/1999/xlink" width="12px" height="12px" viewBox="54 16.5  12 12" xmlns="http://www.w3.org/2000/svg">
  <path d="M 60 16.5  C 63.36 16.5  66 19.14  66 22.5  C 66 25.86  63.36 28.5  60 28.5  C 56.64 28.5  54 25.86  54 22.5  C 54 19.14  56.64 16.5  60 16.5  Z " fill-rule="nonzero" fill="#ffffff" stroke="none" />
  <path d="M 60 17  C 63.08 17  65.5 19.42  65.5 22.5  C 65.5 25.58  63.08 28  60 28  C 56.92 28  54.5 25.58  54.5 22.5  C 54.5 19.42  56.92 17  60 17  Z " stroke-width="1" stroke="#797979" fill="none" />
  <path d="M 60 25.5  C 58.32 25.5  57 24.18  57 22.5  C 57 20.82  58.32 19.5  60 19.5  C 61.68 19.5  63 20.82  63 22.5  C 63 24.18  61.68 25.5  60 25.5  " fill-rule="nonzero" fill="#797979" stroke="none" />
</svg>