<?xml version="1.0" encoding="utf-8"?>
<svg version="1.1" xmlns:xlink="http://www.w3.org/1999/xlink" width="12px" height="12px" viewBox="178 657.5  12 12" xmlns="http://www.w3.org/2000/svg">
  <path d="M 184 657.5  C 187.36 657.5  190 660.14  190 663.5  C 190 666.86  187.36 669.5  184 669.5  C 180.64 669.5  178 666.86  178 663.5  C 178 660.14  180.64 657.5  184 657.5  Z " fill-rule="nonzero" fill="#f0f0f0" stroke="none" />
  <path d="M 184 658  C 187.08 658  189.5 660.42  189.5 663.5  C 189.5 666.58  187.08 669  184 669  C 180.92 669  178.5 666.58  178.5 663.5  C 178.5 660.42  180.92 658  184 658  Z " stroke-width="1" stroke="#797979" fill="none" />
  <path d="M 184 666.5  C 182.32 666.5  181 665.18  181 663.5  C 181 661.82  182.32 660.5  184 660.5  C 185.68 660.5  187 661.82  187 663.5  C 187 665.18  185.68 666.5  184 666.5  " fill-rule="nonzero" fill="#797979" stroke="none" />
</svg>