<?xml version="1.0" encoding="utf-8"?>
<svg version="1.1" xmlns:xlink="http://www.w3.org/1999/xlink" width="12px" height="12px" viewBox="645 1646  12 12" xmlns="http://www.w3.org/2000/svg">
  <path d="M 645.5 1651  A 4.5 4.5 0 0 1 650 1646.5 L 652 1646.5  A 4.5 4.5 0 0 1 656.5 1651 L 656.5 1653  A 4.5 4.5 0 0 1 652 1657.5 L 650 1657.5  A 4.5 4.5 0 0 1 645.5 1653 L 645.5 1651  Z " fill-rule="nonzero" fill="#ffffff" stroke="none" />
  <path d="M 645.5 1651  A 4.5 4.5 0 0 1 650 1646.5 L 652 1646.5  A 4.5 4.5 0 0 1 656.5 1651 L 656.5 1653  A 4.5 4.5 0 0 1 652 1657.5 L 650 1657.5  A 4.5 4.5 0 0 1 645.5 1653 L 645.5 1651  Z " stroke-width="1" stroke="#797979" fill="none" />
</svg>