<?xml version="1.0" encoding="utf-8"?>
<svg version="1.1" xmlns:xlink="http://www.w3.org/1999/xlink" width="176px" height="50px" viewBox="1152 329  176 50" xmlns="http://www.w3.org/2000/svg">
  <path d="M 1153 334  A 4 4 0 0 1 1157 330 L 1323 330  A 4 4 0 0 1 1327 334 L 1327 374  A 4 4 0 0 1 1323 378 L 1157 378  A 4 4 0 0 1 1153 374 L 1153 334  Z " fill-rule="nonzero" fill="#ffffff" stroke="none" />
  <path d="M 1152.5 334  A 4.5 4.5 0 0 1 1157 329.5 L 1323 329.5  A 4.5 4.5 0 0 1 1327.5 334 L 1327.5 374  A 4.5 4.5 0 0 1 1323 378.5 L 1157 378.5  A 4.5 4.5 0 0 1 1152.5 374 L 1152.5 334  Z " stroke-width="1" stroke="#797979" fill="none" stroke-opacity="0.250980392156863" />
</svg>