<?xml version="1.0" encoding="utf-8"?>
<svg version="1.1" xmlns:xlink="http://www.w3.org/1999/xlink" width="183px" height="37px" viewBox="760 184  183 37" xmlns="http://www.w3.org/2000/svg">
  <path d="M 761 189  A 4 4 0 0 1 765 185 L 938 185  A 4 4 0 0 1 942 189 L 942 216  A 4 4 0 0 1 938 220 L 765 220  A 4 4 0 0 1 761 216 L 761 189  Z " fill-rule="nonzero" fill="#f0f0f0" stroke="none" />
  <path d="M 760.5 189  A 4.5 4.5 0 0 1 765 184.5 L 938 184.5  A 4.5 4.5 0 0 1 942.5 189 L 942.5 216  A 4.5 4.5 0 0 1 938 220.5 L 765 220.5  A 4.5 4.5 0 0 1 760.5 216 L 760.5 189  Z " stroke-width="1" stroke="#797979" fill="none" stroke-opacity="0.156862745098039" />
</svg>