<?xml version="1.0" encoding="utf-8"?>
<svg version="1.1" xmlns:xlink="http://www.w3.org/1999/xlink" width="63px" height="36px" xmlns="http://www.w3.org/2000/svg">
  <g transform="matrix(1 0 0 1 -104 -236 )">
    <path d="M 105 241  A 4 4 0 0 1 109 237 L 162 237  A 4 4 0 0 1 166 241 L 166 267  A 4 4 0 0 1 162 271 L 109 271  A 4 4 0 0 1 105 267 L 105 241  Z " fill-rule="nonzero" fill="#ffffff" stroke="none" />
    <path d="M 104.5 241  A 4.5 4.5 0 0 1 109 236.5 L 162 236.5  A 4.5 4.5 0 0 1 166.5 241 L 166.5 267  A 4.5 4.5 0 0 1 162 271.5 L 109 271.5  A 4.5 4.5 0 0 1 104.5 267 L 104.5 241  Z " stroke-width="1" stroke="#797979" fill="none" stroke-opacity="0.156862745098039" />
  </g>
</svg>