<?xml version="1.0" encoding="utf-8"?>
<svg version="1.1" xmlns:xlink="http://www.w3.org/1999/xlink" width="72px" height="36px" xmlns="http://www.w3.org/2000/svg">
  <g transform="matrix(1 0 0 1 -219 -236 )">
    <path d="M 220 241  A 4 4 0 0 1 224 237 L 286 237  A 4 4 0 0 1 290 241 L 290 267  A 4 4 0 0 1 286 271 L 224 271  A 4 4 0 0 1 220 267 L 220 241  Z " fill-rule="nonzero" fill="#ffffff" stroke="none" />
    <path d="M 219.5 241  A 4.5 4.5 0 0 1 224 236.5 L 286 236.5  A 4.5 4.5 0 0 1 290.5 241 L 290.5 267  A 4.5 4.5 0 0 1 286 271.5 L 224 271.5  A 4.5 4.5 0 0 1 219.5 267 L 219.5 241  Z " stroke-width="1" stroke="#797979" fill="none" stroke-opacity="0.156862745098039" />
  </g>
</svg>