<?xml version="1.0" encoding="utf-8"?>
<svg version="1.1" xmlns:xlink="http://www.w3.org/1999/xlink" width="184px" height="38px" xmlns="http://www.w3.org/2000/svg">
  <g transform="matrix(1 0 0 1 -104 -126 )">
    <path d="M 105 128  A 1 1 0 0 1 106 127 L 286 127  A 1 1 0 0 1 287 128 L 287 162  A 1 1 0 0 1 286 163 L 106 163  A 1 1 0 0 1 105 162 L 105 128  Z " fill-rule="nonzero" fill="#ffffff" stroke="none" />
    <path d="M 104.5 128  A 1.5 1.5 0 0 1 106 126.5 L 286 126.5  A 1.5 1.5 0 0 1 287.5 128 L 287.5 162  A 1.5 1.5 0 0 1 286 163.5 L 106 163.5  A 1.5 1.5 0 0 1 104.5 162 L 104.5 128  Z " stroke-width="1" stroke="#797979" fill="none" stroke-opacity="0.156862745098039" />
  </g>
</svg>