<?xml version="1.0" encoding="utf-8"?>
<svg version="1.1" xmlns:xlink="http://www.w3.org/1999/xlink" width="184px" height="37px" viewBox="429 233  184 37" xmlns="http://www.w3.org/2000/svg">
  <path d="M 430 238  A 4 4 0 0 1 434 234 L 608 234  A 4 4 0 0 1 612 238 L 612 265  A 4 4 0 0 1 608 269 L 434 269  A 4 4 0 0 1 430 265 L 430 238  Z " fill-rule="nonzero" fill="#f0f0f0" stroke="none" />
  <path d="M 429.5 238  A 4.5 4.5 0 0 1 434 233.5 L 608 233.5  A 4.5 4.5 0 0 1 612.5 238 L 612.5 265  A 4.5 4.5 0 0 1 608 269.5 L 434 269.5  A 4.5 4.5 0 0 1 429.5 265 L 429.5 238  Z " stroke-width="1" stroke="#797979" fill="none" stroke-opacity="0.156862745098039" />
</svg>