<?xml version="1.0" encoding="utf-8"?>
<svg version="1.1" xmlns:xlink="http://www.w3.org/1999/xlink" width="185px" height="37px" viewBox="429 184  185 37" xmlns="http://www.w3.org/2000/svg">
  <path d="M 430 189  A 4 4 0 0 1 434 185 L 609 185  A 4 4 0 0 1 613 189 L 613 216  A 4 4 0 0 1 609 220 L 434 220  A 4 4 0 0 1 430 216 L 430 189  Z " fill-rule="nonzero" fill="#f0f0f0" stroke="none" />
  <path d="M 429.5 189  A 4.5 4.5 0 0 1 434 184.5 L 609 184.5  A 4.5 4.5 0 0 1 613.5 189 L 613.5 216  A 4.5 4.5 0 0 1 609 220.5 L 434 220.5  A 4.5 4.5 0 0 1 429.5 216 L 429.5 189  Z " stroke-width="1" stroke="#797979" fill="none" stroke-opacity="0.156862745098039" />
</svg>