<?xml version="1.0" encoding="utf-8"?>
<svg version="1.1" xmlns:xlink="http://www.w3.org/1999/xlink" width="20px" height="21px" xmlns="http://www.w3.org/2000/svg">
  <g transform="matrix(1 0 0 1 -1775 -15 )">
    <path d="M 19.5286195286196 15.6969696969697  C 19.8428731762065 16.026936026936  20 16.4276094276094  20 16.8989898989899  C 20 17.3703703703704  19.8428731762065 17.7710437710438  19.5286195286196 18.1010101010101  L 20 18.1010101010101  C 19.6857463524131 18.4309764309764  16.5432098765433 21  16.094276094276 21  C 15.645342312009 21  15.2637485970819 20.8350168350168  14.949494949495 20.5050505050505  L 10 15.3080808080808  L 5.050505050505 20.5050505050505  C 4.73625140291807 20.8350168350168  4.35465768799098 21  3.90572390572396 21  C 3.45679012345673 21  3.07519640852964 20.8350168350168  2.7609427609427 20.5050505050505  L 0.471380471380404 18.1010101010101  C 0.157126823793468 17.7710437710438  0 17.3703703703704  0 16.8989898989899  C 0 16.4276094276094  0.157126823793468 16.026936026936  0.471380471380404 15.6969696969697  L 5.4208754208754 10.5  L 0.471380471380404 5.3030303030303  C 0.157126823793468 4.97306397306397  0 4.57239057239057  0 4.1010101010101  C 0 3.62962962962963  0.157126823793468 3.22895622895622  0.471380471380404 2.8989898989899  L 2.7609427609427 0.494949494949495  C 3.07519640852964 0.164983164983163  3.45679012345673 0  3.90572390572396 0  C 4.35465768799098 0  4.73625140291807 0.164983164983163  5.050505050505 0.494949494949495  L 10 5.69191919191919  L 14.949494949495 0.494949494949495  C 15.2637485970819 0.164983164983163  15.645342312009 0  16.094276094276 0  C 16.5432098765433 0  16.9248035914704 0.164983164983163  17.2390572390573 0.494949494949495  L 19.5286195286196 2.8989898989899  C 19.8428731762065 3.22895622895622  20 3.62962962962963  20 4.1010101010101  C 20 4.57239057239057  19.8428731762065 4.97306397306397  19.5286195286196 5.3030303030303  L 14.5791245791246 10.5  L 19.5286195286196 15.6969696969697  Z " fill-rule="nonzero" fill="#aaaaaa" stroke="none" transform="matrix(1 0 0 1 1775 15 )" />
  </g>
</svg>