<?xml version="1.0" encoding="utf-8"?>
<svg version="1.1" xmlns:xlink="http://www.w3.org/1999/xlink" width="219px" height="38px" viewBox="512 116  219 38" xmlns="http://www.w3.org/2000/svg">
  <path d="M 513 121  A 4 4 0 0 1 517 117 L 726 117  A 4 4 0 0 1 730 121 L 730 149  A 4 4 0 0 1 726 153 L 517 153  A 4 4 0 0 1 513 149 L 513 121  Z " fill-rule="nonzero" fill="#ffffff" stroke="none" />
  <path d="M 512.5 121  A 4.5 4.5 0 0 1 517 116.5 L 726 116.5  A 4.5 4.5 0 0 1 730.5 121 L 730.5 149  A 4.5 4.5 0 0 1 726 153.5 L 517 153.5  A 4.5 4.5 0 0 1 512.5 149 L 512.5 121  Z " stroke-width="1" stroke="#797979" fill="none" stroke-opacity="0.298039215686275" />
</svg>