<?xml version="1.0" encoding="utf-8"?>
<svg version="1.1" xmlns:xlink="http://www.w3.org/1999/xlink" width="353px" height="574px" xmlns="http://www.w3.org/2000/svg">
  <g transform="matrix(1 0 0 1 -6 -922 )">
    <path d="M 7 927  A 4 4 0 0 1 11 923 L 354 923  A 4 4 0 0 1 358 927 L 358 1491  A 4 4 0 0 1 354 1495 L 11 1495  A 4 4 0 0 1 7 1491 L 7 927  Z " fill-rule="nonzero" fill="#ffffff" stroke="none" fill-opacity="0.0823529411764706" />
    <path d="M 6.5 927  A 4.5 4.5 0 0 1 11 922.5 L 354 922.5  A 4.5 4.5 0 0 1 358.5 927 L 358.5 1491  A 4.5 4.5 0 0 1 354 1495.5 L 11 1495.5  A 4.5 4.5 0 0 1 6.5 1491 L 6.5 927  Z " stroke-width="1" stroke="#797979" fill="none" stroke-opacity="0.184313725490196" />
  </g>
</svg>