<?xml version="1.0" encoding="utf-8"?>
<svg version="1.1" xmlns:xlink="http://www.w3.org/1999/xlink" width="23px" height="23px" xmlns="http://www.w3.org/2000/svg">
  <g transform="matrix(1 0 0 1 -313 -937 )">
    <path d="M 324.5 937  C 330.94 937  336 942.06  336 948.5  C 336 954.94  330.94 960  324.5 960  C 318.06 960  313 954.94  313 948.5  C 313 942.06  318.06 937  324.5 937  Z " fill-rule="nonzero" fill="#ffffff" stroke="none" />
    <path d="M 324.5 937.5  C 330.66 937.5  335.5 942.34  335.5 948.5  C 335.5 954.66  330.66 959.5  324.5 959.5  C 318.34 959.5  313.5 954.66  313.5 948.5  C 313.5 942.34  318.34 937.5  324.5 937.5  Z " stroke-width="1" stroke="#797979" fill="none" />
  </g>
</svg>