<?xml version="1.0" encoding="utf-8"?>
<svg version="1.1" xmlns:xlink="http://www.w3.org/1999/xlink" width="128px" height="297px" xmlns="http://www.w3.org/2000/svg">
  <g transform="matrix(1 0 0 1 -416 -1143 )">
    <path d="M 417 1148  A 4 4 0 0 1 421 1144 L 539 1144  A 4 4 0 0 1 543 1148 L 543 1435  A 4 4 0 0 1 539 1439 L 421 1439  A 4 4 0 0 1 417 1435 L 417 1148  Z " fill-rule="nonzero" fill="#ffffff" stroke="none" />
    <path d="M 416.5 1148  A 4.5 4.5 0 0 1 421 1143.5 L 539 1143.5  A 4.5 4.5 0 0 1 543.5 1148 L 543.5 1435  A 4.5 4.5 0 0 1 539 1439.5 L 421 1439.5  A 4.5 4.5 0 0 1 416.5 1435 L 416.5 1148  Z " stroke-width="1" stroke="#797979" fill="none" stroke-opacity="0.184313725490196" />
  </g>
</svg>