<?xml version="1.0" encoding="utf-8"?>
<svg version="1.1" xmlns:xlink="http://www.w3.org/1999/xlink" width="128px" height="297px" xmlns="http://www.w3.org/2000/svg">
  <g transform="matrix(1 0 0 1 -584 -1142 )">
    <path d="M 585 1147  A 4 4 0 0 1 589 1143 L 707 1143  A 4 4 0 0 1 711 1147 L 711 1434  A 4 4 0 0 1 707 1438 L 589 1438  A 4 4 0 0 1 585 1434 L 585 1147  Z " fill-rule="nonzero" fill="#ffffff" stroke="none" />
    <path d="M 584.5 1147  A 4.5 4.5 0 0 1 589 1142.5 L 707 1142.5  A 4.5 4.5 0 0 1 711.5 1147 L 711.5 1434  A 4.5 4.5 0 0 1 707 1438.5 L 589 1438.5  A 4.5 4.5 0 0 1 584.5 1434 L 584.5 1147  Z " stroke-width="1" stroke="#797979" fill="none" stroke-opacity="0.223529411764706" />
  </g>
</svg>