<?xml version="1.0" encoding="utf-8"?>
<svg version="1.1" xmlns:xlink="http://www.w3.org/1999/xlink" width="818px" height="452px" xmlns="http://www.w3.org/2000/svg">
  <g transform="matrix(1 0 0 1 -29 -1848 )">
    <path d="M 30 1853  A 4 4 0 0 1 34 1849 L 842 1849  A 4 4 0 0 1 846 1853 L 846 2295  A 4 4 0 0 1 842 2299 L 34 2299  A 4 4 0 0 1 30 2295 L 30 1853  Z " fill-rule="nonzero" fill="#ffffff" stroke="none" />
    <path d="M 29.5 1853  A 4.5 4.5 0 0 1 34 1848.5 L 842 1848.5  A 4.5 4.5 0 0 1 846.5 1853 L 846.5 2295  A 4.5 4.5 0 0 1 842 2299.5 L 34 2299.5  A 4.5 4.5 0 0 1 29.5 2295 L 29.5 1853  Z " stroke-width="1" stroke="#797979" fill="none" stroke-opacity="0.411764705882353" />
  </g>
</svg>