<?xml version="1.0" encoding="utf-8"?>
<svg version="1.1" xmlns:xlink="http://www.w3.org/1999/xlink" width="441px" height="10px" preserveAspectRatio="xMinYMid meet" viewBox="233 486  441 8" xmlns="http://www.w3.org/2000/svg">
  <path d="M 238 510  L 238 495  A 5 5 0 0 1 243 490 L 664 490  A 5 5 0 0 1 669 495 L 669 598  " stroke-width="2" stroke="#0099cc" fill="none" />
  <path d="M 242.292893218813 504.892893218813  L 238 509.185786437627  L 233.707106781187 504.892893218813  L 232.292893218813 506.307106781187  L 237.292893218813 511.307106781187  L 238 512.014213562373  L 238.707106781187 511.307106781187  L 243.707106781187 506.307106781187  L 242.292893218813 504.892893218813  Z M 673.292893218813 592.892893218813  L 669 597.185786437627  L 664.707106781187 592.892893218813  L 663.292893218813 594.307106781187  L 668.292893218813 599.307106781187  L 669 600.014213562373  L 669.707106781187 599.307106781187  L 674.707106781187 594.307106781187  L 673.292893218813 592.892893218813  Z " fill-rule="nonzero" fill="#0099cc" stroke="none" />
</svg>