<?xml version="1.0" encoding="utf-8"?>
<svg version="1.1" xmlns:xlink="http://www.w3.org/1999/xlink" width="15px" height="16px" xmlns="http://www.w3.org/2000/svg">
  <g transform="matrix(1 0 0 1 -97 -457 )">
    <path d="M 3.4375 10.75  L 3.9453125 10.2083333333333  L 5.4296875 11.7916666666667  L 4.921875 12.3333333333333  L 4.375 12.3333333333333  L 4.375 11.3333333333333  L 3.4375 11.3333333333333  L 3.4375 10.75  Z M 7.6953125 6.17708333333333  C 7.80598958333333 6.05902777777778  7.90364583333333 6.04861111111111  7.98828125 6.14583333333333  C 8.07942708333333 6.23611111111111  8.06966145833333 6.34027777777778  7.958984375 6.45833333333333  L 5.1171875 9.48958333333333  C 5.00651041666667 9.60763888888889  4.90885416666667 9.61805555555555  4.82421875 9.52083333333333  C 4.73307291666667 9.43055555555555  4.74283854166667 9.32638888888889  4.853515625 9.20833333333333  L 7.6953125 6.17708333333333  Z M 2.5 13.3333333333333  L 5.3125 13.3333333333333  L 10.625 7.66666666666667  L 7.8125 4.66666666666667  L 2.5 10.3333333333333  L 2.5 13.3333333333333  Z M 8.4375 4  L 11.25 7  L 12.1484375 6.04166666666667  C 12.3307291666667 5.84722222222222  12.421875 5.61111111111111  12.421875 5.33333333333333  C 12.421875 5.05555555555556  12.3307291666667 4.81944444444444  12.1484375 4.625  L 10.6640625 3.04166666666667  C 10.4817708333333 2.84722222222222  10.2604166666667 2.75  10 2.75  C 9.73958333333334 2.75  9.51822916666667 2.84722222222222  9.3359375 3.04166666666667  L 8.4375 4  Z M 14.1748046875 0.880208333333334  C 14.7249348958333 1.46701388888889  15 2.17361111111111  15 3  L 15 13  C 15 13.8263888888889  14.7249348958333 14.5329861111111  14.1748046875 15.1197916666667  C 13.6246744791667 15.7065972222222  12.9622395833333 16  12.1875 16  L 2.8125 16  C 2.03776041666667 16  1.37532552083333 15.7065972222222  0.8251953125 15.1197916666667  C 0.275065104166667 14.5329861111111  0 13.8263888888889  0 13  L 0 3  C 0 2.17361111111111  0.275065104166667 1.46701388888889  0.8251953125 0.880208333333334  C 1.37532552083333 0.293402777777777  2.03776041666667 0  2.8125 0  L 12.1875 0  C 12.9622395833333 0  13.6246744791667 0.293402777777777  14.1748046875 0.880208333333334  Z " fill-rule="nonzero" fill="#fd7b7b" stroke="none" fill-opacity="0.682352941176471" transform="matrix(1 0 0 1 97 457 )" />
  </g>
</svg>