<?xml version="1.0" encoding="utf-8"?>
<svg version="1.1" xmlns:xlink="http://www.w3.org/1999/xlink" width="427px" height="372px" xmlns="http://www.w3.org/2000/svg">
  <g transform="matrix(1 0 0 1 -879 -1150 )">
    <path d="M 880 1155  A 4 4 0 0 1 884 1151 L 1301 1151  A 4 4 0 0 1 1305 1155 L 1305 1517  A 4 4 0 0 1 1301 1521 L 884 1521  A 4 4 0 0 1 880 1517 L 880 1155  Z " fill-rule="nonzero" fill="#ffffff" stroke="none" />
    <path d="M 879.5 1155  A 4.5 4.5 0 0 1 884 1150.5 L 1301 1150.5  A 4.5 4.5 0 0 1 1305.5 1155 L 1305.5 1517  A 4.5 4.5 0 0 1 1301 1521.5 L 884 1521.5  A 4.5 4.5 0 0 1 879.5 1517 L 879.5 1155  Z " stroke-width="1" stroke="#797979" fill="none" stroke-opacity="0.117647058823529" />
  </g>
</svg>