<?xml version="1.0" encoding="utf-8"?>
<svg version="1.1" xmlns:xlink="http://www.w3.org/1999/xlink" width="184px" height="36px" viewBox="778 352  184 36" xmlns="http://www.w3.org/2000/svg">
  <path d="M 779 357  A 4 4 0 0 1 783 353 L 957 353  A 4 4 0 0 1 961 357 L 961 383  A 4 4 0 0 1 957 387 L 783 387  A 4 4 0 0 1 779 383 L 779 357  Z " fill-rule="nonzero" fill="#ffffff" stroke="none" />
  <path d="M 778.5 357  A 4.5 4.5 0 0 1 783 352.5 L 957 352.5  A 4.5 4.5 0 0 1 961.5 357 L 961.5 383  A 4.5 4.5 0 0 1 957 387.5 L 783 387.5  A 4.5 4.5 0 0 1 778.5 383 L 778.5 357  Z " stroke-width="1" stroke="#797979" fill="none" stroke-opacity="0.380392156862745" />
</svg>