<?xml version="1.0" encoding="utf-8"?>
<svg version="1.1" xmlns:xlink="http://www.w3.org/1999/xlink" width="184px" height="42px" viewBox="97 358  184 42" xmlns="http://www.w3.org/2000/svg">
  <path d="M 98 363  A 4 4 0 0 1 102 359 L 276 359  A 4 4 0 0 1 280 363 L 280 395  A 4 4 0 0 1 276 399 L 102 399  A 4 4 0 0 1 98 395 L 98 363  Z " fill-rule="nonzero" fill="#f0f0f0" stroke="none" />
  <path d="M 97.5 363  A 4.5 4.5 0 0 1 102 358.5 L 276 358.5  A 4.5 4.5 0 0 1 280.5 363 L 280.5 395  A 4.5 4.5 0 0 1 276 399.5 L 102 399.5  A 4.5 4.5 0 0 1 97.5 395 L 97.5 363  Z " stroke-width="1" stroke="#797979" fill="none" stroke-opacity="0.345098039215686" />
</svg>