<?xml version="1.0" encoding="utf-8"?>
<svg version="1.1" xmlns:xlink="http://www.w3.org/1999/xlink" width="650px" height="486px" xmlns="http://www.w3.org/2000/svg">
  <g transform="matrix(1 0 0 1 -450 -996 )">
    <path d="M 451 1010  A 13 13 0 0 1 464 997 L 1086 997  A 13 13 0 0 1 1099 1010 L 1099 1468  A 13 13 0 0 1 1086 1481 L 464 1481  A 13 13 0 0 1 451 1468 L 451 1010  Z " fill-rule="nonzero" fill="#ffffff" stroke="none" />
    <path d="M 450.5 1010  A 13.5 13.5 0 0 1 464 996.5 L 1086 996.5  A 13.5 13.5 0 0 1 1099.5 1010 L 1099.5 1468  A 13.5 13.5 0 0 1 1086 1481.5 L 464 1481.5  A 13.5 13.5 0 0 1 450.5 1468 L 450.5 1010  Z " stroke-width="1" stroke="#797979" fill="none" stroke-opacity="0.109803921568627" />
  </g>
</svg>