<?xml version="1.0" encoding="utf-8"?>
<svg version="1.1" xmlns:xlink="http://www.w3.org/1999/xlink" width="338px" height="662px" xmlns="http://www.w3.org/2000/svg">
  <g transform="matrix(1 0 0 1 -34 -183 )">
    <path d="M 35 188  A 4 4 0 0 1 39 184 L 367 184  A 4 4 0 0 1 371 188 L 371 840  A 4 4 0 0 1 367 844 L 39 844  A 4 4 0 0 1 35 840 L 35 188  Z " fill-rule="nonzero" fill="#ffffff" stroke="none" />
    <path d="M 34.5 188  A 4.5 4.5 0 0 1 39 183.5 L 367 183.5  A 4.5 4.5 0 0 1 371.5 188 L 371.5 840  A 4.5 4.5 0 0 1 367 844.5 L 39 844.5  A 4.5 4.5 0 0 1 34.5 840 L 34.5 188  Z " stroke-width="1" stroke="#797979" fill="none" stroke-opacity="0.12156862745098" />
  </g>
</svg>