<?xml version="1.0" encoding="utf-8"?>
<svg version="1.1" xmlns:xlink="http://www.w3.org/1999/xlink" width="82px" height="55px" xmlns="http://www.w3.org/2000/svg">
  <defs>
    <mask fill="white" id="clip1656">
      <path d="M 426 336  C 423.225 336  421 333.775  421 331  L 421 286  C 421 283.225  423.225 281  426 281  L 498 281  C 500.775 281  503 283.225  503 286  L 503 331  C 503 333.775  500.775 336  498 336  " fill-rule="evenodd" />
    </mask>
  </defs>
  <g transform="matrix(1 0 0 1 -421 -281 )">
    <path d="M 421 281  L 503 281  L 503 336  L 421 336  L 421 281  " fill-rule="nonzero" fill="#cccccc" stroke="none" mask="url(#clip1656)" />
    <path d="M 425 285  L 499 285  L 499 332  L 425 332  L 425 285  " fill-rule="nonzero" fill="#ffffff" stroke="none" mask="url(#clip1656)" />
    <path d="M 467.765 297.5  C 465.455 297.5  463.64 295.685  463.64 293.375  C 463.64 291.065  465.455 289.25  467.765 289.25  C 470.075 289.25  471.89 291.065  471.89 293.375  C 471.89 295.685  470.075 297.5  467.765 297.5  " fill-rule="nonzero" fill="#cccccc" stroke="none" mask="url(#clip1656)" />
    <path d="M 427 331  L 427 306.8  L 444.75 295.8  L 469.6 313.292682926829  L 483.8 302.4  L 498 313.292682926829  L 498 331  L 427 331  " fill-rule="nonzero" fill="#169bd5" stroke="none" mask="url(#clip1656)" />
  </g>
</svg>