<?xml version="1.0" encoding="utf-8"?>
<svg version="1.1" xmlns:xlink="http://www.w3.org/1999/xlink" width="21px" height="22px" xmlns="http://www.w3.org/2000/svg">
  <g transform="matrix(1 0 0 1 -325 -206 )">
    <path d="M 12.87890625 13.4921875  C 13.9852764423077 12.3331330128205  14.5384615384615 10.9383012820513  14.5384615384615 9.30769230769231  C 14.5384615384615 7.67708333333333  13.9852764423077 6.2822516025641  12.87890625 5.12319711538462  C 11.7725360576923 3.96414262820513  10.4411057692308 3.38461538461539  8.88461538461539 3.38461538461539  C 7.328125 3.38461538461539  5.99669471153846 3.96414262820513  4.89032451923077 5.12319711538462  C 3.78395432692308 6.2822516025641  3.23076923076923 7.67708333333333  3.23076923076923 9.30769230769231  C 3.23076923076923 10.9383012820513  3.78395432692308 12.3331330128205  4.89032451923077 13.4921875  C 5.99669471153846 14.6512419871795  7.328125 15.2307692307692  8.88461538461539 15.2307692307692  C 10.4411057692308 15.2307692307692  11.7725360576923 14.6512419871795  12.87890625 13.4921875  Z M 20.5330528846154 19.1177884615385  C 20.8443509615385 19.4439102564103  21 19.8405448717949  21 20.3076923076923  C 21 20.7660256410256  20.8401442307692 21.1626602564103  20.5204326923077 21.4975961538462  C 20.2007211538462 21.8325320512821  19.8221153846154 22  19.3846153846154 22  C 18.9302884615385 22  18.5516826923077 21.8325320512821  18.2487980769231 21.4975961538462  L 13.9200721153846 16.9759615384615  C 12.4140625 18.0689102564103  10.7355769230769 18.6153846153846  8.88461538461539 18.6153846153846  C 7.68149038461539 18.6153846153846  6.53094951923077 18.3707932692308  5.43299278846154 17.8816105769231  C 4.33503605769231 17.3924278846154  3.38852163461538 16.7313701923077  2.59344951923077 15.8984375  C 1.79837740384615 15.0655048076923  1.16736778846154 14.0739182692308  0.700420673076923 12.9236778846154  C 0.233473557692308 11.7734375  0 10.568108974359  0 9.30769230769231  C 0 8.04727564102564  0.233473557692308 6.84194711538462  0.700420673076923 5.69170673076923  C 1.16736778846154 4.54146634615385  1.79837740384615 3.54987980769231  2.59344951923077 2.71694711538462  C 3.38852163461538 1.88401442307692  4.33503605769231 1.22295673076923  5.43299278846154 0.733774038461539  C 6.53094951923077 0.244591346153846  7.68149038461539 0  8.88461538461539 0  C 10.0877403846154 0  11.23828125 0.244591346153846  12.3362379807692 0.733774038461539  C 13.4341947115385 1.22295673076923  14.3807091346154 1.88401442307692  15.17578125 2.71694711538462  C 15.9708533653846 3.54987980769231  16.6018629807692 4.54146634615385  17.0688100961538 5.69170673076923  C 17.5357572115385 6.84194711538462  17.7692307692308 8.04727564102564  17.7692307692308 9.30769230769231  C 17.7692307692308 11.2467948717949  17.2475961538462 13.0052083333333  16.2043269230769 14.5829326923077  L 20.5330528846154 19.1177884615385  Z " fill-rule="nonzero" fill="#33aba0" stroke="none" transform="matrix(1 0 0 1 325 206 )" />
  </g>
</svg>