<?xml version="1.0" encoding="utf-8"?>
<svg version="1.1" xmlns:xlink="http://www.w3.org/1999/xlink" width="96px" height="36px" viewBox="891 105  96 36" xmlns="http://www.w3.org/2000/svg">
  <path d="M 892 110  A 4 4 0 0 1 896 106 L 982 106  A 4 4 0 0 1 986 110 L 986 136  A 4 4 0 0 1 982 140 L 896 140  A 4 4 0 0 1 892 136 L 892 110  Z " fill-rule="nonzero" fill="#f0f0f0" stroke="none" />
  <path d="M 891.5 110  A 4.5 4.5 0 0 1 896 105.5 L 982 105.5  A 4.5 4.5 0 0 1 986.5 110 L 986.5 136  A 4.5 4.5 0 0 1 982 140.5 L 896 140.5  A 4.5 4.5 0 0 1 891.5 136 L 891.5 110  Z " stroke-width="1" stroke="#797979" fill="none" stroke-opacity="0.427450980392157" />
</svg>