<?xml version="1.0" encoding="utf-8"?>
<svg version="1.1" xmlns:xlink="http://www.w3.org/1999/xlink" width="184px" height="36px" viewBox="755 278  184 36" xmlns="http://www.w3.org/2000/svg">
  <path d="M 756 283  A 4 4 0 0 1 760 279 L 934 279  A 4 4 0 0 1 938 283 L 938 309  A 4 4 0 0 1 934 313 L 760 313  A 4 4 0 0 1 756 309 L 756 283  Z " fill-rule="nonzero" fill="#f0f0f0" stroke="none" />
  <path d="M 755.5 283  A 4.5 4.5 0 0 1 760 278.5 L 934 278.5  A 4.5 4.5 0 0 1 938.5 283 L 938.5 309  A 4.5 4.5 0 0 1 934 313.5 L 760 313.5  A 4.5 4.5 0 0 1 755.5 309 L 755.5 283  Z " stroke-width="1" stroke="#797979" fill="none" stroke-opacity="0.345098039215686" />
</svg>