<?xml version="1.0" encoding="utf-8"?>
<svg version="1.1" xmlns:xlink="http://www.w3.org/1999/xlink" width="570px" height="67px" viewBox="143 1232  570 67" xmlns="http://www.w3.org/2000/svg">
  <path d="M 144 1237  A 4 4 0 0 1 148 1233 L 708 1233  A 4 4 0 0 1 712 1237 L 712 1294  A 4 4 0 0 1 708 1298 L 148 1298  A 4 4 0 0 1 144 1294 L 144 1237  Z " fill-rule="nonzero" fill="#f0f0f0" stroke="none" />
  <path d="M 143.5 1237  A 4.5 4.5 0 0 1 148 1232.5 L 708 1232.5  A 4.5 4.5 0 0 1 712.5 1237 L 712.5 1294  A 4.5 4.5 0 0 1 708 1298.5 L 148 1298.5  A 4.5 4.5 0 0 1 143.5 1294 L 143.5 1237  Z " stroke-width="1" stroke="#797979" fill="none" stroke-opacity="0.352941176470588" />
</svg>