<?xml version="1.0" encoding="utf-8"?>
<svg version="1.1" xmlns:xlink="http://www.w3.org/1999/xlink" width="206px" height="39px" viewBox="518 1154  206 39" xmlns="http://www.w3.org/2000/svg">
  <path d="M 519 1159  A 4 4 0 0 1 523 1155 L 719 1155  A 4 4 0 0 1 723 1159 L 723 1188  A 4 4 0 0 1 719 1192 L 523 1192  A 4 4 0 0 1 519 1188 L 519 1159  Z " fill-rule="nonzero" fill="#ffffff" stroke="none" />
  <path d="M 518.5 1159  A 4.5 4.5 0 0 1 523 1154.5 L 719 1154.5  A 4.5 4.5 0 0 1 723.5 1159 L 723.5 1188  A 4.5 4.5 0 0 1 719 1192.5 L 523 1192.5  A 4.5 4.5 0 0 1 518.5 1188 L 518.5 1159  Z " stroke-width="1" stroke="#797979" fill="none" stroke-opacity="0.352941176470588" />
</svg>