<?xml version="1.0" encoding="utf-8"?>
<svg version="1.1" xmlns:xlink="http://www.w3.org/1999/xlink" width="797px" height="1486px" xmlns="http://www.w3.org/2000/svg">
  <g>
    <path d="M 1 5  A 4 4 0 0 1 5 1 L 792 1  A 4 4 0 0 1 796 5 L 796 1481  A 4 4 0 0 1 792 1485 L 5 1485  A 4 4 0 0 1 1 1481 L 1 5  Z " fill-rule="nonzero" fill="#f2f2f2" stroke="none" fill-opacity="0" />
    <path d="M 0.5 5  A 4.5 4.5 0 0 1 5 0.5 L 792 0.5  A 4.5 4.5 0 0 1 796.5 5 L 796.5 1481  A 4.5 4.5 0 0 1 792 1485.5 L 5 1485.5  A 4.5 4.5 0 0 1 0.5 1481 L 0.5 5  Z " stroke-width="1" stroke="#797979" fill="none" stroke-opacity="0.196078431372549" />
  </g>
</svg>