<?xml version="1.0" encoding="utf-8"?>
<svg version="1.1" xmlns:xlink="http://www.w3.org/1999/xlink" width="556px" height="36px" viewBox="157 188  556 36" xmlns="http://www.w3.org/2000/svg">
  <path d="M 158 193  A 4 4 0 0 1 162 189 L 708 189  A 4 4 0 0 1 712 193 L 712 219  A 4 4 0 0 1 708 223 L 162 223  A 4 4 0 0 1 158 219 L 158 193  Z " fill-rule="nonzero" fill="#ffffff" stroke="none" />
  <path d="M 157.5 193  A 4.5 4.5 0 0 1 162 188.5 L 708 188.5  A 4.5 4.5 0 0 1 712.5 193 L 712.5 219  A 4.5 4.5 0 0 1 708 223.5 L 162 223.5  A 4.5 4.5 0 0 1 157.5 219 L 157.5 193  Z " stroke-width="1" stroke="#797979" fill="none" stroke-opacity="0.258823529411765" />
</svg>