<?xml version="1.0" encoding="utf-8"?>
<svg version="1.1" xmlns:xlink="http://www.w3.org/1999/xlink" width="115px" height="77px" xmlns="http://www.w3.org/2000/svg">
  <g transform="matrix(1 0 0 1 -152 -368 )">
    <path d="M 153 373  A 4 4 0 0 1 157 369 L 262 369  A 4 4 0 0 1 266 373 L 266 440  A 4 4 0 0 1 262 444 L 157 444  A 4 4 0 0 1 153 440 L 153 373  Z " fill-rule="nonzero" fill="#f2f2f2" stroke="none" />
    <path d="M 152.5 373  A 4.5 4.5 0 0 1 157 368.5 L 262 368.5  A 4.5 4.5 0 0 1 266.5 373 L 266.5 440  A 4.5 4.5 0 0 1 262 444.5 L 157 444.5  A 4.5 4.5 0 0 1 152.5 440 L 152.5 373  Z " stroke-width="1" stroke-dasharray="9,4" stroke="#797979" fill="none" stroke-dashoffset="0.5" />
  </g>
</svg>