<?xml version="1.0" encoding="utf-8"?>
<svg version="1.1" xmlns:xlink="http://www.w3.org/1999/xlink" width="206px" height="39px" viewBox="518 951  206 39" xmlns="http://www.w3.org/2000/svg">
  <path d="M 519 956  A 4 4 0 0 1 523 952 L 719 952  A 4 4 0 0 1 723 956 L 723 985  A 4 4 0 0 1 719 989 L 523 989  A 4 4 0 0 1 519 985 L 519 956  Z " fill-rule="nonzero" fill="#f0f0f0" stroke="none" />
  <path d="M 518.5 956  A 4.5 4.5 0 0 1 523 951.5 L 719 951.5  A 4.5 4.5 0 0 1 723.5 956 L 723.5 985  A 4.5 4.5 0 0 1 719 989.5 L 523 989.5  A 4.5 4.5 0 0 1 518.5 985 L 518.5 956  Z " stroke-width="1" stroke="#797979" fill="none" stroke-opacity="0.258823529411765" />
</svg>