<?xml version="1.0" encoding="utf-8"?>
<svg version="1.1" xmlns:xlink="http://www.w3.org/1999/xlink" width="176px" height="39px" viewBox="144 1154  176 39" xmlns="http://www.w3.org/2000/svg">
  <path d="M 145 1159  A 4 4 0 0 1 149 1155 L 315 1155  A 4 4 0 0 1 319 1159 L 319 1188  A 4 4 0 0 1 315 1192 L 149 1192  A 4 4 0 0 1 145 1188 L 145 1159  Z " fill-rule="nonzero" fill="#f0f0f0" stroke="none" />
  <path d="M 144.5 1159  A 4.5 4.5 0 0 1 149 1154.5 L 315 1154.5  A 4.5 4.5 0 0 1 319.5 1159 L 319.5 1188  A 4.5 4.5 0 0 1 315 1192.5 L 149 1192.5  A 4.5 4.5 0 0 1 144.5 1188 L 144.5 1159  Z " stroke-width="1" stroke="#797979" fill="none" stroke-opacity="0.352941176470588" />
</svg>