<?xml version="1.0" encoding="utf-8"?>
<svg version="1.1" xmlns:xlink="http://www.w3.org/1999/xlink" width="561px" height="424px" viewBox="152 465  561 424" xmlns="http://www.w3.org/2000/svg">
  <path d="M 153 470  A 4 4 0 0 1 157 466 L 708 466  A 4 4 0 0 1 712 470 L 712 884  A 4 4 0 0 1 708 888 L 157 888  A 4 4 0 0 1 153 884 L 153 470  Z " fill-rule="nonzero" fill="#ffffff" stroke="none" />
  <path d="M 152.5 470  A 4.5 4.5 0 0 1 157 465.5 L 708 465.5  A 4.5 4.5 0 0 1 712.5 470 L 712.5 884  A 4.5 4.5 0 0 1 708 888.5 L 157 888.5  A 4.5 4.5 0 0 1 152.5 884 L 152.5 470  Z " stroke-width="1" stroke="#797979" fill="none" stroke-opacity="0.250980392156863" />
</svg>