<?xml version="1.0" encoding="utf-8"?>
<svg version="1.1" xmlns:xlink="http://www.w3.org/1999/xlink" width="555px" height="39px" viewBox="158 116  555 39" xmlns="http://www.w3.org/2000/svg">
  <path d="M 159 121  A 4 4 0 0 1 163 117 L 708 117  A 4 4 0 0 1 712 121 L 712 150  A 4 4 0 0 1 708 154 L 163 154  A 4 4 0 0 1 159 150 L 159 121  Z " fill-rule="nonzero" fill="#ffffff" stroke="none" />
  <path d="M 158.5 121  A 4.5 4.5 0 0 1 163 116.5 L 708 116.5  A 4.5 4.5 0 0 1 712.5 121 L 712.5 150  A 4.5 4.5 0 0 1 708 154.5 L 163 154.5  A 4.5 4.5 0 0 1 158.5 150 L 158.5 121  Z " stroke-width="1" stroke="#797979" fill="none" stroke-opacity="0.258823529411765" />
</svg>