<?xml version="1.0" encoding="utf-8"?>
<svg version="1.1" xmlns:xlink="http://www.w3.org/1999/xlink" width="188px" height="372px" xmlns="http://www.w3.org/2000/svg">
  <defs>
    <mask fill="white" id="clip1265">
      <path d="M 5 384  C 2.225 384  0 381.775  0 379  L 0 17  C 0 14.225  2.225 12  5 12  L 183 12  C 185.775 12  188 14.225  188 17  L 188 379  C 188 381.775  185.775 384  183 384  " fill-rule="evenodd" />
    </mask>
  </defs>
  <g transform="matrix(1 0 0 1 0 -12 )">
    <path d="M 0 12  L 188 12  L 188 384  L 0 384  L 0 12  " fill-rule="nonzero" fill="#cccccc" stroke="none" mask="url(#clip1265)" />
    <path d="M 13 25  L 175 25  L 175 371  L 13 371  L 13 25  " fill-rule="nonzero" fill="#ffffff" stroke="none" mask="url(#clip1265)" />
    <path d="M 111.86 96  C 103.964 96  97.76 89.796  97.76 81.9  C 97.76 74.004  103.964 67.8  111.86 67.8  C 119.756 67.8  125.96 74.004  125.96 81.9  C 125.96 89.796  119.756 96  111.86 96  " fill-rule="nonzero" fill="#cccccc" stroke="none" mask="url(#clip1265)" />
    <path d="M 18 367  L 18 181.65  L 56.25 97.4  L 109.8 164.8  L 140.4 147.95  L 171 164.8  L 171 367  L 18 367  " fill-rule="nonzero" fill="#169bd5" stroke="none" mask="url(#clip1265)" />
  </g>
</svg>