<?xml version="1.0" encoding="utf-8"?>
<svg version="1.1" xmlns:xlink="http://www.w3.org/1999/xlink" width="12px" height="12px" viewBox="341 288  12 12" xmlns="http://www.w3.org/2000/svg">
  <path d="M 341.5 293  A 4.5 4.5 0 0 1 346 288.5 L 348 288.5  A 4.5 4.5 0 0 1 352.5 293 L 352.5 295  A 4.5 4.5 0 0 1 348 299.5 L 346 299.5  A 4.5 4.5 0 0 1 341.5 295 L 341.5 293  Z " fill-rule="nonzero" fill="#f0f0f0" stroke="none" />
  <path d="M 341.5 293  A 4.5 4.5 0 0 1 346 288.5 L 348 288.5  A 4.5 4.5 0 0 1 352.5 293 L 352.5 295  A 4.5 4.5 0 0 1 348 299.5 L 346 299.5  A 4.5 4.5 0 0 1 341.5 295 L 341.5 293  Z " stroke-width="1" stroke="#797979" fill="none" />
</svg>