<?xml version="1.0" encoding="utf-8"?>
<svg version="1.1" xmlns:xlink="http://www.w3.org/1999/xlink" width="12px" height="12px" viewBox="219 288  12 12" xmlns="http://www.w3.org/2000/svg">
  <path d="M 219.5 293  A 4.5 4.5 0 0 1 224 288.5 L 226 288.5  A 4.5 4.5 0 0 1 230.5 293 L 230.5 295  A 4.5 4.5 0 0 1 226 299.5 L 224 299.5  A 4.5 4.5 0 0 1 219.5 295 L 219.5 293  Z " fill-rule="nonzero" fill="#f0f0f0" stroke="none" />
  <path d="M 219.5 293  A 4.5 4.5 0 0 1 224 288.5 L 226 288.5  A 4.5 4.5 0 0 1 230.5 293 L 230.5 295  A 4.5 4.5 0 0 1 226 299.5 L 224 299.5  A 4.5 4.5 0 0 1 219.5 295 L 219.5 293  Z " stroke-width="1" stroke="#797979" fill="none" />
</svg>