<?xml version="1.0" encoding="utf-8"?>
<svg version="1.1" xmlns:xlink="http://www.w3.org/1999/xlink" width="12px" height="12px" viewBox="459 288  12 12" xmlns="http://www.w3.org/2000/svg">
  <path d="M 459.5 293  A 4.5 4.5 0 0 1 464 288.5 L 466 288.5  A 4.5 4.5 0 0 1 470.5 293 L 470.5 295  A 4.5 4.5 0 0 1 466 299.5 L 464 299.5  A 4.5 4.5 0 0 1 459.5 295 L 459.5 293  Z " fill-rule="nonzero" fill="#ffffff" stroke="none" />
  <path d="M 459.5 293  A 4.5 4.5 0 0 1 464 288.5 L 466 288.5  A 4.5 4.5 0 0 1 470.5 293 L 470.5 295  A 4.5 4.5 0 0 1 466 299.5 L 464 299.5  A 4.5 4.5 0 0 1 459.5 295 L 459.5 293  Z " stroke-width="1" stroke="#797979" fill="none" />
</svg>