<?xml version="1.0" encoding="utf-8"?>
<svg version="1.1" xmlns:xlink="http://www.w3.org/1999/xlink" width="12px" height="12px" viewBox="459 322  12 12" xmlns="http://www.w3.org/2000/svg">
  <path d="M 459.5 327  A 4.5 4.5 0 0 1 464 322.5 L 466 322.5  A 4.5 4.5 0 0 1 470.5 327 L 470.5 329  A 4.5 4.5 0 0 1 466 333.5 L 464 333.5  A 4.5 4.5 0 0 1 459.5 329 L 459.5 327  Z " fill-rule="nonzero" fill="#ffffff" stroke="none" />
  <path d="M 459.5 327  A 4.5 4.5 0 0 1 464 322.5 L 466 322.5  A 4.5 4.5 0 0 1 470.5 327 L 470.5 329  A 4.5 4.5 0 0 1 466 333.5 L 464 333.5  A 4.5 4.5 0 0 1 459.5 329 L 459.5 327  Z " stroke-width="1" stroke="#797979" fill="none" />
  <path d="M 461.571428571429 328  L 464.142857142857 330.571428571429  " stroke-width="2.57142857142857" stroke="#797979" fill="none" />
  <path d="M 464.142857142857 330.571428571429  L 468.428571428571 324.571428571429  " stroke-width="2.57142857142857" stroke="#797979" fill="none" />
</svg>