<?xml version="1.0" encoding="utf-8"?>
<svg version="1.1" xmlns:xlink="http://www.w3.org/1999/xlink" width="12px" height="12px" viewBox="341 392  12 12" xmlns="http://www.w3.org/2000/svg">
  <path d="M 341.5 397  A 4.5 4.5 0 0 1 346 392.5 L 348 392.5  A 4.5 4.5 0 0 1 352.5 397 L 352.5 399  A 4.5 4.5 0 0 1 348 403.5 L 346 403.5  A 4.5 4.5 0 0 1 341.5 399 L 341.5 397  Z " fill-rule="nonzero" fill="#ffffff" stroke="none" />
  <path d="M 341.5 397  A 4.5 4.5 0 0 1 346 392.5 L 348 392.5  A 4.5 4.5 0 0 1 352.5 397 L 352.5 399  A 4.5 4.5 0 0 1 348 403.5 L 346 403.5  A 4.5 4.5 0 0 1 341.5 399 L 341.5 397  Z " stroke-width="1" stroke="#797979" fill="none" />
  <path d="M 343.571428571429 398  L 346.142857142857 400.571428571429  " stroke-width="2.57142857142857" stroke="#797979" fill="none" />
  <path d="M 346.142857142857 400.571428571429  L 350.428571428571 394.571428571429  " stroke-width="2.57142857142857" stroke="#797979" fill="none" />
</svg>