<?xml version="1.0" encoding="utf-8"?>
<svg version="1.1" xmlns:xlink="http://www.w3.org/1999/xlink" width="12px" height="12px" viewBox="119 357  12 12" xmlns="http://www.w3.org/2000/svg">
  <path d="M 119.5 362  A 4.5 4.5 0 0 1 124 357.5 L 126 357.5  A 4.5 4.5 0 0 1 130.5 362 L 130.5 364  A 4.5 4.5 0 0 1 126 368.5 L 124 368.5  A 4.5 4.5 0 0 1 119.5 364 L 119.5 362  Z " fill-rule="nonzero" fill="#ffffff" stroke="none" />
  <path d="M 119.5 362  A 4.5 4.5 0 0 1 124 357.5 L 126 357.5  A 4.5 4.5 0 0 1 130.5 362 L 130.5 364  A 4.5 4.5 0 0 1 126 368.5 L 124 368.5  A 4.5 4.5 0 0 1 119.5 364 L 119.5 362  Z " stroke-width="1" stroke="#797979" fill="none" />
</svg>