<?xml version="1.0" encoding="utf-8"?>
<svg version="1.1" xmlns:xlink="http://www.w3.org/1999/xlink" width="12px" height="12px" viewBox="341 322  12 12" xmlns="http://www.w3.org/2000/svg">
  <path d="M 341.5 327  A 4.5 4.5 0 0 1 346 322.5 L 348 322.5  A 4.5 4.5 0 0 1 352.5 327 L 352.5 329  A 4.5 4.5 0 0 1 348 333.5 L 346 333.5  A 4.5 4.5 0 0 1 341.5 329 L 341.5 327  Z " fill-rule="nonzero" fill="#ffffff" stroke="none" />
  <path d="M 341.5 327  A 4.5 4.5 0 0 1 346 322.5 L 348 322.5  A 4.5 4.5 0 0 1 352.5 327 L 352.5 329  A 4.5 4.5 0 0 1 348 333.5 L 346 333.5  A 4.5 4.5 0 0 1 341.5 329 L 341.5 327  Z " stroke-width="1" stroke="#797979" fill="none" />
</svg>