<?xml version="1.0" encoding="utf-8"?>
<svg version="1.1" xmlns:xlink="http://www.w3.org/1999/xlink" width="12px" height="12px" viewBox="341 426  12 12" xmlns="http://www.w3.org/2000/svg">
  <path d="M 341.5 431  A 4.5 4.5 0 0 1 346 426.5 L 348 426.5  A 4.5 4.5 0 0 1 352.5 431 L 352.5 433  A 4.5 4.5 0 0 1 348 437.5 L 346 437.5  A 4.5 4.5 0 0 1 341.5 433 L 341.5 431  Z " fill-rule="nonzero" fill="#f0f0f0" stroke="none" />
  <path d="M 341.5 431  A 4.5 4.5 0 0 1 346 426.5 L 348 426.5  A 4.5 4.5 0 0 1 352.5 431 L 352.5 433  A 4.5 4.5 0 0 1 348 437.5 L 346 437.5  A 4.5 4.5 0 0 1 341.5 433 L 341.5 431  Z " stroke-width="1" stroke="#797979" fill="none" />
  <path d="M 343.571428571429 432  L 346.142857142857 434.571428571429  " stroke-width="2.57142857142857" stroke="#797979" fill="none" />
  <path d="M 346.142857142857 434.571428571429  L 350.428571428571 428.571428571429  " stroke-width="2.57142857142857" stroke="#797979" fill="none" />
</svg>