<?xml version="1.0" encoding="utf-8"?>
<svg version="1.1" xmlns:xlink="http://www.w3.org/1999/xlink" width="12px" height="12px" viewBox="119 322  12 12" xmlns="http://www.w3.org/2000/svg">
  <path d="M 119.5 327  A 4.5 4.5 0 0 1 124 322.5 L 126 322.5  A 4.5 4.5 0 0 1 130.5 327 L 130.5 329  A 4.5 4.5 0 0 1 126 333.5 L 124 333.5  A 4.5 4.5 0 0 1 119.5 329 L 119.5 327  Z " fill-rule="nonzero" fill="#f0f0f0" stroke="none" />
  <path d="M 119.5 327  A 4.5 4.5 0 0 1 124 322.5 L 126 322.5  A 4.5 4.5 0 0 1 130.5 327 L 130.5 329  A 4.5 4.5 0 0 1 126 333.5 L 124 333.5  A 4.5 4.5 0 0 1 119.5 329 L 119.5 327  Z " stroke-width="1" stroke="#797979" fill="none" />
</svg>