<?xml version="1.0" encoding="utf-8"?>
<svg version="1.1" xmlns:xlink="http://www.w3.org/1999/xlink" width="12px" height="12px" viewBox="219 426  12 12" xmlns="http://www.w3.org/2000/svg">
  <path d="M 219.5 431  A 4.5 4.5 0 0 1 224 426.5 L 226 426.5  A 4.5 4.5 0 0 1 230.5 431 L 230.5 433  A 4.5 4.5 0 0 1 226 437.5 L 224 437.5  A 4.5 4.5 0 0 1 219.5 433 L 219.5 431  Z " fill-rule="nonzero" fill="#f0f0f0" stroke="none" />
  <path d="M 219.5 431  A 4.5 4.5 0 0 1 224 426.5 L 226 426.5  A 4.5 4.5 0 0 1 230.5 431 L 230.5 433  A 4.5 4.5 0 0 1 226 437.5 L 224 437.5  A 4.5 4.5 0 0 1 219.5 433 L 219.5 431  Z " stroke-width="1" stroke="#797979" fill="none" />
  <path d="M 221.571428571429 432  L 224.142857142857 434.571428571429  " stroke-width="2.57142857142857" stroke="#797979" fill="none" />
  <path d="M 224.142857142857 434.571428571429  L 228.428571428571 428.571428571429  " stroke-width="2.57142857142857" stroke="#797979" fill="none" />
</svg>