<?xml version="1.0" encoding="utf-8"?>
<svg version="1.1" xmlns:xlink="http://www.w3.org/1999/xlink" width="12px" height="12px" viewBox="219 357  12 12" xmlns="http://www.w3.org/2000/svg">
  <path d="M 219.5 362  A 4.5 4.5 0 0 1 224 357.5 L 226 357.5  A 4.5 4.5 0 0 1 230.5 362 L 230.5 364  A 4.5 4.5 0 0 1 226 368.5 L 224 368.5  A 4.5 4.5 0 0 1 219.5 364 L 219.5 362  Z " fill-rule="nonzero" fill="#ffffff" stroke="none" />
  <path d="M 219.5 362  A 4.5 4.5 0 0 1 224 357.5 L 226 357.5  A 4.5 4.5 0 0 1 230.5 362 L 230.5 364  A 4.5 4.5 0 0 1 226 368.5 L 224 368.5  A 4.5 4.5 0 0 1 219.5 364 L 219.5 362  Z " stroke-width="1" stroke="#797979" fill="none" />
</svg>