<?xml version="1.0" encoding="utf-8"?>
<svg version="1.1" xmlns:xlink="http://www.w3.org/1999/xlink" width="12px" height="12px" viewBox="219 392  12 12" xmlns="http://www.w3.org/2000/svg">
  <path d="M 219.5 397  A 4.5 4.5 0 0 1 224 392.5 L 226 392.5  A 4.5 4.5 0 0 1 230.5 397 L 230.5 399  A 4.5 4.5 0 0 1 226 403.5 L 224 403.5  A 4.5 4.5 0 0 1 219.5 399 L 219.5 397  Z " fill-rule="nonzero" fill="#ffffff" stroke="none" />
  <path d="M 219.5 397  A 4.5 4.5 0 0 1 224 392.5 L 226 392.5  A 4.5 4.5 0 0 1 230.5 397 L 230.5 399  A 4.5 4.5 0 0 1 226 403.5 L 224 403.5  A 4.5 4.5 0 0 1 219.5 399 L 219.5 397  Z " stroke-width="1" stroke="#797979" fill="none" />
</svg>