<?xml version="1.0" encoding="utf-8"?>
<svg version="1.1" xmlns:xlink="http://www.w3.org/1999/xlink" width="12px" height="12px" viewBox="766 251.5  12 12" xmlns="http://www.w3.org/2000/svg">
  <path d="M 766.5 256.5  A 4.5 4.5 0 0 1 771 252 L 773 252  A 4.5 4.5 0 0 1 777.5 256.5 L 777.5 258.5  A 4.5 4.5 0 0 1 773 263 L 771 263  A 4.5 4.5 0 0 1 766.5 258.5 L 766.5 256.5  Z " fill-rule="nonzero" fill="#ffffff" stroke="none" />
  <path d="M 766.5 256.5  A 4.5 4.5 0 0 1 771 252 L 773 252  A 4.5 4.5 0 0 1 777.5 256.5 L 777.5 258.5  A 4.5 4.5 0 0 1 773 263 L 771 263  A 4.5 4.5 0 0 1 766.5 258.5 L 766.5 256.5  Z " stroke-width="1" stroke="#797979" fill="none" />
  <path d="M 768.571428571429 257.5  L 771.142857142857 260.071428571429  " stroke-width="2.57142857142857" stroke="#797979" fill="none" />
  <path d="M 771.142857142857 260.071428571429  L 775.428571428571 254.071428571429  " stroke-width="2.57142857142857" stroke="#797979" fill="none" />
</svg>