<?xml version="1.0" encoding="utf-8"?>
<svg version="1.1" xmlns:xlink="http://www.w3.org/1999/xlink" width="12px" height="12px" viewBox="766 251.5  12 12" xmlns="http://www.w3.org/2000/svg">
  <path d="M 766.5 256.5  A 4.5 4.5 0 0 1 771 252 L 773 252  A 4.5 4.5 0 0 1 777.5 256.5 L 777.5 258.5  A 4.5 4.5 0 0 1 773 263 L 771 263  A 4.5 4.5 0 0 1 766.5 258.5 L 766.5 256.5  Z " fill-rule="nonzero" fill="#f0f0f0" stroke="none" />
  <path d="M 766.5 256.5  A 4.5 4.5 0 0 1 771 252 L 773 252  A 4.5 4.5 0 0 1 777.5 256.5 L 777.5 258.5  A 4.5 4.5 0 0 1 773 263 L 771 263  A 4.5 4.5 0 0 1 766.5 258.5 L 766.5 256.5  Z " stroke-width="1" stroke="#797979" fill="none" />
</svg>