<?xml version="1.0" encoding="utf-8"?>
<svg version="1.1" xmlns:xlink="http://www.w3.org/1999/xlink" width="12px" height="12px" viewBox="61 331  12 12" xmlns="http://www.w3.org/2000/svg">
  <path d="M 67 331  C 70.36 331  73 333.64  73 337  C 73 340.36  70.36 343  67 343  C 63.64 343  61 340.36  61 337  C 61 333.64  63.64 331  67 331  Z " fill-rule="nonzero" fill="#f0f0f0" stroke="none" />
  <path d="M 67 331.5  C 70.08 331.5  72.5 333.92  72.5 337  C 72.5 340.08  70.08 342.5  67 342.5  C 63.92 342.5  61.5 340.08  61.5 337  C 61.5 333.92  63.92 331.5  67 331.5  Z " stroke-width="1" stroke="#797979" fill="none" />
  <path d="M 67 340  C 65.32 340  64 338.68  64 337  C 64 335.32  65.32 334  67 334  C 68.68 334  70 335.32  70 337  C 70 338.68  68.68 340  67 340  " fill-rule="nonzero" fill="#797979" stroke="none" />
</svg>