<?xml version="1.0" encoding="utf-8"?>
<svg version="1.1" xmlns:xlink="http://www.w3.org/1999/xlink" width="12px" height="12px" viewBox="48 810  12 12" xmlns="http://www.w3.org/2000/svg">
  <path d="M 54 810  C 57.36 810  60 812.64  60 816  C 60 819.36  57.36 822  54 822  C 50.64 822  48 819.36  48 816  C 48 812.64  50.64 810  54 810  Z " fill-rule="nonzero" fill="#ffffff" stroke="none" />
  <path d="M 54 810.5  C 57.08 810.5  59.5 812.92  59.5 816  C 59.5 819.08  57.08 821.5  54 821.5  C 50.92 821.5  48.5 819.08  48.5 816  C 48.5 812.92  50.92 810.5  54 810.5  Z " stroke-width="1" stroke="#797979" fill="none" />
  <path d="M 54 819  C 52.32 819  51 817.68  51 816  C 51 814.32  52.32 813  54 813  C 55.68 813  57 814.32  57 816  C 57 817.68  55.68 819  54 819  " fill-rule="nonzero" fill="#797979" stroke="none" />
</svg>