<?xml version="1.0" encoding="utf-8"?>
<svg version="1.1" xmlns:xlink="http://www.w3.org/1999/xlink" width="12px" height="12px" viewBox="61 299  12 12" xmlns="http://www.w3.org/2000/svg">
  <path d="M 67 299  C 70.36 299  73 301.64  73 305  C 73 308.36  70.36 311  67 311  C 63.64 311  61 308.36  61 305  C 61 301.64  63.64 299  67 299  Z " fill-rule="nonzero" fill="#f0f0f0" stroke="none" />
  <path d="M 67 299.5  C 70.08 299.5  72.5 301.92  72.5 305  C 72.5 308.08  70.08 310.5  67 310.5  C 63.92 310.5  61.5 308.08  61.5 305  C 61.5 301.92  63.92 299.5  67 299.5  Z " stroke-width="1" stroke="#797979" fill="none" />
  <path d="M 67 308  C 65.32 308  64 306.68  64 305  C 64 303.32  65.32 302  67 302  C 68.68 302  70 303.32  70 305  C 70 306.68  68.68 308  67 308  " fill-rule="nonzero" fill="#797979" stroke="none" />
</svg>