<?xml version="1.0" encoding="utf-8"?>
<svg version="1.1" xmlns:xlink="http://www.w3.org/1999/xlink" width="12px" height="12px" viewBox="48 715  12 12" xmlns="http://www.w3.org/2000/svg">
  <path d="M 54 715  C 57.36 715  60 717.64  60 721  C 60 724.36  57.36 727  54 727  C 50.64 727  48 724.36  48 721  C 48 717.64  50.64 715  54 715  Z " fill-rule="nonzero" fill="#ffffff" stroke="none" />
  <path d="M 54 715.5  C 57.08 715.5  59.5 717.92  59.5 721  C 59.5 724.08  57.08 726.5  54 726.5  C 50.92 726.5  48.5 724.08  48.5 721  C 48.5 717.92  50.92 715.5  54 715.5  Z " stroke-width="1" stroke="#797979" fill="none" />
  <path d="M 54 724  C 52.32 724  51 722.68  51 721  C 51 719.32  52.32 718  54 718  C 55.68 718  57 719.32  57 721  C 57 722.68  55.68 724  54 724  " fill-rule="nonzero" fill="#797979" stroke="none" />
</svg>