<?xml version="1.0" encoding="utf-8"?>
<svg version="1.1" xmlns:xlink="http://www.w3.org/1999/xlink" width="22px" height="22px" xmlns="http://www.w3.org/2000/svg">
  <g transform="matrix(1 0 0 1 -1 -169 )">
    <path d="M 11.5524553571429 3.7286036036036  C 11.7079613095238 3.5716966966967  11.7857142857143 3.38588588588588  11.7857142857143 3.17117117117117  C 11.7857142857143 2.95645645645645  11.7079613095238 2.77064564564564  11.5524553571429 2.61373873873874  C 11.3969494047619 2.45683183183183  11.2127976190476 2.37837837837838  11 2.37837837837838  C 10.7872023809524 2.37837837837838  10.6030505952381 2.45683183183183  10.4475446428571 2.61373873873874  C 10.2920386904762 2.77064564564564  10.2142857142857 2.95645645645645  10.2142857142857 3.17117117117117  C 10.2142857142857 3.38588588588588  10.2920386904762 3.5716966966967  10.4475446428571 3.7286036036036  C 10.6030505952381 3.88551051051051  10.7872023809524 3.96396396396397  11 3.96396396396397  C 11.2127976190476 3.96396396396397  11.3969494047619 3.88551051051051  11.5524553571429 3.7286036036036  Z M 21.8895089285714 14.3817567567568  C 21.9631696428571 14.4560810810811  22 14.5510510510511  22 14.6666666666667  L 22 19.027027027027  C 22 19.2087087087087  21.9181547619048 19.3325825825826  21.7544642857143 19.3986486486486  C 21.6889880952381 19.4151651651652  21.639880952381 19.4234234234234  21.6071428571429 19.4234234234234  C 21.500744047619 19.4234234234234  21.4066220238095 19.3862612612613  21.3247767857143 19.3119369369369  L 20.1830357142857 18.1599099099099  C 19.2090773809524 19.3408408408408  17.9056919642857 20.2760885885886  16.2728794642857 20.9656531531532  C 14.6400669642857 21.6552177177177  12.8824404761905 22  11 22  C 9.11755952380952 22  7.35993303571429 21.6552177177177  5.72712053571429 20.9656531531532  C 4.09430803571429 20.2760885885886  2.79092261904762 19.3408408408408  1.81696428571429 18.1599099099099  L 0.675223214285714 19.3119369369369  C 0.6015625 19.3862612612613  0.507440476190476 19.4234234234234  0.392857142857143 19.4234234234234  C 0.360119047619048 19.4234234234234  0.311011904761905 19.4151651651652  0.245535714285714 19.3986486486486  C 0.0818452380952381 19.3325825825826  0 19.2087087087087  0 19.027027027027  L 0 14.6666666666667  C 0 14.5510510510511  0.0368303571428571 14.4560810810811  0.110491071428571 14.3817567567568  C 0.184151785714286 14.3074324324324  0.27827380952381 14.2702702702703  0.392857142857143 14.2702702702703  L 4.71428571428571 14.2702702702703  C 4.89434523809524 14.2702702702703  5.0171130952381 14.3528528528529  5.08258928571429 14.518018018018  C 5.14806547619048 14.6749249249249  5.11941964285714 14.8194444444444  4.99665178571429 14.9515765765766  L 3.76897321428571 16.1903153153153  C 4.31733630952381 16.9418168168168  5.09281994047619 17.5756381381381  6.09542410714286 18.0917792792793  C 7.09802827380952 18.6079204204204  8.20907738095238 18.9485735735736  9.42857142857143 19.1137387387387  L 9.42857142857143 11.0990990990991  L 7.07142857142857 11.0990990990991  C 6.85863095238095 11.0990990990991  6.67447916666667 11.0206456456456  6.51897321428571 10.8637387387387  C 6.36346726190476 10.7068318318318  6.28571428571429 10.521021021021  6.28571428571429 10.3063063063063  L 6.28571428571429 8.72072072072072  C 6.28571428571429 8.506006006006  6.36346726190476 8.32019519519519  6.51897321428571 8.16328828828829  C 6.67447916666667 8.00638138138138  6.85863095238095 7.92792792792793  7.07142857142857 7.92792792792793  L 9.42857142857143 7.92792792792793  L 9.42857142857143 5.90878378378378  C 8.95386904761905 5.628003003003  8.57328869047619 5.24605855855856  8.28683035714286 4.76295045045045  C 8.00037202380952 4.27984234234234  7.85714285714286 3.74924924924925  7.85714285714286 3.17117117117117  C 7.85714285714286 2.2957957957958  8.1640625 1.54842342342342  8.77790178571428 0.929054054054054  C 9.39174107142857 0.309684684684685  10.1324404761905 0  11 0  C 11.8675595238095 0  12.6082589285714 0.309684684684685  13.2220982142857 0.929054054054054  C 13.8359375 1.54842342342342  14.1428571428571 2.2957957957958  14.1428571428571 3.17117117117117  C 14.1428571428571 3.74924924924925  13.9996279761905 4.27984234234234  13.7131696428571 4.76295045045045  C 13.4267113095238 5.24605855855856  13.046130952381 5.628003003003  12.5714285714286 5.90878378378378  L 12.5714285714286 7.92792792792793  L 14.9285714285714 7.92792792792793  C 15.141369047619 7.92792792792793  15.3255208333333 8.00638138138138  15.4810267857143 8.16328828828829  C 15.6365327380952 8.32019519519519  15.7142857142857 8.506006006006  15.7142857142857 8.72072072072072  L 15.7142857142857 10.3063063063063  C 15.7142857142857 10.521021021021  15.6365327380952 10.7068318318318  15.4810267857143 10.8637387387387  C 15.3255208333333 11.0206456456456  15.141369047619 11.0990990990991  14.9285714285714 11.0990990990991  L 12.5714285714286 11.0990990990991  L 12.5714285714286 19.1137387387387  C 13.7909226190476 18.9485735735736  14.9019717261905 18.6079204204204  15.9045758928571 18.0917792792793  C 16.9071800595238 17.5756381381381  17.6826636904762 16.9418168168168  18.2310267857143 16.1903153153153  L 17.0033482142857 14.9515765765766  C 16.8805803571429 14.8194444444444  16.8519345238095 14.6749249249249  16.9174107142857 14.518018018018  C 16.9828869047619 14.3528528528529  17.1056547619048 14.2702702702703  17.2857142857143 14.2702702702703  L 21.6071428571429 14.2702702702703  C 21.7217261904762 14.2702702702703  21.8158482142857 14.3074324324324  21.8895089285714 14.3817567567568  Z " fill-rule="nonzero" fill="#333333" stroke="none" transform="matrix(1 0 0 1 1 169 )" />
  </g>
</svg>