<?xml version="1.0" encoding="utf-8"?>
<svg version="1.1" xmlns:xlink="http://www.w3.org/1999/xlink" width="12px" height="12px" viewBox="61 364  12 12" xmlns="http://www.w3.org/2000/svg">
  <path d="M 67 364  C 70.36 364  73 366.64  73 370  C 73 373.36  70.36 376  67 376  C 63.64 376  61 373.36  61 370  C 61 366.64  63.64 364  67 364  Z " fill-rule="nonzero" fill="#ffffff" stroke="none" />
  <path d="M 67 364.5  C 70.08 364.5  72.5 366.92  72.5 370  C 72.5 373.08  70.08 375.5  67 375.5  C 63.92 375.5  61.5 373.08  61.5 370  C 61.5 366.92  63.92 364.5  67 364.5  Z " stroke-width="1" stroke="#797979" fill="none" />
  <path d="M 67 373  C 65.32 373  64 371.68  64 370  C 64 368.32  65.32 367  67 367  C 68.68 367  70 368.32  70 370  C 70 371.68  68.68 373  67 373  " fill-rule="nonzero" fill="#797979" stroke="none" />
</svg>