<?xml version="1.0" encoding="utf-8"?>
<svg version="1.1" xmlns:xlink="http://www.w3.org/1999/xlink" width="12px" height="12px" viewBox="61 394  12 12" xmlns="http://www.w3.org/2000/svg">
  <path d="M 67 394  C 70.36 394  73 396.64  73 400  C 73 403.36  70.36 406  67 406  C 63.64 406  61 403.36  61 400  C 61 396.64  63.64 394  67 394  Z " fill-rule="nonzero" fill="#ffffff" stroke="none" />
  <path d="M 67 394.5  C 70.08 394.5  72.5 396.92  72.5 400  C 72.5 403.08  70.08 405.5  67 405.5  C 63.92 405.5  61.5 403.08  61.5 400  C 61.5 396.92  63.92 394.5  67 394.5  Z " stroke-width="1" stroke="#797979" fill="none" />
  <path d="M 67 403  C 65.32 403  64 401.68  64 400  C 64 398.32  65.32 397  67 397  C 68.68 397  70 398.32  70 400  C 70 401.68  68.68 403  67 403  " fill-rule="nonzero" fill="#797979" stroke="none" />
</svg>