<?xml version="1.0" encoding="utf-8"?>
<svg version="1.1" xmlns:xlink="http://www.w3.org/1999/xlink" width="20px" height="14px" xmlns="http://www.w3.org/2000/svg">
  <g transform="matrix(1 0 0 1 -11 -78 )">
    <path d="M 13.234375 7.54190340909091  C 13.3003472222222 7.47892992424242  13.3333333333333 7.40435606060606  13.3333333333333 7.31818181818182  C 13.3333333333333 7.22537878787879  13.3020833333333 7.14914772727273  13.2395833333333 7.08948863636364  L 9.57291666666667 3.58948863636364  C 9.51041666666667 3.52982954545455  9.43055555555556 3.5  9.33333333333333 3.5  C 9.23611111111111 3.5  9.15625 3.52982954545455  9.09375 3.58948863636364  L 5.4375 7.07954545454545  C 5.36805555555556 7.15909090909091  5.33333333333333 7.23863636363636  5.33333333333333 7.31818181818182  C 5.33333333333333 7.41098484848485  5.36458333333333 7.48721590909091  5.42708333333333 7.546875  C 5.48958333333333 7.60653409090909  5.56944444444445 7.63636363636364  5.66666666666667 7.63636363636364  L 8 7.63636363636364  L 8 11.1363636363636  C 8 11.2225378787879  8.03298611111111 11.2971117424242  8.09895833333333 11.3600852272727  C 8.16493055555556 11.4230587121212  8.24305555555556 11.4545454545455  8.33333333333333 11.4545454545455  L 10.3333333333333 11.4545454545455  C 10.4236111111111 11.4545454545455  10.5017361111111 11.4230587121212  10.5677083333333 11.3600852272727  C 10.6336805555556 11.2971117424242  10.6666666666667 11.2225378787879  10.6666666666667 11.1363636363636  L 10.6666666666667 7.63636363636364  L 13 7.63636363636364  C 13.0902777777778 7.63636363636364  13.1684027777778 7.60487689393939  13.234375 7.54190340909091  Z M 19.1302083333333 7.81036931818182  C 19.7100694444444 8.50307765151515  20 9.2935606060606  20 10.1818181818182  C 20 11.2357954545455  19.609375 12.1356534090909  18.828125 12.8813920454545  C 18.046875 13.6271306818182  17.1041666666667 14  16 14  L 4.66666666666667 14  C 3.38194444444444 14  2.28298611111111 13.5641571969697  1.36979166666667 12.6924715909091  C 0.456597222222222 11.8207859848485  0 10.7717803030303  0 9.54545454545455  C 0 8.68371212121212  0.243055555555556 7.88825757575758  0.729166666666667 7.15909090909091  C 1.21527777777778 6.42992424242424  1.86805555555556 5.88304924242424  2.6875 5.51846590909091  C 2.67361111111111 5.31960227272727  2.66666666666667 5.17708333333333  2.66666666666667 5.09090909090909  C 2.66666666666667 3.68560606060606  3.1875 2.48579545454546  4.22916666666667 1.49147727272727  C 5.27083333333333 0.497159090909091  6.52777777777778 0  8 0  C 9.08333333333333 0  10.0746527777778 0.288352272727273  10.9739583333333 0.865056818181818  C 11.8732638888889 1.44176136363636  12.5277777777778 2.20738636363636  12.9375 3.16193181818182  C 13.4305555555556 2.75094696969697  14.0069444444444 2.54545454545455  14.6666666666667 2.54545454545455  C 15.4027777777778 2.54545454545455  16.03125 2.79403409090909  16.5520833333333 3.29119318181818  C 17.0729166666667 3.78835227272727  17.3333333333333 4.38825757575757  17.3333333333333 5.09090909090909  C 17.3333333333333 5.59469696969697  17.1909722222222 6.05208333333333  16.90625 6.46306818181818  C 17.8090277777778 6.66856060606061  18.5503472222222 7.11766098484848  19.1302083333333 7.81036931818182  Z " fill-rule="nonzero" fill="#000000" stroke="none" transform="matrix(1 0 0 1 11 78 )" />
  </g>
</svg>