<?xml version="1.0" encoding="utf-8"?>
<svg version="1.1" xmlns:xlink="http://www.w3.org/1999/xlink" width="208px" height="39px" viewBox="503 281  208 39" xmlns="http://www.w3.org/2000/svg">
  <path d="M 504 286  A 4 4 0 0 1 508 282 L 706 282  A 4 4 0 0 1 710 286 L 710 315  A 4 4 0 0 1 706 319 L 508 319  A 4 4 0 0 1 504 315 L 504 286  Z " fill-rule="nonzero" fill="#ffffff" stroke="none" />
  <path d="M 503.5 286  A 4.5 4.5 0 0 1 508 281.5 L 706 281.5  A 4.5 4.5 0 0 1 710.5 286 L 710.5 315  A 4.5 4.5 0 0 1 706 319.5 L 508 319.5  A 4.5 4.5 0 0 1 503.5 315 L 503.5 286  Z " stroke-width="1" stroke="#797979" fill="none" stroke-opacity="0.231372549019608" />
</svg>