<?xml version="1.0" encoding="utf-8"?>
<svg version="1.1" xmlns:xlink="http://www.w3.org/1999/xlink" width="1331px" height="974px" xmlns="http://www.w3.org/2000/svg">
  <g transform="matrix(1 0 0 1 -3 0 )">
    <path d="M 4 2  A 1 1 0 0 1 5 1 L 1332 1  A 1 1 0 0 1 1333 2 L 1333 972  A 1 1 0 0 1 1332 973 L 5 973  A 1 1 0 0 1 4 972 L 4 2  Z " fill-rule="nonzero" fill="#bcbcbc" stroke="none" fill-opacity="0.0666666666666667" />
    <path d="M 3.5 2  A 1.5 1.5 0 0 1 5 0.5 L 1332 0.5  A 1.5 1.5 0 0 1 1333.5 2 L 1333.5 972  A 1.5 1.5 0 0 1 1332 973.5 L 5 973.5  A 1.5 1.5 0 0 1 3.5 972 L 3.5 2  Z " stroke-width="1" stroke="#cccccc" fill="none" stroke-opacity="0.129411764705882" />
  </g>
</svg>