<?xml version="1.0" encoding="utf-8"?>
<svg version="1.1" xmlns:xlink="http://www.w3.org/1999/xlink" width="208px" height="39px" viewBox="503 226  208 39" xmlns="http://www.w3.org/2000/svg">
  <path d="M 504 231  A 4 4 0 0 1 508 227 L 706 227  A 4 4 0 0 1 710 231 L 710 260  A 4 4 0 0 1 706 264 L 508 264  A 4 4 0 0 1 504 260 L 504 231  Z " fill-rule="nonzero" fill="#ffffff" stroke="none" />
  <path d="M 503.5 231  A 4.5 4.5 0 0 1 508 226.5 L 706 226.5  A 4.5 4.5 0 0 1 710.5 231 L 710.5 260  A 4.5 4.5 0 0 1 706 264.5 L 508 264.5  A 4.5 4.5 0 0 1 503.5 260 L 503.5 231  Z " stroke-width="1" stroke="#797979" fill="none" stroke-opacity="0.192156862745098" />
</svg>