<?xml version="1.0" encoding="utf-8"?>
<svg version="1.1" xmlns:xlink="http://www.w3.org/1999/xlink" width="12px" height="12px" viewBox="204 390.5  12 12" xmlns="http://www.w3.org/2000/svg">
  <path d="M 210 390.5  C 213.36 390.5  216 393.14  216 396.5  C 216 399.86  213.36 402.5  210 402.5  C 206.64 402.5  204 399.86  204 396.5  C 204 393.14  206.64 390.5  210 390.5  Z " fill-rule="nonzero" fill="#f0f0f0" stroke="none" />
  <path d="M 210 391  C 213.08 391  215.5 393.42  215.5 396.5  C 215.5 399.58  213.08 402  210 402  C 206.92 402  204.5 399.58  204.5 396.5  C 204.5 393.42  206.92 391  210 391  Z " stroke-width="1" stroke="#797979" fill="none" />
  <path d="M 210 399.5  C 208.32 399.5  207 398.18  207 396.5  C 207 394.82  208.32 393.5  210 393.5  C 211.68 393.5  213 394.82  213 396.5  C 213 398.18  211.68 399.5  210 399.5  " fill-rule="nonzero" fill="#797979" stroke="none" />
</svg>