<?xml version="1.0" encoding="utf-8"?>
<svg version="1.1" xmlns:xlink="http://www.w3.org/1999/xlink" width="12px" height="12px" viewBox="304 275.5  12 12" xmlns="http://www.w3.org/2000/svg">
  <path d="M 310 275.5  C 313.36 275.5  316 278.14  316 281.5  C 316 284.86  313.36 287.5  310 287.5  C 306.64 287.5  304 284.86  304 281.5  C 304 278.14  306.64 275.5  310 275.5  Z " fill-rule="nonzero" fill="#f0f0f0" stroke="none" />
  <path d="M 310 276  C 313.08 276  315.5 278.42  315.5 281.5  C 315.5 284.58  313.08 287  310 287  C 306.92 287  304.5 284.58  304.5 281.5  C 304.5 278.42  306.92 276  310 276  Z " stroke-width="1" stroke="#797979" fill="none" />
  <path d="M 310 284.5  C 308.32 284.5  307 283.18  307 281.5  C 307 279.82  308.32 278.5  310 278.5  C 311.68 278.5  313 279.82  313 281.5  C 313 283.18  311.68 284.5  310 284.5  " fill-rule="nonzero" fill="#797979" stroke="none" />
</svg>