<?xml version="1.0" encoding="utf-8"?>
<svg version="1.1" xmlns:xlink="http://www.w3.org/1999/xlink" width="12px" height="12px" viewBox="304 390.5  12 12" xmlns="http://www.w3.org/2000/svg">
  <path d="M 310 390.5  C 313.36 390.5  316 393.14  316 396.5  C 316 399.86  313.36 402.5  310 402.5  C 306.64 402.5  304 399.86  304 396.5  C 304 393.14  306.64 390.5  310 390.5  Z " fill-rule="nonzero" fill="#ffffff" stroke="none" />
  <path d="M 310 391  C 313.08 391  315.5 393.42  315.5 396.5  C 315.5 399.58  313.08 402  310 402  C 306.92 402  304.5 399.58  304.5 396.5  C 304.5 393.42  306.92 391  310 391  Z " stroke-width="1" stroke="#797979" fill="none" />
  <path d="M 310 399.5  C 308.32 399.5  307 398.18  307 396.5  C 307 394.82  308.32 393.5  310 393.5  C 311.68 393.5  313 394.82  313 396.5  C 313 398.18  311.68 399.5  310 399.5  " fill-rule="nonzero" fill="#797979" stroke="none" />
</svg>