<?xml version="1.0" encoding="utf-8"?>
<svg version="1.1" xmlns:xlink="http://www.w3.org/1999/xlink" width="12px" height="12px" viewBox="204 333.5  12 12" xmlns="http://www.w3.org/2000/svg">
  <path d="M 210 333.5  C 213.36 333.5  216 336.14  216 339.5  C 216 342.86  213.36 345.5  210 345.5  C 206.64 345.5  204 342.86  204 339.5  C 204 336.14  206.64 333.5  210 333.5  Z " fill-rule="nonzero" fill="#f0f0f0" stroke="none" />
  <path d="M 210 334  C 213.08 334  215.5 336.42  215.5 339.5  C 215.5 342.58  213.08 345  210 345  C 206.92 345  204.5 342.58  204.5 339.5  C 204.5 336.42  206.92 334  210 334  Z " stroke-width="1" stroke="#797979" fill="none" />
  <path d="M 210 342.5  C 208.32 342.5  207 341.18  207 339.5  C 207 337.82  208.32 336.5  210 336.5  C 211.68 336.5  213 337.82  213 339.5  C 213 341.18  211.68 342.5  210 342.5  " fill-rule="nonzero" fill="#797979" stroke="none" />
</svg>