<?xml version="1.0" encoding="utf-8"?>
<svg version="1.1" xmlns:xlink="http://www.w3.org/1999/xlink" width="168px" height="25px" viewBox="385 269  168 25" xmlns="http://www.w3.org/2000/svg">
  <path d="M 386 274  A 4 4 0 0 1 390 270 L 548 270  A 4 4 0 0 1 552 274 L 552 289  A 4 4 0 0 1 548 293 L 390 293  A 4 4 0 0 1 386 289 L 386 274  Z " fill-rule="nonzero" fill="#f0f0f0" stroke="none" />
  <path d="M 385.5 274  A 4.5 4.5 0 0 1 390 269.5 L 548 269.5  A 4.5 4.5 0 0 1 552.5 274 L 552.5 289  A 4.5 4.5 0 0 1 548 293.5 L 390 293.5  A 4.5 4.5 0 0 1 385.5 289 L 385.5 274  Z " stroke-width="1" stroke="#797979" fill="none" stroke-opacity="0.215686274509804" />
</svg>