<?xml version="1.0" encoding="utf-8"?>
<svg version="1.1" xmlns:xlink="http://www.w3.org/1999/xlink" width="40px" height="40px" xmlns="http://www.w3.org/2000/svg">
  <defs>
    <path d="M 0 0  L 40 0  L 40 40  L 0 40  Z " fill-rule="evenodd" fill="black" id="path1785" />
    <clipPath id="clip1786">
      <use xlink:href="#path1785" />
    </clipPath>
    <defs>
      <linearGradient id="linear-gradient" y1="0.065" x2="1.006" y2="1" gradientUnits="objectBoundingBox">
        <stop offset="0" stop-color="#feb0af" />
        <stop offset="1" stop-color="#fd7c79" />
      </linearGradient>
      <linearGradient id="linear-gradient-2" x1="1" y1="0.054" x2="1" xlink:href="#linear-gradient" />
      <linearGradient id="linear-gradient-3" x1="0.5" x2="0.5" y2="1" gradientUnits="objectBoundingBox">
        <stop offset="0" stop-color="#ffdfc2" />
        <stop offset="1" stop-color="#ffd9b6" />
      </linearGradient>
      <linearGradient id="linear-gradient-4" x1="0.5" x2="0.5" y2="1" gradientUnits="objectBoundingBox">
        <stop offset="0" stop-color="#fcd0ac" />
        <stop offset="1" stop-color="#fcc292" />
      </linearGradient>
      <linearGradient id="linear-gradient-7" x1="0.5" x2="0.5" y2="1" gradientUnits="objectBoundingBox">
        <stop offset="0" stop-color="#fff3e8" />
        <stop offset="1" stop-color="#ffd9b6" />
      </linearGradient>
      <linearGradient id="linear-gradient-8" x1="0.5" x2="0.5" y2="1" gradientUnits="objectBoundingBox">
        <stop offset="0" stop-color="#c7adad" />
        <stop offset="1" stop-color="#c69898" />
      </linearGradient>
      <linearGradient id="linear-gradient-9" x1="1.007" x2="1.006" y2="1" gradientUnits="objectBoundingBox">
        <stop offset="0" stop-color="#fd7c79" />
        <stop offset="1" stop-color="#f2332f" />
      </linearGradient>
      <linearGradient id="linear-gradient-11" x1="0.5" x2="0.5" y2="1" gradientUnits="objectBoundingBox">
        <stop offset="0" stop-color="#8d6f6f" />
        <stop offset="1" stop-color="#694b4b" />
      </linearGradient>
      <linearGradient id="linear-gradient-12" x1="0.156" y1="1" x2="0.5" gradientUnits="objectBoundingBox">
        <stop offset="0" stop-color="#6f5353" />
        <stop offset="1" stop-color="#5a4242" />
      </linearGradient>
      <linearGradient id="linear-gradient-13" x1="0.5" x2="0.5" y2="1" gradientUnits="objectBoundingBox">
        <stop offset="0" stop-color="#886a6a" />
        <stop offset="1" stop-color="#694b4b" />
      </linearGradient>
      <linearGradient id="linear-gradient-15" x1="0.5" x2="0.5" y2="1" gradientUnits="objectBoundingBox">
        <stop offset="0" stop-color="#fae7a2" />
        <stop offset="1" stop-color="#f4b848" />
      </linearGradient>
    </defs>
    <rect id="矩形_189" data-name="矩形 189" width="40" height="40" fill="none" />
    <g id="组_315" data-name="组 315" transform="translate(0.2 2.8)">
      <path id="路径_301" data-name="路径 301" d="M424.994,559.908H394.469a4.4,4.4,0,0,0-4.363,4.418v15.454a4.4,4.4,0,0,0,4.363,4.418h30.525a4.4,4.4,0,0,0,4.363-4.418V564.326a4.4,4.4,0,0,0-4.363-4.418Z" transform="translate(-389.885 -559.908)" fill="url(#linear-gradient)" />
      <path id="路径_302" data-name="路径 302" d="M404.9,572.908h30.467a1.81,1.81,0,0,1,1.792,1.818v15.454A1.811,1.811,0,0,1,435.365,592H404.9a1.811,1.811,0,0,1-1.792-1.818V574.726A1.811,1.811,0,0,1,404.9,572.908Z" transform="translate(-400.285 -570.308)" fill="#ffebed" />
      <path id="路径_304" data-name="路径 304" d="M516.2,690.5v2.955a.359.359,0,0,1-.364.364H498.925a.391.391,0,0,1-.364-.364V690.5a3.369,3.369,0,0,1,2.5-3.273l4.545-1.136h3.5l2.455.636,2.091.546A3.189,3.189,0,0,1,516.2,690.5Z" transform="translate(-477.143 -661.283)" fill="url(#linear-gradient-2)" />
      <path id="路径_305" data-name="路径 305" d="M533.561,672.68h3.682v3.409h-3.682Z" transform="translate(-505.041 -650.434)" fill="#f7c9a4" />
      <path id="路径_306" data-name="路径 306" d="M560.242,650a1.408,1.408,0,0,1-1.091,1.364c-.091,0-.182.046-.273.046h-.045a1.409,1.409,0,1,1,0-2.818h.045a.577.577,0,0,1,.273.045A1.448,1.448,0,0,1,560.242,650Z" transform="translate(-524.233 -631.091)" fill="url(#linear-gradient-3)" />
      <path id="路径_307" data-name="路径 307" d="M558.879,648.408v2.773h-.045a1.409,1.409,0,1,1,0-2.818l.045.046Z" transform="translate(-524.233 -630.908)" fill="url(#linear-gradient-4)" />
      <path id="路径_308" data-name="路径 308" d="M516.379,650.172a1.416,1.416,0,0,1-1.409,1.409h-.318a1.417,1.417,0,0,1-1.091-1.364,1.46,1.46,0,0,1,1.045-1.364.167.167,0,0,0,.136-.045h.227a1.325,1.325,0,0,1,1.409,1.364Z" transform="translate(-488.979 -631.264)" fill="url(#linear-gradient-3)" />
      <path id="路径_309" data-name="路径 309" d="M521.788,650.328a1.416,1.416,0,0,1-1.409,1.409h-.227v-2.727h.227A1.266,1.266,0,0,1,521.788,650.328Z" transform="translate(-494.259 -631.42)" fill="url(#linear-gradient-4)" />
      <path id="路径_310" data-name="路径 310" d="M530.151,635.635V640.5a3.864,3.864,0,0,1-7.727,0v-4.864Z" transform="translate(-496.233 -620.739)" fill="url(#linear-gradient-7)" />
      <path id="路径_311" data-name="路径 311" d="M531.788,654.408a.5.5,0,0,1-.5-.5v-.5a.5.5,0,0,1,1,0v.5A.537.537,0,0,1,531.788,654.408Zm3.455,0a.5.5,0,0,1-.5-.5v-.5a.5.5,0,0,1,1,0v.5A.5.5,0,0,1,535.243,654.408Z" transform="translate(-503.225 -634.547)" fill="url(#linear-gradient-8)" />
      <path id="路径_312" data-name="路径 312" d="M530.151,635.453v2.409h-.091a6.126,6.126,0,0,1-3.227-1.364c-1.409,1.636-4.227,1.909-4.364,1.909h-.046v-3h7.727v.045Z" transform="translate(-496.233 -620.512)" fill="#ffd8b8" />
      <path id="路径_313" data-name="路径 313" d="M512.425,714.589v1.727h-.682v-1.727a.311.311,0,0,1,.318-.318A.351.351,0,0,1,512.425,714.589Zm11.773,0v1.727h-.682v-1.727a.311.311,0,0,1,.318-.318A.324.324,0,0,1,524.2,714.589Z" transform="translate(-487.688 -683.827)" fill="#4870fe" />
      <path id="路径_314" data-name="路径 314" d="M527.808,681.509l2.273,1.364-.818,1.727a.363.363,0,0,1-.591.091l-1.682-1.727a.436.436,0,0,1-.091-.409l.364-.909a.381.381,0,0,1,.545-.136Z" transform="translate(-499.674 -657.468)" fill="url(#linear-gradient-9)" />
      <path id="路径_315" data-name="路径 315" d="M544.47,681.509l-2.273,1.364.818,1.727a.363.363,0,0,0,.591.091l1.682-1.727a.436.436,0,0,0,.091-.409l-.364-.909a.371.371,0,0,0-.545-.136Z" transform="translate(-511.968 -657.468)" fill="url(#linear-gradient-9)" />
      <path id="路径_316" data-name="路径 316" d="M519.288,618.981s3.273-.318,4.318-2.227a5.532,5.532,0,0,0,3.364,1.682,7.336,7.336,0,0,0,2.182-5.364.342.342,0,0,0-.227-.318c-1.227-.454-7.227-2.454-9.045.909A1.834,1.834,0,0,0,518.2,615.8a10.353,10.353,0,0,0,1.091,3.182Z" transform="translate(-492.824 -601.543)" fill="url(#linear-gradient-11)" />
      <path id="路径_317" data-name="路径 317" d="M558.379,621.771c-.273-.046-.5-.091-.727-.136a9.92,9.92,0,0,0,2.091-5.773,2.677,2.677,0,0,1,.591.227.342.342,0,0,1,.227.318A7.337,7.337,0,0,1,558.379,621.771Z" transform="translate(-524.416 -604.837)" fill="url(#linear-gradient-12)" />
      <path id="路径_318" data-name="路径 318" d="M446.633,624.726s1.954-1.591,3.591-.273,2.227,6.227.591,8.818.545,3.136,1.182,2.545c.682-.636,1,3.136-2.455,2.227-3-.773-3.591-5.546-3-7.773.091-.364-.682-1.773-.545-2C447.042,626.817,447.223,625.135,446.633,624.726Z" transform="translate(-434.751 -611.393)" fill="url(#linear-gradient-13)" />
      <path id="路径_319" data-name="路径 319" d="M449.015,619.946l.818-.409a.572.572,0,0,1,.591.091,3.847,3.847,0,0,1,1.227,2,.52.52,0,0,1-.273.591l-.864.409Z" transform="translate(-437.17 -607.734)" fill="#fd7c79" />
      <path id="路径_320" data-name="路径 320" d="M408.924,688.726v2.318a.5.5,0,0,1-.5.5H397.015a.5.5,0,0,1-.5-.5v-2.318a5.28,5.28,0,0,1,2.955-4.773,5.389,5.389,0,0,1,2.409-.591h1.682a5.016,5.016,0,0,1,2.591.682A5.25,5.25,0,0,1,408.924,688.726Z" transform="translate(-395.012 -659.1)" fill="url(#linear-gradient-2)" />
      <path id="路径_321" data-name="路径 321" d="M417.834,684.044a14.887,14.887,0,0,1-3,7.5h-.909c-1.909-2.227-2.727-6.136-2.864-7.591a5.389,5.389,0,0,1,2.409-.591h1.682A5.23,5.23,0,0,1,417.834,684.044Z" transform="translate(-406.649 -659.1)" fill="url(#linear-gradient-15)" />
      <path id="路径_322" data-name="路径 322" d="M420.925,678.09a1.708,1.708,0,0,1-1.682-1.682v-2.591h3.364v2.591A1.678,1.678,0,0,1,420.925,678.09Z" transform="translate(-413.276 -651.355)" fill="#f7c9a4" />
      <path id="路径_323" data-name="路径 323" d="M446.561,650.09a1.474,1.474,0,0,1-1.136,1.454.884.884,0,0,1-.364.046,1.5,1.5,0,0,1,0-3,1,1,0,0,1,.364.045A1.555,1.555,0,0,1,446.561,650.09Z" transform="translate(-432.794 -631.093)" fill="url(#linear-gradient-3)" />
      <path id="路径_324" data-name="路径 324" d="M445.425,648.635v2.909a.884.884,0,0,1-.364.046,1.5,1.5,0,0,1,0-3c.136,0,.273.045.364.045Z" transform="translate(-432.79 -631.093)" fill="url(#linear-gradient-4)" />
      <path id="路径_325" data-name="路径 325" d="M399.515,650.09a1.513,1.513,0,0,1-1.5,1.5,1,1,0,0,1-.364-.046,1.429,1.429,0,0,1-1.136-1.454,1.555,1.555,0,0,1,1.136-1.455,1,1,0,0,1,.364-.045A1.513,1.513,0,0,1,399.515,650.09Z" transform="translate(-395.012 -631.093)" fill="url(#linear-gradient-3)" />
      <path id="路径_326" data-name="路径 326" d="M404.061,650.09a1.513,1.513,0,0,1-1.5,1.5,1,1,0,0,1-.364-.046v-2.909a1,1,0,0,1,.364-.045A1.513,1.513,0,0,1,404.061,650.09Z" transform="translate(-399.558 -631.093)" fill="url(#linear-gradient-4)" />
      <path id="路径_327" data-name="路径 327" d="M415.243,634.726v5.227a4.136,4.136,0,1,1-8.273,0v-5.227Z" transform="translate(-403.376 -620.015)" fill="url(#linear-gradient-7)" />
      <path id="路径_328" data-name="路径 328" d="M416.743,655.5a.456.456,0,0,1-.455-.455v-.318a.455.455,0,0,1,.455-.455.489.489,0,0,1,.454.455v.318A.456.456,0,0,1,416.743,655.5Zm3.5,0a.456.456,0,0,1-.455-.455v-.318a.454.454,0,1,1,.909,0v.318A.428.428,0,0,1,420.243,655.5Z" transform="translate(-410.83 -635.639)" fill="url(#linear-gradient-8)" />
      <path id="路径_329" data-name="路径 329" d="M415.061,634.726v3.455a4.71,4.71,0,0,1-2.545-1.318,2.13,2.13,0,0,1-.409-.546,10.869,10.869,0,0,1-3.409,1.591,15.539,15.539,0,0,1-1.954.5v-3.682Z" transform="translate(-403.194 -619.969)" fill="#ffd8b8" />
      <path id="路径_330" data-name="路径 330" d="M401.242,622.784c1.5-.273,5.273-1.182,6.273-2.864,0,0-.136,2.409,4.091,2.727a.509.509,0,0,0,.545-.455c.182-1.5.091-5.864-5.409-6.136-5.818-.227-6.136,4.318-6.136,6.227A.543.543,0,0,0,401.242,622.784Z" transform="translate(-398.285 -604.992)" fill="url(#linear-gradient-11)" />
      <path id="路径_331" data-name="路径 331" d="M444.7,624.317c-.182,0-.364-.045-.545-.045.091-.364.682-4.364-2.182-6.136,3.409,1.136,3.409,4.455,3.318,5.727A.589.589,0,0,1,444.7,624.317Z" transform="translate(-431.518 -606.664)" fill="url(#linear-gradient-12)" />
      <path id="路径_332" data-name="路径 332" d="M413.515,715.908v1.273h-.955v-1.273a.5.5,0,0,1,.5-.5.5.5,0,0,1,.455.5Zm-8.091,0v1.273h-.955v-1.273a.5.5,0,0,1,.5-.5.467.467,0,0,1,.455.5Z" transform="translate(-401.376 -684.737)" fill="#4870fe" />
      <rect id="矩形_191" data-name="矩形 191" width="39.506" height="4.4" rx="2.2" transform="translate(0 29.989)" fill="url(#linear-gradient-9)" />
    </g>
    <filter x="-50.00%" y="-50.00%" width="200.00%" height="200.00%" filterUnits="objectBoundingBox" id="filter1787">
      <feColorMatrix type="matrix" values="1 0 0 0 0  0 1 0 0 0  0 0 1 0 0  0 0 0 1 0  " in="SourceGraphic" />
    </filter>
  </defs>
  <g transform="matrix(1 0 0 1 -31 -149 )">
    <g transform="matrix(1 0 0 1 31 149 )" clip-path="url(#clip1786)" filter="url(#filter1787)">
      <rect id="矩形_189" data-name="矩形 189" width="40" height="40" fill="none" />
      <g id="组_315" data-name="组 315" transform="translate(0.2 2.8)">
        <path id="路径_301" data-name="路径 301" d="M424.994,559.908H394.469a4.4,4.4,0,0,0-4.363,4.418v15.454a4.4,4.4,0,0,0,4.363,4.418h30.525a4.4,4.4,0,0,0,4.363-4.418V564.326a4.4,4.4,0,0,0-4.363-4.418Z" transform="translate(-389.885 -559.908)" fill="url(#linear-gradient)" />
        <path id="路径_302" data-name="路径 302" d="M404.9,572.908h30.467a1.81,1.81,0,0,1,1.792,1.818v15.454A1.811,1.811,0,0,1,435.365,592H404.9a1.811,1.811,0,0,1-1.792-1.818V574.726A1.811,1.811,0,0,1,404.9,572.908Z" transform="translate(-400.285 -570.308)" fill="#ffebed" />
        <path id="路径_304" data-name="路径 304" d="M516.2,690.5v2.955a.359.359,0,0,1-.364.364H498.925a.391.391,0,0,1-.364-.364V690.5a3.369,3.369,0,0,1,2.5-3.273l4.545-1.136h3.5l2.455.636,2.091.546A3.189,3.189,0,0,1,516.2,690.5Z" transform="translate(-477.143 -661.283)" fill="url(#linear-gradient-2)" />
        <path id="路径_305" data-name="路径 305" d="M533.561,672.68h3.682v3.409h-3.682Z" transform="translate(-505.041 -650.434)" fill="#f7c9a4" />
        <path id="路径_306" data-name="路径 306" d="M560.242,650a1.408,1.408,0,0,1-1.091,1.364c-.091,0-.182.046-.273.046h-.045a1.409,1.409,0,1,1,0-2.818h.045a.577.577,0,0,1,.273.045A1.448,1.448,0,0,1,560.242,650Z" transform="translate(-524.233 -631.091)" fill="url(#linear-gradient-3)" />
        <path id="路径_307" data-name="路径 307" d="M558.879,648.408v2.773h-.045a1.409,1.409,0,1,1,0-2.818l.045.046Z" transform="translate(-524.233 -630.908)" fill="url(#linear-gradient-4)" />
        <path id="路径_308" data-name="路径 308" d="M516.379,650.172a1.416,1.416,0,0,1-1.409,1.409h-.318a1.417,1.417,0,0,1-1.091-1.364,1.46,1.46,0,0,1,1.045-1.364.167.167,0,0,0,.136-.045h.227a1.325,1.325,0,0,1,1.409,1.364Z" transform="translate(-488.979 -631.264)" fill="url(#linear-gradient-3)" />
        <path id="路径_309" data-name="路径 309" d="M521.788,650.328a1.416,1.416,0,0,1-1.409,1.409h-.227v-2.727h.227A1.266,1.266,0,0,1,521.788,650.328Z" transform="translate(-494.259 -631.42)" fill="url(#linear-gradient-4)" />
        <path id="路径_310" data-name="路径 310" d="M530.151,635.635V640.5a3.864,3.864,0,0,1-7.727,0v-4.864Z" transform="translate(-496.233 -620.739)" fill="url(#linear-gradient-7)" />
        <path id="路径_311" data-name="路径 311" d="M531.788,654.408a.5.5,0,0,1-.5-.5v-.5a.5.5,0,0,1,1,0v.5A.537.537,0,0,1,531.788,654.408Zm3.455,0a.5.5,0,0,1-.5-.5v-.5a.5.5,0,0,1,1,0v.5A.5.5,0,0,1,535.243,654.408Z" transform="translate(-503.225 -634.547)" fill="url(#linear-gradient-8)" />
        <path id="路径_312" data-name="路径 312" d="M530.151,635.453v2.409h-.091a6.126,6.126,0,0,1-3.227-1.364c-1.409,1.636-4.227,1.909-4.364,1.909h-.046v-3h7.727v.045Z" transform="translate(-496.233 -620.512)" fill="#ffd8b8" />
        <path id="路径_313" data-name="路径 313" d="M512.425,714.589v1.727h-.682v-1.727a.311.311,0,0,1,.318-.318A.351.351,0,0,1,512.425,714.589Zm11.773,0v1.727h-.682v-1.727a.311.311,0,0,1,.318-.318A.324.324,0,0,1,524.2,714.589Z" transform="translate(-487.688 -683.827)" fill="#4870fe" />
        <path id="路径_314" data-name="路径 314" d="M527.808,681.509l2.273,1.364-.818,1.727a.363.363,0,0,1-.591.091l-1.682-1.727a.436.436,0,0,1-.091-.409l.364-.909a.381.381,0,0,1,.545-.136Z" transform="translate(-499.674 -657.468)" fill="url(#linear-gradient-9)" />
        <path id="路径_315" data-name="路径 315" d="M544.47,681.509l-2.273,1.364.818,1.727a.363.363,0,0,0,.591.091l1.682-1.727a.436.436,0,0,0,.091-.409l-.364-.909a.371.371,0,0,0-.545-.136Z" transform="translate(-511.968 -657.468)" fill="url(#linear-gradient-9)" />
        <path id="路径_316" data-name="路径 316" d="M519.288,618.981s3.273-.318,4.318-2.227a5.532,5.532,0,0,0,3.364,1.682,7.336,7.336,0,0,0,2.182-5.364.342.342,0,0,0-.227-.318c-1.227-.454-7.227-2.454-9.045.909A1.834,1.834,0,0,0,518.2,615.8a10.353,10.353,0,0,0,1.091,3.182Z" transform="translate(-492.824 -601.543)" fill="url(#linear-gradient-11)" />
        <path id="路径_317" data-name="路径 317" d="M558.379,621.771c-.273-.046-.5-.091-.727-.136a9.92,9.92,0,0,0,2.091-5.773,2.677,2.677,0,0,1,.591.227.342.342,0,0,1,.227.318A7.337,7.337,0,0,1,558.379,621.771Z" transform="translate(-524.416 -604.837)" fill="url(#linear-gradient-12)" />
        <path id="路径_318" data-name="路径 318" d="M446.633,624.726s1.954-1.591,3.591-.273,2.227,6.227.591,8.818.545,3.136,1.182,2.545c.682-.636,1,3.136-2.455,2.227-3-.773-3.591-5.546-3-7.773.091-.364-.682-1.773-.545-2C447.042,626.817,447.223,625.135,446.633,624.726Z" transform="translate(-434.751 -611.393)" fill="url(#linear-gradient-13)" />
        <path id="路径_319" data-name="路径 319" d="M449.015,619.946l.818-.409a.572.572,0,0,1,.591.091,3.847,3.847,0,0,1,1.227,2,.52.52,0,0,1-.273.591l-.864.409Z" transform="translate(-437.17 -607.734)" fill="#fd7c79" />
        <path id="路径_320" data-name="路径 320" d="M408.924,688.726v2.318a.5.5,0,0,1-.5.5H397.015a.5.5,0,0,1-.5-.5v-2.318a5.28,5.28,0,0,1,2.955-4.773,5.389,5.389,0,0,1,2.409-.591h1.682a5.016,5.016,0,0,1,2.591.682A5.25,5.25,0,0,1,408.924,688.726Z" transform="translate(-395.012 -659.1)" fill="url(#linear-gradient-2)" />
        <path id="路径_321" data-name="路径 321" d="M417.834,684.044a14.887,14.887,0,0,1-3,7.5h-.909c-1.909-2.227-2.727-6.136-2.864-7.591a5.389,5.389,0,0,1,2.409-.591h1.682A5.23,5.23,0,0,1,417.834,684.044Z" transform="translate(-406.649 -659.1)" fill="url(#linear-gradient-15)" />
        <path id="路径_322" data-name="路径 322" d="M420.925,678.09a1.708,1.708,0,0,1-1.682-1.682v-2.591h3.364v2.591A1.678,1.678,0,0,1,420.925,678.09Z" transform="translate(-413.276 -651.355)" fill="#f7c9a4" />
        <path id="路径_323" data-name="路径 323" d="M446.561,650.09a1.474,1.474,0,0,1-1.136,1.454.884.884,0,0,1-.364.046,1.5,1.5,0,0,1,0-3,1,1,0,0,1,.364.045A1.555,1.555,0,0,1,446.561,650.09Z" transform="translate(-432.794 -631.093)" fill="url(#linear-gradient-3)" />
        <path id="路径_324" data-name="路径 324" d="M445.425,648.635v2.909a.884.884,0,0,1-.364.046,1.5,1.5,0,0,1,0-3c.136,0,.273.045.364.045Z" transform="translate(-432.79 -631.093)" fill="url(#linear-gradient-4)" />
        <path id="路径_325" data-name="路径 325" d="M399.515,650.09a1.513,1.513,0,0,1-1.5,1.5,1,1,0,0,1-.364-.046,1.429,1.429,0,0,1-1.136-1.454,1.555,1.555,0,0,1,1.136-1.455,1,1,0,0,1,.364-.045A1.513,1.513,0,0,1,399.515,650.09Z" transform="translate(-395.012 -631.093)" fill="url(#linear-gradient-3)" />
        <path id="路径_326" data-name="路径 326" d="M404.061,650.09a1.513,1.513,0,0,1-1.5,1.5,1,1,0,0,1-.364-.046v-2.909a1,1,0,0,1,.364-.045A1.513,1.513,0,0,1,404.061,650.09Z" transform="translate(-399.558 -631.093)" fill="url(#linear-gradient-4)" />
        <path id="路径_327" data-name="路径 327" d="M415.243,634.726v5.227a4.136,4.136,0,1,1-8.273,0v-5.227Z" transform="translate(-403.376 -620.015)" fill="url(#linear-gradient-7)" />
        <path id="路径_328" data-name="路径 328" d="M416.743,655.5a.456.456,0,0,1-.455-.455v-.318a.455.455,0,0,1,.455-.455.489.489,0,0,1,.454.455v.318A.456.456,0,0,1,416.743,655.5Zm3.5,0a.456.456,0,0,1-.455-.455v-.318a.454.454,0,1,1,.909,0v.318A.428.428,0,0,1,420.243,655.5Z" transform="translate(-410.83 -635.639)" fill="url(#linear-gradient-8)" />
        <path id="路径_329" data-name="路径 329" d="M415.061,634.726v3.455a4.71,4.71,0,0,1-2.545-1.318,2.13,2.13,0,0,1-.409-.546,10.869,10.869,0,0,1-3.409,1.591,15.539,15.539,0,0,1-1.954.5v-3.682Z" transform="translate(-403.194 -619.969)" fill="#ffd8b8" />
        <path id="路径_330" data-name="路径 330" d="M401.242,622.784c1.5-.273,5.273-1.182,6.273-2.864,0,0-.136,2.409,4.091,2.727a.509.509,0,0,0,.545-.455c.182-1.5.091-5.864-5.409-6.136-5.818-.227-6.136,4.318-6.136,6.227A.543.543,0,0,0,401.242,622.784Z" transform="translate(-398.285 -604.992)" fill="url(#linear-gradient-11)" />
        <path id="路径_331" data-name="路径 331" d="M444.7,624.317c-.182,0-.364-.045-.545-.045.091-.364.682-4.364-2.182-6.136,3.409,1.136,3.409,4.455,3.318,5.727A.589.589,0,0,1,444.7,624.317Z" transform="translate(-431.518 -606.664)" fill="url(#linear-gradient-12)" />
        <path id="路径_332" data-name="路径 332" d="M413.515,715.908v1.273h-.955v-1.273a.5.5,0,0,1,.5-.5.5.5,0,0,1,.455.5Zm-8.091,0v1.273h-.955v-1.273a.5.5,0,0,1,.5-.5.467.467,0,0,1,.455.5Z" transform="translate(-401.376 -684.737)" fill="#4870fe" />
        <rect id="矩形_191" data-name="矩形 191" width="39.506" height="4.4" rx="2.2" transform="translate(0 29.989)" fill="url(#linear-gradient-9)" />
      </g>
    </g>
  </g>
</svg>