<?xml version="1.0" encoding="utf-8"?>
<svg version="1.1" xmlns:xlink="http://www.w3.org/1999/xlink" width="72px" height="48px" xmlns="http://www.w3.org/2000/svg">
  <defs>
    <path d="M 0 0  L 72 0  L 72 48  L 0 48  Z " fill-rule="evenodd" fill="black" id="path1096" />
    <clipPath id="clip1097">
      <use xlink:href="#path1096" />
    </clipPath>
    <defs>
      <linearGradient id="linear-gradient" x2="1" y2="1" gradientUnits="objectBoundingBox">
        <stop offset="0" stop-color="#fd7c79" />
        <stop offset="1" stop-color="#f2332f" />
      </linearGradient>
      <filter id="矩形_29" x="0" y="0" width="72" height="48" filterUnits="userSpaceOnUse">
        <feOffset dy="4" input="SourceAlpha" />
        <feGaussianBlur stdDeviation="4" result="blur" />
        <feFlood flood-color="#fd7c79" flood-opacity="0.302" />
        <feComposite operator="in" in2="blur" />
        <feComposite in="SourceGraphic" />
      </filter>
    </defs>
    <g id="_24H" data-name="24H" transform="translate(12 8)">
      <g transform="matrix(1, 0, 0, 1, -12, -8)" filter="url(#矩形_29)">
        <rect id="矩形_29-2" data-name="矩形 29" width="48" height="24" rx="12" transform="translate(12 8)" fill="url(#linear-gradient)" />
      </g>
      <text id="继续" transform="translate(24 16)" fill="#fff" font-size="12" font-family="MicrosoftJhengHeiUIRegular, Microsoft JhengHei UI">
        <tspan x="-12" y="0">继续</tspan>
      </text>
    </g>
    <filter x="-50.00%" y="-50.00%" width="200.00%" height="200.00%" filterUnits="objectBoundingBox" id="filter1098">
      <feColorMatrix type="matrix" values="1 0 0 0 0  0 1 0 0 0  0 0 1 0 0  0 0 0 1 0  " in="SourceGraphic" />
    </filter>
  </defs>
  <g transform="matrix(1 0 0 1 -288 -151 )">
    <g transform="matrix(1 0 0 1 288 151 )" clip-path="url(#clip1097)" filter="url(#filter1098)">
      <g id="_24H" data-name="24H" transform="translate(12 8)">
        <g transform="matrix(1, 0, 0, 1, -12, -8)" filter="url(#矩形_29)">
          <rect id="矩形_29-2" data-name="矩形 29" width="48" height="24" rx="12" transform="translate(12 8)" fill="url(#linear-gradient)" />
        </g>
        <text id="继续" transform="translate(24 16)" fill="#fff" font-size="12" font-family="MicrosoftJhengHeiUIRegular, Microsoft JhengHei UI">
          <tspan x="-12" y="0">继续</tspan>
        </text>
      </g>
    </g>
  </g>
</svg>