<?xml version="1.0" encoding="utf-8"?>
<svg version="1.1" xmlns:xlink="http://www.w3.org/1999/xlink" width="12px" height="12px" viewBox="300 14.5  12 12" xmlns="http://www.w3.org/2000/svg">
  <path d="M 300.5 19.5  A 4.5 4.5 0 0 1 305 15 L 307 15  A 4.5 4.5 0 0 1 311.5 19.5 L 311.5 21.5  A 4.5 4.5 0 0 1 307 26 L 305 26  A 4.5 4.5 0 0 1 300.5 21.5 L 300.5 19.5  Z " fill-rule="nonzero" fill="#ffffff" stroke="none" />
  <path d="M 300.5 19.5  A 4.5 4.5 0 0 1 305 15 L 307 15  A 4.5 4.5 0 0 1 311.5 19.5 L 311.5 21.5  A 4.5 4.5 0 0 1 307 26 L 305 26  A 4.5 4.5 0 0 1 300.5 21.5 L 300.5 19.5  Z " stroke-width="1" stroke="#797979" fill="none" />
  <path d="M 302.571428571429 20.5  L 305.142857142857 23.0714285714286  " stroke-width="2.57142857142857" stroke="#797979" fill="none" />
  <path d="M 305.142857142857 23.0714285714286  L 309.428571428571 17.0714285714286  " stroke-width="2.57142857142857" stroke="#797979" fill="none" />
</svg>