<?xml version="1.0" encoding="utf-8"?>
<svg version="1.1" xmlns:xlink="http://www.w3.org/1999/xlink" width="184px" height="36px" viewBox="756 115  184 36" xmlns="http://www.w3.org/2000/svg">
  <path d="M 757 120  A 4 4 0 0 1 761 116 L 935 116  A 4 4 0 0 1 939 120 L 939 146  A 4 4 0 0 1 935 150 L 761 150  A 4 4 0 0 1 757 146 L 757 120  Z " fill-rule="nonzero" fill="#ffffff" stroke="none" />
  <path d="M 756.5 120  A 4.5 4.5 0 0 1 761 115.5 L 935 115.5  A 4.5 4.5 0 0 1 939.5 120 L 939.5 146  A 4.5 4.5 0 0 1 935 150.5 L 761 150.5  A 4.5 4.5 0 0 1 756.5 146 L 756.5 120  Z " stroke-width="1" stroke="#797979" fill="none" stroke-opacity="0.243137254901961" />
</svg>