<?xml version="1.0" encoding="utf-8"?>
<svg version="1.1" xmlns:xlink="http://www.w3.org/1999/xlink" width="800px" height="1018px" xmlns="http://www.w3.org/2000/svg">
  <g transform="matrix(1 0 0 1 -1170 0 )">
    <path d="M 1171 5  A 4 4 0 0 1 1175 1 L 1965 1  A 4 4 0 0 1 1969 5 L 1969 1013  A 4 4 0 0 1 1965 1017 L 1175 1017  A 4 4 0 0 1 1171 1013 L 1171 5  Z " fill-rule="nonzero" fill="#ffffff" stroke="none" />
    <path d="M 1170.5 5  A 4.5 4.5 0 0 1 1175 0.5 L 1965 0.5  A 4.5 4.5 0 0 1 1969.5 5 L 1969.5 1013  A 4.5 4.5 0 0 1 1965 1017.5 L 1175 1017.5  A 4.5 4.5 0 0 1 1170.5 1013 L 1170.5 5  Z " stroke-width="1" stroke="#797979" fill="none" stroke-opacity="0.168627450980392" />
  </g>
</svg>