<?xml version="1.0" encoding="utf-8"?>
<svg version="1.1" xmlns:xlink="http://www.w3.org/1999/xlink" width="328px" height="574px" xmlns="http://www.w3.org/2000/svg">
  <g transform="matrix(1 0 0 1 -22 -882 )">
    <path d="M 23 887  A 4 4 0 0 1 27 883 L 345 883  A 4 4 0 0 1 349 887 L 349 1451  A 4 4 0 0 1 345 1455 L 27 1455  A 4 4 0 0 1 23 1451 L 23 887  Z " fill-rule="nonzero" fill="#ffffff" stroke="none" fill-opacity="0.0823529411764706" />
    <path d="M 22.5 887  A 4.5 4.5 0 0 1 27 882.5 L 345 882.5  A 4.5 4.5 0 0 1 349.5 887 L 349.5 1451  A 4.5 4.5 0 0 1 345 1455.5 L 27 1455.5  A 4.5 4.5 0 0 1 22.5 1451 L 22.5 887  Z " stroke-width="1" stroke="#797979" fill="none" stroke-opacity="0.184313725490196" />
  </g>
</svg>