<?xml version="1.0" encoding="utf-8"?>
<svg version="1.1" xmlns:xlink="http://www.w3.org/1999/xlink" width="300px" height="287px" xmlns="http://www.w3.org/2000/svg">
  <g transform="matrix(1 0 0 1 -847 -210 )">
    <path d="M 848 222  A 11 11 0 0 1 859 211 L 1135 211  A 11 11 0 0 1 1146 222 L 1146 485  A 11 11 0 0 1 1135 496 L 859 496  A 11 11 0 0 1 848 485 L 848 222  Z " fill-rule="nonzero" fill="#ffffff" stroke="none" />
    <path d="M 847.5 222  A 11.5 11.5 0 0 1 859 210.5 L 1135 210.5  A 11.5 11.5 0 0 1 1146.5 222 L 1146.5 485  A 11.5 11.5 0 0 1 1135 496.5 L 859 496.5  A 11.5 11.5 0 0 1 847.5 485 L 847.5 222  Z " stroke-width="1" stroke="#797979" fill="none" stroke-opacity="0.117647058823529" />
  </g>
</svg>