<?xml version="1.0" encoding="utf-8"?>
<svg version="1.1" xmlns:xlink="http://www.w3.org/1999/xlink" width="49px" height="49px" xmlns="http://www.w3.org/2000/svg">
  <g transform="matrix(1 0 0 1 -466 -233 )">
    <path d="M 490.5 233.5  C 503.94 233.5  514.5 244.06  514.5 257.5  C 514.5 270.94  503.94 281.5  490.5 281.5  C 477.06 281.5  466.5 270.94  466.5 257.5  C 466.5 244.06  477.06 233.5  490.5 233.5  Z " fill-rule="nonzero" fill="#ffffff" stroke="none" />
    <path d="M 490.5 233.5  C 503.94 233.5  514.5 244.06  514.5 257.5  C 514.5 270.94  503.94 281.5  490.5 281.5  C 477.06 281.5  466.5 270.94  466.5 257.5  C 466.5 244.06  477.06 233.5  490.5 233.5  Z " stroke-width="1" stroke="#797979" fill="none" stroke-opacity="0.184313725490196" />
  </g>
</svg>