<?xml version="1.0" encoding="utf-8"?>
<svg version="1.1" xmlns:xlink="http://www.w3.org/1999/xlink" width="10px" height="15px" preserveAspectRatio="xMidYMin meet" viewBox="993 195  8 15" xmlns="http://www.w3.org/2000/svg">
  <path d="M 383 216  L 825 216  A 5 5 0 0 0 830 211 L 830 205  A 5 5 0 0 1 835 200 L 992 200  A 5 5 0 0 1 997 205 L 997 208  " stroke-width="2" stroke="#0099cc" fill="none" />
  <path d="M 388.107106781187 220.292893218813  L 383.814213562373 216  L 388.107106781187 211.707106781187  L 386.692893218813 210.292893218813  L 381.692893218813 215.292893218813  L 380.985786437627 216  L 381.692893218813 216.707106781187  L 386.692893218813 221.707106781187  L 388.107106781187 220.292893218813  Z M 1001.29289321881 202.892893218813  L 997 207.185786437627  L 992.707106781187 202.892893218813  L 991.292893218813 204.307106781187  L 996.292893218813 209.307106781187  L 997 210.014213562373  L 997.707106781187 209.307106781187  L 1002.70710678119 204.307106781187  L 1001.29289321881 202.892893218813  Z " fill-rule="nonzero" fill="#0099cc" stroke="none" />
</svg>