<?xml version="1.0" encoding="utf-8"?>
<svg version="1.1" xmlns:xlink="http://www.w3.org/1999/xlink" width="12px" height="12px" viewBox="327 158.5  12 12" xmlns="http://www.w3.org/2000/svg">
  <path d="M 327.5 163.5  A 4.5 4.5 0 0 1 332 159 L 334 159  A 4.5 4.5 0 0 1 338.5 163.5 L 338.5 165.5  A 4.5 4.5 0 0 1 334 170 L 332 170  A 4.5 4.5 0 0 1 327.5 165.5 L 327.5 163.5  Z " fill-rule="nonzero" fill="#f0f0f0" stroke="none" />
  <path d="M 327.5 163.5  A 4.5 4.5 0 0 1 332 159 L 334 159  A 4.5 4.5 0 0 1 338.5 163.5 L 338.5 165.5  A 4.5 4.5 0 0 1 334 170 L 332 170  A 4.5 4.5 0 0 1 327.5 165.5 L 327.5 163.5  Z " stroke-width="1" stroke="#797979" fill="none" />
  <path d="M 329.571428571429 164.5  L 332.142857142857 167.071428571429  " stroke-width="2.57142857142857" stroke="#797979" fill="none" />
  <path d="M 332.142857142857 167.071428571429  L 336.428571428571 161.071428571429  " stroke-width="2.57142857142857" stroke="#797979" fill="none" />
</svg>