<?xml version="1.0" encoding="utf-8"?>
<svg version="1.1" xmlns:xlink="http://www.w3.org/1999/xlink" width="12px" height="12px" viewBox="103 453.5  12 12" xmlns="http://www.w3.org/2000/svg">
  <path d="M 109 453.5  C 112.36 453.5  115 456.14  115 459.5  C 115 462.86  112.36 465.5  109 465.5  C 105.64 465.5  103 462.86  103 459.5  C 103 456.14  105.64 453.5  109 453.5  Z " fill-rule="nonzero" fill="#ffffff" stroke="none" />
  <path d="M 109 454  C 112.08 454  114.5 456.42  114.5 459.5  C 114.5 462.58  112.08 465  109 465  C 105.92 465  103.5 462.58  103.5 459.5  C 103.5 456.42  105.92 454  109 454  Z " stroke-width="1" stroke="#797979" fill="none" />
  <path d="M 109 462.5  C 107.32 462.5  106 461.18  106 459.5  C 106 457.82  107.32 456.5  109 456.5  C 110.68 456.5  112 457.82  112 459.5  C 112 461.18  110.68 462.5  109 462.5  " fill-rule="nonzero" fill="#797979" stroke="none" />
</svg>