<?xml version="1.0" encoding="utf-8"?>
<svg version="1.1" xmlns:xlink="http://www.w3.org/1999/xlink" width="12px" height="12px" viewBox="232 453.5  12 12" xmlns="http://www.w3.org/2000/svg">
  <path d="M 238 453.5  C 241.36 453.5  244 456.14  244 459.5  C 244 462.86  241.36 465.5  238 465.5  C 234.64 465.5  232 462.86  232 459.5  C 232 456.14  234.64 453.5  238 453.5  Z " fill-rule="nonzero" fill="#ffffff" stroke="none" />
  <path d="M 238 454  C 241.08 454  243.5 456.42  243.5 459.5  C 243.5 462.58  241.08 465  238 465  C 234.92 465  232.5 462.58  232.5 459.5  C 232.5 456.42  234.92 454  238 454  Z " stroke-width="1" stroke="#797979" fill="none" />
  <path d="M 238 462.5  C 236.32 462.5  235 461.18  235 459.5  C 235 457.82  236.32 456.5  238 456.5  C 239.68 456.5  241 457.82  241 459.5  C 241 461.18  239.68 462.5  238 462.5  " fill-rule="nonzero" fill="#797979" stroke="none" />
</svg>