<?xml version="1.0" encoding="utf-8"?>
<svg version="1.1" xmlns:xlink="http://www.w3.org/1999/xlink" width="12px" height="12px" viewBox="599 268.5  12 12" xmlns="http://www.w3.org/2000/svg">
  <path d="M 605 268.5  C 608.36 268.5  611 271.14  611 274.5  C 611 277.86  608.36 280.5  605 280.5  C 601.64 280.5  599 277.86  599 274.5  C 599 271.14  601.64 268.5  605 268.5  Z " fill-rule="nonzero" fill="#ffffff" stroke="none" />
  <path d="M 605 269  C 608.08 269  610.5 271.42  610.5 274.5  C 610.5 277.58  608.08 280  605 280  C 601.92 280  599.5 277.58  599.5 274.5  C 599.5 271.42  601.92 269  605 269  Z " stroke-width="1" stroke="#797979" fill="none" />
  <path d="M 605 277.5  C 603.32 277.5  602 276.18  602 274.5  C 602 272.82  603.32 271.5  605 271.5  C 606.68 271.5  608 272.82  608 274.5  C 608 276.18  606.68 277.5  605 277.5  " fill-rule="nonzero" fill="#797979" stroke="none" />
</svg>