<?xml version="1.0" encoding="utf-8"?>
<svg version="1.1" xmlns:xlink="http://www.w3.org/1999/xlink" width="12px" height="12px" viewBox="483 268.5  12 12" xmlns="http://www.w3.org/2000/svg">
  <path d="M 489 268.5  C 492.36 268.5  495 271.14  495 274.5  C 495 277.86  492.36 280.5  489 280.5  C 485.64 280.5  483 277.86  483 274.5  C 483 271.14  485.64 268.5  489 268.5  Z " fill-rule="nonzero" fill="#ffffff" stroke="none" />
  <path d="M 489 269  C 492.08 269  494.5 271.42  494.5 274.5  C 494.5 277.58  492.08 280  489 280  C 485.92 280  483.5 277.58  483.5 274.5  C 483.5 271.42  485.92 269  489 269  Z " stroke-width="1" stroke="#797979" fill="none" />
  <path d="M 489 277.5  C 487.32 277.5  486 276.18  486 274.5  C 486 272.82  487.32 271.5  489 271.5  C 490.68 271.5  492 272.82  492 274.5  C 492 276.18  490.68 277.5  489 277.5  " fill-rule="nonzero" fill="#797979" stroke="none" />
</svg>