<?xml version="1.0" encoding="utf-8"?>
<svg version="1.1" xmlns:xlink="http://www.w3.org/1999/xlink" width="12px" height="12px" viewBox="714 268.5  12 12" xmlns="http://www.w3.org/2000/svg">
  <path d="M 720 268.5  C 723.36 268.5  726 271.14  726 274.5  C 726 277.86  723.36 280.5  720 280.5  C 716.64 280.5  714 277.86  714 274.5  C 714 271.14  716.64 268.5  720 268.5  Z " fill-rule="nonzero" fill="#f0f0f0" stroke="none" />
  <path d="M 720 269  C 723.08 269  725.5 271.42  725.5 274.5  C 725.5 277.58  723.08 280  720 280  C 716.92 280  714.5 277.58  714.5 274.5  C 714.5 271.42  716.92 269  720 269  Z " stroke-width="1" stroke="#797979" fill="none" />
  <path d="M 720 277.5  C 718.32 277.5  717 276.18  717 274.5  C 717 272.82  718.32 271.5  720 271.5  C 721.68 271.5  723 272.82  723 274.5  C 723 276.18  721.68 277.5  720 277.5  " fill-rule="nonzero" fill="#797979" stroke="none" />
</svg>