<?xml version="1.0" encoding="utf-8"?>
<svg version="1.1" xmlns:xlink="http://www.w3.org/1999/xlink" width="357px" height="287px" xmlns="http://www.w3.org/2000/svg">
  <g transform="matrix(1 0 0 1 -817 -529 )">
    <path d="M 818 534  A 4 4 0 0 1 822 530 L 1169 530  A 4 4 0 0 1 1173 534 L 1173 811  A 4 4 0 0 1 1169 815 L 822 815  A 4 4 0 0 1 818 811 L 818 534  Z " fill-rule="nonzero" fill="#ffffff" stroke="none" />
    <path d="M 817.5 534  A 4.5 4.5 0 0 1 822 529.5 L 1169 529.5  A 4.5 4.5 0 0 1 1173.5 534 L 1173.5 811  A 4.5 4.5 0 0 1 1169 815.5 L 822 815.5  A 4.5 4.5 0 0 1 817.5 811 L 817.5 534  Z " stroke-width="1" stroke="#797979" fill="none" stroke-opacity="0.117647058823529" />
  </g>
</svg>