<?xml version="1.0" encoding="utf-8"?>
<svg version="1.1" xmlns:xlink="http://www.w3.org/1999/xlink" width="1320px" height="1016px" xmlns="http://www.w3.org/2000/svg">
  <g>
    <path d="M 1 2  A 1 1 0 0 1 2 1 L 1318 1  A 1 1 0 0 1 1319 2 L 1319 1014  A 1 1 0 0 1 1318 1015 L 2 1015  A 1 1 0 0 1 1 1014 L 1 2  Z " fill-rule="nonzero" fill="#bcbcbc" stroke="none" fill-opacity="0.0666666666666667" />
    <path d="M 0.5 2  A 1.5 1.5 0 0 1 2 0.5 L 1318 0.5  A 1.5 1.5 0 0 1 1319.5 2 L 1319.5 1014  A 1.5 1.5 0 0 1 1318 1015.5 L 2 1015.5  A 1.5 1.5 0 0 1 0.5 1014 L 0.5 2  Z " stroke-width="1" stroke="#cccccc" fill="none" stroke-opacity="0.129411764705882" />
  </g>
</svg>