<?xml version="1.0" encoding="utf-8"?>
<svg version="1.1" xmlns:xlink="http://www.w3.org/1999/xlink" width="208px" height="38px" viewBox="440 358  208 38" xmlns="http://www.w3.org/2000/svg">
  <path d="M 441 363  A 4 4 0 0 1 445 359 L 643 359  A 4 4 0 0 1 647 363 L 647 391  A 4 4 0 0 1 643 395 L 445 395  A 4 4 0 0 1 441 391 L 441 363  Z " fill-rule="nonzero" fill="#f0f0f0" stroke="none" />
  <path d="M 440.5 363  A 4.5 4.5 0 0 1 445 358.5 L 643 358.5  A 4.5 4.5 0 0 1 647.5 363 L 647.5 391  A 4.5 4.5 0 0 1 643 395.5 L 445 395.5  A 4.5 4.5 0 0 1 440.5 391 L 440.5 363  Z " stroke-width="1" stroke="#797979" fill="none" stroke-opacity="0.258823529411765" />
</svg>