<?xml version="1.0" encoding="utf-8"?>
<svg version="1.1" xmlns:xlink="http://www.w3.org/1999/xlink" width="208px" height="39px" viewBox="442 455  208 39" xmlns="http://www.w3.org/2000/svg">
  <path d="M 443 460  A 4 4 0 0 1 447 456 L 645 456  A 4 4 0 0 1 649 460 L 649 489  A 4 4 0 0 1 645 493 L 447 493  A 4 4 0 0 1 443 489 L 443 460  Z " fill-rule="nonzero" fill="#ffffff" stroke="none" />
  <path d="M 442.5 460  A 4.5 4.5 0 0 1 447 455.5 L 645 455.5  A 4.5 4.5 0 0 1 649.5 460 L 649.5 489  A 4.5 4.5 0 0 1 645 493.5 L 447 493.5  A 4.5 4.5 0 0 1 442.5 489 L 442.5 460  Z " stroke-width="1" stroke="#797979" fill="none" stroke-opacity="0.258823529411765" />
</svg>