<?xml version="1.0" encoding="utf-8"?>
<svg version="1.1" xmlns:xlink="http://www.w3.org/1999/xlink" width="1545px" height="1520px" xmlns="http://www.w3.org/2000/svg">
  <g transform="matrix(1 0 0 1 28 111 )">
    <path d="M -27 -109  A 1 1 0 0 1 -26 -110 L 1515 -110  A 1 1 0 0 1 1516 -109 L 1516 1407  A 1 1 0 0 1 1515 1408 L -26 1408  A 1 1 0 0 1 -27 1407 L -27 -109  Z " fill-rule="nonzero" fill="#bcbcbc" stroke="none" fill-opacity="0.0666666666666667" />
    <path d="M -27.5 -109  A 1.5 1.5 0 0 1 -26 -110.5 L 1515 -110.5  A 1.5 1.5 0 0 1 1516.5 -109 L 1516.5 1407  A 1.5 1.5 0 0 1 1515 1408.5 L -26 1408.5  A 1.5 1.5 0 0 1 -27.5 1407 L -27.5 -109  Z " stroke-width="1" stroke="#cccccc" fill="none" stroke-opacity="0.129411764705882" />
  </g>
</svg>