<?xml version="1.0" encoding="utf-8"?>
<svg version="1.1" xmlns:xlink="http://www.w3.org/1999/xlink" width="209px" height="36px" viewBox="796 198  209 36" xmlns="http://www.w3.org/2000/svg">
  <path d="M 797 203  A 4 4 0 0 1 801 199 L 1000 199  A 4 4 0 0 1 1004 203 L 1004 229  A 4 4 0 0 1 1000 233 L 801 233  A 4 4 0 0 1 797 229 L 797 203  Z " fill-rule="nonzero" fill="#ffffff" stroke="none" />
  <path d="M 796.5 203  A 4.5 4.5 0 0 1 801 198.5 L 1000 198.5  A 4.5 4.5 0 0 1 1004.5 203 L 1004.5 229  A 4.5 4.5 0 0 1 1000 233.5 L 801 233.5  A 4.5 4.5 0 0 1 796.5 229 L 796.5 203  Z " stroke-width="1" stroke="#797979" fill="none" stroke-opacity="0.258823529411765" />
</svg>