<?xml version="1.0" encoding="utf-8"?>
<svg version="1.1" xmlns:xlink="http://www.w3.org/1999/xlink" width="208px" height="37px" viewBox="443 739  208 37" xmlns="http://www.w3.org/2000/svg">
  <path d="M 444 744  A 4 4 0 0 1 448 740 L 646 740  A 4 4 0 0 1 650 744 L 650 771  A 4 4 0 0 1 646 775 L 448 775  A 4 4 0 0 1 444 771 L 444 744  Z " fill-rule="nonzero" fill="#ffffff" stroke="none" />
  <path d="M 443.5 744  A 4.5 4.5 0 0 1 448 739.5 L 646 739.5  A 4.5 4.5 0 0 1 650.5 744 L 650.5 771  A 4.5 4.5 0 0 1 646 775.5 L 448 775.5  A 4.5 4.5 0 0 1 443.5 771 L 443.5 744  Z " stroke-width="1" stroke="#797979" fill="none" stroke-opacity="0.250980392156863" />
</svg>