<?xml version="1.0" encoding="utf-8"?>
<svg version="1.1" xmlns:xlink="http://www.w3.org/1999/xlink" width="208px" height="39px" viewBox="804 1622  208 39" xmlns="http://www.w3.org/2000/svg">
  <path d="M 805 1627  A 4 4 0 0 1 809 1623 L 1007 1623  A 4 4 0 0 1 1011 1627 L 1011 1656  A 4 4 0 0 1 1007 1660 L 809 1660  A 4 4 0 0 1 805 1656 L 805 1627  Z " fill-rule="nonzero" fill="#f0f0f0" stroke="none" />
  <path d="M 804.5 1627  A 4.5 4.5 0 0 1 809 1622.5 L 1007 1622.5  A 4.5 4.5 0 0 1 1011.5 1627 L 1011.5 1656  A 4.5 4.5 0 0 1 1007 1660.5 L 809 1660.5  A 4.5 4.5 0 0 1 804.5 1656 L 804.5 1627  Z " stroke-width="1" stroke="#797979" fill="none" stroke-opacity="0.203921568627451" />
</svg>