<?xml version="1.0" encoding="utf-8"?>
<svg version="1.1" xmlns:xlink="http://www.w3.org/1999/xlink" width="190px" height="39px" viewBox="816 1837  190 39" xmlns="http://www.w3.org/2000/svg">
  <path d="M 817 1842  A 4 4 0 0 1 821 1838 L 1001 1838  A 4 4 0 0 1 1005 1842 L 1005 1871  A 4 4 0 0 1 1001 1875 L 821 1875  A 4 4 0 0 1 817 1871 L 817 1842  Z " fill-rule="nonzero" fill="#f0f0f0" stroke="none" />
  <path d="M 816.5 1842  A 4.5 4.5 0 0 1 821 1837.5 L 1001 1837.5  A 4.5 4.5 0 0 1 1005.5 1842 L 1005.5 1871  A 4.5 4.5 0 0 1 1001 1875.5 L 821 1875.5  A 4.5 4.5 0 0 1 816.5 1871 L 816.5 1842  Z " stroke-width="1" stroke="#797979" fill="none" stroke-opacity="0.203921568627451" />
</svg>