<?xml version="1.0" encoding="utf-8"?>
<svg version="1.1" xmlns:xlink="http://www.w3.org/1999/xlink" width="208px" height="37px" viewBox="451 1623  208 37" xmlns="http://www.w3.org/2000/svg">
  <path d="M 452 1628  A 4 4 0 0 1 456 1624 L 654 1624  A 4 4 0 0 1 658 1628 L 658 1655  A 4 4 0 0 1 654 1659 L 456 1659  A 4 4 0 0 1 452 1655 L 452 1628  Z " fill-rule="nonzero" fill="#ffffff" stroke="none" />
  <path d="M 451.5 1628  A 4.5 4.5 0 0 1 456 1623.5 L 654 1623.5  A 4.5 4.5 0 0 1 658.5 1628 L 658.5 1655  A 4.5 4.5 0 0 1 654 1659.5 L 456 1659.5  A 4.5 4.5 0 0 1 451.5 1655 L 451.5 1628  Z " stroke-width="1" stroke="#797979" fill="none" stroke-opacity="0.203921568627451" />
</svg>