<?xml version="1.0" encoding="utf-8"?>
<svg version="1.1" xmlns:xlink="http://www.w3.org/1999/xlink" width="561px" height="60px" viewBox="444 851  561 60" xmlns="http://www.w3.org/2000/svg">
  <path d="M 445 856  A 4 4 0 0 1 449 852 L 1000 852  A 4 4 0 0 1 1004 856 L 1004 906  A 4 4 0 0 1 1000 910 L 449 910  A 4 4 0 0 1 445 906 L 445 856  Z " fill-rule="nonzero" fill="#f0f0f0" stroke="none" />
  <path d="M 444.5 856  A 4.5 4.5 0 0 1 449 851.5 L 1000 851.5  A 4.5 4.5 0 0 1 1004.5 856 L 1004.5 906  A 4.5 4.5 0 0 1 1000 910.5 L 449 910.5  A 4.5 4.5 0 0 1 444.5 906 L 444.5 856  Z " stroke-width="1" stroke="#797979" fill="none" stroke-opacity="0.250980392156863" />
</svg>