<?xml version="1.0" encoding="utf-8"?>
<svg version="1.1" xmlns:xlink="http://www.w3.org/1999/xlink" width="12px" height="12px" viewBox="818 2035  12 12" xmlns="http://www.w3.org/2000/svg">
  <path d="M 818.5 2040  A 4.5 4.5 0 0 1 823 2035.5 L 825 2035.5  A 4.5 4.5 0 0 1 829.5 2040 L 829.5 2042  A 4.5 4.5 0 0 1 825 2046.5 L 823 2046.5  A 4.5 4.5 0 0 1 818.5 2042 L 818.5 2040  Z " fill-rule="nonzero" fill="#ffffff" stroke="none" />
  <path d="M 818.5 2040  A 4.5 4.5 0 0 1 823 2035.5 L 825 2035.5  A 4.5 4.5 0 0 1 829.5 2040 L 829.5 2042  A 4.5 4.5 0 0 1 825 2046.5 L 823 2046.5  A 4.5 4.5 0 0 1 818.5 2042 L 818.5 2040  Z " stroke-width="1" stroke="#797979" fill="none" />
  <path d="M 820.571428571429 2041  L 823.142857142857 2043.57142857143  " stroke-width="2.57142857142857" stroke="#797979" fill="none" />
  <path d="M 823.142857142857 2043.57142857143  L 827.428571428571 2037.57142857143  " stroke-width="2.57142857142857" stroke="#797979" fill="none" />
</svg>