<?xml version="1.0" encoding="utf-8"?>
<svg version="1.1" xmlns:xlink="http://www.w3.org/1999/xlink" width="189px" height="37px" viewBox="817 1896  189 37" xmlns="http://www.w3.org/2000/svg">
  <path d="M 818 1901  A 4 4 0 0 1 822 1897 L 1001 1897  A 4 4 0 0 1 1005 1901 L 1005 1928  A 4 4 0 0 1 1001 1932 L 822 1932  A 4 4 0 0 1 818 1928 L 818 1901  Z " fill-rule="nonzero" fill="#ffffff" stroke="none" />
  <path d="M 817.5 1901  A 4.5 4.5 0 0 1 822 1896.5 L 1001 1896.5  A 4.5 4.5 0 0 1 1005.5 1901 L 1005.5 1928  A 4.5 4.5 0 0 1 1001 1932.5 L 822 1932.5  A 4.5 4.5 0 0 1 817.5 1928 L 817.5 1901  Z " stroke-width="1" stroke="#797979" fill="none" stroke-opacity="0.203921568627451" />
</svg>