<?xml version="1.0" encoding="utf-8"?>
<svg version="1.1" xmlns:xlink="http://www.w3.org/1999/xlink" width="561px" height="79px" viewBox="444 936  561 79" xmlns="http://www.w3.org/2000/svg">
  <path d="M 445 941  A 4 4 0 0 1 449 937 L 1000 937  A 4 4 0 0 1 1004 941 L 1004 1010  A 4 4 0 0 1 1000 1014 L 449 1014  A 4 4 0 0 1 445 1010 L 445 941  Z " fill-rule="nonzero" fill="#ffffff" stroke="none" />
  <path d="M 444.5 941  A 4.5 4.5 0 0 1 449 936.5 L 1000 936.5  A 4.5 4.5 0 0 1 1004.5 941 L 1004.5 1010  A 4.5 4.5 0 0 1 1000 1014.5 L 449 1014.5  A 4.5 4.5 0 0 1 444.5 1010 L 444.5 941  Z " stroke-width="1" stroke="#797979" fill="none" stroke-opacity="0.250980392156863" />
</svg>