<?xml version="1.0" encoding="utf-8"?>
<svg version="1.1" xmlns:xlink="http://www.w3.org/1999/xlink" width="208px" height="39px" viewBox="451 1563  208 39" xmlns="http://www.w3.org/2000/svg">
  <path d="M 452 1568  A 4 4 0 0 1 456 1564 L 654 1564  A 4 4 0 0 1 658 1568 L 658 1597  A 4 4 0 0 1 654 1601 L 456 1601  A 4 4 0 0 1 452 1597 L 452 1568  Z " fill-rule="nonzero" fill="#f0f0f0" stroke="none" />
  <path d="M 451.5 1568  A 4.5 4.5 0 0 1 456 1563.5 L 654 1563.5  A 4.5 4.5 0 0 1 658.5 1568 L 658.5 1597  A 4.5 4.5 0 0 1 654 1601.5 L 456 1601.5  A 4.5 4.5 0 0 1 451.5 1597 L 451.5 1568  Z " stroke-width="1" stroke="#797979" fill="none" stroke-opacity="0.250980392156863" />
</svg>