<?xml version="1.0" encoding="utf-8"?>
<svg version="1.1" xmlns:xlink="http://www.w3.org/1999/xlink" width="12px" height="12px" viewBox="585 1046.5  12 12" xmlns="http://www.w3.org/2000/svg">
  <path d="M 591 1046.5  C 594.36 1046.5  597 1049.14  597 1052.5  C 597 1055.86  594.36 1058.5  591 1058.5  C 587.64 1058.5  585 1055.86  585 1052.5  C 585 1049.14  587.64 1046.5  591 1046.5  Z " fill-rule="nonzero" fill="#f0f0f0" stroke="none" />
  <path d="M 591 1047  C 594.08 1047  596.5 1049.42  596.5 1052.5  C 596.5 1055.58  594.08 1058  591 1058  C 587.92 1058  585.5 1055.58  585.5 1052.5  C 585.5 1049.42  587.92 1047  591 1047  Z " stroke-width="1" stroke="#797979" fill="none" />
  <path d="M 591 1055.5  C 589.32 1055.5  588 1054.18  588 1052.5  C 588 1050.82  589.32 1049.5  591 1049.5  C 592.68 1049.5  594 1050.82  594 1052.5  C 594 1054.18  592.68 1055.5  591 1055.5  " fill-rule="nonzero" fill="#797979" stroke="none" />
</svg>