<?xml version="1.0" encoding="utf-8"?>
<svg version="1.1" xmlns:xlink="http://www.w3.org/1999/xlink" width="12px" height="12px" viewBox="918 2035  12 12" xmlns="http://www.w3.org/2000/svg">
  <path d="M 918.5 2040  A 4.5 4.5 0 0 1 923 2035.5 L 925 2035.5  A 4.5 4.5 0 0 1 929.5 2040 L 929.5 2042  A 4.5 4.5 0 0 1 925 2046.5 L 923 2046.5  A 4.5 4.5 0 0 1 918.5 2042 L 918.5 2040  Z " fill-rule="nonzero" fill="#f0f0f0" stroke="none" />
  <path d="M 918.5 2040  A 4.5 4.5 0 0 1 923 2035.5 L 925 2035.5  A 4.5 4.5 0 0 1 929.5 2040 L 929.5 2042  A 4.5 4.5 0 0 1 925 2046.5 L 923 2046.5  A 4.5 4.5 0 0 1 918.5 2042 L 918.5 2040  Z " stroke-width="1" stroke="#797979" fill="none" />
</svg>