<?xml version="1.0" encoding="utf-8"?>
<svg version="1.1" xmlns:xlink="http://www.w3.org/1999/xlink" width="568px" height="64px" viewBox="439 2141  568 64" xmlns="http://www.w3.org/2000/svg">
  <path d="M 440 2146  A 4 4 0 0 1 444 2142 L 1002 2142  A 4 4 0 0 1 1006 2146 L 1006 2200  A 4 4 0 0 1 1002 2204 L 444 2204  A 4 4 0 0 1 440 2200 L 440 2146  Z " fill-rule="nonzero" fill="#f0f0f0" stroke="none" />
  <path d="M 439.5 2146  A 4.5 4.5 0 0 1 444 2141.5 L 1002 2141.5  A 4.5 4.5 0 0 1 1006.5 2146 L 1006.5 2200  A 4.5 4.5 0 0 1 1002 2204.5 L 444 2204.5  A 4.5 4.5 0 0 1 439.5 2200 L 439.5 2146  Z " stroke-width="1" stroke="#797979" fill="none" stroke-opacity="0.203921568627451" />
</svg>