<?xml version="1.0" encoding="utf-8"?>
<svg version="1.1" xmlns:xlink="http://www.w3.org/1999/xlink" width="208px" height="36px" viewBox="445 1955  208 36" xmlns="http://www.w3.org/2000/svg">
  <path d="M 446 1960  A 4 4 0 0 1 450 1956 L 648 1956  A 4 4 0 0 1 652 1960 L 652 1986  A 4 4 0 0 1 648 1990 L 450 1990  A 4 4 0 0 1 446 1986 L 446 1960  Z " fill-rule="nonzero" fill="#ffffff" stroke="none" />
  <path d="M 445.5 1960  A 4.5 4.5 0 0 1 450 1955.5 L 648 1955.5  A 4.5 4.5 0 0 1 652.5 1960 L 652.5 1986  A 4.5 4.5 0 0 1 648 1990.5 L 450 1990.5  A 4.5 4.5 0 0 1 445.5 1986 L 445.5 1960  Z " stroke-width="1" stroke="#797979" fill="none" stroke-opacity="0.298039215686275" />
</svg>