<?xml version="1.0" encoding="utf-8"?>
<svg version="1.1" xmlns:xlink="http://www.w3.org/1999/xlink" width="12px" height="12px" viewBox="539 101.5  12 12" xmlns="http://www.w3.org/2000/svg">
  <path d="M 539.5 106.5  A 4.5 4.5 0 0 1 544 102 L 546 102  A 4.5 4.5 0 0 1 550.5 106.5 L 550.5 108.5  A 4.5 4.5 0 0 1 546 113 L 544 113  A 4.5 4.5 0 0 1 539.5 108.5 L 539.5 106.5  Z " fill-rule="nonzero" fill="#f0f0f0" stroke="none" />
  <path d="M 539.5 106.5  A 4.5 4.5 0 0 1 544 102 L 546 102  A 4.5 4.5 0 0 1 550.5 106.5 L 550.5 108.5  A 4.5 4.5 0 0 1 546 113 L 544 113  A 4.5 4.5 0 0 1 539.5 108.5 L 539.5 106.5  Z " stroke-width="1" stroke="#797979" fill="none" />
  <path d="M 541.571428571429 107.5  L 544.142857142857 110.071428571429  " stroke-width="2.57142857142857" stroke="#797979" fill="none" />
  <path d="M 544.142857142857 110.071428571429  L 548.428571428571 104.071428571429  " stroke-width="2.57142857142857" stroke="#797979" fill="none" />
</svg>