<?xml version="1.0" encoding="utf-8"?>
<svg version="1.1" xmlns:xlink="http://www.w3.org/1999/xlink" width="1308px" height="322px" xmlns="http://www.w3.org/2000/svg">
  <g transform="matrix(1 0 0 1 -29 -333 )">
    <path d="M 30 338  A 4 4 0 0 1 34 334 L 1332 334  A 4 4 0 0 1 1336 338 L 1336 650  A 4 4 0 0 1 1332 654 L 34 654  A 4 4 0 0 1 30 650 L 30 338  Z " fill-rule="nonzero" fill="#ffffff" stroke="none" />
    <path d="M 29.5 338  A 4.5 4.5 0 0 1 34 333.5 L 1332 333.5  A 4.5 4.5 0 0 1 1336.5 338 L 1336.5 650  A 4.5 4.5 0 0 1 1332 654.5 L 34 654.5  A 4.5 4.5 0 0 1 29.5 650 L 29.5 338  Z " stroke-width="1" stroke="#797979" fill="none" stroke-opacity="0.176470588235294" />
  </g>
</svg>