<?xml version="1.0" encoding="utf-8"?>
<svg version="1.1" xmlns:xlink="http://www.w3.org/1999/xlink" width="18px" height="18px" xmlns="http://www.w3.org/2000/svg">
  <g transform="matrix(1 0 0 1 -1262 -357 )">
    <path d="M 17.5475543478261 7.9602053915276  C 17.8491847826087 8.22978177150192  18 8.57637997432606  18 9  C 18 9.41591784338896  17.8491847826087 9.76636713735558  17.5475543478261 10.0513478818999  L 9.58695652173913 17.5725288831836  C 9.26902173913044 17.8575096277279  8.89809782608696 18  8.4741847826087 18  C 8.05842391304348 18  7.69157608695652 17.8575096277279  7.37364130434783 17.5725288831836  L 6.45652173913043 16.7060333761232  C 6.14673913043478 16.413350449294  5.99184782608696 16.0629011553273  5.99184782608696 15.6546854942234  C 5.99184782608696 15.2464698331194  6.14673913043478 14.8960205391528  6.45652173913043 14.6033376123235  L 10.039402173913 11.2182284980745  L 1.43070652173913 11.2182284980745  C 1.00679347826087 11.2182284980745  0.662364130434783 11.0738125802311  0.39741847826087 10.7849807445443  C 0.132472826086957 10.4961489088575  0 10.1476251604621  0 9.73940949935815  L 0 8.26059050064185  C 0 7.85237483953787  0.132472826086957 7.50385109114249  0.39741847826087 7.21501925545571  C 0.662364130434783 6.92618741976893  1.00679347826087 6.78177150192555  1.43070652173913 6.78177150192555  L 10.039402173913 6.78177150192555  L 6.45652173913043 3.38510911424904  C 6.14673913043478 3.10783055198973  5.99184782608696 2.7612323491656  5.99184782608696 2.34531450577664  C 5.99184782608696 1.92939666238768  6.14673913043478 1.58279845956354  6.45652173913043 1.30551989730424  L 7.37364130434783 0.439024390243903  C 7.68342391304348 0.146341463414633  8.05027173913044 0  8.4741847826087 0  C 8.90625 0  9.27717391304348 0.146341463414633  9.58695652173913 0.439024390243903  L 17.5475543478261 7.9602053915276  Z " fill-rule="nonzero" fill="#000000" stroke="none" transform="matrix(1 0 0 1 1262 357 )" />
  </g>
</svg>