<?xml version="1.0" encoding="utf-8"?>
<svg version="1.1" xmlns:xlink="http://www.w3.org/1999/xlink" width="1308px" height="64px" xmlns="http://www.w3.org/2000/svg">
  <g transform="matrix(1 0 0 1 -29 -678 )">
    <path d="M 30 683  A 4 4 0 0 1 34 679 L 1332 679  A 4 4 0 0 1 1336 683 L 1336 737  A 4 4 0 0 1 1332 741 L 34 741  A 4 4 0 0 1 30 737 L 30 683  Z " fill-rule="nonzero" fill="#ffffff" stroke="none" />
    <path d="M 29.5 683  A 4.5 4.5 0 0 1 34 678.5 L 1332 678.5  A 4.5 4.5 0 0 1 1336.5 683 L 1336.5 737  A 4.5 4.5 0 0 1 1332 741.5 L 34 741.5  A 4.5 4.5 0 0 1 29.5 737 L 29.5 683  Z " stroke-width="1" stroke="#797979" fill="none" stroke-opacity="0.176470588235294" />
  </g>
</svg>