<?xml version="1.0" encoding="utf-8"?>
<svg version="1.1" xmlns:xlink="http://www.w3.org/1999/xlink" width="18px" height="18px" xmlns="http://www.w3.org/2000/svg">
  <g transform="matrix(1 0 0 1 -1262 -705 )">
    <path d="M 17.5725288831836 7.44032366824005  C 17.8575096277279 7.75590020229265  18 8.12407282535401  18 8.54484153742414  C 18 8.97370195549562  17.8575096277279 9.3378287255563  17.5725288831836 9.6372218476062  L 10.0513478818999 17.5509103169252  C 9.75096277278562 17.8503034389751  9.400513478819 18  9 18  C 8.59178433889602 18  8.24518613607189 17.8503034389751  7.9602053915276 17.5509103169252  L 0.439024390243902 9.6372218476062  C 0.146341463414634 9.34592043155765  0 8.98179366149697  0 8.54484153742414  C 0 8.11598111935266  0.146341463414634 7.7478084962913  0.439024390243902 7.44032366824005  L 1.29396662387677 6.53000674308834  C 1.59435173299101 6.23061362103843  1.94480102695764 6.08091706001349  2.34531450577664 6.08091706001349  C 2.75353016688062 6.08091706001349  3.10012836970475 6.23061362103843  3.38510911424904 6.53000674308834  L 6.78177150192555 10.0984490896831  L 6.78177150192555 1.55360755225893  C 6.78177150192555 1.13283884018881  6.92811296534018 0.768712070128117  7.22079589216945 0.461227242076872  C 7.51347881899872 0.153742414025621  7.86007702182285 0  8.26059050064185 0  L 9.73940949935815 0  C 10.1399229781772 0  10.4865211810013 0.153742414025621  10.7792041078306 0.461227242076872  C 11.0718870346598 0.768712070128117  11.2182284980745 1.13283884018881  11.2182284980745 1.55360755225893  L 11.2182284980745 10.0984490896831  L 14.614890885751 6.53000674308834  C 14.8998716302953 6.23061362103843  15.2464698331194 6.08091706001349  15.6546854942234 6.08091706001349  C 16.0551989730424 6.08091706001349  16.405648267009 6.23061362103843  16.7060333761232 6.53000674308834  L 17.5725288831836 7.44032366824005  Z " fill-rule="nonzero" fill="#000000" stroke="none" transform="matrix(1 0 0 1 1262 705 )" />
  </g>
</svg>