<?xml version="1.0" encoding="utf-8"?>
<svg version="1.1" xmlns:xlink="http://www.w3.org/1999/xlink" width="10px" height="10px" xmlns="http://www.w3.org/2000/svg">
  <g transform="matrix(1 0 0 1 -232 -529 )">
    <path d="M 237 529  C 239.8 529  242 531.2  242 534  C 242 536.8  239.8 539  237 539  C 234.2 539  232 536.8  232 534  C 232 531.2  234.2 529  237 529  Z " fill-rule="nonzero" fill="#ccc1be" stroke="none" />
    <path d="M 237 529.5  C 239.52 529.5  241.5 531.48  241.5 534  C 241.5 536.52  239.52 538.5  237 538.5  C 234.48 538.5  232.5 536.52  232.5 534  C 232.5 531.48  234.48 529.5  237 529.5  Z " stroke-width="1" stroke="#ffffff" fill="none" />
  </g>
</svg>