<?xml version="1.0" encoding="utf-8"?>
<svg version="1.1" xmlns:xlink="http://www.w3.org/1999/xlink" width="573px" height="60px" viewBox="158 443  573 60" xmlns="http://www.w3.org/2000/svg">
  <path d="M 159 448  A 4 4 0 0 1 163 444 L 726 444  A 4 4 0 0 1 730 448 L 730 498  A 4 4 0 0 1 726 502 L 163 502  A 4 4 0 0 1 159 498 L 159 448  Z " fill-rule="nonzero" fill="#ffffff" stroke="none" />
  <path d="M 158.5 448  A 4.5 4.5 0 0 1 163 443.5 L 726 443.5  A 4.5 4.5 0 0 1 730.5 448 L 730.5 498  A 4.5 4.5 0 0 1 726 502.5 L 163 502.5  A 4.5 4.5 0 0 1 158.5 498 L 158.5 448  Z " stroke-width="1" stroke="#797979" fill="none" stroke-opacity="0.101960784313725" />
</svg>