<?xml version="1.0" encoding="utf-8"?>
<svg version="1.1" xmlns:xlink="http://www.w3.org/1999/xlink" width="208px" height="39px" viewBox="158 387  208 39" xmlns="http://www.w3.org/2000/svg">
  <path d="M 159 392  A 4 4 0 0 1 163 388 L 361 388  A 4 4 0 0 1 365 392 L 365 421  A 4 4 0 0 1 361 425 L 163 425  A 4 4 0 0 1 159 421 L 159 392  Z " fill-rule="nonzero" fill="#ffffff" stroke="none" />
  <path d="M 158.5 392  A 4.5 4.5 0 0 1 163 387.5 L 361 387.5  A 4.5 4.5 0 0 1 365.5 392 L 365.5 421  A 4.5 4.5 0 0 1 361 425.5 L 163 425.5  A 4.5 4.5 0 0 1 158.5 421 L 158.5 392  Z " stroke-width="1" stroke="#797979" fill="none" stroke-opacity="0.101960784313725" />
</svg>