<?xml version="1.0" encoding="utf-8"?>
<svg version="1.1" xmlns:xlink="http://www.w3.org/1999/xlink" width="572px" height="135px" viewBox="159 577  572 135" xmlns="http://www.w3.org/2000/svg">
  <path d="M 160 582  A 4 4 0 0 1 164 578 L 726 578  A 4 4 0 0 1 730 582 L 730 707  A 4 4 0 0 1 726 711 L 164 711  A 4 4 0 0 1 160 707 L 160 582  Z " fill-rule="nonzero" fill="#f0f0f0" stroke="none" />
  <path d="M 159.5 582  A 4.5 4.5 0 0 1 164 577.5 L 726 577.5  A 4.5 4.5 0 0 1 730.5 582 L 730.5 707  A 4.5 4.5 0 0 1 726 711.5 L 164 711.5  A 4.5 4.5 0 0 1 159.5 707 L 159.5 582  Z " stroke-width="1" stroke="#797979" fill="none" stroke-opacity="0.101960784313725" />
</svg>