<?xml version="1.0" encoding="utf-8"?>
<svg version="1.1" xmlns:xlink="http://www.w3.org/1999/xlink" width="208px" height="38px" viewBox="159 720  208 38" xmlns="http://www.w3.org/2000/svg">
  <path d="M 160 725  A 4 4 0 0 1 164 721 L 362 721  A 4 4 0 0 1 366 725 L 366 753  A 4 4 0 0 1 362 757 L 164 757  A 4 4 0 0 1 160 753 L 160 725  Z " fill-rule="nonzero" fill="#ffffff" stroke="none" />
  <path d="M 159.5 725  A 4.5 4.5 0 0 1 164 720.5 L 362 720.5  A 4.5 4.5 0 0 1 366.5 725 L 366.5 753  A 4.5 4.5 0 0 1 362 757.5 L 164 757.5  A 4.5 4.5 0 0 1 159.5 753 L 159.5 725  Z " stroke-width="1" stroke="#797979" fill="none" stroke-opacity="0.101960784313725" />
</svg>