<?xml version="1.0" encoding="utf-8"?>
<svg version="1.1" xmlns:xlink="http://www.w3.org/1999/xlink" width="208px" height="39px" viewBox="158 70  208 39" xmlns="http://www.w3.org/2000/svg">
  <path d="M 159 75  A 4 4 0 0 1 163 71 L 361 71  A 4 4 0 0 1 365 75 L 365 104  A 4 4 0 0 1 361 108 L 163 108  A 4 4 0 0 1 159 104 L 159 75  Z " fill-rule="nonzero" fill="#ffffff" stroke="none" fill-opacity="0.996078431372549" />
  <path d="M 158.5 75  A 4.5 4.5 0 0 1 163 70.5 L 361 70.5  A 4.5 4.5 0 0 1 365.5 75 L 365.5 104  A 4.5 4.5 0 0 1 361 108.5 L 163 108.5  A 4.5 4.5 0 0 1 158.5 104 L 158.5 75  Z " stroke-width="1" stroke="#797979" fill="none" stroke-opacity="0.101960784313725" />
</svg>