<?xml version="1.0" encoding="utf-8"?>
<svg version="1.1" xmlns:xlink="http://www.w3.org/1999/xlink" width="208px" height="37px" viewBox="158 334  208 37" xmlns="http://www.w3.org/2000/svg">
  <path d="M 159 339  A 4 4 0 0 1 163 335 L 361 335  A 4 4 0 0 1 365 339 L 365 366  A 4 4 0 0 1 361 370 L 163 370  A 4 4 0 0 1 159 366 L 159 339  Z " fill-rule="nonzero" fill="#f0f0f0" stroke="none" />
  <path d="M 158.5 339  A 4.5 4.5 0 0 1 163 334.5 L 361 334.5  A 4.5 4.5 0 0 1 365.5 339 L 365.5 366  A 4.5 4.5 0 0 1 361 370.5 L 163 370.5  A 4.5 4.5 0 0 1 158.5 366 L 158.5 339  Z " stroke-width="1" stroke="#797979" fill="none" stroke-opacity="0.101960784313725" />
</svg>