<?xml version="1.0" encoding="utf-8"?>
<svg version="1.1" xmlns:xlink="http://www.w3.org/1999/xlink" width="209px" height="36px" viewBox="157 140  209 36" xmlns="http://www.w3.org/2000/svg">
  <path d="M 158 145  A 4 4 0 0 1 162 141 L 361 141  A 4 4 0 0 1 365 145 L 365 171  A 4 4 0 0 1 361 175 L 162 175  A 4 4 0 0 1 158 171 L 158 145  Z " fill-rule="nonzero" fill="#ffffff" stroke="none" />
  <path d="M 157.5 145  A 4.5 4.5 0 0 1 162 140.5 L 361 140.5  A 4.5 4.5 0 0 1 365.5 145 L 365.5 171  A 4.5 4.5 0 0 1 361 175.5 L 162 175.5  A 4.5 4.5 0 0 1 157.5 171 L 157.5 145  Z " stroke-width="1" stroke="#797979" fill="none" stroke-opacity="0.101960784313725" />
</svg>