<?xml version="1.0" encoding="utf-8"?>
<svg version="1.1" xmlns:xlink="http://www.w3.org/1999/xlink" width="794px" height="214px" xmlns="http://www.w3.org/2000/svg">
  <g transform="matrix(1 0 0 1 0 -118 )">
    <path d="M 1 123  A 4 4 0 0 1 5 119 L 789 119  A 4 4 0 0 1 793 123 L 793 327  A 4 4 0 0 1 789 331 L 5 331  A 4 4 0 0 1 1 327 L 1 123  Z " fill-rule="nonzero" fill="#ffffff" stroke="none" />
    <path d="M 0.5 123  A 4.5 4.5 0 0 1 5 118.5 L 789 118.5  A 4.5 4.5 0 0 1 793.5 123 L 793.5 327  A 4.5 4.5 0 0 1 789 331.5 L 5 331.5  A 4.5 4.5 0 0 1 0.5 327 L 0.5 123  Z " stroke-width="1" stroke="#797979" fill="none" stroke-opacity="0.101960784313725" />
  </g>
</svg>