<?xml version="1.0" encoding="utf-8"?>
<svg version="1.1" xmlns:xlink="http://www.w3.org/1999/xlink" width="12px" height="12px" viewBox="340 825.5  12 12" xmlns="http://www.w3.org/2000/svg">
  <path d="M 346 825.5  C 349.36 825.5  352 828.14  352 831.5  C 352 834.86  349.36 837.5  346 837.5  C 342.64 837.5  340 834.86  340 831.5  C 340 828.14  342.64 825.5  346 825.5  Z " fill-rule="nonzero" fill="#ffffff" stroke="none" />
  <path d="M 346 826  C 349.08 826  351.5 828.42  351.5 831.5  C 351.5 834.58  349.08 837  346 837  C 342.92 837  340.5 834.58  340.5 831.5  C 340.5 828.42  342.92 826  346 826  Z " stroke-width="1" stroke="#797979" fill="none" />
  <path d="M 346 834.5  C 344.32 834.5  343 833.18  343 831.5  C 343 829.82  344.32 828.5  346 828.5  C 347.68 828.5  349 829.82  349 831.5  C 349 833.18  347.68 834.5  346 834.5  " fill-rule="nonzero" fill="#797979" stroke="none" />
</svg>