<?xml version="1.0" encoding="utf-8"?>
<svg version="1.1" xmlns:xlink="http://www.w3.org/1999/xlink" width="12px" height="12px" viewBox="382 492  12 12" xmlns="http://www.w3.org/2000/svg">
  <path d="M 388 492  C 391.36 492  394 494.64  394 498  C 394 501.36  391.36 504  388 504  C 384.64 504  382 501.36  382 498  C 382 494.64  384.64 492  388 492  Z " fill-rule="nonzero" fill="#ffffff" stroke="none" />
  <path d="M 388 492.5  C 391.08 492.5  393.5 494.92  393.5 498  C 393.5 501.08  391.08 503.5  388 503.5  C 384.92 503.5  382.5 501.08  382.5 498  C 382.5 494.92  384.92 492.5  388 492.5  Z " stroke-width="1" stroke="#797979" fill="none" />
  <path d="M 388 501  C 386.32 501  385 499.68  385 498  C 385 496.32  386.32 495  388 495  C 389.68 495  391 496.32  391 498  C 391 499.68  389.68 501  388 501  " fill-rule="nonzero" fill="#797979" stroke="none" />
</svg>