<?xml version="1.0" encoding="utf-8"?>
<svg version="1.1" xmlns:xlink="http://www.w3.org/1999/xlink" width="12px" height="12px" viewBox="453 492  12 12" xmlns="http://www.w3.org/2000/svg">
  <path d="M 459 492  C 462.36 492  465 494.64  465 498  C 465 501.36  462.36 504  459 504  C 455.64 504  453 501.36  453 498  C 453 494.64  455.64 492  459 492  Z " fill-rule="nonzero" fill="#ffffff" stroke="none" />
  <path d="M 459 492.5  C 462.08 492.5  464.5 494.92  464.5 498  C 464.5 501.08  462.08 503.5  459 503.5  C 455.92 503.5  453.5 501.08  453.5 498  C 453.5 494.92  455.92 492.5  459 492.5  Z " stroke-width="1" stroke="#797979" fill="none" />
  <path d="M 459 501  C 457.32 501  456 499.68  456 498  C 456 496.32  457.32 495  459 495  C 460.68 495  462 496.32  462 498  C 462 499.68  460.68 501  459 501  " fill-rule="nonzero" fill="#797979" stroke="none" />
</svg>