<?xml version="1.0" encoding="utf-8"?>
<svg version="1.1" xmlns:xlink="http://www.w3.org/1999/xlink" width="12px" height="12px" viewBox="382 437  12 12" xmlns="http://www.w3.org/2000/svg">
  <path d="M 388 437  C 391.36 437  394 439.64  394 443  C 394 446.36  391.36 449  388 449  C 384.64 449  382 446.36  382 443  C 382 439.64  384.64 437  388 437  Z " fill-rule="nonzero" fill="#ffffff" stroke="none" />
  <path d="M 388 437.5  C 391.08 437.5  393.5 439.92  393.5 443  C 393.5 446.08  391.08 448.5  388 448.5  C 384.92 448.5  382.5 446.08  382.5 443  C 382.5 439.92  384.92 437.5  388 437.5  Z " stroke-width="1" stroke="#797979" fill="none" />
  <path d="M 388 446  C 386.32 446  385 444.68  385 443  C 385 441.32  386.32 440  388 440  C 389.68 440  391 441.32  391 443  C 391 444.68  389.68 446  388 446  " fill-rule="nonzero" fill="#797979" stroke="none" />
</svg>