<?xml version="1.0" encoding="utf-8"?>
<svg version="1.1" xmlns:xlink="http://www.w3.org/1999/xlink" width="12px" height="12px" viewBox="453 437  12 12" xmlns="http://www.w3.org/2000/svg">
  <path d="M 459 437  C 462.36 437  465 439.64  465 443  C 465 446.36  462.36 449  459 449  C 455.64 449  453 446.36  453 443  C 453 439.64  455.64 437  459 437  Z " fill-rule="nonzero" fill="#f0f0f0" stroke="none" />
  <path d="M 459 437.5  C 462.08 437.5  464.5 439.92  464.5 443  C 464.5 446.08  462.08 448.5  459 448.5  C 455.92 448.5  453.5 446.08  453.5 443  C 453.5 439.92  455.92 437.5  459 437.5  Z " stroke-width="1" stroke="#797979" fill="none" />
  <path d="M 459 446  C 457.32 446  456 444.68  456 443  C 456 441.32  457.32 440  459 440  C 460.68 440  462 441.32  462 443  C 462 444.68  460.68 446  459 446  " fill-rule="nonzero" fill="#797979" stroke="none" />
</svg>