<?xml version="1.0" encoding="utf-8"?>
<svg version="1.1" xmlns:xlink="http://www.w3.org/1999/xlink" width="30px" height="22px" xmlns="http://www.w3.org/2000/svg">
  <g transform="matrix(1 0 0 1 -52 -361 )">
    <path d="M 27.7056050288109 13.15625  C 27.8941854374018 12.9270833333333  27.9884756416972 12.7239583333333  27.9884756416972 12.546875  C 27.9884756416972 12.1822916666667  27.710843373494 12  27.1555788370875 12  L 10.0576217915139 12  C 9.63855421686747 12  9.19067574646412 12.1119791666667  8.71398638030382 12.3359375  C 8.23729701414353 12.5598958333333  7.8627553693033 12.8333333333333  7.59036144578313 13.15625  L 2.97014143530644 18.828125  C 2.78156102671556 19.078125  2.68727082242012 19.2864583333333  2.68727082242012 19.453125  C 2.68727082242012 19.8177083333333  2.96490309062336 20  3.52016762702986 20  L 20.6181246726035 20  C 21.0371922472499 20  21.4876898899948 19.8854166666667  21.9696176008381 19.65625  C 22.4515453116815 19.4270833333333  22.8234677841802 19.1510416666667  23.0853850183342 18.828125  L 27.7056050288109 13.15625  Z M 7.85751702462022 10.5390625  C 8.61183865898376 10.1796875  9.34520691461498 10  10.0576217915139 10  L 22.1267679413305 10  L 22.1267679413305 7.5  C 22.1267679413305 7.08333333333333  21.9800942902043 6.72916666666667  21.6867469879518 6.4375  C 21.3933996856993 6.14583333333333  21.0371922472499 6  20.6181246726035 6  L 11.566265060241 6  C 11.1471974855946 6  10.7909900471451 5.85416666666666  10.4976427448926 5.5625  C 10.2042954426401 5.27083333333333  10.0576217915139 4.91666666666666  10.0576217915139 4.5  L 10.0576217915139 3.5  C 10.0576217915139 3.08333333333333  9.91094814038764 2.72916666666666  9.61760083813515 2.4375  C 9.32425353588266 2.14583333333333  8.96804609743321 2  8.5489785227868 2  L 3.52016762702986 2  C 3.10110005238345 2  2.744892613934 2.14583333333333  2.45154531168151 2.4375  C 2.15819800942902 2.72916666666666  2.01152435830278 3.08333333333333  2 3.5  L 2 16.828125  L 6.03457307490833 11.90625  C 6.49554740701938 11.3541666666667  7.10319539025668 10.8984375  7.85751702462022 10.5390625  Z M 29.7642744892614 11.484375  C 29.9214248297538 11.8177083333333  30 12.171875  30 12.546875  C 30 13.1927083333333  29.7590361445783 13.8177083333333  29.2771084337349 14.421875  L 24.641173389209 20.09375  C 24.1906757464641 20.6458333333333  23.5830277632268 21.1015625  22.8182294394971 21.4609375  C 22.0534311157674 21.8203125  21.3200628601362 22  20.6181246726035 22  L 3.52016762702986 22  C 2.55631220534311 22  1.72865374541645 21.65625  1.03719224724987 20.96875  C 0.34573074908329 20.28125  0 19.4583333333333  0 18.5  L 0 3.5  C 0 2.54166666666666  0.34573074908329 1.71875  1.03719224724987 1.03125  C 1.72865374541645 0.34375  2.55631220534311 0  3.52016762702986 0  L 8.5489785227868 0  C 9.51283394447355 0  10.3404924044002 0.34375  11.0319539025668 1.03125  C 11.7234154007334 1.71875  12.0691461498167 2.54166666666666  12.0691461498167 3.5  L 12.0691461498167 4  L 20.6181246726035 4  C 21.5819800942902 4  22.4096385542169 4.34375  23.1011000523834 5.03125  C 23.79256155055 5.71875  24.1382922996333 6.54166666666666  24.1382922996333 7.5  L 24.1382922996333 10  L 27.1555788370875 10  C 27.7213200628601 10  28.2399161864851 10.1276041666667  28.7113672079623 10.3828125  C 29.1828182294395 10.6380208333333  29.5337873232059 11.0052083333333  29.7642744892614 11.484375  Z " fill-rule="nonzero" fill="#000000" stroke="none" transform="matrix(1 0 0 1 52 361 )" />
  </g>
</svg>