<?xml version="1.0" encoding="utf-8"?>
<svg version="1.1" xmlns:xlink="http://www.w3.org/1999/xlink" width="12px" height="12px" viewBox="15 463  12 12" xmlns="http://www.w3.org/2000/svg">
  <path d="M 15.5 468  A 4.5 4.5 0 0 1 20 463.5 L 22 463.5  A 4.5 4.5 0 0 1 26.5 468 L 26.5 470  A 4.5 4.5 0 0 1 22 474.5 L 20 474.5  A 4.5 4.5 0 0 1 15.5 470 L 15.5 468  Z " fill-rule="nonzero" fill="#f0f0f0" stroke="none" />
  <path d="M 15.5 468  A 4.5 4.5 0 0 1 20 463.5 L 22 463.5  A 4.5 4.5 0 0 1 26.5 468 L 26.5 470  A 4.5 4.5 0 0 1 22 474.5 L 20 474.5  A 4.5 4.5 0 0 1 15.5 470 L 15.5 468  Z " stroke-width="1" stroke="#797979" fill="none" />
  <path d="M 17.5714285714286 469  L 20.1428571428571 471.571428571429  " stroke-width="2.57142857142857" stroke="#797979" fill="none" />
  <path d="M 20.1428571428571 471.571428571429  L 24.4285714285714 465.571428571429  " stroke-width="2.57142857142857" stroke="#797979" fill="none" />
</svg>