<?xml version="1.0" encoding="utf-8"?>
<svg version="1.1" xmlns:xlink="http://www.w3.org/1999/xlink" width="12px" height="12px" viewBox="14 280  12 12" xmlns="http://www.w3.org/2000/svg">
  <path d="M 14.5 285  A 4.5 4.5 0 0 1 19 280.5 L 21 280.5  A 4.5 4.5 0 0 1 25.5 285 L 25.5 287  A 4.5 4.5 0 0 1 21 291.5 L 19 291.5  A 4.5 4.5 0 0 1 14.5 287 L 14.5 285  Z " fill-rule="nonzero" fill="#ffffff" stroke="none" />
  <path d="M 14.5 285  A 4.5 4.5 0 0 1 19 280.5 L 21 280.5  A 4.5 4.5 0 0 1 25.5 285 L 25.5 287  A 4.5 4.5 0 0 1 21 291.5 L 19 291.5  A 4.5 4.5 0 0 1 14.5 287 L 14.5 285  Z " stroke-width="1" stroke="#797979" fill="none" />
  <path d="M 16.5714285714286 286  L 19.1428571428571 288.571428571429  " stroke-width="2.57142857142857" stroke="#797979" fill="none" />
  <path d="M 19.1428571428571 288.571428571429  L 23.4285714285714 282.571428571429  " stroke-width="2.57142857142857" stroke="#797979" fill="none" />
</svg>