<?xml version="1.0" encoding="utf-8"?>
<svg version="1.1" xmlns:xlink="http://www.w3.org/1999/xlink" width="12px" height="12px" viewBox="14 422  12 12" xmlns="http://www.w3.org/2000/svg">
  <path d="M 14.5 427  A 4.5 4.5 0 0 1 19 422.5 L 21 422.5  A 4.5 4.5 0 0 1 25.5 427 L 25.5 429  A 4.5 4.5 0 0 1 21 433.5 L 19 433.5  A 4.5 4.5 0 0 1 14.5 429 L 14.5 427  Z " fill-rule="nonzero" fill="#f0f0f0" stroke="none" />
  <path d="M 14.5 427  A 4.5 4.5 0 0 1 19 422.5 L 21 422.5  A 4.5 4.5 0 0 1 25.5 427 L 25.5 429  A 4.5 4.5 0 0 1 21 433.5 L 19 433.5  A 4.5 4.5 0 0 1 14.5 429 L 14.5 427  Z " stroke-width="1" stroke="#797979" fill="none" />
  <path d="M 16.5714285714286 428  L 19.1428571428571 430.571428571429  " stroke-width="2.57142857142857" stroke="#797979" fill="none" />
  <path d="M 19.1428571428571 430.571428571429  L 23.4285714285714 424.571428571429  " stroke-width="2.57142857142857" stroke="#797979" fill="none" />
</svg>