<?xml version="1.0" encoding="utf-8"?>
<svg version="1.1" xmlns:xlink="http://www.w3.org/1999/xlink" width="12px" height="12px" viewBox="14 381  12 12" xmlns="http://www.w3.org/2000/svg">
  <path d="M 14.5 386  A 4.5 4.5 0 0 1 19 381.5 L 21 381.5  A 4.5 4.5 0 0 1 25.5 386 L 25.5 388  A 4.5 4.5 0 0 1 21 392.5 L 19 392.5  A 4.5 4.5 0 0 1 14.5 388 L 14.5 386  Z " fill-rule="nonzero" fill="#ffffff" stroke="none" />
  <path d="M 14.5 386  A 4.5 4.5 0 0 1 19 381.5 L 21 381.5  A 4.5 4.5 0 0 1 25.5 386 L 25.5 388  A 4.5 4.5 0 0 1 21 392.5 L 19 392.5  A 4.5 4.5 0 0 1 14.5 388 L 14.5 386  Z " stroke-width="1" stroke="#797979" fill="none" />
  <path d="M 16.5714285714286 387  L 19.1428571428571 389.571428571429  " stroke-width="2.57142857142857" stroke="#797979" fill="none" />
  <path d="M 19.1428571428571 389.571428571429  L 23.4285714285714 383.571428571429  " stroke-width="2.57142857142857" stroke="#797979" fill="none" />
</svg>