<?xml version="1.0" encoding="utf-8"?>
<svg version="1.1" xmlns:xlink="http://www.w3.org/1999/xlink" width="12px" height="12px" viewBox="14 133  12 12" xmlns="http://www.w3.org/2000/svg">
  <path d="M 14.5 138  A 4.5 4.5 0 0 1 19 133.5 L 21 133.5  A 4.5 4.5 0 0 1 25.5 138 L 25.5 140  A 4.5 4.5 0 0 1 21 144.5 L 19 144.5  A 4.5 4.5 0 0 1 14.5 140 L 14.5 138  Z " fill-rule="nonzero" fill="#ffffff" stroke="none" />
  <path d="M 14.5 138  A 4.5 4.5 0 0 1 19 133.5 L 21 133.5  A 4.5 4.5 0 0 1 25.5 138 L 25.5 140  A 4.5 4.5 0 0 1 21 144.5 L 19 144.5  A 4.5 4.5 0 0 1 14.5 140 L 14.5 138  Z " stroke-width="1" stroke="#797979" fill="none" />
  <path d="M 16.5714285714286 139  L 19.1428571428571 141.571428571429  " stroke-width="2.57142857142857" stroke="#797979" fill="none" />
  <path d="M 19.1428571428571 141.571428571429  L 23.4285714285714 135.571428571429  " stroke-width="2.57142857142857" stroke="#797979" fill="none" />
</svg>