<?xml version="1.0" encoding="utf-8"?>
<svg version="1.1" xmlns:xlink="http://www.w3.org/1999/xlink" width="99px" height="55px" xmlns="http://www.w3.org/2000/svg">
  <defs>
    <mask fill="white" id="clip277">
      <path d="M 414 303  C 411.225 303  409 300.775  409 298  L 409 253  C 409 250.225  411.225 248  414 248  L 503 248  C 505.775 248  508 250.225  508 253  L 508 298  C 508 300.775  505.775 303  503 303  " fill-rule="evenodd" />
    </mask>
  </defs>
  <g transform="matrix(1 0 0 1 -409 -248 )">
    <path d="M 409 248  L 508 248  L 508 303  L 409 303  L 409 248  " fill-rule="nonzero" fill="#cccccc" stroke="none" mask="url(#clip277)" />
    <path d="M 413 252  L 504 252  L 504 299  L 413 299  L 413 252  " fill-rule="nonzero" fill="#ffffff" stroke="none" mask="url(#clip277)" />
    <path d="M 464.605 264.5  C 462.295 264.5  460.48 262.685  460.48 260.375  C 460.48 258.065  462.295 256.25  464.605 256.25  C 466.915 256.25  468.73 258.065  468.73 260.375  C 468.73 262.685  466.915 264.5  464.605 264.5  " fill-rule="nonzero" fill="#cccccc" stroke="none" mask="url(#clip277)" />
    <path d="M 415 298  L 415 273.8  L 437 262.8  L 467.8 283.333333333333  L 485.4 269.4  L 503 283.333333333333  L 503 298  L 415 298  " fill-rule="nonzero" fill="#169bd5" stroke="none" mask="url(#clip277)" />
  </g>
</svg>