<?xml version="1.0" encoding="utf-8"?>
<svg version="1.1" xmlns:xlink="http://www.w3.org/1999/xlink" width="12px" height="12px" viewBox="684 532  12 12" xmlns="http://www.w3.org/2000/svg">
  <path d="M 684.5 537  A 4.5 4.5 0 0 1 689 532.5 L 691 532.5  A 4.5 4.5 0 0 1 695.5 537 L 695.5 539  A 4.5 4.5 0 0 1 691 543.5 L 689 543.5  A 4.5 4.5 0 0 1 684.5 539 L 684.5 537  Z " fill-rule="nonzero" fill="#ffffff" stroke="none" />
  <path d="M 684.5 537  A 4.5 4.5 0 0 1 689 532.5 L 691 532.5  A 4.5 4.5 0 0 1 695.5 537 L 695.5 539  A 4.5 4.5 0 0 1 691 543.5 L 689 543.5  A 4.5 4.5 0 0 1 684.5 539 L 684.5 537  Z " stroke-width="1" stroke="#797979" fill="none" />
  <path d="M 686.571428571429 538  L 689.142857142857 540.571428571429  " stroke-width="2.57142857142857" stroke="#797979" fill="none" />
  <path d="M 689.142857142857 540.571428571429  L 693.428571428571 534.571428571429  " stroke-width="2.57142857142857" stroke="#797979" fill="none" />
</svg>