<?xml version="1.0" encoding="utf-8"?>
<svg version="1.1" xmlns:xlink="http://www.w3.org/1999/xlink" width="12px" height="12px" viewBox="14 195  12 12" xmlns="http://www.w3.org/2000/svg">
  <path d="M 14.5 200  A 4.5 4.5 0 0 1 19 195.5 L 21 195.5  A 4.5 4.5 0 0 1 25.5 200 L 25.5 202  A 4.5 4.5 0 0 1 21 206.5 L 19 206.5  A 4.5 4.5 0 0 1 14.5 202 L 14.5 200  Z " fill-rule="nonzero" fill="#f0f0f0" stroke="none" />
  <path d="M 14.5 200  A 4.5 4.5 0 0 1 19 195.5 L 21 195.5  A 4.5 4.5 0 0 1 25.5 200 L 25.5 202  A 4.5 4.5 0 0 1 21 206.5 L 19 206.5  A 4.5 4.5 0 0 1 14.5 202 L 14.5 200  Z " stroke-width="1" stroke="#797979" fill="none" />
  <path d="M 16.5714285714286 201  L 19.1428571428571 203.571428571429  " stroke-width="2.57142857142857" stroke="#797979" fill="none" />
  <path d="M 19.1428571428571 203.571428571429  L 23.4285714285714 197.571428571429  " stroke-width="2.57142857142857" stroke="#797979" fill="none" />
</svg>