<?xml version="1.0" encoding="utf-8"?>
<svg version="1.1" xmlns:xlink="http://www.w3.org/1999/xlink" width="12px" height="12px" viewBox="14 239  12 12" xmlns="http://www.w3.org/2000/svg">
  <path d="M 14.5 244  A 4.5 4.5 0 0 1 19 239.5 L 21 239.5  A 4.5 4.5 0 0 1 25.5 244 L 25.5 246  A 4.5 4.5 0 0 1 21 250.5 L 19 250.5  A 4.5 4.5 0 0 1 14.5 246 L 14.5 244  Z " fill-rule="nonzero" fill="#f0f0f0" stroke="none" />
  <path d="M 14.5 244  A 4.5 4.5 0 0 1 19 239.5 L 21 239.5  A 4.5 4.5 0 0 1 25.5 244 L 25.5 246  A 4.5 4.5 0 0 1 21 250.5 L 19 250.5  A 4.5 4.5 0 0 1 14.5 246 L 14.5 244  Z " stroke-width="1" stroke="#797979" fill="none" />
  <path d="M 16.5714285714286 245  L 19.1428571428571 247.571428571429  " stroke-width="2.57142857142857" stroke="#797979" fill="none" />
  <path d="M 19.1428571428571 247.571428571429  L 23.4285714285714 241.571428571429  " stroke-width="2.57142857142857" stroke="#797979" fill="none" />
</svg>