<?xml version="1.0" encoding="utf-8"?>
<svg version="1.1" xmlns:xlink="http://www.w3.org/1999/xlink" width="12px" height="12px" viewBox="15 507  12 12" xmlns="http://www.w3.org/2000/svg">
  <path d="M 15.5 512  A 4.5 4.5 0 0 1 20 507.5 L 22 507.5  A 4.5 4.5 0 0 1 26.5 512 L 26.5 514  A 4.5 4.5 0 0 1 22 518.5 L 20 518.5  A 4.5 4.5 0 0 1 15.5 514 L 15.5 512  Z " fill-rule="nonzero" fill="#f0f0f0" stroke="none" />
  <path d="M 15.5 512  A 4.5 4.5 0 0 1 20 507.5 L 22 507.5  A 4.5 4.5 0 0 1 26.5 512 L 26.5 514  A 4.5 4.5 0 0 1 22 518.5 L 20 518.5  A 4.5 4.5 0 0 1 15.5 514 L 15.5 512  Z " stroke-width="1" stroke="#797979" fill="none" />
</svg>