<?xml version="1.0" encoding="utf-8"?>
<svg version="1.1" xmlns:xlink="http://www.w3.org/1999/xlink" width="12px" height="12px" viewBox="14 324  12 12" xmlns="http://www.w3.org/2000/svg">
  <path d="M 14.5 329  A 4.5 4.5 0 0 1 19 324.5 L 21 324.5  A 4.5 4.5 0 0 1 25.5 329 L 25.5 331  A 4.5 4.5 0 0 1 21 335.5 L 19 335.5  A 4.5 4.5 0 0 1 14.5 331 L 14.5 329  Z " fill-rule="nonzero" fill="#ffffff" stroke="none" />
  <path d="M 14.5 329  A 4.5 4.5 0 0 1 19 324.5 L 21 324.5  A 4.5 4.5 0 0 1 25.5 329 L 25.5 331  A 4.5 4.5 0 0 1 21 335.5 L 19 335.5  A 4.5 4.5 0 0 1 14.5 331 L 14.5 329  Z " stroke-width="1" stroke="#797979" fill="none" />
  <path d="M 16.5714285714286 330  L 19.1428571428571 332.571428571429  " stroke-width="2.57142857142857" stroke="#797979" fill="none" />
  <path d="M 19.1428571428571 332.571428571429  L 23.4285714285714 326.571428571429  " stroke-width="2.57142857142857" stroke="#797979" fill="none" />
</svg>