<?xml version="1.0" encoding="utf-8"?>
<svg version="1.1" xmlns:xlink="http://www.w3.org/1999/xlink" width="12px" height="12px" viewBox="14 177  12 12" xmlns="http://www.w3.org/2000/svg">
  <path d="M 14.5 182  A 4.5 4.5 0 0 1 19 177.5 L 21 177.5  A 4.5 4.5 0 0 1 25.5 182 L 25.5 184  A 4.5 4.5 0 0 1 21 188.5 L 19 188.5  A 4.5 4.5 0 0 1 14.5 184 L 14.5 182  Z " fill-rule="nonzero" fill="#ffffff" stroke="none" />
  <path d="M 14.5 182  A 4.5 4.5 0 0 1 19 177.5 L 21 177.5  A 4.5 4.5 0 0 1 25.5 182 L 25.5 184  A 4.5 4.5 0 0 1 21 188.5 L 19 188.5  A 4.5 4.5 0 0 1 14.5 184 L 14.5 182  Z " stroke-width="1" stroke="#797979" fill="none" />
</svg>