<?xml version="1.0" encoding="utf-8"?>
<svg version="1.1" xmlns:xlink="http://www.w3.org/1999/xlink" width="12px" height="12px" viewBox="14 386  12 12" xmlns="http://www.w3.org/2000/svg">
  <path d="M 14.5 391  A 4.5 4.5 0 0 1 19 386.5 L 21 386.5  A 4.5 4.5 0 0 1 25.5 391 L 25.5 393  A 4.5 4.5 0 0 1 21 397.5 L 19 397.5  A 4.5 4.5 0 0 1 14.5 393 L 14.5 391  Z " fill-rule="nonzero" fill="#f0f0f0" stroke="none" />
  <path d="M 14.5 391  A 4.5 4.5 0 0 1 19 386.5 L 21 386.5  A 4.5 4.5 0 0 1 25.5 391 L 25.5 393  A 4.5 4.5 0 0 1 21 397.5 L 19 397.5  A 4.5 4.5 0 0 1 14.5 393 L 14.5 391  Z " stroke-width="1" stroke="#797979" fill="none" />
</svg>