<?xml version="1.0" encoding="utf-8"?>
<svg version="1.1" xmlns:xlink="http://www.w3.org/1999/xlink" width="184px" height="36px" viewBox="770 311  184 36" xmlns="http://www.w3.org/2000/svg">
  <path d="M 771 316  A 4 4 0 0 1 775 312 L 949 312  A 4 4 0 0 1 953 316 L 953 342  A 4 4 0 0 1 949 346 L 775 346  A 4 4 0 0 1 771 342 L 771 316  Z " fill-rule="nonzero" fill="#ffffff" stroke="none" />
  <path d="M 770.5 316  A 4.5 4.5 0 0 1 775 311.5 L 949 311.5  A 4.5 4.5 0 0 1 953.5 316 L 953.5 342  A 4.5 4.5 0 0 1 949 346.5 L 775 346.5  A 4.5 4.5 0 0 1 770.5 342 L 770.5 316  Z " stroke-width="1" stroke="#797979" fill="none" stroke-opacity="0.341176470588235" />
</svg>