<?xml version="1.0" encoding="utf-8"?>
<svg version="1.1" xmlns:xlink="http://www.w3.org/1999/xlink" width="183px" height="37px" viewBox="442 151  183 37" xmlns="http://www.w3.org/2000/svg">
  <path d="M 443 156  A 4 4 0 0 1 447 152 L 620 152  A 4 4 0 0 1 624 156 L 624 183  A 4 4 0 0 1 620 187 L 447 187  A 4 4 0 0 1 443 183 L 443 156  Z " fill-rule="nonzero" fill="#ffffff" stroke="none" />
  <path d="M 442.5 156  A 4.5 4.5 0 0 1 447 151.5 L 620 151.5  A 4.5 4.5 0 0 1 624.5 156 L 624.5 183  A 4.5 4.5 0 0 1 620 187.5 L 447 187.5  A 4.5 4.5 0 0 1 442.5 183 L 442.5 156  Z " stroke-width="1" stroke="#797979" fill="none" stroke-opacity="0.341176470588235" />
</svg>