<?xml version="1.0" encoding="utf-8"?>
<svg version="1.1" xmlns:xlink="http://www.w3.org/1999/xlink" width="1150px" height="1335px" xmlns="http://www.w3.org/2000/svg">
  <g transform="matrix(1 0 0 1 9 96 )">
    <path d="M -8 -94  A 1 1 0 0 1 -7 -95 L 1139 -95  A 1 1 0 0 1 1140 -94 L 1140 1237  A 1 1 0 0 1 1139 1238 L -7 1238  A 1 1 0 0 1 -8 1237 L -8 -94  Z " fill-rule="nonzero" fill="#bcbcbc" stroke="none" fill-opacity="0.0666666666666667" />
    <path d="M -8.5 -94  A 1.5 1.5 0 0 1 -7 -95.5 L 1139 -95.5  A 1.5 1.5 0 0 1 1140.5 -94 L 1140.5 1237  A 1.5 1.5 0 0 1 1139 1238.5 L -7 1238.5  A 1.5 1.5 0 0 1 -8.5 1237 L -8.5 -94  Z " stroke-width="1" stroke="#cccccc" fill="none" stroke-opacity="0.129411764705882" />
  </g>
</svg>