<?xml version="1.0" encoding="utf-8"?>
<svg version="1.1" xmlns:xlink="http://www.w3.org/1999/xlink" width="12px" height="12px" viewBox="599 286.5  12 12" xmlns="http://www.w3.org/2000/svg">
  <path d="M 605 286.5  C 608.36 286.5  611 289.14  611 292.5  C 611 295.86  608.36 298.5  605 298.5  C 601.64 298.5  599 295.86  599 292.5  C 599 289.14  601.64 286.5  605 286.5  Z " fill-rule="nonzero" fill="#f0f0f0" stroke="none" />
  <path d="M 605 287  C 608.08 287  610.5 289.42  610.5 292.5  C 610.5 295.58  608.08 298  605 298  C 601.92 298  599.5 295.58  599.5 292.5  C 599.5 289.42  601.92 287  605 287  Z " stroke-width="1" stroke="#797979" fill="none" />
  <path d="M 605 295.5  C 603.32 295.5  602 294.18  602 292.5  C 602 290.82  603.32 289.5  605 289.5  C 606.68 289.5  608 290.82  608 292.5  C 608 294.18  606.68 295.5  605 295.5  " fill-rule="nonzero" fill="#797979" stroke="none" />
</svg>