<?xml version="1.0" encoding="utf-8"?>
<svg version="1.1" xmlns:xlink="http://www.w3.org/1999/xlink" width="24px" height="24px" xmlns="http://www.w3.org/2000/svg">
  <defs>
    <mask fill="white" id="clip2064">
      <path d="M 24 36  C 17.34 36  12 30.66  12 24  L 12 24  C 12 17.34  17.34 12  24 12  L 24 12  C 30.66 12  36 17.34  36 24  L 36 24  C 36 30.66  30.66 36  24 36  " fill-rule="evenodd" />
    </mask>
  </defs>
  <g transform="matrix(1 0 0 1 -12 -12 )">
    <path d="M 12 12  L 36 12  L 36 36  L 12 36  L 12 12  " fill-rule="nonzero" fill="#cccccc" stroke="none" mask="url(#clip2064)" />
    <path d="M 14 14  L 34 14  L 34 34  L 14 34  L 14 14  " fill-rule="nonzero" fill="#ffffff" stroke="none" mask="url(#clip2064)" />
    <path d="M 26.28 19.2  C 25.272 19.2  24.48 18.408  24.48 17.4  C 24.48 16.392  25.272 15.6  26.28 15.6  C 27.288 15.6  28.08 16.392  28.08 17.4  C 28.08 18.408  27.288 19.2  26.28 19.2  " fill-rule="nonzero" fill="#cccccc" stroke="none" mask="url(#clip2064)" />
    <path d="M 15 34  L 15 23.55  L 19.75 18.8  L 26.4 22.6  L 30.2 21.65  L 34 22.6  L 34 34  L 15 34  " fill-rule="nonzero" fill="#169bd5" stroke="none" mask="url(#clip2064)" />
  </g>
</svg>