<?xml version="1.0" encoding="utf-8"?>
<svg version="1.1" xmlns:xlink="http://www.w3.org/1999/xlink" width="20px" height="20px" preserveAspectRatio="xMinYMid meet" viewBox="598 473  20 18" xmlns="http://www.w3.org/2000/svg">
  <path d="M 185 555  L 185 475  A 5 5 0 0 1 190 470 L 603 470  A 5 5 0 0 1 608 475 L 608 482  " stroke-width="2" stroke="#0099cc" fill="none" />
  <path d="M 189.292893218813 549.892893218813  L 185 554.185786437627  L 180.707106781187 549.892893218813  L 179.292893218813 551.307106781187  L 184.292893218813 556.307106781187  L 185 557.014213562373  L 185.707106781187 556.307106781187  L 190.707106781187 551.307106781187  L 189.292893218813 549.892893218813  Z M 612.292893218813 476.892893218813  L 608 481.185786437627  L 603.707106781187 476.892893218813  L 602.292893218813 478.307106781187  L 607.292893218813 483.307106781187  L 608 484.014213562373  L 608.707106781187 483.307106781187  L 613.707106781187 478.307106781187  L 612.292893218813 476.892893218813  Z " fill-rule="nonzero" fill="#0099cc" stroke="none" />
</svg>