<?xml version="1.0" encoding="utf-8"?>
<svg version="1.1" xmlns:xlink="http://www.w3.org/1999/xlink" width="23px" height="16px" xmlns="http://www.w3.org/2000/svg">
  <g transform="matrix(1 0 0 1 -94 -527 )">
    <path d="M 9.12820512820513 4.55873015873016  L 9.12820512820513 10.9460317460317  L 15.3333333333333 7.77142857142857  L 9.12820512820513 4.55873015873016  Z M 3.46153846153846 0.228571428571428  C 5.60683760683761 0.0761904761904759  8.28632478632479 0  11.5 0  C 12.9358974358974 0  14.3226495726496 0.019047619047619  15.6602564102564 0.0571428571428569  C 16.9978632478633 0.0952380952380949  17.9786324786325 0.135449735449734  18.6025641025641 0.177777777777777  L 19.5384615384615 0.228571428571428  C 19.5470085470085 0.228571428571428  19.6196581196581 0.234920634920634  19.7564102564103 0.247619047619047  C 19.8931623931624 0.260317460317461  19.991452991453 0.273015873015874  20.0512820512821 0.285714285714286  C 20.1111111111111 0.298412698412699  20.2115384615385 0.317460317460318  20.3525641025641 0.342857142857143  C 20.4935897435897 0.368253968253969  20.6153846153846 0.4021164021164  20.7179487179487 0.444444444444445  C 20.8205128205128 0.486772486772486  20.9401709401709 0.541798941798939  21.0769230769231 0.609523809523809  C 21.2136752136752 0.677248677248675  21.3461538461539 0.759788359788359  21.474358974359 0.857142857142858  C 21.6025641025641 0.954497354497352  21.7264957264957 1.06666666666667  21.8461538461538 1.19365079365079  C 21.8974358974359 1.24444444444444  21.9636752136752 1.32275132275132  22.0448717948718 1.42857142857143  C 22.1260683760684 1.53439153439153  22.25 1.78201058201058  22.4166666666667 2.17142857142857  C 22.5833333333333 2.56084656084656  22.6965811965812 2.98835978835979  22.7564102564103 3.45396825396825  C 22.8247863247863 3.9957671957672  22.8782051282051 4.57354497354497  22.9166666666667 5.18730158730159  C 22.9551282051282 5.8010582010582  22.9786324786325 6.28148148148148  22.9871794871795 6.62857142857143  L 22.9871794871795 7.13650793650794  L 22.9871794871795 8.86349206349206  C 22.9957264957265 10.0910052910053  22.9188034188034 11.3185185185185  22.7564102564103 12.5460317460317  C 22.6965811965812 13.0116402116402  22.5897435897436 13.4328042328042  22.4358974358974 13.8095238095238  C 22.2820512820513 14.1862433862434  22.1452991452991 14.4465608465608  22.025641025641 14.5904761904762  L 21.8461538461538 14.8063492063492  C 21.7264957264957 14.9333333333333  21.6025641025641 15.0455026455026  21.474358974359 15.1428571428571  C 21.3461538461539 15.2402116402116  21.2136752136752 15.3206349206349  21.0769230769231 15.384126984127  C 20.9401709401709 15.447619047619  20.8205128205128 15.5005291005291  20.7179487179487 15.5428571428571  C 20.6153846153846 15.5851851851852  20.4935897435897 15.6190476190476  20.3525641025641 15.6444444444444  C 20.2115384615385 15.6698412698413  20.1089743589744 15.6888888888889  20.0448717948718 15.7015873015873  C 19.9807692307692 15.7142857142857  19.8824786324786 15.7269841269841  19.75 15.7396825396825  C 19.6175213675214 15.752380952381  19.5470085470085 15.7587301587302  19.5384615384615 15.7587301587302  C 17.3931623931624 15.9195767195767  14.7136752136752 16  11.5 16  C 9.73076923076923 15.9830687830688  8.19444444444444 15.9555555555556  6.89102564102564 15.9174603174603  C 5.58760683760684 15.8793650793651  4.73076923076923 15.847619047619  4.32051282051282 15.8222222222222  L 3.69230769230769 15.7714285714286  L 3.23076923076923 15.7206349206349  C 2.92307692307692 15.6783068783069  2.69017094017094 15.6359788359788  2.53205128205128 15.5936507936508  C 2.37393162393162 15.5513227513228  2.15598290598291 15.4624338624339  1.87820512820513 15.3269841269841  C 1.60042735042735 15.1915343915344  1.35897435897436 15.0179894179894  1.15384615384615 14.8063492063492  C 1.1025641025641 14.7555555555556  1.03632478632479 14.6772486772487  0.955128205128205 14.5714285714286  C 0.873931623931624 14.4656084656085  0.75 14.2179894179894  0.583333333333333 13.8285714285714  C 0.416666666666667 13.4391534391534  0.303418803418803 13.0116402116402  0.243589743589744 12.5460317460317  C 0.175213675213675 12.0042328042328  0.121794871794872 11.426455026455  0.0833333333333333 10.8126984126984  C 0.0448717948717949 10.1989417989418  0.0213675213675214 9.71851851851852  0.0128205128205128 9.37142857142857  L 0.0128205128205128 8.86349206349206  L 0.0128205128205128 7.13650793650794  C 0.00427350427350427 5.90899470899471  0.0811965811965812 4.68148148148148  0.243589743589744 3.45396825396825  C 0.303418803418803 2.98835978835979  0.41025641025641 2.56719576719576  0.564102564102564 2.19047619047619  C 0.717948717948718 1.81375661375661  0.854700854700855 1.55343915343915  0.974358974358974 1.40952380952381  L 1.15384615384615 1.19365079365079  C 1.27350427350427 1.06666666666667  1.3974358974359 0.954497354497352  1.52564102564103 0.857142857142858  C 1.65384615384615 0.759788359788359  1.78632478632479 0.677248677248675  1.92307692307692 0.609523809523809  C 2.05982905982906 0.541798941798939  2.17948717948718 0.486772486772486  2.28205128205128 0.444444444444445  C 2.38461538461538 0.4021164021164  2.50641025641026 0.368253968253969  2.6474358974359 0.342857142857143  C 2.78846153846154 0.317460317460318  2.88888888888889 0.298412698412699  2.94871794871795 0.285714285714286  C 3.00854700854701 0.273015873015874  3.10683760683761 0.260317460317461  3.24358974358974 0.247619047619047  C 3.38034188034188 0.234920634920634  3.45299145299145 0.228571428571428  3.46153846153846 0.228571428571428  Z " fill-rule="nonzero" fill="#a1a0a0" stroke="none" transform="matrix(1 0 0 1 94 527 )" />
  </g>
</svg>