<?xml version="1.0" encoding="utf-8"?>
<svg version="1.1" xmlns:xlink="http://www.w3.org/1999/xlink" width="183px" height="37px" viewBox="768 227  183 37" xmlns="http://www.w3.org/2000/svg">
  <path d="M 769 232  A 4 4 0 0 1 773 228 L 946 228  A 4 4 0 0 1 950 232 L 950 259  A 4 4 0 0 1 946 263 L 773 263  A 4 4 0 0 1 769 259 L 769 232  Z " fill-rule="nonzero" fill="#f0f0f0" stroke="none" />
  <path d="M 768.5 232  A 4.5 4.5 0 0 1 773 227.5 L 946 227.5  A 4.5 4.5 0 0 1 950.5 232 L 950.5 259  A 4.5 4.5 0 0 1 946 263.5 L 773 263.5  A 4.5 4.5 0 0 1 768.5 259 L 768.5 232  Z " stroke-width="1" stroke="#797979" fill="none" stroke-opacity="0.258823529411765" />
</svg>