<?xml version="1.0" encoding="utf-8"?>
<svg version="1.1" xmlns:xlink="http://www.w3.org/1999/xlink" width="184px" height="38px" xmlns="http://www.w3.org/2000/svg">
  <g transform="matrix(1 0 0 1 -112 -169 )">
    <path d="M 113 171  A 1 1 0 0 1 114 170 L 294 170  A 1 1 0 0 1 295 171 L 295 205  A 1 1 0 0 1 294 206 L 114 206  A 1 1 0 0 1 113 205 L 113 171  Z " fill-rule="nonzero" fill="#ffffff" stroke="none" />
    <path d="M 112.5 171  A 1.5 1.5 0 0 1 114 169.5 L 294 169.5  A 1.5 1.5 0 0 1 295.5 171 L 295.5 205  A 1.5 1.5 0 0 1 294 206.5 L 114 206.5  A 1.5 1.5 0 0 1 112.5 205 L 112.5 171  Z " stroke-width="1" stroke="#cccccc" fill="none" stroke-opacity="0.333333333333333" />
  </g>
</svg>