<?xml version="1.0" encoding="utf-8"?>
<svg version="1.1" xmlns:xlink="http://www.w3.org/1999/xlink" width="184px" height="36px" viewBox="440 169  184 36" xmlns="http://www.w3.org/2000/svg">
  <path d="M 441 174  A 4 4 0 0 1 445 170 L 619 170  A 4 4 0 0 1 623 174 L 623 200  A 4 4 0 0 1 619 204 L 445 204  A 4 4 0 0 1 441 200 L 441 174  Z " fill-rule="nonzero" fill="#ffffff" stroke="none" />
  <path d="M 440.5 174  A 4.5 4.5 0 0 1 445 169.5 L 619 169.5  A 4.5 4.5 0 0 1 623.5 174 L 623.5 200  A 4.5 4.5 0 0 1 619 204.5 L 445 204.5  A 4.5 4.5 0 0 1 440.5 200 L 440.5 174  Z " stroke-width="1" stroke="#797979" fill="none" stroke-opacity="0.258823529411765" />
</svg>