<?xml version="1.0" encoding="utf-8"?>
<svg version="1.1" xmlns:xlink="http://www.w3.org/1999/xlink" width="184px" height="36px" viewBox="112 285  184 36" xmlns="http://www.w3.org/2000/svg">
  <path d="M 113 290  A 4 4 0 0 1 117 286 L 291 286  A 4 4 0 0 1 295 290 L 295 316  A 4 4 0 0 1 291 320 L 117 320  A 4 4 0 0 1 113 316 L 113 290  Z " fill-rule="nonzero" fill="#f0f0f0" stroke="none" />
  <path d="M 112.5 290  A 4.5 4.5 0 0 1 117 285.5 L 291 285.5  A 4.5 4.5 0 0 1 295.5 290 L 295.5 316  A 4.5 4.5 0 0 1 291 320.5 L 117 320.5  A 4.5 4.5 0 0 1 112.5 316 L 112.5 290  Z " stroke-width="1" stroke="#cccccc" fill="none" stroke-opacity="0.333333333333333" />
</svg>