<?xml version="1.0" encoding="utf-8"?>
<svg version="1.1" xmlns:xlink="http://www.w3.org/1999/xlink" width="25px" height="22px" xmlns="http://www.w3.org/2000/svg">
  <defs>
    <mask fill="white" id="clip1354">
      <path d="M 34 54  C 31.225 54  29 51.775  29 49  L 29 37  C 29 34.225  31.225 32  34 32  L 49 32  C 51.775 32  54 34.225  54 37  L 54 49  C 54 51.775  51.775 54  49 54  " fill-rule="evenodd" />
    </mask>
  </defs>
  <g transform="matrix(1 0 0 1 -29 -32 )">
    <path d="M 29 32  L 54 32  L 54 54  L 29 54  L 29 32  " fill-rule="nonzero" fill="#cccccc" stroke="none" mask="url(#clip1354)" />
    <path d="M 31 34  L 52 34  L 52 52  L 31 52  L 31 34  " fill-rule="nonzero" fill="#ffffff" stroke="none" mask="url(#clip1354)" />
    <path d="M 43.65 38.6  C 42.726 38.6  42 37.874  42 36.95  C 42 36.026  42.726 35.3  43.65 35.3  C 44.574 35.3  45.3 36.026  45.3 36.95  C 45.3 37.874  44.574 38.6  43.65 38.6  " fill-rule="nonzero" fill="#cccccc" stroke="none" mask="url(#clip1354)" />
    <path d="M 32 52  L 32 42.65  L 37 38.4  L 44 43.024  L 48 40.95  L 52 43.024  L 52 52  L 32 52  " fill-rule="nonzero" fill="#169bd5" stroke="none" mask="url(#clip1354)" />
  </g>
</svg>