<?xml version="1.0" encoding="utf-8"?>
<svg version="1.1" xmlns:xlink="http://www.w3.org/1999/xlink" width="32px" height="32px" xmlns="http://www.w3.org/2000/svg">
  <defs>
    <filter x="5px" y="14px" width="32px" height="32px" filterUnits="userSpaceOnUse" id="filter2048">
      <feOffset dx="1" dy="1" in="SourceAlpha" result="shadowOffsetInner" />
      <feGaussianBlur stdDeviation="2.5" in="shadowOffsetInner" result="shadowGaussian" />
      <feComposite in2="shadowGaussian" operator="atop" in="SourceAlpha" result="shadowComposite" />
      <feColorMatrix type="matrix" values="0 0 0 0 0  0 0 0 0 0  0 0 0 0 0  0 0 0 0.698039215686274 0  " in="shadowComposite" />
    </filter>
    <g id="widget2049">
      <path d="M 20 18  C 26.16 18  31 22.84  31 29  C 31 35.16  26.16 40  20 40  C 13.84 40  9 35.16  9 29  C 9 22.84  13.84 18  20 18  Z " fill-rule="nonzero" fill="#009dd9" stroke="none" />
      <path d="M 20 18.5  C 25.88 18.5  30.5 23.12  30.5 29  C 30.5 34.88  25.88 39.5  20 39.5  C 14.12 39.5  9.5 34.88  9.5 29  C 9.5 23.12  14.12 18.5  20 18.5  Z " stroke-width="1" stroke="#ffffff" fill="none" />
    </g>
  </defs>
  <g transform="matrix(1 0 0 1 -5 -14 )">
    <use xlink:href="#widget2049" filter="url(#filter2048)" />
    <use xlink:href="#widget2049" />
  </g>
</svg>