<?xml version="1.0" encoding="utf-8"?>
<svg version="1.1" xmlns:xlink="http://www.w3.org/1999/xlink" width="184px" height="36px" viewBox="745 116  184 36" xmlns="http://www.w3.org/2000/svg">
  <path d="M 746 121  A 4 4 0 0 1 750 117 L 924 117  A 4 4 0 0 1 928 121 L 928 147  A 4 4 0 0 1 924 151 L 750 151  A 4 4 0 0 1 746 147 L 746 121  Z " fill-rule="nonzero" fill="#ffffff" stroke="none" />
  <path d="M 745.5 121  A 4.5 4.5 0 0 1 750 116.5 L 924 116.5  A 4.5 4.5 0 0 1 928.5 121 L 928.5 147  A 4.5 4.5 0 0 1 924 151.5 L 750 151.5  A 4.5 4.5 0 0 1 745.5 147 L 745.5 121  Z " stroke-width="1" stroke="#797979" fill="none" stroke-opacity="0.407843137254902" />
</svg>