<?xml version="1.0" encoding="utf-8"?>
<svg version="1.1" xmlns:xlink="http://www.w3.org/1999/xlink" width="184px" height="36px" viewBox="109 165  184 36" xmlns="http://www.w3.org/2000/svg">
  <path d="M 110 170  A 4 4 0 0 1 114 166 L 288 166  A 4 4 0 0 1 292 170 L 292 196  A 4 4 0 0 1 288 200 L 114 200  A 4 4 0 0 1 110 196 L 110 170  Z " fill-rule="nonzero" fill="#f0f0f0" stroke="none" />
  <path d="M 109.5 170  A 4.5 4.5 0 0 1 114 165.5 L 288 165.5  A 4.5 4.5 0 0 1 292.5 170 L 292.5 196  A 4.5 4.5 0 0 1 288 200.5 L 114 200.5  A 4.5 4.5 0 0 1 109.5 196 L 109.5 170  Z " stroke-width="1" stroke="#cccccc" fill="none" stroke-opacity="0.466666666666667" />
</svg>