<?xml version="1.0" encoding="utf-8"?>
<svg version="1.1" xmlns:xlink="http://www.w3.org/1999/xlink" width="184px" height="38px" xmlns="http://www.w3.org/2000/svg">
  <g transform="matrix(1 0 0 1 -109 -117 )">
    <path d="M 110 119  A 1 1 0 0 1 111 118 L 291 118  A 1 1 0 0 1 292 119 L 292 153  A 1 1 0 0 1 291 154 L 111 154  A 1 1 0 0 1 110 153 L 110 119  Z " fill-rule="nonzero" fill="#ffffff" stroke="none" />
    <path d="M 109.5 119  A 1.5 1.5 0 0 1 111 117.5 L 291 117.5  A 1.5 1.5 0 0 1 292.5 119 L 292.5 153  A 1.5 1.5 0 0 1 291 154.5 L 111 154.5  A 1.5 1.5 0 0 1 109.5 153 L 109.5 119  Z " stroke-width="1" stroke="#cccccc" fill="none" stroke-opacity="0.466666666666667" />
  </g>
</svg>