<?xml version="1.0" encoding="utf-8"?>
<svg version="1.1" xmlns:xlink="http://www.w3.org/1999/xlink" width="40px" height="40px" xmlns="http://www.w3.org/2000/svg">
  <defs>
    <filter x="405px" y="92px" width="40px" height="40px" filterUnits="userSpaceOnUse" id="filter1664">
      <feOffset dx="1" dy="1" in="SourceAlpha" result="shadowOffsetInner" />
      <feGaussianBlur stdDeviation="2.5" in="shadowOffsetInner" result="shadowGaussian" />
      <feComposite in2="shadowGaussian" operator="atop" in="SourceAlpha" result="shadowComposite" />
      <feColorMatrix type="matrix" values="0 0 0 0 0  0 0 0 0 0  0 0 0 0 0  0 0 0 0.698039215686274 0  " in="shadowComposite" />
    </filter>
    <g id="widget1665">
      <path d="M 424 96  C 432.4 96  439 102.6  439 111  C 439 119.4  432.4 126  424 126  C 415.6 126  409 119.4  409 111  C 409 102.6  415.6 96  424 96  Z " fill-rule="nonzero" fill="#009dd9" stroke="none" />
      <path d="M 424 96.5  C 432.12 96.5  438.5 102.88  438.5 111  C 438.5 119.12  432.12 125.5  424 125.5  C 415.88 125.5  409.5 119.12  409.5 111  C 409.5 102.88  415.88 96.5  424 96.5  Z " stroke-width="1" stroke="#ffffff" fill="none" />
    </g>
  </defs>
  <g transform="matrix(1 0 0 1 -405 -92 )">
    <use xlink:href="#widget1665" filter="url(#filter1664)" />
    <use xlink:href="#widget1665" />
  </g>
</svg>