<?xml version="1.0" encoding="utf-8"?>
<svg version="1.1" xmlns:xlink="http://www.w3.org/1999/xlink" width="12px" height="12px" viewBox="505 1151.5  12 12" xmlns="http://www.w3.org/2000/svg">
  <path d="M 511 1151.5  C 514.36 1151.5  517 1154.14  517 1157.5  C 517 1160.86  514.36 1163.5  511 1163.5  C 507.64 1163.5  505 1160.86  505 1157.5  C 505 1154.14  507.64 1151.5  511 1151.5  Z " fill-rule="nonzero" fill="#ffffff" stroke="none" />
  <path d="M 511 1152  C 514.08 1152  516.5 1154.42  516.5 1157.5  C 516.5 1160.58  514.08 1163  511 1163  C 507.92 1163  505.5 1160.58  505.5 1157.5  C 505.5 1154.42  507.92 1152  511 1152  Z " stroke-width="1" stroke="#797979" fill="none" />
  <path d="M 511 1160.5  C 509.32 1160.5  508 1159.18  508 1157.5  C 508 1155.82  509.32 1154.5  511 1154.5  C 512.68 1154.5  514 1155.82  514 1157.5  C 514 1159.18  512.68 1160.5  511 1160.5  " fill-rule="nonzero" fill="#797979" stroke="none" />
</svg>