<?xml version="1.0" encoding="utf-8"?>
<svg version="1.1" xmlns:xlink="http://www.w3.org/1999/xlink" width="60px" height="25px" viewBox="180 106  60 25" xmlns="http://www.w3.org/2000/svg">
  <path d="M 181 111  A 4 4 0 0 1 185 107 L 235 107  A 4 4 0 0 1 239 111 L 239 126  A 4 4 0 0 1 235 130 L 185 130  A 4 4 0 0 1 181 126 L 181 111  Z " fill-rule="nonzero" fill="#ffffff" stroke="none" />
  <path d="M 180.5 111  A 4.5 4.5 0 0 1 185 106.5 L 235 106.5  A 4.5 4.5 0 0 1 239.5 111 L 239.5 126  A 4.5 4.5 0 0 1 235 130.5 L 185 130.5  A 4.5 4.5 0 0 1 180.5 126 L 180.5 111  Z " stroke-width="1" stroke="#797979" fill="none" stroke-opacity="0.27843137254902" />
</svg>