<?xml version="1.0" encoding="utf-8"?>
<svg version="1.1" xmlns:xlink="http://www.w3.org/1999/xlink" width="12px" height="12px" viewBox="235 37.5  12 12" xmlns="http://www.w3.org/2000/svg">
  <path d="M 241 37.5  C 244.36 37.5  247 40.14  247 43.5  C 247 46.86  244.36 49.5  241 49.5  C 237.64 49.5  235 46.86  235 43.5  C 235 40.14  237.64 37.5  241 37.5  Z " fill-rule="nonzero" fill="#ffffff" stroke="none" />
  <path d="M 241 38  C 244.08 38  246.5 40.42  246.5 43.5  C 246.5 46.58  244.08 49  241 49  C 237.92 49  235.5 46.58  235.5 43.5  C 235.5 40.42  237.92 38  241 38  Z " stroke-width="1" stroke="#797979" fill="none" />
  <path d="M 241 46.5  C 239.32 46.5  238 45.18  238 43.5  C 238 41.82  239.32 40.5  241 40.5  C 242.68 40.5  244 41.82  244 43.5  C 244 45.18  242.68 46.5  241 46.5  " fill-rule="nonzero" fill="#797979" stroke="none" />
</svg>