<?xml version="1.0" encoding="utf-8"?>
<svg version="1.1" xmlns:xlink="http://www.w3.org/1999/xlink" width="12px" height="12px" viewBox="453 394.5  12 12" xmlns="http://www.w3.org/2000/svg">
  <path d="M 459 394.5  C 462.36 394.5  465 397.14  465 400.5  C 465 403.86  462.36 406.5  459 406.5  C 455.64 406.5  453 403.86  453 400.5  C 453 397.14  455.64 394.5  459 394.5  Z " fill-rule="nonzero" fill="#ffffff" stroke="none" />
  <path d="M 459 395  C 462.08 395  464.5 397.42  464.5 400.5  C 464.5 403.58  462.08 406  459 406  C 455.92 406  453.5 403.58  453.5 400.5  C 453.5 397.42  455.92 395  459 395  Z " stroke-width="1" stroke="#797979" fill="none" />
  <path d="M 459 403.5  C 457.32 403.5  456 402.18  456 400.5  C 456 398.82  457.32 397.5  459 397.5  C 460.68 397.5  462 398.82  462 400.5  C 462 402.18  460.68 403.5  459 403.5  " fill-rule="nonzero" fill="#797979" stroke="none" />
</svg>