<?xml version="1.0" encoding="utf-8"?>
<svg version="1.1" xmlns:xlink="http://www.w3.org/1999/xlink" width="12px" height="12px" viewBox="452 962.5  12 12" xmlns="http://www.w3.org/2000/svg">
  <path d="M 458 962.5  C 461.36 962.5  464 965.14  464 968.5  C 464 971.86  461.36 974.5  458 974.5  C 454.64 974.5  452 971.86  452 968.5  C 452 965.14  454.64 962.5  458 962.5  Z " fill-rule="nonzero" fill="#f0f0f0" stroke="none" />
  <path d="M 458 963  C 461.08 963  463.5 965.42  463.5 968.5  C 463.5 971.58  461.08 974  458 974  C 454.92 974  452.5 971.58  452.5 968.5  C 452.5 965.42  454.92 963  458 963  Z " stroke-width="1" stroke="#797979" fill="none" />
  <path d="M 458 971.5  C 456.32 971.5  455 970.18  455 968.5  C 455 966.82  456.32 965.5  458 965.5  C 459.68 965.5  461 966.82  461 968.5  C 461 970.18  459.68 971.5  458 971.5  " fill-rule="nonzero" fill="#797979" stroke="none" />
</svg>