<?xml version="1.0" encoding="utf-8"?>
<svg version="1.1" xmlns:xlink="http://www.w3.org/1999/xlink" width="12px" height="12px" viewBox="28 101.5  12 12" xmlns="http://www.w3.org/2000/svg">
  <path d="M 34 101.5  C 37.36 101.5  40 104.14  40 107.5  C 40 110.86  37.36 113.5  34 113.5  C 30.64 113.5  28 110.86  28 107.5  C 28 104.14  30.64 101.5  34 101.5  Z " fill-rule="nonzero" fill="#ffffff" stroke="none" />
  <path d="M 34 102  C 37.08 102  39.5 104.42  39.5 107.5  C 39.5 110.58  37.08 113  34 113  C 30.92 113  28.5 110.58  28.5 107.5  C 28.5 104.42  30.92 102  34 102  Z " stroke-width="1" stroke="#797979" fill="none" />
  <path d="M 34 110.5  C 32.32 110.5  31 109.18  31 107.5  C 31 105.82  32.32 104.5  34 104.5  C 35.68 104.5  37 105.82  37 107.5  C 37 109.18  35.68 110.5  34 110.5  " fill-rule="nonzero" fill="#797979" stroke="none" />
</svg>