<?xml version="1.0" encoding="utf-8"?>
<svg version="1.1" xmlns:xlink="http://www.w3.org/1999/xlink" width="12px" height="12px" viewBox="160 34.5  12 12" xmlns="http://www.w3.org/2000/svg">
  <path d="M 166 34.5  C 169.36 34.5  172 37.14  172 40.5  C 172 43.86  169.36 46.5  166 46.5  C 162.64 46.5  160 43.86  160 40.5  C 160 37.14  162.64 34.5  166 34.5  Z " fill-rule="nonzero" fill="#f0f0f0" stroke="none" />
  <path d="M 166 35  C 169.08 35  171.5 37.42  171.5 40.5  C 171.5 43.58  169.08 46  166 46  C 162.92 46  160.5 43.58  160.5 40.5  C 160.5 37.42  162.92 35  166 35  Z " stroke-width="1" stroke="#797979" fill="none" />
  <path d="M 166 43.5  C 164.32 43.5  163 42.18  163 40.5  C 163 38.82  164.32 37.5  166 37.5  C 167.68 37.5  169 38.82  169 40.5  C 169 42.18  167.68 43.5  166 43.5  " fill-rule="nonzero" fill="#797979" stroke="none" />
</svg>