<?xml version="1.0" encoding="utf-8"?>
<svg version="1.1" xmlns:xlink="http://www.w3.org/1999/xlink" width="12px" height="12px" viewBox="362 1047.5  12 12" xmlns="http://www.w3.org/2000/svg">
  <path d="M 368 1047.5  C 371.36 1047.5  374 1050.14  374 1053.5  C 374 1056.86  371.36 1059.5  368 1059.5  C 364.64 1059.5  362 1056.86  362 1053.5  C 362 1050.14  364.64 1047.5  368 1047.5  Z " fill-rule="nonzero" fill="#ffffff" stroke="none" />
  <path d="M 368 1048  C 371.08 1048  373.5 1050.42  373.5 1053.5  C 373.5 1056.58  371.08 1059  368 1059  C 364.92 1059  362.5 1056.58  362.5 1053.5  C 362.5 1050.42  364.92 1048  368 1048  Z " stroke-width="1" stroke="#797979" fill="none" />
  <path d="M 368 1056.5  C 366.32 1056.5  365 1055.18  365 1053.5  C 365 1051.82  366.32 1050.5  368 1050.5  C 369.68 1050.5  371 1051.82  371 1053.5  C 371 1055.18  369.68 1056.5  368 1056.5  " fill-rule="nonzero" fill="#797979" stroke="none" />
</svg>