<?xml version="1.0" encoding="utf-8"?>
<svg version="1.1" xmlns:xlink="http://www.w3.org/1999/xlink" width="12px" height="12px" viewBox="362 915.5  12 12" xmlns="http://www.w3.org/2000/svg">
  <path d="M 368 915.5  C 371.36 915.5  374 918.14  374 921.5  C 374 924.86  371.36 927.5  368 927.5  C 364.64 927.5  362 924.86  362 921.5  C 362 918.14  364.64 915.5  368 915.5  Z " fill-rule="nonzero" fill="#f0f0f0" stroke="none" />
  <path d="M 368 916  C 371.08 916  373.5 918.42  373.5 921.5  C 373.5 924.58  371.08 927  368 927  C 364.92 927  362.5 924.58  362.5 921.5  C 362.5 918.42  364.92 916  368 916  Z " stroke-width="1" stroke="#797979" fill="none" />
  <path d="M 368 924.5  C 366.32 924.5  365 923.18  365 921.5  C 365 919.82  366.32 918.5  368 918.5  C 369.68 918.5  371 919.82  371 921.5  C 371 923.18  369.68 924.5  368 924.5  " fill-rule="nonzero" fill="#797979" stroke="none" />
</svg>