<?xml version="1.0" encoding="utf-8"?>
<svg version="1.1" xmlns:xlink="http://www.w3.org/1999/xlink" width="12px" height="12px" viewBox="933 447  12 12" xmlns="http://www.w3.org/2000/svg">
  <path d="M 939 447  C 942.36 447  945 449.64  945 453  C 945 456.36  942.36 459  939 459  C 935.64 459  933 456.36  933 453  C 933 449.64  935.64 447  939 447  Z " fill-rule="nonzero" fill="#ffffff" stroke="none" />
  <path d="M 939 447.5  C 942.08 447.5  944.5 449.92  944.5 453  C 944.5 456.08  942.08 458.5  939 458.5  C 935.92 458.5  933.5 456.08  933.5 453  C 933.5 449.92  935.92 447.5  939 447.5  Z " stroke-width="1" stroke="#797979" fill="none" />
  <path d="M 939 456  C 937.32 456  936 454.68  936 453  C 936 451.32  937.32 450  939 450  C 940.68 450  942 451.32  942 453  C 942 454.68  940.68 456  939 456  " fill-rule="nonzero" fill="#797979" stroke="none" />
</svg>