<?xml version="1.0" encoding="utf-8"?>
<svg version="1.1" xmlns:xlink="http://www.w3.org/1999/xlink" width="12px" height="12px" viewBox="862 447  12 12" xmlns="http://www.w3.org/2000/svg">
  <path d="M 868 447  C 871.36 447  874 449.64  874 453  C 874 456.36  871.36 459  868 459  C 864.64 459  862 456.36  862 453  C 862 449.64  864.64 447  868 447  Z " fill-rule="nonzero" fill="#f0f0f0" stroke="none" />
  <path d="M 868 447.5  C 871.08 447.5  873.5 449.92  873.5 453  C 873.5 456.08  871.08 458.5  868 458.5  C 864.92 458.5  862.5 456.08  862.5 453  C 862.5 449.92  864.92 447.5  868 447.5  Z " stroke-width="1" stroke="#797979" fill="none" />
  <path d="M 868 456  C 866.32 456  865 454.68  865 453  C 865 451.32  866.32 450  868 450  C 869.68 450  871 451.32  871 453  C 871 454.68  869.68 456  868 456  " fill-rule="nonzero" fill="#797979" stroke="none" />
</svg>