<?xml version="1.0" encoding="utf-8"?>
<svg version="1.1" xmlns:xlink="http://www.w3.org/1999/xlink" width="12px" height="12px" viewBox="1001 118.5  12 12" xmlns="http://www.w3.org/2000/svg">
  <path d="M 1007 118.5  C 1010.36 118.5  1013 121.14  1013 124.5  C 1013 127.86  1010.36 130.5  1007 130.5  C 1003.64 130.5  1001 127.86  1001 124.5  C 1001 121.14  1003.64 118.5  1007 118.5  Z " fill-rule="nonzero" fill="#f0f0f0" stroke="none" />
  <path d="M 1007 119  C 1010.08 119  1012.5 121.42  1012.5 124.5  C 1012.5 127.58  1010.08 130  1007 130  C 1003.92 130  1001.5 127.58  1001.5 124.5  C 1001.5 121.42  1003.92 119  1007 119  Z " stroke-width="1" stroke="#797979" fill="none" />
  <path d="M 1007 127.5  C 1005.32 127.5  1004 126.18  1004 124.5  C 1004 122.82  1005.32 121.5  1007 121.5  C 1008.68 121.5  1010 122.82  1010 124.5  C 1010 126.18  1008.68 127.5  1007 127.5  " fill-rule="nonzero" fill="#797979" stroke="none" />
</svg>