<?xml version="1.0" encoding="utf-8"?>
<svg version="1.1" xmlns:xlink="http://www.w3.org/1999/xlink" width="12px" height="12px" viewBox="1141 118.5  12 12" xmlns="http://www.w3.org/2000/svg">
  <path d="M 1147 118.5  C 1150.36 118.5  1153 121.14  1153 124.5  C 1153 127.86  1150.36 130.5  1147 130.5  C 1143.64 130.5  1141 127.86  1141 124.5  C 1141 121.14  1143.64 118.5  1147 118.5  Z " fill-rule="nonzero" fill="#ffffff" stroke="none" />
  <path d="M 1147 119  C 1150.08 119  1152.5 121.42  1152.5 124.5  C 1152.5 127.58  1150.08 130  1147 130  C 1143.92 130  1141.5 127.58  1141.5 124.5  C 1141.5 121.42  1143.92 119  1147 119  Z " stroke-width="1" stroke="#797979" fill="none" />
  <path d="M 1147 127.5  C 1145.32 127.5  1144 126.18  1144 124.5  C 1144 122.82  1145.32 121.5  1147 121.5  C 1148.68 121.5  1150 122.82  1150 124.5  C 1150 126.18  1148.68 127.5  1147 127.5  " fill-rule="nonzero" fill="#797979" stroke="none" />
</svg>