<?xml version="1.0" encoding="utf-8"?>
<svg version="1.1" xmlns:xlink="http://www.w3.org/1999/xlink" width="971px" height="314px" xmlns="http://www.w3.org/2000/svg">
  <g transform="matrix(1 0 0 1 6 -75 )">
    <path d="M -5 80  A 4 4 0 0 1 -1 76 L 960 76  A 4 4 0 0 1 964 80 L 964 384  A 4 4 0 0 1 960 388 L -1 388  A 4 4 0 0 1 -5 384 L -5 80  Z " fill-rule="nonzero" fill="#ffffff" stroke="none" fill-opacity="0" />
    <path d="M -5.5 80  A 4.5 4.5 0 0 1 -1 75.5 L 960 75.5  A 4.5 4.5 0 0 1 964.5 80 L 964.5 384  A 4.5 4.5 0 0 1 960 388.5 L -1 388.5  A 4.5 4.5 0 0 1 -5.5 384 L -5.5 80  Z " stroke-width="1" stroke-dasharray="9,4" stroke="#c3c3c3" fill="none" stroke-dashoffset="0.5" />
  </g>
</svg>