<?xml version="1.0" encoding="utf-8"?>
<svg version="1.1" xmlns:xlink="http://www.w3.org/1999/xlink" width="216px" height="145px" xmlns="http://www.w3.org/2000/svg">
  <g transform="matrix(1 0 0 1 -35 -74 )">
    <path d="M 35 74  L 251 74  L 251 219  L 35 219  L 35 74  " fill-rule="nonzero" fill="#cccccc" stroke="none" />
    <path d="M 45 84  L 241 84  L 241 209  L 45 209  L 45 84  " fill-rule="nonzero" fill="#ffffff" stroke="none" />
    <path d="M 158.195 117.5  C 152.105 117.5  147.32 112.715  147.32 106.625  C 147.32 100.535  152.105 95.75  158.195 95.75  C 164.285 95.75  169.07 100.535  169.07 106.625  C 169.07 112.715  164.285 117.5  158.195 117.5  " fill-rule="nonzero" fill="#cccccc" stroke="none" />
    <path d="M 49 206  L 49 141.1  L 96.25 111.6  L 162.4 158.472222222222  L 200.2 129.3  L 238 158.472222222222  L 238 206  L 49 206  " fill-rule="nonzero" fill="#169bd5" stroke="none" />
  </g>
</svg>