<?xml version="1.0" encoding="utf-8"?>
<svg version="1.1" xmlns:xlink="http://www.w3.org/1999/xlink" width="981px" height="536px" xmlns="http://www.w3.org/2000/svg">
  <g transform="matrix(1 0 0 1 -2 -2 )">
    <path d="M 3 7  A 4 4 0 0 1 7 3 L 978 3  A 4 4 0 0 1 982 7 L 982 533  A 4 4 0 0 1 978 537 L 7 537  A 4 4 0 0 1 3 533 L 3 7  Z " fill-rule="nonzero" fill="#ffffff" stroke="none" fill-opacity="0" />
    <path d="M 2.5 7  A 4.5 4.5 0 0 1 7 2.5 L 978 2.5  A 4.5 4.5 0 0 1 982.5 7 L 982.5 533  A 4.5 4.5 0 0 1 978 537.5 L 7 537.5  A 4.5 4.5 0 0 1 2.5 533 L 2.5 7  Z " stroke-width="1" stroke-dasharray="9,4" stroke="#dedede" fill="none" stroke-dashoffset="0.5" />
  </g>
</svg>