<?xml version="1.0" encoding="utf-8"?>
<svg version="1.1" xmlns:xlink="http://www.w3.org/1999/xlink" width="981px" height="546px" xmlns="http://www.w3.org/2000/svg">
  <g transform="matrix(1 0 0 1 -1 0 )">
    <path d="M 2 5  A 4 4 0 0 1 6 1 L 977 1  A 4 4 0 0 1 981 5 L 981 541  A 4 4 0 0 1 977 545 L 6 545  A 4 4 0 0 1 2 541 L 2 5  Z " fill-rule="nonzero" fill="#ffffff" stroke="none" fill-opacity="0" />
    <path d="M 1.5 5  A 4.5 4.5 0 0 1 6 0.5 L 977 0.5  A 4.5 4.5 0 0 1 981.5 5 L 981.5 541  A 4.5 4.5 0 0 1 977 545.5 L 6 545.5  A 4.5 4.5 0 0 1 1.5 541 L 1.5 5  Z " stroke-width="1" stroke-dasharray="9,4" stroke="#dedede" fill="none" stroke-dashoffset="0.5" />
  </g>
</svg>