<?xml version="1.0" encoding="utf-8"?>
<svg version="1.1" xmlns:xlink="http://www.w3.org/1999/xlink" width="976px" height="253px" xmlns="http://www.w3.org/2000/svg">
  <g transform="matrix(1 0 0 1 -3 -5 )">
    <path d="M 4 10  A 4 4 0 0 1 8 6 L 974 6  A 4 4 0 0 1 978 10 L 978 253  A 4 4 0 0 1 974 257 L 8 257  A 4 4 0 0 1 4 253 L 4 10  Z " fill-rule="nonzero" fill="#ffffff" stroke="none" />
    <path d="M 3.5 10  A 4.5 4.5 0 0 1 8 5.5 L 974 5.5  A 4.5 4.5 0 0 1 978.5 10 L 978.5 253  A 4.5 4.5 0 0 1 974 257.5 L 8 257.5  A 4.5 4.5 0 0 1 3.5 253 L 3.5 10  Z " stroke-width="1" stroke-dasharray="9,4" stroke="#c3c3c3" fill="none" stroke-dashoffset="0.5" />
  </g>
</svg>