<?xml version="1.0" encoding="utf-8"?>
<svg version="1.1" xmlns:xlink="http://www.w3.org/1999/xlink" width="975px" height="253px" xmlns="http://www.w3.org/2000/svg">
  <g transform="matrix(1 0 0 1 -6 -5 )">
    <path d="M 7 10  A 4 4 0 0 1 11 6 L 976 6  A 4 4 0 0 1 980 10 L 980 253  A 4 4 0 0 1 976 257 L 11 257  A 4 4 0 0 1 7 253 L 7 10  Z " fill-rule="nonzero" fill="#ffffff" stroke="none" fill-opacity="0" />
    <path d="M 6.5 10  A 4.5 4.5 0 0 1 11 5.5 L 976 5.5  A 4.5 4.5 0 0 1 980.5 10 L 980.5 253  A 4.5 4.5 0 0 1 976 257.5 L 11 257.5  A 4.5 4.5 0 0 1 6.5 253 L 6.5 10  Z " stroke-width="1" stroke-dasharray="9,4" stroke="#c3c3c3" fill="none" stroke-dashoffset="0.5" />
  </g>
</svg>