<?xml version="1.0" encoding="utf-8"?>
<svg version="1.1" xmlns:xlink="http://www.w3.org/1999/xlink" width="970px" height="84px" xmlns="http://www.w3.org/2000/svg">
  <g>
    <path d="M 1 5  A 4 4 0 0 1 5 1 L 965 1  A 4 4 0 0 1 969 5 L 969 79  A 4 4 0 0 1 965 83 L 5 83  A 4 4 0 0 1 1 79 L 1 5  Z " fill-rule="nonzero" fill="#ffffff" stroke="none" />
    <path d="M 0.5 5  A 4.5 4.5 0 0 1 5 0.5 L 965 0.5  A 4.5 4.5 0 0 1 969.5 5 L 969.5 79  A 4.5 4.5 0 0 1 965 83.5 L 5 83.5  A 4.5 4.5 0 0 1 0.5 79 L 0.5 5  Z " stroke-width="1" stroke-dasharray="9,4" stroke="#c3c3c3" fill="none" stroke-dashoffset="0.5" />
  </g>
</svg>