<?xml version="1.0" encoding="utf-8"?>
<svg version="1.1" xmlns:xlink="http://www.w3.org/1999/xlink" width="177px" height="29px" xmlns="http://www.w3.org/2000/svg">
  <defs>
    <linearGradient gradientUnits="userSpaceOnUse" x1="719.5" y1="21" x2="719.5" y2="50" id="LinearGradient510">
      <stop id="Stop511" stop-color="#f2f2f2" offset="0" />
      <stop id="Stop512" stop-color="#e4e4e4" offset="1" />
      <stop id="Stop513" stop-color="#ffffff" offset="1" />
    </linearGradient>
  </defs>
  <g transform="matrix(1 0 0 1 -631 -21 )">
    <path d="M 631.5 35.5  A 14 14 0 0 1 645.5 21.5 L 793.5 21.5  A 14 14 0 0 1 807.5 35.5 A 14 14 0 0 1 793.5 49.5 L 645.5 49.5  A 14 14 0 0 1 631.5 35.5 Z " fill-rule="nonzero" fill="#ffffff" stroke="none" />
    <path d="M 631.5 35.5  A 14 14 0 0 1 645.5 21.5 L 793.5 21.5  A 14 14 0 0 1 807.5 35.5 A 14 14 0 0 1 793.5 49.5 L 645.5 49.5  A 14 14 0 0 1 631.5 35.5 Z " stroke-width="1" stroke="url(#LinearGradient510)" fill="none" />
  </g>
</svg>