<?xml version="1.0" encoding="utf-8"?>
<svg version="1.1" xmlns:xlink="http://www.w3.org/1999/xlink" width="19px" height="20px" xmlns="http://www.w3.org/2000/svg">
  <g transform="matrix(1 0 0 1 -827 -27 )">
    <path d="M 9.5 19.1071428571429  C 9.62179487179487 19.1071428571429  9.68269230769231 19.047619047619  9.68269230769231 18.9285714285714  C 9.68269230769231 18.8095238095238  9.62179487179487 18.75  9.5 18.75  C 9.05088141025641 18.75  8.66456330128205 18.5918898809524  8.34104567307692 18.2756696428571  C 8.0175280448718 17.9594494047619  7.85576923076923 17.5818452380952  7.85576923076923 17.1428571428571  C 7.85576923076923 17.0238095238095  7.7948717948718 16.9642857142857  7.67307692307692 16.9642857142857  C 7.55128205128205 16.9642857142857  7.49038461538462 17.0238095238095  7.49038461538462 17.1428571428571  C 7.49038461538462 17.6860119047619  7.68639823717949 18.149181547619  8.07842548076923 18.5323660714286  C 8.47045272435897 18.9155505952381  8.9443108974359 19.1071428571429  9.5 19.1071428571429  Z M 17.9609375 14.7321428571429  C 18.2730368589744 15.0744047619048  18.619391025641 15.4017857142857  19 15.7142857142857  C 19 16.1011904761905  18.8553685897436 16.4360119047619  18.5661057692308 16.71875  C 18.2768429487179 17.0014880952381  17.9342948717949 17.1428571428571  17.5384615384615 17.1428571428571  L 12.4230769230769 17.1428571428571  C 12.4230769230769 17.9315476190476  12.1376201923077 18.6049107142857  11.5667067307692 19.1629464285714  C 10.9957932692308 19.7209821428571  10.306891025641 20  9.5 20  C 8.69310897435897 20  8.00420673076923 19.7209821428571  7.43329326923077 19.1629464285714  C 6.86237980769231 18.6049107142857  6.57692307692308 17.9315476190476  6.57692307692308 17.1428571428571  L 1.46153846153846 17.1428571428571  C 1.06570512820513 17.1428571428571  0.723157051282051 17.0014880952381  0.433894230769231 16.71875  C 0.14463141025641 16.4360119047619  0 16.1011904761905  0 15.7142857142857  C 0.380608974358974 15.4017857142857  0.726963141025641 15.0744047619048  1.0390625 14.7321428571429  C 1.35116185897436 14.389880952381  1.67467948717949 13.9453125  2.00961538461538 13.3984375  C 2.34455128205128 12.8515625  2.62810496794872 12.2619047619048  2.86027644230769 11.6294642857143  C 3.09244791666667 10.9970238095238  3.28275240384615 10.2306547619048  3.43118990384615 9.33035714285714  C 3.57962740384615 8.43005952380952  3.65384615384615 7.46279761904762  3.65384615384615 6.42857142857143  C 3.65384615384615 5.29761904761905  4.09915865384615 4.24665178571429  4.98978365384615 3.27566964285714  C 5.88040865384615 2.3046875  7.04887820512821 1.71502976190476  8.49519230769231 1.50669642857143  C 8.43429487179487 1.36532738095238  8.40384615384615 1.2202380952381  8.40384615384615 1.07142857142857  C 8.40384615384615 0.773809523809523  8.51041666666667 0.520833333333333  8.72355769230769 0.3125  C 8.93669871794872 0.104166666666667  9.19551282051282 0  9.5 0  C 9.80448717948718 0  10.0633012820513 0.104166666666667  10.2764423076923 0.3125  C 10.4895833333333 0.520833333333333  10.5961538461538 0.773809523809523  10.5961538461538 1.07142857142857  C 10.5961538461538 1.2202380952381  10.5657051282051 1.36532738095238  10.5048076923077 1.50669642857143  C 11.9511217948718 1.71502976190476  13.1195913461538 2.3046875  14.0102163461538 3.27566964285714  C 14.9008413461538 4.24665178571429  15.3461538461538 5.29761904761905  15.3461538461538 6.42857142857143  C 15.3461538461538 7.46279761904762  15.4203725961538 8.43005952380952  15.5688100961538 9.33035714285714  C 15.7172475961538 10.2306547619048  15.9075520833333 10.9970238095238  16.1397235576923 11.6294642857143  C 16.3718950320513 12.2619047619048  16.6554487179487 12.8515625  16.9903846153846 13.3984375  C 17.3253205128205 13.9453125  17.6488381410256 14.389880952381  17.9609375 14.7321428571429  Z " fill-rule="nonzero" fill="#000000" stroke="none" transform="matrix(1 0 0 1 827 27 )" />
  </g>
</svg>