<?xml version="1.0" encoding="utf-8"?>
<svg version="1.1" xmlns:xlink="http://www.w3.org/1999/xlink" width="954px" height="224px" xmlns="http://www.w3.org/2000/svg">
  <g transform="matrix(1 0 0 1 -4 -8 )">
    <path d="M 5 13  A 4 4 0 0 1 9 9 L 953 9  A 4 4 0 0 1 957 13 L 957 227  A 4 4 0 0 1 953 231 L 9 231  A 4 4 0 0 1 5 227 L 5 13  Z " fill-rule="nonzero" fill="#ffffff" stroke="none" fill-opacity="0" />
    <path d="M 4.5 13  A 4.5 4.5 0 0 1 9 8.5 L 953 8.5  A 4.5 4.5 0 0 1 957.5 13 L 957.5 227  A 4.5 4.5 0 0 1 953 231.5 L 9 231.5  A 4.5 4.5 0 0 1 4.5 227 L 4.5 13  Z " stroke-width="1" stroke-dasharray="9,4" stroke="#acacac" fill="none" stroke-dashoffset="0.5" />
  </g>
</svg>