<?xml version="1.0" encoding="utf-8"?>
<svg version="1.1" xmlns:xlink="http://www.w3.org/1999/xlink" width="80px" height="80px" xmlns="http://www.w3.org/2000/svg">
  <defs>
    <mask fill="white" id="clip1211">
      <path d="M 250 179  C 227.8 179  210 161.2  210 139  L 210 139  C 210 116.8  227.8 99  250 99  L 250 99  C 272.2 99  290 116.8  290 139  L 290 139  C 290 161.2  272.2 179  250 179  " fill-rule="evenodd" />
    </mask>
  </defs>
  <g transform="matrix(1 0 0 1 -210 -99 )">
    <path d="M 210 99  L 290 99  L 290 179  L 210 179  L 210 99  " fill-rule="nonzero" fill="#cccccc" stroke="none" mask="url(#clip1211)" />
    <path d="M 216 105  L 284 105  L 284 173  L 216 173  L 216 105  " fill-rule="nonzero" fill="#ffffff" stroke="none" mask="url(#clip1211)" />
    <path d="M 257.6 123  C 254.24 123  251.6 120.36  251.6 117  C 251.6 113.64  254.24 111  257.6 111  C 260.96 111  263.6 113.64  263.6 117  C 263.6 120.36  260.96 123  257.6 123  " fill-rule="nonzero" fill="#cccccc" stroke="none" mask="url(#clip1211)" />
    <path d="M 218 171  L 218 135.8  L 234 119.8  L 256.4 132.6  L 269.2 129.4  L 282 132.6  L 282 171  L 218 171  " fill-rule="nonzero" fill="#169bd5" stroke="none" mask="url(#clip1211)" />
  </g>
</svg>