<?xml version="1.0" encoding="utf-8"?>
<svg version="1.1" xmlns:xlink="http://www.w3.org/1999/xlink" width="976px" height="391px" xmlns="http://www.w3.org/2000/svg">
  <g transform="matrix(1 0 0 1 -11 -4 )">
    <path d="M 12 9  A 4 4 0 0 1 16 5 L 982 5  A 4 4 0 0 1 986 9 L 986 390  A 4 4 0 0 1 982 394 L 16 394  A 4 4 0 0 1 12 390 L 12 9  Z " fill-rule="nonzero" fill="#ffffff" stroke="none" fill-opacity="0" />
    <path d="M 11.5 9  A 4.5 4.5 0 0 1 16 4.5 L 982 4.5  A 4.5 4.5 0 0 1 986.5 9 L 986.5 390  A 4.5 4.5 0 0 1 982 394.5 L 16 394.5  A 4.5 4.5 0 0 1 11.5 390 L 11.5 9  Z " stroke-width="1" stroke-dasharray="9,4" stroke="#dedede" fill="none" stroke-dashoffset="0.5" />
  </g>
</svg>