<?xml version="1.0" encoding="utf-8"?>
<svg version="1.1" xmlns:xlink="http://www.w3.org/1999/xlink" width="958px" height="350px" xmlns="http://www.w3.org/2000/svg">
  <g transform="matrix(1 0 0 1 -10 -8 )">
    <path d="M 11 13  A 4 4 0 0 1 15 9 L 963 9  A 4 4 0 0 1 967 13 L 967 353  A 4 4 0 0 1 963 357 L 15 357  A 4 4 0 0 1 11 353 L 11 13  Z " fill-rule="nonzero" fill="#ffffff" stroke="none" fill-opacity="0" />
    <path d="M 10.5 13  A 4.5 4.5 0 0 1 15 8.5 L 963 8.5  A 4.5 4.5 0 0 1 967.5 13 L 967.5 353  A 4.5 4.5 0 0 1 963 357.5 L 15 357.5  A 4.5 4.5 0 0 1 10.5 353 L 10.5 13  Z " stroke-width="1" stroke-dasharray="9,4" stroke="#d7c7c7" fill="none" stroke-dashoffset="0.5" />
  </g>
</svg>