<?xml version="1.0" encoding="utf-8"?>
<svg version="1.1" xmlns:xlink="http://www.w3.org/1999/xlink" width="972px" height="502px" xmlns="http://www.w3.org/2000/svg">
  <g transform="matrix(1 0 0 1 -5 -7 )">
    <path d="M 6 12  A 4 4 0 0 1 10 8 L 972 8  A 4 4 0 0 1 976 12 L 976 504  A 4 4 0 0 1 972 508 L 10 508  A 4 4 0 0 1 6 504 L 6 12  Z " fill-rule="nonzero" fill="#ffffff" stroke="none" fill-opacity="0" />
    <path d="M 5.5 12  A 4.5 4.5 0 0 1 10 7.5 L 972 7.5  A 4.5 4.5 0 0 1 976.5 12 L 976.5 504  A 4.5 4.5 0 0 1 972 508.5 L 10 508.5  A 4.5 4.5 0 0 1 5.5 504 L 5.5 12  Z " stroke-width="1" stroke-dasharray="9,4" stroke="#c3c3c3" fill="none" stroke-dashoffset="0.5" />
  </g>
</svg>