<?xml version="1.0" encoding="utf-8"?>
<svg version="1.1" xmlns:xlink="http://www.w3.org/1999/xlink" width="972px" height="504px" xmlns="http://www.w3.org/2000/svg">
  <g transform="matrix(1 0 0 1 -5 -6 )">
    <path d="M 6 11  A 4 4 0 0 1 10 7 L 972 7  A 4 4 0 0 1 976 11 L 976 505  A 4 4 0 0 1 972 509 L 10 509  A 4 4 0 0 1 6 505 L 6 11  Z " fill-rule="nonzero" fill="#ffffff" stroke="none" fill-opacity="0" />
    <path d="M 5.5 11  A 4.5 4.5 0 0 1 10 6.5 L 972 6.5  A 4.5 4.5 0 0 1 976.5 11 L 976.5 505  A 4.5 4.5 0 0 1 972 509.5 L 10 509.5  A 4.5 4.5 0 0 1 5.5 505 L 5.5 11  Z " stroke-width="1" stroke-dasharray="9,4" stroke="#c3c3c3" fill="none" stroke-dashoffset="0.5" />
  </g>
</svg>