<?xml version="1.0" encoding="utf-8"?>
<svg version="1.1" xmlns:xlink="http://www.w3.org/1999/xlink" width="966px" height="318px" xmlns="http://www.w3.org/2000/svg">
  <g transform="matrix(1 0 0 1 -7 -10 )">
    <path d="M 8 15  A 4 4 0 0 1 12 11 L 968 11  A 4 4 0 0 1 972 15 L 972 323  A 4 4 0 0 1 968 327 L 12 327  A 4 4 0 0 1 8 323 L 8 15  Z " fill-rule="nonzero" fill="#ffffff" stroke="none" fill-opacity="0" />
    <path d="M 7.5 15  A 4.5 4.5 0 0 1 12 10.5 L 968 10.5  A 4.5 4.5 0 0 1 972.5 15 L 972.5 323  A 4.5 4.5 0 0 1 968 327.5 L 12 327.5  A 4.5 4.5 0 0 1 7.5 323 L 7.5 15  Z " stroke-width="1" stroke-dasharray="9,4" stroke="#dedede" fill="none" stroke-dashoffset="0.5" />
  </g>
</svg>