<?xml version="1.0" encoding="utf-8"?>
<svg version="1.1" xmlns:xlink="http://www.w3.org/1999/xlink" width="959px" height="369px" xmlns="http://www.w3.org/2000/svg">
  <g transform="matrix(1 0 0 1 -14 -15 )">
    <path d="M 15 20  A 4 4 0 0 1 19 16 L 968 16  A 4 4 0 0 1 972 20 L 972 379  A 4 4 0 0 1 968 383 L 19 383  A 4 4 0 0 1 15 379 L 15 20  Z " fill-rule="nonzero" fill="#ffffff" stroke="none" fill-opacity="0" />
    <path d="M 14.5 20  A 4.5 4.5 0 0 1 19 15.5 L 968 15.5  A 4.5 4.5 0 0 1 972.5 20 L 972.5 379  A 4.5 4.5 0 0 1 968 383.5 L 19 383.5  A 4.5 4.5 0 0 1 14.5 379 L 14.5 20  Z " stroke-width="1" stroke-dasharray="9,4" stroke="#dedede" fill="none" stroke-dashoffset="0.5" />
  </g>
</svg>