<?xml version="1.0" encoding="utf-8"?>
<svg version="1.1" xmlns:xlink="http://www.w3.org/1999/xlink" width="12px" height="12px" viewBox="100 34.5  12 12" xmlns="http://www.w3.org/2000/svg">
  <path d="M 106 34.5  C 109.36 34.5  112 37.14  112 40.5  C 112 43.86  109.36 46.5  106 46.5  C 102.64 46.5  100 43.86  100 40.5  C 100 37.14  102.64 34.5  106 34.5  Z " fill-rule="nonzero" fill="#ffffff" stroke="none" />
  <path d="M 106 35  C 109.08 35  111.5 37.42  111.5 40.5  C 111.5 43.58  109.08 46  106 46  C 102.92 46  100.5 43.58  100.5 40.5  C 100.5 37.42  102.92 35  106 35  Z " stroke-width="1" stroke="#797979" fill="none" />
  <path d="M 106 43.5  C 104.32 43.5  103 42.18  103 40.5  C 103 38.82  104.32 37.5  106 37.5  C 107.68 37.5  109 38.82  109 40.5  C 109 42.18  107.68 43.5  106 43.5  " fill-rule="nonzero" fill="#797979" stroke="none" />
</svg>