<?xml version="1.0" encoding="utf-8"?>
<svg version="1.1" xmlns:xlink="http://www.w3.org/1999/xlink" width="12px" height="12px" viewBox="0 39.5  12 12" xmlns="http://www.w3.org/2000/svg">
  <path d="M 6 39.5  C 9.36 39.5  12 42.14  12 45.5  C 12 48.86  9.36 51.5  6 51.5  C 2.64 51.5  0 48.86  0 45.5  C 0 42.14  2.64 39.5  6 39.5  Z " fill-rule="nonzero" fill="#ffffff" stroke="none" />
  <path d="M 6 40  C 9.08 40  11.5 42.42  11.5 45.5  C 11.5 48.58  9.08 51  6 51  C 2.92 51  0.5 48.58  0.5 45.5  C 0.5 42.42  2.92 40  6 40  Z " stroke-width="1" stroke="#797979" fill="none" />
  <path d="M 6 48.5  C 4.32 48.5  3 47.18  3 45.5  C 3 43.82  4.32 42.5  6 42.5  C 7.68 42.5  9 43.82  9 45.5  C 9 47.18  7.68 48.5  6 48.5  " fill-rule="nonzero" fill="#797979" stroke="none" />
</svg>