<?xml version="1.0" encoding="utf-8"?>
<svg version="1.1" xmlns:xlink="http://www.w3.org/1999/xlink" width="12px" height="12px" viewBox="14 54.5  12 12" xmlns="http://www.w3.org/2000/svg">
  <path d="M 20 54.5  C 23.36 54.5  26 57.14  26 60.5  C 26 63.86  23.36 66.5  20 66.5  C 16.64 66.5  14 63.86  14 60.5  C 14 57.14  16.64 54.5  20 54.5  Z " fill-rule="nonzero" fill="#f0f0f0" stroke="none" />
  <path d="M 20 55  C 23.08 55  25.5 57.42  25.5 60.5  C 25.5 63.58  23.08 66  20 66  C 16.92 66  14.5 63.58  14.5 60.5  C 14.5 57.42  16.92 55  20 55  Z " stroke-width="1" stroke="#797979" fill="none" />
  <path d="M 20 63.5  C 18.32 63.5  17 62.18  17 60.5  C 17 58.82  18.32 57.5  20 57.5  C 21.68 57.5  23 58.82  23 60.5  C 23 62.18  21.68 63.5  20 63.5  " fill-rule="nonzero" fill="#797979" stroke="none" />
</svg>