<?xml version="1.0" encoding="utf-8"?>
<svg version="1.1" xmlns:xlink="http://www.w3.org/1999/xlink" width="12px" height="12px" viewBox="14 118.5  12 12" xmlns="http://www.w3.org/2000/svg">
  <path d="M 20 118.5  C 23.36 118.5  26 121.14  26 124.5  C 26 127.86  23.36 130.5  20 130.5  C 16.64 130.5  14 127.86  14 124.5  C 14 121.14  16.64 118.5  20 118.5  Z " fill-rule="nonzero" fill="#ffffff" stroke="none" />
  <path d="M 20 119  C 23.08 119  25.5 121.42  25.5 124.5  C 25.5 127.58  23.08 130  20 130  C 16.92 130  14.5 127.58  14.5 124.5  C 14.5 121.42  16.92 119  20 119  Z " stroke-width="1" stroke="#797979" fill="none" />
  <path d="M 20 127.5  C 18.32 127.5  17 126.18  17 124.5  C 17 122.82  18.32 121.5  20 121.5  C 21.68 121.5  23 122.82  23 124.5  C 23 126.18  21.68 127.5  20 127.5  " fill-rule="nonzero" fill="#797979" stroke="none" />
</svg>