<?xml version="1.0" encoding="utf-8"?>
<svg version="1.1" xmlns:xlink="http://www.w3.org/1999/xlink" width="12px" height="12px" viewBox="11 78.5  12 12" xmlns="http://www.w3.org/2000/svg">
  <path d="M 17 78.5  C 20.36 78.5  23 81.14  23 84.5  C 23 87.86  20.36 90.5  17 90.5  C 13.64 90.5  11 87.86  11 84.5  C 11 81.14  13.64 78.5  17 78.5  Z " fill-rule="nonzero" fill="#ffffff" stroke="none" />
  <path d="M 17 79  C 20.08 79  22.5 81.42  22.5 84.5  C 22.5 87.58  20.08 90  17 90  C 13.92 90  11.5 87.58  11.5 84.5  C 11.5 81.42  13.92 79  17 79  Z " stroke-width="1" stroke="#797979" fill="none" />
  <path d="M 17 87.5  C 15.32 87.5  14 86.18  14 84.5  C 14 82.82  15.32 81.5  17 81.5  C 18.68 81.5  20 82.82  20 84.5  C 20 86.18  18.68 87.5  17 87.5  " fill-rule="nonzero" fill="#797979" stroke="none" />
</svg>