<?xml version="1.0" encoding="utf-8"?>
<svg version="1.1" xmlns:xlink="http://www.w3.org/1999/xlink" width="12px" height="12px" viewBox="11 47.5  12 12" xmlns="http://www.w3.org/2000/svg">
  <path d="M 17 47.5  C 20.36 47.5  23 50.14  23 53.5  C 23 56.86  20.36 59.5  17 59.5  C 13.64 59.5  11 56.86  11 53.5  C 11 50.14  13.64 47.5  17 47.5  Z " fill-rule="nonzero" fill="#ffffff" stroke="none" />
  <path d="M 17 48  C 20.08 48  22.5 50.42  22.5 53.5  C 22.5 56.58  20.08 59  17 59  C 13.92 59  11.5 56.58  11.5 53.5  C 11.5 50.42  13.92 48  17 48  Z " stroke-width="1" stroke="#797979" fill="none" />
  <path d="M 17 56.5  C 15.32 56.5  14 55.18  14 53.5  C 14 51.82  15.32 50.5  17 50.5  C 18.68 50.5  20 51.82  20 53.5  C 20 55.18  18.68 56.5  17 56.5  " fill-rule="nonzero" fill="#797979" stroke="none" />
</svg>