<?xml version="1.0" encoding="utf-8"?>
<svg version="1.1" xmlns:xlink="http://www.w3.org/1999/xlink" width="12px" height="12px" viewBox="135 118.5  12 12" xmlns="http://www.w3.org/2000/svg">
  <path d="M 141 118.5  C 144.36 118.5  147 121.14  147 124.5  C 147 127.86  144.36 130.5  141 130.5  C 137.64 130.5  135 127.86  135 124.5  C 135 121.14  137.64 118.5  141 118.5  Z " fill-rule="nonzero" fill="#f0f0f0" stroke="none" />
  <path d="M 141 119  C 144.08 119  146.5 121.42  146.5 124.5  C 146.5 127.58  144.08 130  141 130  C 137.92 130  135.5 127.58  135.5 124.5  C 135.5 121.42  137.92 119  141 119  Z " stroke-width="1" stroke="#797979" fill="none" />
  <path d="M 141 127.5  C 139.32 127.5  138 126.18  138 124.5  C 138 122.82  139.32 121.5  141 121.5  C 142.68 121.5  144 122.82  144 124.5  C 144 126.18  142.68 127.5  141 127.5  " fill-rule="nonzero" fill="#797979" stroke="none" />
</svg>