<?xml version="1.0" encoding="utf-8"?>
<svg version="1.1" xmlns:xlink="http://www.w3.org/1999/xlink" width="12px" height="12px" viewBox="135 420.5  12 12" xmlns="http://www.w3.org/2000/svg">
  <path d="M 141 420.5  C 144.36 420.5  147 423.14  147 426.5  C 147 429.86  144.36 432.5  141 432.5  C 137.64 432.5  135 429.86  135 426.5  C 135 423.14  137.64 420.5  141 420.5  Z " fill-rule="nonzero" fill="#ffffff" stroke="none" />
  <path d="M 141 421  C 144.08 421  146.5 423.42  146.5 426.5  C 146.5 429.58  144.08 432  141 432  C 137.92 432  135.5 429.58  135.5 426.5  C 135.5 423.42  137.92 421  141 421  Z " stroke-width="1" stroke="#797979" fill="none" />
  <path d="M 141 429.5  C 139.32 429.5  138 428.18  138 426.5  C 138 424.82  139.32 423.5  141 423.5  C 142.68 423.5  144 424.82  144 426.5  C 144 428.18  142.68 429.5  141 429.5  " fill-rule="nonzero" fill="#797979" stroke="none" />
</svg>