<?xml version="1.0" encoding="utf-8"?>
<svg version="1.1" xmlns:xlink="http://www.w3.org/1999/xlink" width="12px" height="12px" viewBox="14 420.5  12 12" xmlns="http://www.w3.org/2000/svg">
  <path d="M 20 420.5  C 23.36 420.5  26 423.14  26 426.5  C 26 429.86  23.36 432.5  20 432.5  C 16.64 432.5  14 429.86  14 426.5  C 14 423.14  16.64 420.5  20 420.5  Z " fill-rule="nonzero" fill="#ffffff" stroke="none" />
  <path d="M 20 421  C 23.08 421  25.5 423.42  25.5 426.5  C 25.5 429.58  23.08 432  20 432  C 16.92 432  14.5 429.58  14.5 426.5  C 14.5 423.42  16.92 421  20 421  Z " stroke-width="1" stroke="#797979" fill="none" />
  <path d="M 20 429.5  C 18.32 429.5  17 428.18  17 426.5  C 17 424.82  18.32 423.5  20 423.5  C 21.68 423.5  23 424.82  23 426.5  C 23 428.18  21.68 429.5  20 429.5  " fill-rule="nonzero" fill="#797979" stroke="none" />
</svg>