<?xml version="1.0" encoding="utf-8"?>
<svg version="1.1" xmlns:xlink="http://www.w3.org/1999/xlink" width="12px" height="12px" viewBox="132 47.5  12 12" xmlns="http://www.w3.org/2000/svg">
  <path d="M 138 47.5  C 141.36 47.5  144 50.14  144 53.5  C 144 56.86  141.36 59.5  138 59.5  C 134.64 59.5  132 56.86  132 53.5  C 132 50.14  134.64 47.5  138 47.5  Z " fill-rule="nonzero" fill="#f0f0f0" stroke="none" />
  <path d="M 138 48  C 141.08 48  143.5 50.42  143.5 53.5  C 143.5 56.58  141.08 59  138 59  C 134.92 59  132.5 56.58  132.5 53.5  C 132.5 50.42  134.92 48  138 48  Z " stroke-width="1" stroke="#797979" fill="none" />
  <path d="M 138 56.5  C 136.32 56.5  135 55.18  135 53.5  C 135 51.82  136.32 50.5  138 50.5  C 139.68 50.5  141 51.82  141 53.5  C 141 55.18  139.68 56.5  138 56.5  " fill-rule="nonzero" fill="#797979" stroke="none" />
</svg>