<?xml version="1.0" encoding="utf-8"?>
<svg version="1.1" xmlns:xlink="http://www.w3.org/1999/xlink" width="22px" height="14px" xmlns="http://www.w3.org/2000/svg">
  <g transform="matrix(1 0 0 1 -164 -144 )">
    <path d="M 0.5478515625 9.71796875  C 0.1826171875 8.85390625  0 7.94791666666667  0 7  C 0 6.05208333333333  0.1826171875 5.14609375  0.5478515625 4.28203125  C 0.9130859375 3.41796875  1.40185546875 2.67421875  2.01416015625 2.05078125  C 2.62646484375 1.42734375  3.35693359375 0.9296875  4.20556640625 0.557812499999999  C 5.05419921875 0.1859375  5.94401041666667 0  6.875 0  L 15.125 0  C 16.0559895833333 0  16.94580078125 0.1859375  17.79443359375 0.557812499999999  C 18.64306640625 0.9296875  19.37353515625 1.42734375  19.98583984375 2.05078125  C 20.59814453125 2.67421875  21.0869140625 3.41796875  21.4521484375 4.28203125  C 21.8173828125 5.14609375  22 6.05208333333333  22 7  C 22 7.94791666666667  21.8173828125 8.85390625  21.4521484375 9.71796875  C 21.0869140625 10.58203125  20.59814453125 11.32578125  19.98583984375 11.94921875  C 19.37353515625 12.57265625  18.64306640625 13.0703125  17.79443359375 13.4421875  C 16.94580078125 13.8140625  16.0559895833333 14  15.125 14  L 6.875 14  C 5.94401041666667 14  5.05419921875 13.8140625  4.20556640625 13.4421875  C 3.35693359375 13.0703125  2.62646484375 12.57265625  2.01416015625 11.94921875  C 1.40185546875 11.32578125  0.9130859375 10.58203125  0.5478515625 9.71796875  Z M 12.99267578125 12.15703125  C 13.66943359375 12.45234375  14.3802083333333 12.6  15.125 12.6  C 15.8697916666667 12.6  16.58056640625 12.45234375  17.25732421875 12.15703125  C 17.93408203125 11.86171875  18.51953125 11.4625  19.013671875 10.959375  C 19.5078125 10.45625  19.89990234375 9.86015625  20.18994140625 9.17109375  C 20.47998046875 8.48203125  20.625 7.75833333333333  20.625 7  C 20.625 6.24166666666667  20.47998046875 5.51796875  20.18994140625 4.82890625  C 19.89990234375 4.13984375  19.5078125 3.54375  19.013671875 3.040625  C 18.51953125 2.5375  17.93408203125 2.13828125  17.25732421875 1.84296875  C 16.58056640625 1.54765625  15.8697916666667 1.4  15.125 1.4  C 14.3802083333333 1.4  13.66943359375 1.54765625  12.99267578125 1.84296875  C 12.31591796875 2.13828125  11.73046875 2.5375  11.236328125 3.040625  C 10.7421875 3.54375  10.35009765625 4.13984375  10.06005859375 4.82890625  C 9.77001953125 5.51796875  9.625 6.24166666666667  9.625 7  C 9.625 7.75833333333333  9.77001953125 8.48203125  10.06005859375 9.17109375  C 10.35009765625 9.86015625  10.7421875 10.45625  11.236328125 10.959375  C 11.73046875 11.4625  12.31591796875 11.86171875  12.99267578125 12.15703125  Z " fill-rule="nonzero" fill="#59953b" stroke="none" transform="matrix(1 0 0 1 164 144 )" />
  </g>
</svg>