<?xml version="1.0" encoding="utf-8"?>
<svg version="1.1" xmlns:xlink="http://www.w3.org/1999/xlink" width="12px" height="12px" viewBox="0 55.5  12 12" xmlns="http://www.w3.org/2000/svg">
  <path d="M 6 55.5  C 9.36 55.5  12 58.14  12 61.5  C 12 64.86  9.36 67.5  6 67.5  C 2.64 67.5  0 64.86  0 61.5  C 0 58.14  2.64 55.5  6 55.5  Z " fill-rule="nonzero" fill="#ffffff" stroke="none" />
  <path d="M 6 56  C 9.08 56  11.5 58.42  11.5 61.5  C 11.5 64.58  9.08 67  6 67  C 2.92 67  0.5 64.58  0.5 61.5  C 0.5 58.42  2.92 56  6 56  Z " stroke-width="1" stroke="#797979" fill="none" />
  <path d="M 6 64.5  C 4.32 64.5  3 63.18  3 61.5  C 3 59.82  4.32 58.5  6 58.5  C 7.68 58.5  9 59.82  9 61.5  C 9 63.18  7.68 64.5  6 64.5  " fill-rule="nonzero" fill="#797979" stroke="none" />
</svg>