<?xml version="1.0" encoding="utf-8"?>
<svg version="1.1" xmlns:xlink="http://www.w3.org/1999/xlink" width="12px" height="12px" viewBox="1001 214.5  12 12" xmlns="http://www.w3.org/2000/svg">
  <path d="M 1007 214.5  C 1010.36 214.5  1013 217.14  1013 220.5  C 1013 223.86  1010.36 226.5  1007 226.5  C 1003.64 226.5  1001 223.86  1001 220.5  C 1001 217.14  1003.64 214.5  1007 214.5  Z " fill-rule="nonzero" fill="#ffffff" stroke="none" />
  <path d="M 1007 215  C 1010.08 215  1012.5 217.42  1012.5 220.5  C 1012.5 223.58  1010.08 226  1007 226  C 1003.92 226  1001.5 223.58  1001.5 220.5  C 1001.5 217.42  1003.92 215  1007 215  Z " stroke-width="1" stroke="#797979" fill="none" />
  <path d="M 1007 223.5  C 1005.32 223.5  1004 222.18  1004 220.5  C 1004 218.82  1005.32 217.5  1007 217.5  C 1008.68 217.5  1010 218.82  1010 220.5  C 1010 222.18  1008.68 223.5  1007 223.5  " fill-rule="nonzero" fill="#797979" stroke="none" />
</svg>