<?xml version="1.0" encoding="utf-8"?>
<svg version="1.1" xmlns:xlink="http://www.w3.org/1999/xlink" width="12px" height="12px" viewBox="0 27.5  12 12" xmlns="http://www.w3.org/2000/svg">
  <path d="M 6 27.5  C 9.36 27.5  12 30.14  12 33.5  C 12 36.86  9.36 39.5  6 39.5  C 2.64 39.5  0 36.86  0 33.5  C 0 30.14  2.64 27.5  6 27.5  Z " fill-rule="nonzero" fill="#ffffff" stroke="none" />
  <path d="M 6 28  C 9.08 28  11.5 30.42  11.5 33.5  C 11.5 36.58  9.08 39  6 39  C 2.92 39  0.5 36.58  0.5 33.5  C 0.5 30.42  2.92 28  6 28  Z " stroke-width="1" stroke="#797979" fill="none" />
  <path d="M 6 36.5  C 4.32 36.5  3 35.18  3 33.5  C 3 31.82  4.32 30.5  6 30.5  C 7.68 30.5  9 31.82  9 33.5  C 9 35.18  7.68 36.5  6 36.5  " fill-rule="nonzero" fill="#797979" stroke="none" />
</svg>