<?xml version="1.0" encoding="utf-8"?>
<svg version="1.1" xmlns:xlink="http://www.w3.org/1999/xlink" width="84px" height="61px" xmlns="http://www.w3.org/2000/svg">
  <defs>
    <mask fill="white" id="clip1921">
      <path d="M 5.5 60.5  C 2.725 60.5  0.5 58.275  0.5 55.5  L 0.5 5.5  C 0.5 2.725  2.725 0.5  5.5 0.5  L 78.5 0.5  C 81.275 0.5  83.5 2.725  83.5 5.5  L 83.5 55.5  C 83.5 58.275  81.275 60.5  78.5 60.5  L 5.5 60.5  " fill-rule="evenodd" />
    </mask>
  </defs>
  <g>
    <path d="M 0 0  L 84 0  L 84 61  L 0 61  L 0 0  " fill-rule="nonzero" fill="#cccccc" stroke="none" mask="url(#clip1921)" />
    <path d="M 4 4  L 80 4  L 80 57  L 4 57  L 4 4  " fill-rule="nonzero" fill="#ffffff" stroke="none" mask="url(#clip1921)" />
    <path d="M 48.255 18.3  C 45.693 18.3  43.68 16.287  43.68 13.725  C 43.68 11.163  45.693 9.15  48.255 9.15  C 50.817 9.15  52.83 11.163  52.83 13.725  C 52.83 16.287  50.817 18.3  48.255 18.3  " fill-rule="nonzero" fill="#cccccc" stroke="none" mask="url(#clip1921)" />
    <path d="M 6 56  L 6 28.5  L 24.25 16  L 49.8 34.2142857142857  L 64.4 23.5  L 79 34.2142857142857  L 79 56  L 6 56  " fill-rule="nonzero" fill="#169bd5" stroke="none" mask="url(#clip1921)" />
    <path d="M 5 60  C 2.78 60  1 58.22  1 56  L 1 5  C 1 2.78  2.78 1  5 1  L 79 1  C 81.22 1  83 2.78  83 5  L 83 56  C 83 58.22  81.22 60  79 60  L 5 60  Z " stroke-width="2" stroke="#5a9100" fill="none" mask="url(#clip1921)" />
  </g>
</svg>