<?xml version="1.0" encoding="utf-8"?>
<svg version="1.1" xmlns:xlink="http://www.w3.org/1999/xlink" width="12px" height="12px" viewBox="121 172.5  12 12" xmlns="http://www.w3.org/2000/svg">
  <path d="M 127 172.5  C 130.36 172.5  133 175.14  133 178.5  C 133 181.86  130.36 184.5  127 184.5  C 123.64 184.5  121 181.86  121 178.5  C 121 175.14  123.64 172.5  127 172.5  Z " fill-rule="nonzero" fill="#f0f0f0" stroke="none" />
  <path d="M 127 173  C 130.08 173  132.5 175.42  132.5 178.5  C 132.5 181.58  130.08 184  127 184  C 123.92 184  121.5 181.58  121.5 178.5  C 121.5 175.42  123.92 173  127 173  Z " stroke-width="1" stroke="#797979" fill="none" />
  <path d="M 127 181.5  C 125.32 181.5  124 180.18  124 178.5  C 124 176.82  125.32 175.5  127 175.5  C 128.68 175.5  130 176.82  130 178.5  C 130 180.18  128.68 181.5  127 181.5  " fill-rule="nonzero" fill="#797979" stroke="none" />
</svg>