<?xml version="1.0" encoding="utf-8"?>
<svg version="1.1" xmlns:xlink="http://www.w3.org/1999/xlink" width="12px" height="12px" viewBox="0 172.5  12 12" xmlns="http://www.w3.org/2000/svg">
  <path d="M 6 172.5  C 9.36 172.5  12 175.14  12 178.5  C 12 181.86  9.36 184.5  6 184.5  C 2.64 184.5  0 181.86  0 178.5  C 0 175.14  2.64 172.5  6 172.5  Z " fill-rule="nonzero" fill="#ffffff" stroke="none" />
  <path d="M 6 173  C 9.08 173  11.5 175.42  11.5 178.5  C 11.5 181.58  9.08 184  6 184  C 2.92 184  0.5 181.58  0.5 178.5  C 0.5 175.42  2.92 173  6 173  Z " stroke-width="1" stroke="#797979" fill="none" />
  <path d="M 6 181.5  C 4.32 181.5  3 180.18  3 178.5  C 3 176.82  4.32 175.5  6 175.5  C 7.68 175.5  9 176.82  9 178.5  C 9 180.18  7.68 181.5  6 181.5  " fill-rule="nonzero" fill="#797979" stroke="none" />
</svg>