<?xml version="1.0" encoding="utf-8"?>
<svg version="1.1" xmlns:xlink="http://www.w3.org/1999/xlink" width="965px" height="318px" xmlns="http://www.w3.org/2000/svg">
  <g transform="matrix(1 0 0 1 -11 -10 )">
    <path d="M 12 15  A 4 4 0 0 1 16 11 L 971 11  A 4 4 0 0 1 975 15 L 975 323  A 4 4 0 0 1 971 327 L 16 327  A 4 4 0 0 1 12 323 L 12 15  Z " fill-rule="nonzero" fill="#ffffff" stroke="none" fill-opacity="0" />
    <path d="M 11.5 15  A 4.5 4.5 0 0 1 16 10.5 L 971 10.5  A 4.5 4.5 0 0 1 975.5 15 L 975.5 323  A 4.5 4.5 0 0 1 971 327.5 L 16 327.5  A 4.5 4.5 0 0 1 11.5 323 L 11.5 15  Z " stroke-width="1" stroke-dasharray="9,4" stroke="#dedede" fill="none" stroke-dashoffset="0.5" />
  </g>
</svg>