<?xml version="1.0" encoding="utf-8"?>
<svg version="1.1" xmlns:xlink="http://www.w3.org/1999/xlink" width="12px" height="12px" viewBox="135 309.5  12 12" xmlns="http://www.w3.org/2000/svg">
  <path d="M 141 309.5  C 144.36 309.5  147 312.14  147 315.5  C 147 318.86  144.36 321.5  141 321.5  C 137.64 321.5  135 318.86  135 315.5  C 135 312.14  137.64 309.5  141 309.5  Z " fill-rule="nonzero" fill="#f0f0f0" stroke="none" />
  <path d="M 141 310  C 144.08 310  146.5 312.42  146.5 315.5  C 146.5 318.58  144.08 321  141 321  C 137.92 321  135.5 318.58  135.5 315.5  C 135.5 312.42  137.92 310  141 310  Z " stroke-width="1" stroke="#797979" fill="none" />
  <path d="M 141 318.5  C 139.32 318.5  138 317.18  138 315.5  C 138 313.82  139.32 312.5  141 312.5  C 142.68 312.5  144 313.82  144 315.5  C 144 317.18  142.68 318.5  141 318.5  " fill-rule="nonzero" fill="#797979" stroke="none" />
</svg>