<?xml version="1.0" encoding="utf-8"?>
<svg version="1.1" xmlns:xlink="http://www.w3.org/1999/xlink" width="12px" height="12px" viewBox="14 309.5  12 12" xmlns="http://www.w3.org/2000/svg">
  <path d="M 20 309.5  C 23.36 309.5  26 312.14  26 315.5  C 26 318.86  23.36 321.5  20 321.5  C 16.64 321.5  14 318.86  14 315.5  C 14 312.14  16.64 309.5  20 309.5  Z " fill-rule="nonzero" fill="#ffffff" stroke="none" />
  <path d="M 20 310  C 23.08 310  25.5 312.42  25.5 315.5  C 25.5 318.58  23.08 321  20 321  C 16.92 321  14.5 318.58  14.5 315.5  C 14.5 312.42  16.92 310  20 310  Z " stroke-width="1" stroke="#797979" fill="none" />
  <path d="M 20 318.5  C 18.32 318.5  17 317.18  17 315.5  C 17 313.82  18.32 312.5  20 312.5  C 21.68 312.5  23 313.82  23 315.5  C 23 317.18  21.68 318.5  20 318.5  " fill-rule="nonzero" fill="#797979" stroke="none" />
</svg>