<?xml version="1.0" encoding="utf-8"?>
<svg version="1.1" xmlns:xlink="http://www.w3.org/1999/xlink" width="977px" height="536px" xmlns="http://www.w3.org/2000/svg">
  <g transform="matrix(1 0 0 1 -6 -2 )">
    <path d="M 7 7  A 4 4 0 0 1 11 3 L 978 3  A 4 4 0 0 1 982 7 L 982 533  A 4 4 0 0 1 978 537 L 11 537  A 4 4 0 0 1 7 533 L 7 7  Z " fill-rule="nonzero" fill="#ffffff" stroke="none" fill-opacity="0" />
    <path d="M 6.5 7  A 4.5 4.5 0 0 1 11 2.5 L 978 2.5  A 4.5 4.5 0 0 1 982.5 7 L 982.5 533  A 4.5 4.5 0 0 1 978 537.5 L 11 537.5  A 4.5 4.5 0 0 1 6.5 533 L 6.5 7  Z " stroke-width="1" stroke-dasharray="9,4" stroke="#dedede" fill="none" stroke-dashoffset="0.5" />
  </g>
</svg>