<?xml version="1.0" encoding="utf-8"?>
<svg version="1.1" xmlns:xlink="http://www.w3.org/1999/xlink" width="12px" height="12px" viewBox="127 309.5  12 12" xmlns="http://www.w3.org/2000/svg">
  <path d="M 133 309.5  C 136.36 309.5  139 312.14  139 315.5  C 139 318.86  136.36 321.5  133 321.5  C 129.64 321.5  127 318.86  127 315.5  C 127 312.14  129.64 309.5  133 309.5  Z " fill-rule="nonzero" fill="#f0f0f0" stroke="none" />
  <path d="M 133 310  C 136.08 310  138.5 312.42  138.5 315.5  C 138.5 318.58  136.08 321  133 321  C 129.92 321  127.5 318.58  127.5 315.5  C 127.5 312.42  129.92 310  133 310  Z " stroke-width="1" stroke="#797979" fill="none" />
  <path d="M 133 318.5  C 131.32 318.5  130 317.18  130 315.5  C 130 313.82  131.32 312.5  133 312.5  C 134.68 312.5  136 313.82  136 315.5  C 136 317.18  134.68 318.5  133 318.5  " fill-rule="nonzero" fill="#797979" stroke="none" />
</svg>