<?xml version="1.0" encoding="utf-8"?>
<svg version="1.1" xmlns:xlink="http://www.w3.org/1999/xlink" width="12px" height="12px" viewBox="14 118  12 12" xmlns="http://www.w3.org/2000/svg">
  <path d="M 20 118  C 23.36 118  26 120.64  26 124  C 26 127.36  23.36 130  20 130  C 16.64 130  14 127.36  14 124  C 14 120.64  16.64 118  20 118  Z " fill-rule="nonzero" fill="#f0f0f0" stroke="none" />
  <path d="M 20 118.5  C 23.08 118.5  25.5 120.92  25.5 124  C 25.5 127.08  23.08 129.5  20 129.5  C 16.92 129.5  14.5 127.08  14.5 124  C 14.5 120.92  16.92 118.5  20 118.5  Z " stroke-width="1" stroke="#797979" fill="none" />
  <path d="M 20 127  C 18.32 127  17 125.68  17 124  C 17 122.32  18.32 121  20 121  C 21.68 121  23 122.32  23 124  C 23 125.68  21.68 127  20 127  " fill-rule="nonzero" fill="#797979" stroke="none" />
</svg>