<?xml version="1.0" encoding="utf-8"?>
<svg version="1.1" xmlns:xlink="http://www.w3.org/1999/xlink" width="12px" height="12px" viewBox="135 118  12 12" xmlns="http://www.w3.org/2000/svg">
  <path d="M 141 118  C 144.36 118  147 120.64  147 124  C 147 127.36  144.36 130  141 130  C 137.64 130  135 127.36  135 124  C 135 120.64  137.64 118  141 118  Z " fill-rule="nonzero" fill="#ffffff" stroke="none" />
  <path d="M 141 118.5  C 144.08 118.5  146.5 120.92  146.5 124  C 146.5 127.08  144.08 129.5  141 129.5  C 137.92 129.5  135.5 127.08  135.5 124  C 135.5 120.92  137.92 118.5  141 118.5  Z " stroke-width="1" stroke="#797979" fill="none" />
  <path d="M 141 127  C 139.32 127  138 125.68  138 124  C 138 122.32  139.32 121  141 121  C 142.68 121  144 122.32  144 124  C 144 125.68  142.68 127  141 127  " fill-rule="nonzero" fill="#797979" stroke="none" />
</svg>