<?xml version="1.0" encoding="utf-8"?>
<svg version="1.1" xmlns:xlink="http://www.w3.org/1999/xlink" width="12px" height="12px" viewBox="6 309.5  12 12" xmlns="http://www.w3.org/2000/svg">
  <path d="M 12 309.5  C 15.36 309.5  18 312.14  18 315.5  C 18 318.86  15.36 321.5  12 321.5  C 8.64 321.5  6 318.86  6 315.5  C 6 312.14  8.64 309.5  12 309.5  Z " fill-rule="nonzero" fill="#ffffff" stroke="none" />
  <path d="M 12 310  C 15.08 310  17.5 312.42  17.5 315.5  C 17.5 318.58  15.08 321  12 321  C 8.92 321  6.5 318.58  6.5 315.5  C 6.5 312.42  8.92 310  12 310  Z " stroke-width="1" stroke="#797979" fill="none" />
  <path d="M 12 318.5  C 10.32 318.5  9 317.18  9 315.5  C 9 313.82  10.32 312.5  12 312.5  C 13.68 312.5  15 313.82  15 315.5  C 15 317.18  13.68 318.5  12 318.5  " fill-rule="nonzero" fill="#797979" stroke="none" />
</svg>