<?xml version="1.0" encoding="utf-8"?>
<svg version="1.1" xmlns:xlink="http://www.w3.org/1999/xlink" width="423px" height="192px" xmlns="http://www.w3.org/2000/svg">
  <defs>
    <mask fill="white" id="clip1242">
      <path d="M 523 381  C 521.335 381  520 379.665  520 378  L 520 192  C 520 190.335  521.335 189  523 189  L 940 189  C 941.665 189  943 190.335  943 192  L 943 378  C 943 379.665  941.665 381  940 381  " fill-rule="evenodd" />
    </mask>
  </defs>
  <g transform="matrix(1 0 0 1 -520 -189 )">
    <path d="M 520 189  L 943 189  L 943 381  L 520 381  L 520 189  " fill-rule="nonzero" fill="#cccccc" stroke="none" mask="url(#clip1242)" />
    <path d="M 533 202  L 930 202  L 930 368  L 533 368  L 533 202  " fill-rule="nonzero" fill="#ffffff" stroke="none" mask="url(#clip1242)" />
    <path d="M 754.36 246.6  C 746.296 246.6  739.96 240.264  739.96 232.2  C 739.96 224.136  746.296 217.8  754.36 217.8  C 762.424 217.8  768.76 224.136  768.76 232.2  C 768.76 240.264  762.424 246.6  754.36 246.6  " fill-rule="nonzero" fill="#cccccc" stroke="none" mask="url(#clip1242)" />
    <path d="M 538 363  L 538 277.2  L 634.75 238.2  L 770.2 320.514893617021  L 847.6 261.6  L 925 320.514893617021  L 925 363  L 538 363  " fill-rule="nonzero" fill="#169bd5" stroke="none" mask="url(#clip1242)" />
  </g>
</svg>