<?xml version="1.0" encoding="utf-8"?>
<svg version="1.1" xmlns:xlink="http://www.w3.org/1999/xlink" width="12px" height="12px" viewBox="0 75.5  12 12" xmlns="http://www.w3.org/2000/svg">
  <path d="M 6 75.5  C 9.36 75.5  12 78.14  12 81.5  C 12 84.86  9.36 87.5  6 87.5  C 2.64 87.5  0 84.86  0 81.5  C 0 78.14  2.64 75.5  6 75.5  Z " fill-rule="nonzero" fill="#ffffff" stroke="none" />
  <path d="M 6 76  C 9.08 76  11.5 78.42  11.5 81.5  C 11.5 84.58  9.08 87  6 87  C 2.92 87  0.5 84.58  0.5 81.5  C 0.5 78.42  2.92 76  6 76  Z " stroke-width="1" stroke="#797979" fill="none" />
  <path d="M 6 84.5  C 4.32 84.5  3 83.18  3 81.5  C 3 79.82  4.32 78.5  6 78.5  C 7.68 78.5  9 79.82  9 81.5  C 9 83.18  7.68 84.5  6 84.5  " fill-rule="nonzero" fill="#797979" stroke="none" />
</svg>