<?xml version="1.0" encoding="utf-8"?>
<svg version="1.1" xmlns:xlink="http://www.w3.org/1999/xlink" width="12px" height="12px" viewBox="1044 210.5  12 12" xmlns="http://www.w3.org/2000/svg">
  <path d="M 1050 210.5  C 1053.36 210.5  1056 213.14  1056 216.5  C 1056 219.86  1053.36 222.5  1050 222.5  C 1046.64 222.5  1044 219.86  1044 216.5  C 1044 213.14  1046.64 210.5  1050 210.5  Z " fill-rule="nonzero" fill="#ffffff" stroke="none" />
  <path d="M 1050 211  C 1053.08 211  1055.5 213.42  1055.5 216.5  C 1055.5 219.58  1053.08 222  1050 222  C 1046.92 222  1044.5 219.58  1044.5 216.5  C 1044.5 213.42  1046.92 211  1050 211  Z " stroke-width="1" stroke="#797979" fill="none" />
  <path d="M 1050 219.5  C 1048.32 219.5  1047 218.18  1047 216.5  C 1047 214.82  1048.32 213.5  1050 213.5  C 1051.68 213.5  1053 214.82  1053 216.5  C 1053 218.18  1051.68 219.5  1050 219.5  " fill-rule="nonzero" fill="#797979" stroke="none" />
</svg>