<?xml version="1.0" encoding="utf-8"?>
<svg version="1.1" xmlns:xlink="http://www.w3.org/1999/xlink" width="12px" height="12px" viewBox="0 99.5  12 12" xmlns="http://www.w3.org/2000/svg">
  <path d="M 6 99.5  C 9.36 99.5  12 102.14  12 105.5  C 12 108.86  9.36 111.5  6 111.5  C 2.64 111.5  0 108.86  0 105.5  C 0 102.14  2.64 99.5  6 99.5  Z " fill-rule="nonzero" fill="#f0f0f0" stroke="none" />
  <path d="M 6 100  C 9.08 100  11.5 102.42  11.5 105.5  C 11.5 108.58  9.08 111  6 111  C 2.92 111  0.5 108.58  0.5 105.5  C 0.5 102.42  2.92 100  6 100  Z " stroke-width="1" stroke="#797979" fill="none" />
  <path d="M 6 108.5  C 4.32 108.5  3 107.18  3 105.5  C 3 103.82  4.32 102.5  6 102.5  C 7.68 102.5  9 103.82  9 105.5  C 9 107.18  7.68 108.5  6 108.5  " fill-rule="nonzero" fill="#797979" stroke="none" />
</svg>