<?xml version="1.0" encoding="utf-8"?>
<svg version="1.1" xmlns:xlink="http://www.w3.org/1999/xlink" width="12px" height="12px" viewBox="0 51.5  12 12" xmlns="http://www.w3.org/2000/svg">
  <path d="M 6 51.5  C 9.36 51.5  12 54.14  12 57.5  C 12 60.86  9.36 63.5  6 63.5  C 2.64 63.5  0 60.86  0 57.5  C 0 54.14  2.64 51.5  6 51.5  Z " fill-rule="nonzero" fill="#ffffff" stroke="none" />
  <path d="M 6 52  C 9.08 52  11.5 54.42  11.5 57.5  C 11.5 60.58  9.08 63  6 63  C 2.92 63  0.5 60.58  0.5 57.5  C 0.5 54.42  2.92 52  6 52  Z " stroke-width="1" stroke="#797979" fill="none" />
  <path d="M 6 60.5  C 4.32 60.5  3 59.18  3 57.5  C 3 55.82  4.32 54.5  6 54.5  C 7.68 54.5  9 55.82  9 57.5  C 9 59.18  7.68 60.5  6 60.5  " fill-rule="nonzero" fill="#797979" stroke="none" />
</svg>