<?xml version="1.0" encoding="utf-8"?>
<svg version="1.1" xmlns:xlink="http://www.w3.org/1999/xlink" width="16px" height="16px" xmlns="http://www.w3.org/2000/svg">
  <g transform="matrix(1 0 0 1 -1455 -433 )">
    <path d="M 12.9732142857143 8.04017857142857  C 13.0505952380952 8.04910714285714  13.1130952380952 8.08630952380952  13.1607142857143 8.15178571428572  L 13.5089285714286 8.60714285714286  C 13.5565476190476 8.67261904761905  13.5758928571429 8.74255952380952  13.5669642857143 8.81696428571428  C 13.5580357142857 8.89136904761905  13.5238095238095 8.95238095238095  13.4642857142857 9  C 13.2083333333333 9.20238095238095  12.8318452380952 9.49553571428572  12.3348214285714 9.87946428571428  C 11.8377976190476 10.2633928571429  11.4017857142857 10.5997023809524  11.0267857142857 10.8883928571429  C 10.6517857142857 11.1770833333333  10.452380952381 11.3303571428571  10.4285714285714 11.3482142857143  C 10.1964285714286 11.5386904761905  10.0178571428571 11.6815476190476  9.89285714285714 11.7767857142857  C 9.76785714285714 11.8720238095238  9.58779761904762 11.9940476190476  9.35267857142857 12.1428571428571  C 9.11755952380952 12.2916666666667  8.88988095238095 12.4002976190476  8.66964285714286 12.46875  C 8.44940476190476 12.5372023809524  8.22916666666667 12.5714285714286  8.00892857142857 12.5714285714286  L 8 12.5714285714286  L 7.99107142857143 12.5714285714286  C 7.77083333333333 12.5714285714286  7.55059523809524 12.5372023809524  7.33035714285714 12.46875  C 7.11011904761905 12.4002976190476  6.88392857142857 12.2916666666667  6.65178571428571 12.1428571428571  C 6.41964285714286 11.9940476190476  6.23809523809524 11.8705357142857  6.10714285714286 11.7723214285714  C 5.97619047619048 11.6741071428571  5.79761904761905 11.5327380952381  5.57142857142857 11.3482142857143  C 5.54166666666667 11.3244047619048  5.34821428571429 11.1741071428571  4.99107142857143 10.8973214285714  C 4.63392857142857 10.6205357142857  4.20684523809524 10.2901785714286  3.70982142857143 9.90625  C 3.21279761904762 9.52232142857143  2.84821428571429 9.24107142857143  2.61607142857143 9.0625  C 2.55059523809524 9.01488095238095  2.51339285714286 8.95386904761905  2.50446428571429 8.87946428571428  C 2.49553571428571 8.80505952380952  2.51488095238095 8.73511904761905  2.5625 8.66964285714286  L 2.89285714285714 8.20535714285714  C 2.94047619047619 8.13988095238095  3.00446428571429 8.10119047619047  3.08482142857143 8.08928571428572  C 3.16517857142857 8.07738095238095  3.23809523809524 8.09821428571428  3.30357142857143 8.15178571428572  C 3.86309523809524 8.58630952380952  4.77380952380952 9.28869047619047  6.03571428571429 10.2589285714286  C 6.06547619047619 10.2827380952381  6.19494047619048 10.3869047619048  6.42410714285714 10.5714285714286  C 6.65327380952381 10.7559523809524  6.83333333333333 10.8943452380952  6.96428571428571 10.9866071428571  C 7.0952380952381 11.078869047619  7.26339285714286 11.1755952380952  7.46875 11.2767857142857  C 7.67410714285714 11.3779761904762  7.84821428571429 11.4285714285714  7.99107142857143 11.4285714285714  L 8 11.4285714285714  L 8.00892857142857 11.4285714285714  C 8.15178571428572 11.4285714285714  8.32589285714286 11.3779761904762  8.53125 11.2767857142857  C 8.73660714285714 11.1755952380952  8.90476190476191 11.078869047619  9.03571428571429 10.9866071428571  C 9.16666666666667 10.8943452380952  9.34672619047619 10.7559523809524  9.57589285714286 10.5714285714286  C 9.80505952380952 10.3869047619048  9.93452380952381 10.2827380952381  9.96428571428571 10.2589285714286  C 11.5 9.08035714285714  12.4315476190476 8.36011904761905  12.7589285714286 8.09821428571428  C 12.8244047619048 8.05059523809524  12.8958333333333 8.03125  12.9732142857143 8.04017857142857  Z M 14.7723214285714 14.7723214285714  C 14.828869047619 14.7157738095238  14.8571428571429 14.6488095238095  14.8571428571429 14.5714285714286  L 14.8571428571429 6.28571428571429  C 14.3214285714286 5.79166666666667  13.8482142857143 5.37797619047619  13.4375 5.04464285714286  C 12.8958333333333 4.60416666666667  11.7380952380952 3.69940476190476  9.96428571428571 2.33035714285714  C 9.94642857142857 2.31845238095238  9.81845238095238 2.21428571428571  9.58035714285714 2.01785714285714  C 9.34226190476191 1.82142857142857  9.16071428571429 1.67857142857143  9.03571428571429 1.58928571428571  C 8.91071428571429 1.5  8.74404761904762 1.40327380952381  8.53571428571429 1.29910714285714  C 8.32738095238095 1.19494047619048  8.15178571428572 1.14285714285714  8.00892857142857 1.14285714285714  L 8 1.14285714285714  L 7.99107142857143 1.14285714285714  C 7.84821428571429 1.14285714285714  7.67261904761905 1.19494047619048  7.46428571428571 1.29910714285714  C 7.25595238095238 1.40327380952381  7.08928571428572 1.5  6.96428571428571 1.58928571428571  C 6.83928571428571 1.67857142857143  6.6577380952381 1.82142857142857  6.41964285714286 2.01785714285714  C 6.18154761904762 2.21428571428571  6.05357142857143 2.31845238095238  6.03571428571429 2.33035714285714  C 4.75595238095238 3.31845238095238  3.81696428571429 4.04910714285714  3.21875 4.52232142857143  C 2.62053571428571 4.99553571428571  2.23511904761905 5.30505952380952  2.0625 5.45089285714286  C 1.88988095238095 5.59672619047619  1.64583333333333 5.81845238095238  1.33035714285714 6.11607142857143  C 1.24702380952381 6.1875  1.18452380952381 6.24404761904762  1.14285714285714 6.28571428571429  L 1.14285714285714 14.5714285714286  C 1.14285714285714 14.6488095238095  1.17113095238095 14.7157738095238  1.22767857142857 14.7723214285714  C 1.28422619047619 14.828869047619  1.35119047619048 14.8571428571429  1.42857142857143 14.8571428571429  L 14.5714285714286 14.8571428571429  C 14.6488095238095 14.8571428571429  14.7157738095238 14.828869047619  14.7723214285714 14.7723214285714  Z M 15.6339285714286 5.44642857142857  C 15.8779761904762 5.67261904761905  16 5.95238095238095  16 6.28571428571429  L 16 14.5714285714286  C 16 14.9642857142857  15.860119047619 15.3005952380952  15.5803571428571 15.5803571428571  C 15.3005952380952 15.860119047619  14.9642857142857 16  14.5714285714286 16  L 1.42857142857143 16  C 1.03571428571429 16  0.699404761904762 15.860119047619  0.419642857142857 15.5803571428571  C 0.139880952380952 15.3005952380952  0 14.9642857142857  0 14.5714285714286  L 0 6.28571428571429  C 0 5.95238095238095  0.12202380952381 5.67261904761905  0.366071428571429 5.44642857142857  C 1.09821428571429 4.76785714285714  2.13988095238095 3.90327380952381  3.49107142857143 2.85267857142857  C 4.84226190476191 1.80208333333333  5.53571428571429 1.26190476190476  5.57142857142857 1.23214285714286  C 5.78571428571429 1.05357142857143  5.96130952380952 0.91220238095238  6.09821428571429 0.808035714285714  C 6.23511904761905 0.703869047619047  6.41815476190476 0.578869047619047  6.64732142857143 0.433035714285714  C 6.8764880952381 0.28720238095238  7.10267857142857 0.178571428571429  7.32589285714286 0.107142857142858  C 7.54910714285714 0.0357142857142865  7.77083333333333 0  7.99107142857143 0  L 8 0  L 8.00892857142857 0  C 8.22916666666667 0  8.45089285714286 0.0357142857142865  8.67410714285714 0.107142857142858  C 8.89732142857143 0.178571428571429  9.12351190476191 0.28720238095238  9.35267857142857 0.433035714285714  C 9.58184523809524 0.578869047619047  9.76488095238095 0.703869047619047  9.90178571428571 0.808035714285714  C 10.0386904761905 0.91220238095238  10.2142857142857 1.05357142857143  10.4285714285714 1.23214285714286  C 10.6845238095238 1.44642857142857  11.1488095238095 1.80952380952381  11.8214285714286 2.32142857142857  C 12.4940476190476 2.83333333333333  13.1666666666667 3.36011904761905  13.8392857142857 3.90178571428571  C 14.5119047619048 4.44345238095238  15.110119047619 4.95833333333333  15.6339285714286 5.44642857142857  Z " fill-rule="nonzero" fill="#797777" stroke="none" transform="matrix(1 0 0 1 1455 433 )" />
  </g>
</svg>