<?xml version="1.0" encoding="utf-8"?>
<svg version="1.1" xmlns:xlink="http://www.w3.org/1999/xlink" width="9px" height="5px" xmlns="http://www.w3.org/2000/svg">
  <g transform="matrix(1 0 0 1 -1035 -150 )">
    <path d="M 8.90981963927856 0.515463917525773  C 8.96993987975952 0.572737686139747  9 0.638602520045818  9 0.713058419243987  C 9 0.787514318442153  8.96993987975952 0.853379152348224  8.90981963927856 0.910652920962199  L 4.70741482965932 4.91408934707904  C 4.64729458917836 4.97136311569301  4.57815631262525 5  4.5 5  C 4.42184368737475 5  4.35270541082164 4.97136311569301  4.29258517034068 4.91408934707904  L 0.0901803607214429 0.910652920962199  C 0.030060120240481 0.853379152348224  0 0.787514318442153  0 0.713058419243987  C 0 0.638602520045818  0.030060120240481 0.572737686139747  0.0901803607214429 0.515463917525773  L 0.541082164328657 0.0859106529209624  C 0.601202404809619 0.0286368843069867  0.670340681362726 0  0.748496993987976 0  C 0.826653306613227 0  0.895791583166333 0.0286368843069867  0.955911823647295 0.0859106529209624  L 4.5 3.46219931271478  L 8.04408817635271 0.0859106529209624  C 8.10420841683367 0.0286368843069867  8.17334669338677 0  8.25150300601202 0  C 8.32965931863728 0  8.39879759519038 0.0286368843069867  8.45891783567134 0.0859106529209624  L 8.90981963927856 0.515463917525773  Z " fill-rule="nonzero" fill="#000000" stroke="none" transform="matrix(1 0 0 1 1035 150 )" />
  </g>
</svg>