<?xml version="1.0" encoding="utf-8"?>
<svg version="1.1" xmlns:xlink="http://www.w3.org/1999/xlink" width="199px" height="36px" viewBox="635 298  199 36" xmlns="http://www.w3.org/2000/svg">
  <path d="M 636 303  A 4 4 0 0 1 640 299 L 829 299  A 4 4 0 0 1 833 303 L 833 329  A 4 4 0 0 1 829 333 L 640 333  A 4 4 0 0 1 636 329 L 636 303  Z " fill-rule="nonzero" fill="#f0f0f0" stroke="none" />
  <path d="M 635.5 303  A 4.5 4.5 0 0 1 640 298.5 L 829 298.5  A 4.5 4.5 0 0 1 833.5 303 L 833.5 329  A 4.5 4.5 0 0 1 829 333.5 L 640 333.5  A 4.5 4.5 0 0 1 635.5 329 L 635.5 303  Z " stroke-width="1" stroke="#797979" fill="none" stroke-opacity="0.211764705882353" />
</svg>