<?xml version="1.0" encoding="utf-8"?>
<svg version="1.1" xmlns:xlink="http://www.w3.org/1999/xlink" width="716px" height="608px" xmlns="http://www.w3.org/2000/svg">
  <g transform="matrix(1 0 0 1 -84 -960 )">
    <path d="M 85 965  A 4 4 0 0 1 89 961 L 795 961  A 4 4 0 0 1 799 965 L 799 1563  A 4 4 0 0 1 795 1567 L 89 1567  A 4 4 0 0 1 85 1563 L 85 965  Z " fill-rule="nonzero" fill="#ffffff" stroke="none" />
    <path d="M 84.5 965  A 4.5 4.5 0 0 1 89 960.5 L 795 960.5  A 4.5 4.5 0 0 1 799.5 965 L 799.5 1563  A 4.5 4.5 0 0 1 795 1567.5 L 89 1567.5  A 4.5 4.5 0 0 1 84.5 1563 L 84.5 965  Z " stroke-width="1" stroke="#797979" fill="none" stroke-opacity="0.243137254901961" />
  </g>
</svg>