<?xml version="1.0" encoding="utf-8"?>
<svg version="1.1" xmlns:xlink="http://www.w3.org/1999/xlink" width="716px" height="382px" xmlns="http://www.w3.org/2000/svg">
  <g transform="matrix(1 0 0 1 -64 -38 )">
    <path d="M 65 43  A 4 4 0 0 1 69 39 L 775 39  A 4 4 0 0 1 779 43 L 779 415  A 4 4 0 0 1 775 419 L 69 419  A 4 4 0 0 1 65 415 L 65 43  Z " fill-rule="nonzero" fill="#ffffff" stroke="none" />
    <path d="M 64.5 43  A 4.5 4.5 0 0 1 69 38.5 L 775 38.5  A 4.5 4.5 0 0 1 779.5 43 L 779.5 415  A 4.5 4.5 0 0 1 775 419.5 L 69 419.5  A 4.5 4.5 0 0 1 64.5 415 L 64.5 43  Z " stroke-width="1" stroke="#797979" fill="none" stroke-opacity="0.298039215686275" />
  </g>
</svg>