<?xml version="1.0" encoding="utf-8"?>
<svg version="1.1" xmlns:xlink="http://www.w3.org/1999/xlink" width="12px" height="12px" viewBox="299 249.5  12 12" xmlns="http://www.w3.org/2000/svg">
  <path d="M 305 249.5  C 308.36 249.5  311 252.14  311 255.5  C 311 258.86  308.36 261.5  305 261.5  C 301.64 261.5  299 258.86  299 255.5  C 299 252.14  301.64 249.5  305 249.5  Z " fill-rule="nonzero" fill="#f0f0f0" stroke="none" />
  <path d="M 305 250  C 308.08 250  310.5 252.42  310.5 255.5  C 310.5 258.58  308.08 261  305 261  C 301.92 261  299.5 258.58  299.5 255.5  C 299.5 252.42  301.92 250  305 250  Z " stroke-width="1" stroke="#797979" fill="none" />
  <path d="M 305 258.5  C 303.32 258.5  302 257.18  302 255.5  C 302 253.82  303.32 252.5  305 252.5  C 306.68 252.5  308 253.82  308 255.5  C 308 257.18  306.68 258.5  305 258.5  " fill-rule="nonzero" fill="#797979" stroke="none" />
</svg>