<?xml version="1.0" encoding="utf-8"?>
<svg version="1.1" xmlns:xlink="http://www.w3.org/1999/xlink" width="12px" height="12px" viewBox="467 249.5  12 12" xmlns="http://www.w3.org/2000/svg">
  <path d="M 473 249.5  C 476.36 249.5  479 252.14  479 255.5  C 479 258.86  476.36 261.5  473 261.5  C 469.64 261.5  467 258.86  467 255.5  C 467 252.14  469.64 249.5  473 249.5  Z " fill-rule="nonzero" fill="#ffffff" stroke="none" />
  <path d="M 473 250  C 476.08 250  478.5 252.42  478.5 255.5  C 478.5 258.58  476.08 261  473 261  C 469.92 261  467.5 258.58  467.5 255.5  C 467.5 252.42  469.92 250  473 250  Z " stroke-width="1" stroke="#797979" fill="none" />
  <path d="M 473 258.5  C 471.32 258.5  470 257.18  470 255.5  C 470 253.82  471.32 252.5  473 252.5  C 474.68 252.5  476 253.82  476 255.5  C 476 257.18  474.68 258.5  473 258.5  " fill-rule="nonzero" fill="#797979" stroke="none" />
</svg>