<?xml version="1.0" encoding="utf-8"?>
<svg version="1.1" xmlns:xlink="http://www.w3.org/1999/xlink" width="12px" height="12px" viewBox="742 381  12 12" xmlns="http://www.w3.org/2000/svg">
  <path d="M 748 381  C 751.36 381  754 383.64  754 387  C 754 390.36  751.36 393  748 393  C 744.64 393  742 390.36  742 387  C 742 383.64  744.64 381  748 381  Z " fill-rule="nonzero" fill="#ffffff" stroke="none" />
  <path d="M 748 381.5  C 751.08 381.5  753.5 383.92  753.5 387  C 753.5 390.08  751.08 392.5  748 392.5  C 744.92 392.5  742.5 390.08  742.5 387  C 742.5 383.92  744.92 381.5  748 381.5  Z " stroke-width="1" stroke="#797979" fill="none" />
  <path d="M 748 390  C 746.32 390  745 388.68  745 387  C 745 385.32  746.32 384  748 384  C 749.68 384  751 385.32  751 387  C 751 388.68  749.68 390  748 390  " fill-rule="nonzero" fill="#797979" stroke="none" />
</svg>