<?xml version="1.0" encoding="utf-8"?>
<svg version="1.1" xmlns:xlink="http://www.w3.org/1999/xlink" width="12px" height="12px" viewBox="813 381  12 12" xmlns="http://www.w3.org/2000/svg">
  <path d="M 819 381  C 822.36 381  825 383.64  825 387  C 825 390.36  822.36 393  819 393  C 815.64 393  813 390.36  813 387  C 813 383.64  815.64 381  819 381  Z " fill-rule="nonzero" fill="#f0f0f0" stroke="none" />
  <path d="M 819 381.5  C 822.08 381.5  824.5 383.92  824.5 387  C 824.5 390.08  822.08 392.5  819 392.5  C 815.92 392.5  813.5 390.08  813.5 387  C 813.5 383.92  815.92 381.5  819 381.5  Z " stroke-width="1" stroke="#797979" fill="none" />
  <path d="M 819 390  C 817.32 390  816 388.68  816 387  C 816 385.32  817.32 384  819 384  C 820.68 384  822 385.32  822 387  C 822 388.68  820.68 390  819 390  " fill-rule="nonzero" fill="#797979" stroke="none" />
</svg>