<?xml version="1.0" encoding="utf-8"?>
<svg version="1.1" xmlns:xlink="http://www.w3.org/1999/xlink" width="12px" height="12px" viewBox="429 448  12 12" xmlns="http://www.w3.org/2000/svg">
  <path d="M 435 448  C 438.36 448  441 450.64  441 454  C 441 457.36  438.36 460  435 460  C 431.64 460  429 457.36  429 454  C 429 450.64  431.64 448  435 448  Z " fill-rule="nonzero" fill="#ffffff" stroke="none" />
  <path d="M 435 448.5  C 438.08 448.5  440.5 450.92  440.5 454  C 440.5 457.08  438.08 459.5  435 459.5  C 431.92 459.5  429.5 457.08  429.5 454  C 429.5 450.92  431.92 448.5  435 448.5  Z " stroke-width="1" stroke="#797979" fill="none" />
  <path d="M 435 457  C 433.32 457  432 455.68  432 454  C 432 452.32  433.32 451  435 451  C 436.68 451  438 452.32  438 454  C 438 455.68  436.68 457  435 457  " fill-rule="nonzero" fill="#797979" stroke="none" />
</svg>