<?xml version="1.0" encoding="utf-8"?>
<svg version="1.1" xmlns:xlink="http://www.w3.org/1999/xlink" width="12px" height="12px" viewBox="500 448  12 12" xmlns="http://www.w3.org/2000/svg">
  <path d="M 506 448  C 509.36 448  512 450.64  512 454  C 512 457.36  509.36 460  506 460  C 502.64 460  500 457.36  500 454  C 500 450.64  502.64 448  506 448  Z " fill-rule="nonzero" fill="#ffffff" stroke="none" />
  <path d="M 506 448.5  C 509.08 448.5  511.5 450.92  511.5 454  C 511.5 457.08  509.08 459.5  506 459.5  C 502.92 459.5  500.5 457.08  500.5 454  C 500.5 450.92  502.92 448.5  506 448.5  Z " stroke-width="1" stroke="#797979" fill="none" />
  <path d="M 506 457  C 504.32 457  503 455.68  503 454  C 503 452.32  504.32 451  506 451  C 507.68 451  509 452.32  509 454  C 509 455.68  507.68 457  506 457  " fill-rule="nonzero" fill="#797979" stroke="none" />
</svg>