<?xml version="1.0" encoding="utf-8"?>
<svg version="1.1" xmlns:xlink="http://www.w3.org/1999/xlink" width="1150px" height="893px" xmlns="http://www.w3.org/2000/svg">
  <g>
    <path d="M 1 2  A 1 1 0 0 1 2 1 L 1148 1  A 1 1 0 0 1 1149 2 L 1149 891  A 1 1 0 0 1 1148 892 L 2 892  A 1 1 0 0 1 1 891 L 1 2  Z " fill-rule="nonzero" fill="#bcbcbc" stroke="none" fill-opacity="0.0666666666666667" />
    <path d="M 0.5 2  A 1.5 1.5 0 0 1 2 0.5 L 1148 0.5  A 1.5 1.5 0 0 1 1149.5 2 L 1149.5 891  A 1.5 1.5 0 0 1 1148 892.5 L 2 892.5  A 1.5 1.5 0 0 1 0.5 891 L 0.5 2  Z " stroke-width="1" stroke="#cccccc" fill="none" stroke-opacity="0.129411764705882" />
  </g>
</svg>