<?xml version="1.0" encoding="utf-8"?>
<svg version="1.1" xmlns:xlink="http://www.w3.org/1999/xlink" width="12px" height="12px" viewBox="487 11.5  12 12" xmlns="http://www.w3.org/2000/svg">
  <path d="M 487.5 16.5  A 4.5 4.5 0 0 1 492 12 L 494 12  A 4.5 4.5 0 0 1 498.5 16.5 L 498.5 18.5  A 4.5 4.5 0 0 1 494 23 L 492 23  A 4.5 4.5 0 0 1 487.5 18.5 L 487.5 16.5  Z " fill-rule="nonzero" fill="#ffffff" stroke="none" />
  <path d="M 487.5 16.5  A 4.5 4.5 0 0 1 492 12 L 494 12  A 4.5 4.5 0 0 1 498.5 16.5 L 498.5 18.5  A 4.5 4.5 0 0 1 494 23 L 492 23  A 4.5 4.5 0 0 1 487.5 18.5 L 487.5 16.5  Z " stroke-width="1" stroke="#797979" fill="none" />
  <path d="M 489.571428571429 17.5  L 492.142857142857 20.0714285714286  " stroke-width="2.57142857142857" stroke="#797979" fill="none" />
  <path d="M 492.142857142857 20.0714285714286  L 496.428571428571 14.0714285714286  " stroke-width="2.57142857142857" stroke="#797979" fill="none" />
</svg>