<?xml version="1.0" encoding="utf-8"?>
<svg version="1.1" xmlns:xlink="http://www.w3.org/1999/xlink" width="12px" height="12px" viewBox="476 18.5  12 12" xmlns="http://www.w3.org/2000/svg">
  <path d="M 476.5 23.5  A 4.5 4.5 0 0 1 481 19 L 483 19  A 4.5 4.5 0 0 1 487.5 23.5 L 487.5 25.5  A 4.5 4.5 0 0 1 483 30 L 481 30  A 4.5 4.5 0 0 1 476.5 25.5 L 476.5 23.5  Z " fill-rule="nonzero" fill="#ffffff" stroke="none" />
  <path d="M 476.5 23.5  A 4.5 4.5 0 0 1 481 19 L 483 19  A 4.5 4.5 0 0 1 487.5 23.5 L 487.5 25.5  A 4.5 4.5 0 0 1 483 30 L 481 30  A 4.5 4.5 0 0 1 476.5 25.5 L 476.5 23.5  Z " stroke-width="1" stroke="#797979" fill="none" />
  <path d="M 478.571428571429 24.5  L 481.142857142857 27.0714285714286  " stroke-width="2.57142857142857" stroke="#797979" fill="none" />
  <path d="M 481.142857142857 27.0714285714286  L 485.428571428571 21.0714285714286  " stroke-width="2.57142857142857" stroke="#797979" fill="none" />
</svg>