<?xml version="1.0" encoding="utf-8"?>
<svg version="1.1" xmlns:xlink="http://www.w3.org/1999/xlink" width="197px" height="36px" viewBox="461 522  197 36" xmlns="http://www.w3.org/2000/svg">
  <path d="M 462 527  A 4 4 0 0 1 466 523 L 653 523  A 4 4 0 0 1 657 527 L 657 553  A 4 4 0 0 1 653 557 L 466 557  A 4 4 0 0 1 462 553 L 462 527  Z " fill-rule="nonzero" fill="#ffffff" stroke="none" />
  <path d="M 461.5 527  A 4.5 4.5 0 0 1 466 522.5 L 653 522.5  A 4.5 4.5 0 0 1 657.5 527 L 657.5 553  A 4.5 4.5 0 0 1 653 557.5 L 466 557.5  A 4.5 4.5 0 0 1 461.5 553 L 461.5 527  Z " stroke-width="1" stroke="#797979" fill="none" stroke-opacity="0.305882352941176" />
</svg>