<?xml version="1.0" encoding="utf-8"?>
<svg version="1.1" xmlns:xlink="http://www.w3.org/1999/xlink" width="12px" height="12px" viewBox="483 354.5  12 12" xmlns="http://www.w3.org/2000/svg">
  <path d="M 489 354.5  C 492.36 354.5  495 357.14  495 360.5  C 495 363.86  492.36 366.5  489 366.5  C 485.64 366.5  483 363.86  483 360.5  C 483 357.14  485.64 354.5  489 354.5  Z " fill-rule="nonzero" fill="#ffffff" stroke="none" />
  <path d="M 489 355  C 492.08 355  494.5 357.42  494.5 360.5  C 494.5 363.58  492.08 366  489 366  C 485.92 366  483.5 363.58  483.5 360.5  C 483.5 357.42  485.92 355  489 355  Z " stroke-width="1" stroke="#797979" fill="none" />
  <path d="M 489 363.5  C 487.32 363.5  486 362.18  486 360.5  C 486 358.82  487.32 357.5  489 357.5  C 490.68 357.5  492 358.82  492 360.5  C 492 362.18  490.68 363.5  489 363.5  " fill-rule="nonzero" fill="#797979" stroke="none" />
</svg>