<?xml version="1.0" encoding="utf-8"?>
<svg version="1.1" xmlns:xlink="http://www.w3.org/1999/xlink" width="12px" height="12px" viewBox="599 314.5  12 12" xmlns="http://www.w3.org/2000/svg">
  <path d="M 605 314.5  C 608.36 314.5  611 317.14  611 320.5  C 611 323.86  608.36 326.5  605 326.5  C 601.64 326.5  599 323.86  599 320.5  C 599 317.14  601.64 314.5  605 314.5  Z " fill-rule="nonzero" fill="#f0f0f0" stroke="none" />
  <path d="M 605 315  C 608.08 315  610.5 317.42  610.5 320.5  C 610.5 323.58  608.08 326  605 326  C 601.92 326  599.5 323.58  599.5 320.5  C 599.5 317.42  601.92 315  605 315  Z " stroke-width="1" stroke="#797979" fill="none" />
  <path d="M 605 323.5  C 603.32 323.5  602 322.18  602 320.5  C 602 318.82  603.32 317.5  605 317.5  C 606.68 317.5  608 318.82  608 320.5  C 608 322.18  606.68 323.5  605 323.5  " fill-rule="nonzero" fill="#797979" stroke="none" />
</svg>