<?xml version="1.0" encoding="utf-8"?>
<svg version="1.1" xmlns:xlink="http://www.w3.org/1999/xlink" width="648px" height="587px" xmlns="http://www.w3.org/2000/svg">
  <g transform="matrix(1 0 0 1 -346 -447 )">
    <path d="M 347 452  A 4 4 0 0 1 351 448 L 989 448  A 4 4 0 0 1 993 452 L 993 1029  A 4 4 0 0 1 989 1033 L 351 1033  A 4 4 0 0 1 347 1029 L 347 452  Z " fill-rule="nonzero" fill="#ffffff" stroke="none" />
    <path d="M 346.5 452  A 4.5 4.5 0 0 1 351 447.5 L 989 447.5  A 4.5 4.5 0 0 1 993.5 452 L 993.5 1029  A 4.5 4.5 0 0 1 989 1033.5 L 351 1033.5  A 4.5 4.5 0 0 1 346.5 1029 L 346.5 452  Z " stroke-width="1" stroke="#797979" fill="none" stroke-opacity="0.12156862745098" />
  </g>
</svg>