<?xml version="1.0" encoding="utf-8"?>
<svg version="1.1" xmlns:xlink="http://www.w3.org/1999/xlink" width="184px" height="36px" viewBox="109 164  184 36" xmlns="http://www.w3.org/2000/svg">
  <path d="M 110 169  A 4 4 0 0 1 114 165 L 288 165  A 4 4 0 0 1 292 169 L 292 195  A 4 4 0 0 1 288 199 L 114 199  A 4 4 0 0 1 110 195 L 110 169  Z " fill-rule="nonzero" fill="#f0f0f0" stroke="none" />
  <path d="M 109.5 169  A 4.5 4.5 0 0 1 114 164.5 L 288 164.5  A 4.5 4.5 0 0 1 292.5 169 L 292.5 195  A 4.5 4.5 0 0 1 288 199.5 L 114 199.5  A 4.5 4.5 0 0 1 109.5 195 L 109.5 169  Z " stroke-width="1" stroke="#797979" fill="none" stroke-opacity="0.211764705882353" />
</svg>