<?xml version="1.0" encoding="utf-8"?>
<svg version="1.1" xmlns:xlink="http://www.w3.org/1999/xlink" width="335px" height="183px" xmlns="http://www.w3.org/2000/svg">
  <g transform="matrix(1 0 0 1 -1550 -309 )">
    <path d="M 1551 314  A 4 4 0 0 1 1555 310 L 1880 310  A 4 4 0 0 1 1884 314 L 1884 487  A 4 4 0 0 1 1880 491 L 1555 491  A 4 4 0 0 1 1551 487 L 1551 314  Z " fill-rule="nonzero" fill="#ffffff" stroke="none" />
    <path d="M 1550.5 314  A 4.5 4.5 0 0 1 1555 309.5 L 1880 309.5  A 4.5 4.5 0 0 1 1884.5 314 L 1884.5 487  A 4.5 4.5 0 0 1 1880 491.5 L 1555 491.5  A 4.5 4.5 0 0 1 1550.5 487 L 1550.5 314  Z " stroke-width="1" stroke="#797979" fill="none" stroke-opacity="0.203921568627451" />
  </g>
</svg>