<?xml version="1.0" encoding="utf-8"?>
<svg version="1.1" xmlns:xlink="http://www.w3.org/1999/xlink" width="57px" height="27px" xmlns="http://www.w3.org/2000/svg">
  <defs>
    <mask fill="white" id="clip1563">
      <path d="M 12.2142857142857 27  C 5.37428571428573 27  0 21.06  0 13.5  C 0 5.94000000000002  5.37428571428573 0  12.2142857142857 0  L 44.7857142857143 0  C 49.1131919297252 0  52.85398214393 2.37762800500416  55.0182694365123 6.03887741879453  C 56.2748490551087 8.16458938306801  57 10.7230016065384  57 13.5  C 57 21.06  51.6257142857143 27  44.7857142857143 27  L 12.2142857142857 27  Z " fill-rule="evenodd" />
    </mask>
  </defs>
  <g transform="matrix(1 0 0 1 -548 -247 )">
    <path d="M 12.2142857142857 27  C 5.37428571428573 27  0 21.06  0 13.5  C 0 5.94000000000002  5.37428571428573 0  12.2142857142857 0  L 44.7857142857143 0  C 49.1131919297252 0  52.85398214393 2.37762800500416  55.0182694365123 6.03887741879453  C 56.2748490551087 8.16458938306801  57 10.7230016065384  57 13.5  C 57 21.06  51.6257142857143 27  44.7857142857143 27  L 12.2142857142857 27  Z " fill-rule="nonzero" fill="#ff6666" stroke="none" transform="matrix(1 0 0 1 548 247 )" />
    <path d="M 12.2142857142857 27  C 5.37428571428573 27  0 21.06  0 13.5  C 0 5.94000000000002  5.37428571428573 0  12.2142857142857 0  L 44.7857142857143 0  C 49.1131919297252 0  52.85398214393 2.37762800500416  55.0182694365123 6.03887741879453  C 56.2748490551087 8.16458938306801  57 10.7230016065384  57 13.5  C 57 21.06  51.6257142857143 27  44.7857142857143 27  L 12.2142857142857 27  Z " stroke-width="2" stroke="#d9d9d9" fill="none" transform="matrix(1 0 0 1 548 247 )" mask="url(#clip1563)" />
  </g>
</svg>