<?xml version="1.0" encoding="utf-8"?>
<svg version="1.1" xmlns:xlink="http://www.w3.org/1999/xlink" width="24px" height="24px" xmlns="http://www.w3.org/2000/svg">
  <defs>
    <path d="M 0 0  L 1024 0  L 1024 1024  L 0 1024  Z " fill-rule="evenodd" fill="black" id="path1566" />
    <clipPath id="clip1567">
      <use xlink:href="#path1566" />
    </clipPath>
    <filter x="-50.00%" y="-50.00%" width="200.00%" height="200.00%" filterUnits="objectBoundingBox" id="filter1568">
      <feColorMatrix type="matrix" values="1 0 0 0 0  0 1 0 0 0  0 0 1 0 0  0 0 0 1 0  " in="SourceGraphic" />
    </filter>
  </defs>
  <g transform="matrix(1 0 0 1 -1012 -445 )">
    <g transform="matrix(0.0234375 0 0 0.0234375 1012 445 )" clip-path="url(#clip1567)" filter="url(#filter1568)">
      <path d="M668.506 478.509l-42.425 42.425L697.146 592H449.573v60H842l-60-60zM449.573 688.509l60 60L623.067 862l42.425-42.426-71.065-71.065H842v-60H534.427z" fill="#2c2c2c" p-id="3319"></path>
      <path d="M182 162v700h200v-60H242V222h540v250h60V162z" fill="#2c2c2c" p-id="3320"></path>
      <path d="M322 302h380v60H322zM322 422h260v60H322z" fill="#2c2c2c" p-id="3321"></path>
    </g>
  </g>
</svg>