<?xml version="1.0" encoding="utf-8"?>
<svg version="1.1" xmlns:xlink="http://www.w3.org/1999/xlink" width="208px" height="36px" viewBox="1652 382  208 36" xmlns="http://www.w3.org/2000/svg">
  <path d="M 1653 387  A 4 4 0 0 1 1657 383 L 1855 383  A 4 4 0 0 1 1859 387 L 1859 413  A 4 4 0 0 1 1855 417 L 1657 417  A 4 4 0 0 1 1653 413 L 1653 387  Z " fill-rule="nonzero" fill="#ffffff" stroke="none" />
  <path d="M 1652.5 387  A 4.5 4.5 0 0 1 1657 382.5 L 1855 382.5  A 4.5 4.5 0 0 1 1859.5 387 L 1859.5 413  A 4.5 4.5 0 0 1 1855 417.5 L 1657 417.5  A 4.5 4.5 0 0 1 1652.5 413 L 1652.5 387  Z " stroke-width="1" stroke="#797979" fill="none" stroke-opacity="0.270588235294118" />
</svg>