<?xml version="1.0" encoding="utf-8"?>
<svg version="1.1" xmlns:xlink="http://www.w3.org/1999/xlink" width="12px" height="12px" viewBox="113 324  12 12" xmlns="http://www.w3.org/2000/svg">
  <path d="M 119 324  C 122.36 324  125 326.64  125 330  C 125 333.36  122.36 336  119 336  C 115.64 336  113 333.36  113 330  C 113 326.64  115.64 324  119 324  Z " fill-rule="nonzero" fill="#f0f0f0" stroke="none" />
  <path d="M 119 324.5  C 122.08 324.5  124.5 326.92  124.5 330  C 124.5 333.08  122.08 335.5  119 335.5  C 115.92 335.5  113.5 333.08  113.5 330  C 113.5 326.92  115.92 324.5  119 324.5  Z " stroke-width="1" stroke="#797979" fill="none" />
  <path d="M 119 333  C 117.32 333  116 331.68  116 330  C 116 328.32  117.32 327  119 327  C 120.68 327  122 328.32  122 330  C 122 331.68  120.68 333  119 333  " fill-rule="nonzero" fill="#797979" stroke="none" />
</svg>