<?xml version="1.0" encoding="utf-8"?>
<svg version="1.1" xmlns:xlink="http://www.w3.org/1999/xlink" width="12px" height="12px" viewBox="172 324  12 12" xmlns="http://www.w3.org/2000/svg">
  <path d="M 178 324  C 181.36 324  184 326.64  184 330  C 184 333.36  181.36 336  178 336  C 174.64 336  172 333.36  172 330  C 172 326.64  174.64 324  178 324  Z " fill-rule="nonzero" fill="#ffffff" stroke="none" />
  <path d="M 178 324.5  C 181.08 324.5  183.5 326.92  183.5 330  C 183.5 333.08  181.08 335.5  178 335.5  C 174.92 335.5  172.5 333.08  172.5 330  C 172.5 326.92  174.92 324.5  178 324.5  Z " stroke-width="1" stroke="#797979" fill="none" />
  <path d="M 178 333  C 176.32 333  175 331.68  175 330  C 175 328.32  176.32 327  178 327  C 179.68 327  181 328.32  181 330  C 181 331.68  179.68 333  178 333  " fill-rule="nonzero" fill="#797979" stroke="none" />
</svg>