<?xml version="1.0" encoding="utf-8"?>
<svg version="1.1" xmlns:xlink="http://www.w3.org/1999/xlink" width="12px" height="12px" viewBox="571 394  12 12" xmlns="http://www.w3.org/2000/svg">
  <path d="M 577 394  C 580.36 394  583 396.64  583 400  C 583 403.36  580.36 406  577 406  C 573.64 406  571 403.36  571 400  C 571 396.64  573.64 394  577 394  Z " fill-rule="nonzero" fill="#ffffff" stroke="none" />
  <path d="M 577 394.5  C 580.08 394.5  582.5 396.92  582.5 400  C 582.5 403.08  580.08 405.5  577 405.5  C 573.92 405.5  571.5 403.08  571.5 400  C 571.5 396.92  573.92 394.5  577 394.5  Z " stroke-width="1" stroke="#797979" fill="none" />
  <path d="M 577 403  C 575.32 403  574 401.68  574 400  C 574 398.32  575.32 397  577 397  C 578.68 397  580 398.32  580 400  C 580 401.68  578.68 403  577 403  " fill-rule="nonzero" fill="#797979" stroke="none" />
</svg>