<?xml version="1.0" encoding="utf-8"?>
<svg version="1.1" xmlns:xlink="http://www.w3.org/1999/xlink" width="366px" height="126px" viewBox="630 1194  366 126" xmlns="http://www.w3.org/2000/svg">
  <path d="M 631 1199  A 4 4 0 0 1 635 1195 L 991 1195  A 4 4 0 0 1 995 1199 L 995 1315  A 4 4 0 0 1 991 1319 L 635 1319  A 4 4 0 0 1 631 1315 L 631 1199  Z " fill-rule="nonzero" fill="#f0f0f0" stroke="none" />
  <path d="M 630.5 1199  A 4.5 4.5 0 0 1 635 1194.5 L 991 1194.5  A 4.5 4.5 0 0 1 995.5 1199 L 995.5 1315  A 4.5 4.5 0 0 1 991 1319.5 L 635 1319.5  A 4.5 4.5 0 0 1 630.5 1315 L 630.5 1199  Z " stroke-width="1" stroke="#797979" fill="none" stroke-opacity="0.364705882352941" />
</svg>