<?xml version="1.0" encoding="utf-8"?>
<svg version="1.1" xmlns:xlink="http://www.w3.org/1999/xlink" width="85px" height="25px" viewBox="905 868  85 25" xmlns="http://www.w3.org/2000/svg">
  <path d="M 906 873  A 4 4 0 0 1 910 869 L 985 869  A 4 4 0 0 1 989 873 L 989 888  A 4 4 0 0 1 985 892 L 910 892  A 4 4 0 0 1 906 888 L 906 873  Z " fill-rule="nonzero" fill="#f0f0f0" stroke="none" />
  <path d="M 905.5 873  A 4.5 4.5 0 0 1 910 868.5 L 985 868.5  A 4.5 4.5 0 0 1 989.5 873 L 989.5 888  A 4.5 4.5 0 0 1 985 892.5 L 910 892.5  A 4.5 4.5 0 0 1 905.5 888 L 905.5 873  Z " stroke-width="1" stroke="#797979" fill="none" stroke-opacity="0.270588235294118" />
</svg>