<?xml version="1.0" encoding="utf-8"?>
<svg version="1.1" xmlns:xlink="http://www.w3.org/1999/xlink" width="12px" height="12px" viewBox="685 1111.5  12 12" xmlns="http://www.w3.org/2000/svg">
  <path d="M 691 1111.5  C 694.36 1111.5  697 1114.14  697 1117.5  C 697 1120.86  694.36 1123.5  691 1123.5  C 687.64 1123.5  685 1120.86  685 1117.5  C 685 1114.14  687.64 1111.5  691 1111.5  Z " fill-rule="nonzero" fill="#f0f0f0" stroke="none" />
  <path d="M 691 1112  C 694.08 1112  696.5 1114.42  696.5 1117.5  C 696.5 1120.58  694.08 1123  691 1123  C 687.92 1123  685.5 1120.58  685.5 1117.5  C 685.5 1114.42  687.92 1112  691 1112  Z " stroke-width="1" stroke="#797979" fill="none" />
  <path d="M 691 1120.5  C 689.32 1120.5  688 1119.18  688 1117.5  C 688 1115.82  689.32 1114.5  691 1114.5  C 692.68 1114.5  694 1115.82  694 1117.5  C 694 1119.18  692.68 1120.5  691 1120.5  " fill-rule="nonzero" fill="#797979" stroke="none" />
</svg>