<?xml version="1.0" encoding="utf-8"?>
<svg version="1.1" xmlns:xlink="http://www.w3.org/1999/xlink" width="55px" height="29px" viewBox="275 919  55 29" xmlns="http://www.w3.org/2000/svg">
  <path d="M 276 924  A 4 4 0 0 1 280 920 L 325 920  A 4 4 0 0 1 329 924 L 329 943  A 4 4 0 0 1 325 947 L 280 947  A 4 4 0 0 1 276 943 L 276 924  Z " fill-rule="nonzero" fill="#f0f0f0" stroke="none" />
  <path d="M 275.5 924  A 4.5 4.5 0 0 1 280 919.5 L 325 919.5  A 4.5 4.5 0 0 1 329.5 924 L 329.5 943  A 4.5 4.5 0 0 1 325 947.5 L 280 947.5  A 4.5 4.5 0 0 1 275.5 943 L 275.5 924  Z " stroke-width="1" stroke="#797979" fill="none" stroke-opacity="0.317647058823529" />
</svg>