<?xml version="1.0" encoding="utf-8"?>
<svg version="1.1" xmlns:xlink="http://www.w3.org/1999/xlink" width="12px" height="12px" viewBox="449 1052.5  12 12" xmlns="http://www.w3.org/2000/svg">
  <path d="M 455 1052.5  C 458.36 1052.5  461 1055.14  461 1058.5  C 461 1061.86  458.36 1064.5  455 1064.5  C 451.64 1064.5  449 1061.86  449 1058.5  C 449 1055.14  451.64 1052.5  455 1052.5  Z " fill-rule="nonzero" fill="#f0f0f0" stroke="none" />
  <path d="M 455 1053  C 458.08 1053  460.5 1055.42  460.5 1058.5  C 460.5 1061.58  458.08 1064  455 1064  C 451.92 1064  449.5 1061.58  449.5 1058.5  C 449.5 1055.42  451.92 1053  455 1053  Z " stroke-width="1" stroke="#797979" fill="none" />
  <path d="M 455 1061.5  C 453.32 1061.5  452 1060.18  452 1058.5  C 452 1056.82  453.32 1055.5  455 1055.5  C 456.68 1055.5  458 1056.82  458 1058.5  C 458 1060.18  456.68 1061.5  455 1061.5  " fill-rule="nonzero" fill="#797979" stroke="none" />
</svg>