<?xml version="1.0" encoding="utf-8"?>
<svg version="1.1" xmlns:xlink="http://www.w3.org/1999/xlink" width="611px" height="73px" xmlns="http://www.w3.org/2000/svg">
  <g transform="matrix(1 0 0 1 -645 -844 )">
    <path d="M 646 849  A 4 4 0 0 1 650 845 L 1251 845  A 4 4 0 0 1 1255 849 L 1255 912  A 4 4 0 0 1 1251 916 L 650 916  A 4 4 0 0 1 646 912 L 646 849  Z " fill-rule="nonzero" fill="#ffffff" stroke="none" fill-opacity="0" />
    <path d="M 645.5 849  A 4.5 4.5 0 0 1 650 844.5 L 1251 844.5  A 4.5 4.5 0 0 1 1255.5 849 L 1255.5 912  A 4.5 4.5 0 0 1 1251 916.5 L 650 916.5  A 4.5 4.5 0 0 1 645.5 912 L 645.5 849  Z " stroke-width="1" stroke="#797979" fill="none" stroke-opacity="0.192156862745098" />
  </g>
</svg>