<?xml version="1.0" encoding="utf-8"?>
<svg version="1.1" xmlns:xlink="http://www.w3.org/1999/xlink" width="12px" height="12px" viewBox="664 875.5  12 12" xmlns="http://www.w3.org/2000/svg">
  <path d="M 670 875.5  C 673.36 875.5  676 878.14  676 881.5  C 676 884.86  673.36 887.5  670 887.5  C 666.64 887.5  664 884.86  664 881.5  C 664 878.14  666.64 875.5  670 875.5  Z " fill-rule="nonzero" fill="#f0f0f0" stroke="none" />
  <path d="M 670 876  C 673.08 876  675.5 878.42  675.5 881.5  C 675.5 884.58  673.08 887  670 887  C 666.92 887  664.5 884.58  664.5 881.5  C 664.5 878.42  666.92 876  670 876  Z " stroke-width="1" stroke="#797979" fill="none" />
  <path d="M 670 884.5  C 668.32 884.5  667 883.18  667 881.5  C 667 879.82  668.32 878.5  670 878.5  C 671.68 878.5  673 879.82  673 881.5  C 673 883.18  671.68 884.5  670 884.5  " fill-rule="nonzero" fill="#797979" stroke="none" />
</svg>