<?xml version="1.0" encoding="utf-8"?>
<svg version="1.1" xmlns:xlink="http://www.w3.org/1999/xlink" width="17px" height="10px" preserveAspectRatio="xMinYMid meet" viewBox="58 28  17 8" xmlns="http://www.w3.org/2000/svg">
  <path d="M 60 32  L 65 32  A 5 5 0 0 1 70 37 L 70 365  A 5 5 0 0 1 65 370 L 35 370  A 5 5 0 0 0 30 375 L 30 384  A 5 5 0 0 0 35 389 L 39 389  " stroke-width="2" stroke="#0099cc" fill="none" />
  <path d="M 65.1071067811866 36.2928932188135  L 60.8142135623731 32  L 65.1071067811866 27.7071067811866  L 63.6928932188135 26.2928932188135  L 58.6928932188135 31.2928932188135  L 57.9857864376269 32  L 58.6928932188135 32.7071067811865  L 63.6928932188135 37.7071067811865  L 65.1071067811866 36.2928932188135  Z M 33.8928932188135 384.707106781187  L 38.1857864376269 389  L 33.8928932188135 393.292893218813  L 35.3071067811865 394.707106781187  L 40.3071067811865 389.707106781187  L 41.0142135623731 389  L 40.3071067811865 388.292893218813  L 35.3071067811865 383.292893218813  L 33.8928932188135 384.707106781187  Z " fill-rule="nonzero" fill="#0099cc" stroke="none" />
</svg>