<?xml version="1.0" encoding="utf-8"?>
<svg version="1.1" xmlns:xlink="http://www.w3.org/1999/xlink" width="300px" height="170px" xmlns="http://www.w3.org/2000/svg">
  <g transform="matrix(1 0 0 1 -590 -614 )">
    <path d="M 591 625  A 10 10 0 0 1 601 615 L 879 615  A 10 10 0 0 1 889 625 L 889 773  A 10 10 0 0 1 879 783 L 601 783  A 10 10 0 0 1 591 773 L 591 625  Z " fill-rule="nonzero" fill="#ffffff" stroke="none" />
    <path d="M 590.5 625  A 10.5 10.5 0 0 1 601 614.5 L 879 614.5  A 10.5 10.5 0 0 1 889.5 625 L 889.5 773  A 10.5 10.5 0 0 1 879 783.5 L 601 783.5  A 10.5 10.5 0 0 1 590.5 773 L 590.5 625  Z " stroke-width="1" stroke="#797979" fill="none" stroke-opacity="0.325490196078431" />
  </g>
</svg>