<?xml version="1.0" encoding="utf-8"?>
<svg version="1.1" xmlns:xlink="http://www.w3.org/1999/xlink" width="55px" height="55px" xmlns="http://www.w3.org/2000/svg">
  <g transform="matrix(1 0 0 1 -299 -499 )">
    <path d="M 326.5 499.5  C 341.62 499.5  353.5 511.38  353.5 526.5  C 353.5 541.62  341.62 553.5  326.5 553.5  C 311.38 553.5  299.5 541.62  299.5 526.5  C 299.5 511.38  311.38 499.5  326.5 499.5  Z " fill-rule="nonzero" fill="#facd91" stroke="none" fill-opacity="0.16078431372549" />
    <path d="M 326.5 499.5  C 341.62 499.5  353.5 511.38  353.5 526.5  C 353.5 541.62  341.62 553.5  326.5 553.5  C 311.38 553.5  299.5 541.62  299.5 526.5  C 299.5 511.38  311.38 499.5  326.5 499.5  Z " stroke-width="1" stroke="#797979" fill="none" stroke-opacity="0.243137254901961" />
  </g>
</svg>