<?xml version="1.0" encoding="utf-8"?>
<svg version="1.1" xmlns:xlink="http://www.w3.org/1999/xlink" width="44px" height="44px" xmlns="http://www.w3.org/2000/svg">
  <g transform="matrix(1 0 0 1 -304 -504 )">
    <path d="M 326 504.5  C 338.04 504.5  347.5 513.96  347.5 526  C 347.5 538.04  338.04 547.5  326 547.5  C 313.96 547.5  304.5 538.04  304.5 526  C 304.5 513.96  313.96 504.5  326 504.5  Z " fill-rule="nonzero" fill="#ffffff" stroke="none" />
    <path d="M 326 504.5  C 338.04 504.5  347.5 513.96  347.5 526  C 347.5 538.04  338.04 547.5  326 547.5  C 313.96 547.5  304.5 538.04  304.5 526  C 304.5 513.96  313.96 504.5  326 504.5  Z " stroke-width="1" stroke="#797979" fill="none" stroke-opacity="0.294117647058824" />
  </g>
</svg>