<?xml version="1.0" encoding="utf-8"?>
<svg version="1.1" xmlns:xlink="http://www.w3.org/1999/xlink" width="12px" height="12px" viewBox="422 184.5  12 12" xmlns="http://www.w3.org/2000/svg">
  <path d="M 428 184.5  C 431.36 184.5  434 187.14  434 190.5  C 434 193.86  431.36 196.5  428 196.5  C 424.64 196.5  422 193.86  422 190.5  C 422 187.14  424.64 184.5  428 184.5  Z " fill-rule="nonzero" fill="#f0f0f0" stroke="none" />
  <path d="M 428 185  C 431.08 185  433.5 187.42  433.5 190.5  C 433.5 193.58  431.08 196  428 196  C 424.92 196  422.5 193.58  422.5 190.5  C 422.5 187.42  424.92 185  428 185  Z " stroke-width="1" stroke="#797979" fill="none" />
  <path d="M 428 193.5  C 426.32 193.5  425 192.18  425 190.5  C 425 188.82  426.32 187.5  428 187.5  C 429.68 187.5  431 188.82  431 190.5  C 431 192.18  429.68 193.5  428 193.5  " fill-rule="nonzero" fill="#797979" stroke="none" />
</svg>