<?xml version="1.0" encoding="utf-8"?>
<svg version="1.1" xmlns:xlink="http://www.w3.org/1999/xlink" width="20px" height="20px" xmlns="http://www.w3.org/2000/svg">
  <defs>
    <path d="M 0 0  L 1024 0  L 1024 1024  L 0 1024  Z " fill-rule="evenodd" fill="black" id="path669" />
    <clipPath id="clip670">
      <use xlink:href="#path669" />
    </clipPath>
    <filter x="-50.00%" y="-50.00%" width="200.00%" height="200.00%" filterUnits="objectBoundingBox" id="filter671">
      <feColorMatrix type="matrix" values="1 0 0 0 0  0 1 0 0 0  0 0 1 0 0  0 0 0 1 0  " in="SourceGraphic" />
    </filter>
  </defs>
  <g transform="matrix(1 0 0 1 -1110 -307 )">
    <g transform="matrix(0.01953125 0 0 0.01953125 1110 307 )" clip-path="url(#clip670)" filter="url(#filter671)">
      <path d="M826.4 954.4c-6.4 0-12.8-1.7-18.6-5L516.2 781c-10.8-6.2-14.5-20.1-8.3-30.9 6.3-10.8 20.1-14.5 30.9-8.3l281 162.3 94.8-786.6L116.5 498 395 658.8c10.8 6.2 14.5 20.1 8.3 30.9-6.2 10.8-20.1 14.6-30.9 8.3L80.7 529.6C69 522.8 62 510.8 62 497.3c0-13.5 7-25.6 18.7-32.3l1.6-0.8L906.7 71.1c11.5-6.2 25-6 36.3 0.5 11.7 6.7 18.6 18.8 18.6 32.3l-0.2 2.7-97.9 812.1c-0.5 12.8-7.4 24.2-18.6 30.6-5.7 3.4-12.1 5.1-18.5 5.1z" fill="#30aa9e" p-id="8656"></path>
      <path d="M436.5 927.5c-12.5 0-22.6-10.1-22.6-22.6V749.2c0-11.7 4-23.3 11.2-32.5L916.7 91.1c7.7-9.8 21.9-11.5 31.8-3.8 9.8 7.7 11.5 22 3.8 31.8L460.7 744.6c-1 1.3-1.6 2.9-1.6 4.6v155.7c0 12.5-10.1 22.6-22.6 22.6z" fill="#30aa9e" p-id="8657"></path>
    </g>
  </g>
</svg>